<svg width="170" height="70" fill="none" xmlns="http://www.w3.org/2000/svg"><path d="M10.898 10.81h9.672v19.647h21.328V10.81h9.672v48.4h-9.672V39.247H20.57V59.21h-9.672v-48.4Z" fill="#000"/><path fill-rule="evenodd" clip-rule="evenodd" d="M83.57 60c13.784 0 24.957-10.116 24.957-25S97.354 10 83.57 10c-13.783 0-24.957 9.576-24.957 25S69.787 60 83.57 60Zm-.02-8.949c8.393 0 14.978-6.494 14.978-16.05 0-9.557-6.585-16.052-14.977-16.052S68.524 25.097 68.524 35c0 9.903 6.635 16.051 15.027 16.051Z" fill="#000"/><path d="M159.105 44.96C155.523 54.218 146.965 60 136.977 60c-13.211 0-23.922-9.576-23.922-25s10.711-25 23.922-25c9.824 0 18.265 5.593 21.949 14.581l-9.41 1.726c-2.489-4.586-6.985-7.358-12.215-7.358-8.008 0-14.336 6.149-14.336 16.051 0 9.903 6.328 16.05 14.336 16.05 5.32 0 9.875-2.864 12.336-7.59l9.468 1.5Z" fill="#000"/></svg>