<svg width="229" height="79" fill="none" xmlns="http://www.w3.org/2000/svg"><path d="M51.125 53.641c-.183 0-.305.122-.305.305s.122.305.305.305.305-.122.305-.305c0-.122-.122-.305-.305-.305Zm1.039 2.986c0 .183.122.305.305.305s.305-.122.305-.305-.122-.305-.305-.305-.305.122-.305.305Zm-1.039-.305c-.183 0-.305.122-.305.305s.122.305.305.305.305-.122.305-.305-.122-.305-.305-.305Zm2.377.305c0 .183.122.305.305.305.182 0 .304-.122.304-.305s-.121-.305-.304-.305-.305.122-.305.305ZM50.7 50.654l.06.792-.67-.06v.852l.67-.121-.06.792h.853l-.061-.792.67.122v-.854l-.67.061.06-.792H50.7Zm.976 2.744v2.742h2.62c-.182-1.402-1.28-2.499-2.62-2.742Zm-.551 1.584c-.183 0-.305.122-.305.305s.122.305.305.305.305-.122.305-.305-.122-.305-.305-.305Zm1.097 3.474c-.061 0-.305.671-.061 1.159.122.243.366.365.61.304.243-.06.304-.304.304-.426-.06-.549-.487-1.037-.853-1.037Zm-2.192 0c-.365 0-.792.488-.792 1.037 0 .182.061.365.305.426s.488-.06.61-.304c.121-.488-.061-1.159-.122-1.159Zm1.096-.366c-.244 0-.975 1.402-.426 2.072a.553.553 0 0 0 .426.183c.183 0 .366-.06.427-.182.488-.671-.183-2.073-.427-2.073Z" fill="#000"/><path d="M47.895 56.627c0-.305.06-.549.06-.549h2.622v-2.742a3.339 3.339 0 0 0-2.621 2.499c-.061.122-.305.182-.488.122-.975-.122-2.925-.488-2.925-.915 0-.61.426-.853.792-.853.548 0 1.158.305 1.646-.427-1.768.061-.427-2.499-1.89-2.986.061.67 0 1.828-.244 2.438 0 0-.548-.549-1.097-.793.061.488-.06 1.463-.244 1.95 0 0-.61-.609-1.28-.791.61.853.61 2.133.427 2.864-.06.244.122.488.549.488.731-.061 3.17.06 4.205.487.305.122.61.305.732.549.121.305.365.792.731 1.036.183-.548.792-1.158 1.219-1.097.122 0 .244.244.305.427.06-.183.366-.732.67-.732.305 0 .61.427.732.793.06-.244.182-.488.304-.488.427 0 .976.366 1.158 1.036.183-.183.915-1.158.976-1.828h-6.34v-.488Z" fill="#000"/><path d="M49.48 56.627c0 .183.122.305.305.305s.305-.122.305-.305-.122-.305-.305-.305-.304.122-.304.305Zm-1.28 0c0 .183.121.305.304.305s.305-.122.305-.305-.122-.305-.305-.305-.305.122-.305.305Zm-25.232 1.341c-.122.122-.365.793-.243 1.22.06.182.121.243.304.243s.244-.122.305-.305c.061-.426-.244-1.097-.366-1.158Zm2.253 1.89c-.122.183-.304.244-.365.305.06.06.243.183.426.183a.466.466 0 0 0 .305-.122c.183-.366 0-.67-.06-.793-.062.122-.123.305-.306.427Zm-.853-.853c.244-.244.305-.427.244-.549-.061-.183-.61-.731-1.219-1.402 0 .122-.061.244-.061.366.427.61.61 1.219.488 1.767.06.061.06.061.122.061.121.122.304-.06.426-.243Zm.852.06c0-.122 0-.183-.061-.244h-.061c-.061 0-.122.122-.183.183s-.122.183-.244.305l-.305.305c-.122.06-.182.183-.182.243v.061c.06.061.06.061.121.061s.244-.06.549-.365c.305-.305.366-.427.366-.549Zm-4.02-3.23s-.06.06-.122.183c.122 0 .305 0 .427.06v-.426c-.122 0-.244.122-.305.183Z" fill="#000"/><path d="M22.845 56.018s1.28 1.097 1.706 1.524c.122.122.244.122.366.06.06-.06.183-.06.305-.121 1.28-.427 3.352-.488 4.083-.488.488 0 .61-.243.549-.487-.122-.732-.183-2.012.427-2.865-.67.244-1.28.793-1.28.793-.244-.427-.305-1.463-.244-1.95-.61.182-1.097.791-1.097.791-.244-.61-.305-1.767-.244-2.438-1.463.488-.122 3.109-1.89 2.987.488.731 1.098.427 1.646.427.366 0 .854.243.793.853-.061.427-2.439.914-3.414.914-.67 0-1.158-.183-1.462-.67-.183-.244-.305-.305-.488-.305-.244.06-.488.244-.488.853 0 .366.183 1.22.61 1.22.244.06.244-.671.122-1.098Zm-2.44-.366h.183c-.183.244-.183.426-.122.487.122.122.183-.122.488-.426.305-.305.487-.427.427-.549-.061-.06-.244-.06-.488.122 0-.06.06-.122 0-.183-.122-.305-.549-.67-.853-.67h-.122c.122-.183.06-.305 0-.427-.061-.06-.122 0-.244.122 0-.061 0-.183-.061-.305-.366-.61-2.438-2.56-2.926-2.742-.304-.122-.365.06-.365.06s-.183.122-.061.366c.183.488 2.194 2.5 2.742 2.865.122.06.244.122.305.06-.122.123-.183.123-.06.245.06.06.182.121.365 0v.121c.122.244.488.732.792.854Zm1.467 1.462c0-.182-.366-.548-.854-.548-.67 0-.975.427-.975.67 0 .427.427.488.549.488.426 0 1.219-.488 1.28-.61Zm-.612 1.036c-.183.245-.243.489-.183.671.061.244.305.366.55.366a.75.75 0 0 0 .609-.305c.243-.426.243-1.34.183-1.401-.244 0-.854.243-1.159.67Zm-5.973-9.508c-.182-.183-.609.122-.853-.06.122-.61.549 0 .915-.366.182-.183.06-.427 0-.488-.183.183-.427.122-.488 0 .426-1.097-.427-2.255-1.28-2.133.183.244.244 1.036.122 1.219.305.244.122.792-.244.61-.244-.123-.67-.732-.183-1.098 0-.183-.305-.183-.548.183.182-.67-1.098-.488-1.341-.305-.122.305-.305 1.585.365 1.341-.365.305-.304.61-.183.61.427-.488.976-.122 1.098.122.183.365-.366.61-.61.304-.183.061-.975.061-1.158-.122-.122.854 1.097 1.768 2.133 1.28.122 0 .183.305 0 .488.061.122.366.183.488 0 .427-.427-.183-.853.366-.975.122.244-.122.67.06.853.305.305.671-.305 1.098-.305 0-.487.548-.853.243-1.158Zm-3.169-1.402s-.183-.121.061-.426c.244-.244.366-.061.366-.061s.244.487.305.731c-.244 0-.732-.244-.732-.244Zm1.95 1.524c-.121 0-.426.305-.548.122l-.67-.67.73-.732.671.67c.061.184-.182.488-.182.61Zm1.402 1.098c-.06 0-.122 0-.183.06-.06.062-.06.184-.06.306 0 .121.121.243.243.365.061.183.244.244.366.244.061 0 .122 0 .183-.06.122-.123.06-.489-.122-.671-.122-.122-.305-.244-.427-.244Z" fill="#000"/><path d="m13.518 47.85-.366.366s.366.487.67.305c.184-.305-.304-.67-.304-.67Zm35.596-1.828c0 .121-.488.365-.854-.305a3.678 3.678 0 0 1-.975-.305c.427.853.793 1.585 1.402 1.95.914.549 2.316.427 2.743-.183-.793-.426-1.707-1.523-2.194-2.56-.122.244-.305.671-.427.976.06.122.183.305.305.427Zm8.472-13.348c.975-.427 2.377-1.402 3.047-2.011.061.122.305.67-.427 1.28-.548.426-1.645.975-2.438 1.28-.365.548-1.097 1.158-2.072 1.828 1.95-.305 4.267-1.097 5.425-2.194 2.133-2.133 1.036-4.693.731-5.303-1.402 1.768-4.083 3.596-6.582 4.572.853.121 1.706.304 2.316.548ZM56 28.773c1.28-1.036 2.622-3.108 2.866-3.84.304.183.426.793.06 1.463-.67 1.159-1.889 2.195-2.925 3.048-.061.731-.366 1.646-.731 2.316 1.523-1.036 3.29-2.56 4.083-3.596 1.036-1.34 1.463-2.682 1.28-4.023.061-1.523-1.036-3.047-1.463-3.413-.304 1.646-1.95 4.45-3.413 6.034.122.549.244 1.341.244 2.011Zm-.972 9.63c.304.366.61.792.853 1.158 1.158.244 2.56.183 2.56.183s-.061.61-.854.67c-.365 0-1.462-.183-1.889-.305-.183.061-1.036.305-1.89.427 1.22.427 2.987.853 4.084.853h.305c1.768-.182 2.682-1.828 2.743-2.742-.549.122-1.463.183-2.377.183-.854 0-2.377-.061-3.535-.427Zm7.374-4.632c-1.585.853-4.389 1.707-6.644 1.707.549.365 1.097.731 1.463 1.097.914-.061 2.194-.366 2.926-.61 0 .122 0 .732-.854.976-.61.182-1.463.182-2.133.182-.549.366-1.341.67-2.011.915.609.06 1.401.122 2.072.122 1.158 0 2.255-.122 2.926-.366.609-.183 2.62-1.036 2.255-4.023Zm-8.536 8.411c.67.305 1.402.548 2.011.61 0 0-.122.609-1.036.487-.548-.06-1.158-.488-1.28-.549-.426.061-1.28.061-1.584 0 1.036.732 2.62 1.585 3.961 1.707h.183c1.402 0 2.5-1.402 2.804-2.072-1.402 0-3.84-.61-5.303-1.402.061.244.183.731.244 1.219Zm-2.434 1.89c.366.426.976.67.976.67s-.183.305-.549.305c-.122 0-.244-.061-.366-.122-.243-.122-.61-.548-.61-.548-.487-.062-.913-.122-1.34-.244.731.914 1.95 2.072 3.291 2.377.183.06.366.06.61.06 1.158 0 2.133-.853 2.377-1.401-1.341-.183-3.291-1.22-4.267-2.194 0 .365-.06.792-.122 1.097Zm-8.717 14.932c.67 0 1.097-.244 1.402-.914-.914.426-1.89.183-3.718-.366 0 0-.67.305-1.097.366 1.097.305 2.681.853 2.925 1.463.122.487-.183.61-.183.61-.61-.732-1.34-1.159-2.925-1.646 0 .304-.061.487-.061.487s-.305.061-1.036-.06c.61.487 2.072 1.767 2.255 3.108.122.914-.549.975-.549.975-.06-1.402-.67-2.255-2.011-3.657 0 0-.244.305-.488.487 0 0-.487-.06-.853-.365.183 1.828.244 6.217.122 6.887a1.16 1.16 0 0 1-.366.731s-.304-.182-.365-.73c-.122-.732 0-5.12.121-6.888a4.346 4.346 0 0 1-.853.365c-.305-.182-.487-.487-.487-.487-1.28 1.402-1.89 2.316-2.012 3.657 0 0-.61-.061-.548-.975.182-1.341 1.645-2.621 2.255-3.109-.67.122-1.036.061-1.036.061s-.061-.183-.061-.487c-1.585.487-2.256.914-2.926 1.645 0 0-.305-.06-.183-.61.244-.609 1.829-1.096 2.926-1.462-.366-.061-1.097-.366-1.097-.366-1.768.549-2.804.793-3.718.366.244.67.731.914 1.402.914-.854.305-1.646 1.158-1.89 2.011.61 2.256 2.56 2.926 2.56 2.926-.487-1.097-.305-3.23 2.62-4.693-1.767 1.767-2.498 3.413-2.01 4.937.426 1.402 1.889 1.95 2.925 2.011-.731-2.316-.427-4.45 1.158-6.095-.67 1.829-1.645 7.497 1.097 8.411 2.743-.914 1.768-6.582 1.098-8.41 1.584 1.706 1.889 3.778 1.158 6.094 1.097 0 2.498-.61 2.925-2.011.488-1.524-.183-3.17-2.011-4.937 2.925 1.463 3.108 3.657 2.62 4.693 0 0 1.951-.67 2.56-2.926 0-.853-.853-1.645-1.645-2.01ZM23.82 47.362c.61-.365.976-1.097 1.403-1.95-.244.122-.61.244-.976.305-.365.67-.853.426-.853.305.122-.122.244-.305.305-.427a15.452 15.452 0 0 0-.427-.975c-.487 1.097-1.462 2.133-2.194 2.56.427.61 1.829.73 2.743.182Zm-7.07-12.311c-1.037-.67-1.707-1.28-2.073-1.828-.853-.305-1.95-.854-2.438-1.28-.731-.61-.487-1.158-.426-1.28.61.67 2.01 1.585 3.047 2.011.61-.244 1.463-.426 2.316-.548-2.499-.915-5.18-2.804-6.582-4.51-.305.548-1.463 3.169.731 5.302 1.097 1.036 3.474 1.828 5.425 2.133Zm.426-3.353c-.366-.67-.67-1.523-.731-2.316-1.037-.792-2.195-1.828-2.926-3.047-.366-.67-.244-1.28.06-1.463.245.732 1.586 2.804 2.866 3.84 0-.67.122-1.463.304-2.011-1.462-1.585-3.17-4.389-3.413-6.035-.427.366-1.524 1.89-1.463 3.414-.182 1.34.244 2.682 1.28 4.022.732 1.037 2.5 2.621 4.023 3.596Zm-.608 7.863c.183-.366.549-.792.853-1.158-1.158.305-2.681.366-3.474.366-.975 0-1.89-.061-2.377-.183.061.975.975 2.62 2.743 2.743h.305c1.097 0 2.864-.427 4.083-.854-.853-.122-1.706-.305-1.89-.426-.487.243-1.584.426-1.95.365-.792-.06-.853-.67-.853-.67s1.402.06 2.56-.183ZM12.3 37.855c.67.244 1.706.366 2.925.366.731 0 1.463-.061 2.072-.122-.67-.244-1.463-.549-2.011-.915-.67 0-1.585-.06-2.133-.182-.854-.244-.854-.854-.854-.976.732.305 2.012.61 2.926.61.366-.305.853-.732 1.463-1.097-2.194 0-5.06-.854-6.644-1.707-.366 2.926 1.646 3.779 2.255 4.023Zm4.086 6.521h.183c1.34-.121 2.925-.975 3.961-1.706-.304.06-1.219.06-1.584 0-.122.122-.793.487-1.28.548-.976.122-1.036-.487-1.036-.487.61-.061 1.34-.305 2.01-.61a5.65 5.65 0 0 1 .306-1.28c-1.524.854-3.962 1.463-5.364 1.463.305.67 1.402 2.072 2.804 2.072Zm2.62 2.194c.183 0 .427 0 .61-.06 1.28-.305 2.56-1.463 3.29-2.377-.426.122-.852.243-1.34.243 0 0-.305.366-.61.549-.122.061-.243.122-.365.122-.366 0-.549-.305-.549-.305s.61-.305.975-.67a6.043 6.043 0 0 1-.122-1.097c-1.036 1.036-2.925 2.011-4.266 2.194.244.548 1.158 1.402 2.377 1.402Zm16.701-33.34a.48.48 0 0 0 .488.489c.243 0 .487-.244.487-.488a.48.48 0 0 0-.487-.488c-.244-.06-.488.183-.488.488Zm.183-1.097h.67l-.061-.853.731.122v-.67l-.731.06.06-.792h-.67l.061.792-.731-.06v.67l.731-.122-.06.853Zm-2.378 8.046c.06 0 .183.06.244.06h4.876c.122 0 .183 0 .243-.06.183-.061.244-.183.305-.366h-5.973c.061.244.183.305.305.366Zm5.363-.731c.061 0 .061-.061.061-.061v-.366c0-.061-.06-.061-.06-.061h-5.303c-.061 0-.061.06-.061.06v.367c0 .06.06.06.06.06h5.303Zm.55-.914c.122-.183.792-1.463.792-2.804 0-1.22-1.523-1.89-2.377-1.89-.122 1.707-.792 4.389-1.645 4.389-.793 0-1.524-2.682-1.646-4.389-.914 0-2.377.67-2.377 1.89 0 1.34.67 2.682.792 2.803h6.461Z" fill="#000"/><path d="M36.19 17.374c.428 0 .915-1.28 1.098-2.56 0-.243-.427-.609-1.097-.67-.67 0-1.097.366-1.097.67.183 1.159.731 2.56 1.097 2.56Zm7.746 19.993c0-.183-.122-.305-.305-.305h-14.81c-.184 0-.305.122-.305.305v10.3s0 .549.243 1.158c.305.732 1.585 1.95 3.17 2.804 2.255 1.158 3.596 2.073 4.266 2.621.67-.548 2.012-1.463 4.267-2.62 1.646-.854 2.865-2.073 3.17-2.805.304-.67.243-1.158.243-1.158l.061-10.3Zm-4.998 3.718v.06c.183.732.366 1.524.427 2.256.61.487 1.158.975 1.645 1.463.915-1.036 1.402-2.012 1.402-2.804a.807.807 0 0 1-.792-.792.88.88 0 0 1 .122-.427c-.427-.183-.914-.244-1.341-.244-.366 0-.732.061-1.158.122h-.061l-.122.061.061-.061c.06-.122.06-.183.122-.305 1.219-.244 2.194-.122 2.804.244.122-.06.243-.122.365-.122.427 0 .793.366.793.792a.75.75 0 0 1-.427.671c0 .853-.488 1.95-1.524 3.17l.183.182.122.122v.061l-.183.183h-.122c-.06-.061-.06-.061-.06-.122-.062-.06-.062-.122-.123-.183l-.365.366-.122.183c-.183.122-.366.183-.488.122h-.06l.06-.061c.305-.244.549-.549.793-.732-.366-.426-.854-.853-1.341-1.28.06.427.06.854.06 1.28 0 .366 0 .793-.06 1.22-.061.06-.183.121-.244.182l-.061.061v-.06c.06-.488.06-.976.06-1.403v-.548c0-.305-.06-1.158-.121-1.707-.061-.487-.183-.975-.305-1.463v-.06l.183-.184-.122-.243Zm-4.998-1.097c.61-1.463 1.463-2.255 2.316-2.255.854 0 1.707.792 2.316 2.255v.06h-.06c-.062 0-.122.061-.244.122h-.061v-.06c-.549-1.28-1.28-2.012-2.012-2.012-.731 0-1.462.732-2.011 2.011v.061h-.06c-.062-.121-.184-.121-.184-.182Zm-.244.365c.183.122.732.427 1.341.244.549-.183 1.158-.183 1.158-.183s.67 0 1.158.183c.61.183 1.158-.122 1.341-.244.061 0 .061 0 .061.061-.06.244-.244.854-1.158 1.097-.853.183-1.28 1.158-1.402 1.585 0 .061-.06.061-.121 0-.122-.427-.55-1.402-1.402-1.585-.915-.183-1.097-.853-1.158-1.097.121-.06.182-.06.182-.06Zm1.463 2.438c.122 0 .305-.06.427-.122.06.122.122.305.183.427a1.03 1.03 0 0 1-.61.183c-.67 0-1.158-.549-1.158-1.158a.88.88 0 0 1 .122-.427c.122.061.244.122.427.183-.061.061-.061.183-.061.244-.061.366.305.67.67.67Zm-.304-.731v-.122c.182.061.365.244.487.366-.06.06-.122.06-.183.06-.183 0-.304-.121-.304-.304Zm.304 1.585c.244 0 .549-.061.793-.244.06.06.182.305.243.305.122 0 .183-.244.244-.305.244.122.549.244.792.244.427 0 .793-.183 1.098-.427v.06c.121.489.182 1.098.121 1.342 0 .244-.121.488-.182.731-.122.305-.183.549-.183.549s0 .06-.061.183c-.061.244-.244.67-.488 1.097-.487-.305-.975-.427-1.584-.427-.549 0-1.037.122-1.463.366-.183-.427-.366-.792-.427-.975-.06-.122-.06-.183-.06-.183s-.123-.244-.245-.61a2.19 2.19 0 0 1-.121-.67c0-.183-.062-.792.121-1.341 0-.061.061-.122.061-.183.427.244.915.488 1.341.488Zm2.133-.854a.704.704 0 0 0 .732-.731c0-.122 0-.183-.061-.244.122-.06.305-.122.427-.183.06.122.121.305.121.427 0 .67-.548 1.158-1.158 1.158a1.03 1.03 0 0 1-.61-.183c.062-.122.123-.244.184-.426.06.121.244.182.365.182Zm-.182-.487a.949.949 0 0 1 .487-.366v.122c0 .183-.122.305-.305.305-.06 0-.121 0-.182-.061Zm-7.07-1.707c.182 0 .304.061.426.122.427-.244.914-.366 1.585-.366.365 0 .731.061 1.158.122h.06c0 .061.062.183.123.305l.06.06-.121-.06h-.122c-.366-.061-.732-.122-1.097-.122-.427 0-.976.061-1.341.305.06.122.122.244.122.426a.807.807 0 0 1-.793.793c0 .731.488 1.706 1.402 2.804.488-.488 1.036-1.037 1.646-1.463.06-.732.244-1.524.426-2.255v-.061l.062.06.182.183.061.061v.061c-.122.488-.243.915-.304 1.402v.061a8.41 8.41 0 0 0-.122 1.341c0 .366-.061.67-.061.914 0 .366 0 .732.06 1.22v.06h-.06c-.122-.06-.183-.06-.244-.06h-.061v-.062c0-.304-.061-.731-.061-1.158 0-.426 0-.853.06-1.28-.487.427-.974.854-1.34 1.28.305.366.731.732 1.219 1.158l.061.061h-.061a.52.52 0 0 1-.427 0c-.365-.365-.67-.61-.975-.914-.06.061-.122.122-.122.183l-.06.06c-.062 0-.123.062-.244.123l-.061-.061s-.061 0-.061-.061h-.061v-.061c.122-.183.243-.305.365-.427-1.036-1.158-1.523-2.255-1.523-3.108a.75.75 0 0 1-.427-.67c-.122-.61.244-.976.67-.976Zm8.654 9.447c-.426 1.22-1.036 2.073-1.706 2.439-.061.365-.366.67-.732.67-.365 0-.67-.305-.731-.67-.67-.366-1.28-1.159-1.707-2.378v-.06l.366-.123v.062c.366 1.036.853 1.767 1.402 2.133.122-.305.366-.549.731-.549.366 0 .61.244.732.488.548-.366 1.036-1.097 1.401-2.072v-.062h.061c0 .062.061.062.183.122Zm-3.108-.06c0-.244.06-.915.183-1.159a1.15 1.15 0 0 1 .487-.122c.183 0 .366.061.549.183.06.244.183.854.183 1.097 0 .244-.61.427-.67.488-.184-.06-.732-.183-.732-.487Zm7.802-2.439c-.061.061-.122.122-.183.122s-.122.061-.244.061H42.9c-.122 0-.244 0-.305-.06-.06 0-.06-.062-.122-.062-.183 0-.61.122-.731.183.06 0 .61.061.975.366.183.122.549.183.67.183 0 .06-.609.487-1.767.244l-.305-.061a7.026 7.026 0 0 0-1.584-.183c.06 0 .121.06.121.06.122.062.305.123.427.184 0 0 .061 0 .061.06h.061c.06 0 .122 0 .122.061.06 0 .122.061.183.061.06.061.183.122.183.183s.06.061.06.122c0 .122 0 .183-.06.305-.183.244-.427.244-.67 0l-.062-.061a.84.84 0 0 1-.183-.244v-.06h-.06c-.123-.062-.184-.184-.305-.184-.183-.06-.427-.122-.61-.182h-.183c.183.121.366.243.427.365v.061c.122.183.122.366.183.549.183.365.243.426.426.548-.182.061-1.097.061-1.523-.61 0 0-.061-.06-.061-.121-.122-.244-.183-.488-.244-.67-.061-.183.06-.366-.061-.427-.122-.061-.183 0-.183 0l-.06.06v.062c0 .06-.062.06-.062.06v.062s0 .06-.06.06h-.244s-.062 0-.062.061c-.06 0-.121.061-.182.061a.131.131 0 0 1-.122-.121v-.122h-.122c-.061 0-.061 0-.122-.061v-.183c-.061.06-.061.06-.122.06H36.5c-.06 0-.06-.06-.06-.121v-.122h-.122c-.062 0-.184-.06-.244-.06h-.061c-.061 0-.183.06-.244.06h-.122v-.122l.06-.06v-.062h-.121v.061h-.061v.122c0 .061 0 .122-.061.122-.061.06-.061.06-.122 0 0 0-.06 0-.06-.061 0 0-.062 0-.062-.06 0 0 0 .06.061.06v.122c-.06.06-.06.06-.122.06h-.122c0 .062.061.062 0 .123 0 .06-.06.06-.122.06h-.243l-.061-.06h-.122s-.061 0-.061-.061l-.061-.061v-.061c-.122-.122-.305.305-.305.305-.548 1.158-1.89 1.401-1.89 1.34 0 0 .305-.121.427-.548.061-.244.061-.305.183-.549 0-.06.061-.06.061-.121.061-.122.244-.183.366-.305h-.183c-.183.06-.366.06-.61.183-.121.06-.182.122-.304.182h-.061v.061c0 .061-.061.122-.122.244l-.061.061c-.244.244-.427.244-.67 0l-.061-.06a.185.185 0 0 1 0-.245c0-.06.06-.121.121-.182s.122-.061.183-.122.122-.061.183-.061.061 0 .122-.061h.122s0-.061.06-.061c.062 0 .123-.061.184-.061.06 0 .122-.061.182-.061 0 0 .062 0 .123-.061-.488 0-.976.061-1.524.183-.061 0-.183.06-.305.06-.61.123-1.768-.182-1.768-.243 0-.06.305-.06.61-.244.244-.122.366-.244.548-.305.305.244.67.244.732.244-.122-.06-.67-.122-.854-.183 0 0-.06.061-.121.061-.122.061-.244.061-.366.061-.061 0-.183 0-.244-.06-.06 0-.122-.062-.183-.123-.06-.06-.06-.121-.06-.304.06-.244.304-.366.609-.305.183.06.305.122.366.183l.06.06c.183 0 .427.123.67.184.245.121.428.182.55.182-.061 0-.122-.06-.183-.06s-.122-.061-.122-.061c-.061-.061-.122-.061-.183-.122-.366-.183-.732-.366-.975-.61-.183-.244-.244-.365-.305-.61-.061-.548-.305-.792-.305-.853.061-.06.914.366 1.22.67.182.245.243.428.304.61v.061c.06.183.244.366.549.549.06 0 .06.06.121.06-.06-.121-.121-.182-.182-.304v-.06l-.061-.062s-.061-.06-.061-.122c-.061-.06-.061-.122-.122-.183-.061-.182-.061-.365 0-.426a.828.828 0 0 1 .244-.183c.243-.061.426.06.487.427v.487c.122.366.427.67.793.914-.427-.365-.671-1.219-.61-1.219.06-.06.427.183.792.366.183.061.366.183.549.305.122.06.244.183.305.244.122.06.182.182.243.243l.183.183.122.122c.122.061.305 0 .305 0 .06 0 .122 0 .183-.06l.06-.062c.062-.06.123-.06.184-.06v-.062c0-.122.06-.183.183-.243 0 0 .06 0 .06-.061h.183c0-.061.061-.061.122-.122a.375.375 0 0 1 .427.06c.06.062.06.123.122.183v.305h.365c.061 0 .122 0 .183.061.061 0 .122-.06.183-.06h.183v-.184c0-.06 0-.122.06-.182 0 0 0-.061.062-.061l.06-.061a.388.388 0 0 1 .366 0c.061 0 .061.06.122.122h.244c.122.06.183.121.183.243h.122s.305 0 .366.061h.304l.122-.122.244-.243c.122-.061.183-.183.305-.244.183-.122.426-.183.61-.244.609-.244.67-.61.73-.61.062.062-.121 1.037-.548 1.402.305-.243.61-.548.793-.914v-.487c.121-.305.243-.488.487-.427a.84.84 0 0 1 .244.183c.061.122.061.244 0 .426 0 .061-.06.122-.122.183l-.122.122-.06.061v.061c-.062.122-.123.183-.245.305l.122-.122c.305-.244.488-.427.549-.61.06-.182.122-.365.305-.61.304-.304.365-.426.67-.609.061-.06.488-.121.549-.121.06.06-.305.182-.427.792-.06.183-.122.487-.305.731-.243.305-.487.366-.792.549l-.061.06c-.061.062-.122.062-.244.123-.122.06-.183.121-.244.121.183-.06.366-.121.61-.182.183-.122.427-.183.67-.183 0 0 0-.061.061-.061.061-.061.183-.122.366-.183.305-.122.549 0 .61.305.06.183 0 .304-.061.365Z" fill="#000"/><path d="M54.053 35.295c.915-.427 2.439-1.463 3.048-2.194-.853-.305-2.56-.488-3.535-.488 2.011-1.402 2.072-4.327 1.524-6.46-.488 1.706-1.707 3.108-2.5 3.961.062.853-.182 2.316-.67 3.17.67.243 1.463.609 2.012 1.036-.366.487-1.158 1.158-1.646 1.584a19.611 19.611 0 0 1 1.463 1.707c-.488.366-1.463.731-2.012.914.244.549.61 1.463.732 2.133-.61.122-1.402.183-2.255.183.06.61-.061 1.585-.183 2.195-.793-.061-1.707-.366-2.133-.61-.244.853-.793 1.707-.793 1.768-.731-.854-1.463-1.158-2.133-1.158v-.549c.67 0 1.402.244 1.95.792.244-.426.488-1.219.61-1.706.487.244 1.28.548 1.95.67.061-.61.122-1.402.061-2.011.67.06 1.402.06 2.194-.061-.122-.549-.61-1.463-.914-1.95a9.94 9.94 0 0 0 1.95-.793c-.365-.487-.975-1.158-1.401-1.584.487-.366 1.28-.976 1.584-1.342a11.083 11.083 0 0 0-1.89-.975c.854-1.158 1.037-3.535.854-4.632-.731 2.5-2.925 4.328-4.266 5.18-.061.062-.122.123-.183.123-.061.06-.305.365-.183.731 0 .122.061.183.061.305.122.488.122 1.219-.61 1.89a2.22 2.22 0 0 1-1.767.548v-1.34c0-.184-.122-.306-.305-.306h-.914l-.427-.426h.914c.488-.061 1.037-.305 1.037-.305s-.549 0-.793-.061c-.305.06-.975-.244-1.523-.853-.183-.244-.366-.488-.488-.732-.488-.426-1.036-.975-1.402-1.767-.244-.549-.366-1.341-.427-1.829-.182.122-.365.366-.61.67-.426.55-.609 1.342-.609 1.342l-.182.609-.305-.548s-.427-.732-.488-1.646c0-.427 0-.793.061-1.097a5.629 5.629 0 0 0-.487.305 6.646 6.646 0 0 0-1.159 1.097c-.365.487-.609.914-.67 1.097-.06-.244-.305-.61-.67-1.097 0 0-.366-.61-1.158-1.098a5.629 5.629 0 0 0-.488-.304c.06.305.06.731.06 1.097-.06.914-.487 1.585-.487 1.646l-.304.487-.183-.61s-.244-.792-.61-1.34c-.244-.305-.426-.549-.61-.67-.06.487-.182 1.34-.426 1.828-.366.792-.853 1.402-1.402 1.767-.122.244-.305.488-.487.732-.549.61-1.22.914-1.524.975-.244.06-.793.06-.793.06s.549.245 1.037.306c.487.06.914 0 .914 0l-.427.426h-.914c-.183 0-.305.122-.305.305v1.34c-.427.062-1.219 0-1.767-.548-.67-.67-.732-1.401-.61-1.89.061-.06.061-.182.061-.304.122-.366-.122-.67-.183-.731-.06-.061-.122-.122-.183-.122-1.34-.854-3.474-2.682-4.266-5.18-.183 1.096.06 3.412.853 4.631-.61.244-1.402.61-1.89.975.305.366 1.098 1.037 1.585 1.341-.426.366-1.097 1.097-1.402 1.585a9.94 9.94 0 0 0 1.951.793c-.305.487-.792 1.401-.914 1.95a8.896 8.896 0 0 0 2.194.06c-.061.61 0 1.464.06 2.012.671-.122 1.464-.366 1.951-.67.122.426.366 1.28.61 1.706a2.767 2.767 0 0 1 1.95-.792v.548c-.67 0-1.402.305-2.133 1.159 0-.061-.549-.915-.792-1.768-.427.183-1.341.549-2.134.61-.122-.61-.183-1.585-.183-2.195-.853 0-1.645-.06-2.255-.183.122-.67.488-1.584.732-2.133-.549-.183-1.524-.61-2.012-.914.305-.488 1.037-1.28 1.463-1.707-.488-.365-1.28-1.097-1.645-1.584.548-.427 1.34-.793 2.01-1.037-.487-.914-.73-2.377-.67-3.169-.853-.853-2.072-2.255-2.499-3.962-.61 2.134-.487 5.12 1.524 6.461-.975 0-2.682.244-3.535.488.61.731 2.133 1.706 3.048 2.194-.732.244-2.012.975-2.56 1.463.67.426 2.194.914 2.925 1.097-.426.366-1.28 1.34-1.584 1.828.61.183 1.828.366 2.62.366-.243.548-.548 1.463-.61 2.011.367.061 1.647 0 2.317-.183-.06.549-.06 1.463.061 1.89.61-.061 1.524-.366 1.95-.488.122.488.549 1.463.732 1.707.305-.061.61-.122.914-.244.853-.305 1.768.061 2.133.854.61 1.401.366 3.047-.792 2.742-1.34.244-.427 1.95-1.219 2.5 1.036.73 1.34-.976 2.682-.671-.122.61-.122 1.767 0 2.255.426-.305 1.036-.549 1.402-.61-.122.366-.183 1.22-.061 1.768.244-.183 2.011-.67 2.011-.67s-.67 1.34-.244 2.681c.244.183 1.829-.61 1.829-1.036.06.549-.61 1.768-1.646 2.011 1.097 1.098 2.072 1.037 2.194 1.037.183 0 .305 0 .427-.122-.061.304-.122.731-.061.975h.183c.305 0 .548-.06.731-.122.061.305.183.61.366.853l.122.122c.244 0 .853-.304.975-.487.122.182.731.487.975.487.061-.06.122-.06.122-.122.244-.243.366-.61.366-.853.244.122.487.122.731.122h.183c.061-.244.061-.67-.06-.975.121.06.304.122.426.122s1.097.06 2.194-1.037c-1.036-.243-1.706-1.462-1.646-2.01 0 .487 1.585 1.218 1.829 1.035.427-1.34-.244-2.681-.244-2.681s1.707.426 2.012.67c.121-.549.06-1.402-.061-1.768.365 0 .975.305 1.401.61.122-.488.122-1.585 0-2.255 1.28-.305 1.585 1.402 2.682.67-.731-.548.183-2.255-1.219-2.499-1.158.366-1.402-1.34-.792-2.742.366-.793 1.34-1.159 2.133-.854.305.122.61.183.914.244.122-.244.61-1.219.732-1.707.426.183 1.34.427 1.95.488.061-.427.122-1.341.061-1.89.61.122 1.95.183 2.316.183-.06-.61-.365-1.523-.61-2.011.793-.061 2.012-.183 2.622-.366-.305-.548-1.158-1.523-1.585-1.828.731-.183 2.255-.67 2.925-1.097-.426-.549-1.706-1.28-2.438-1.524ZM44.18 49.009c-.061.122-.122.183-.183.304 0 .061-.061.061-.061.122a.842.842 0 0 0-.183.244l-.122.122c-.061.122-.183.183-.244.305l-.183.183-.182.182-.244.244-.122.122a2.706 2.706 0 0 1-.67.488c-.305.244-.61.426-.976.61l-.366.182c-2.742 1.402-4.083 2.5-4.51 2.804h-.06c-.427-.366-1.768-1.402-4.511-2.804l-.366-.183a5.268 5.268 0 0 1-.975-.61c-.244-.182-.427-.365-.67-.487-.061-.06-.122-.06-.122-.122-.061-.06-.183-.122-.244-.244l-.183-.182-.183-.183c-.122-.122-.183-.183-.244-.305l-.122-.122c-.06-.06-.122-.122-.183-.244 0-.06-.06-.06-.06-.122-.061-.121-.122-.182-.183-.304-.366-.793-.305-1.463-.305-1.463V36.88c0-.183.122-.305.305-.305h16.09c.183 0 .305.122.305.305v10.666c.061 0 .122.67-.244 1.463Zm-.369-29.257c.244 0 .366-.183.366-.426 0-.244-.183-.427-.366-.427-.244 0-.366.183-.366.427 0 .243.183.426.366.426Zm.001 2.256c.244 0 .487-1.037.487-1.524a.48.48 0 0 0-.487-.488.48.48 0 0 0-.488.488c0 .487.244 1.523.488 1.523Zm-.246-3.718h.55l-.123-.671.67.06v-.548l-.67.122.122-.67h-.549l.061.67-.67-.122v.549l.67-.061-.06.67Z" fill="#000"/><path d="M41.435 23.227c.183.06.366.06.549.122h.792c.488 0 .975-.122 1.463-.244.488-.122.975-.244 1.524-.244h.366c.121-.548.304-1.158.304-1.524 0-.731-.426-1.523-1.828-1.767 0 .914-.427 3.047-.915 3.047h-.06c-.488 0-.915-2.133-.915-3.047-1.402.244-1.828 1.036-1.828 1.767 0 .427.183 1.22.365 1.768.183.06.183.06.183.122Zm7.314-3.84s-.366-.975.244-1.28c.67-.244-.244-.122.243-1.462.549-1.585 1.768-1.22 1.768-1.22-.853-.67-1.524-.609-2.011-.243-.305.243-.732.731-1.037 1.706-.243 1.22.183 2.377.793 2.5Z" fill="#000"/><path d="M51.92 17.01c.061 2.01 3.413 2.864 3.413 2.864s-1.95-1.402-1.584-2.438c0 0 1.28.548 2.742.305-3.108-.67-2.072-1.646-2.864-2.438-.793-.854-2.012-.915-2.317-.976-.792-.06-.853-.06-1.767.183 2.133.061 2.377 1.158 2.377 2.5Zm-.43 3.778c.427-1.585-.366-2.316-.366-2.316-.244-.305-1.523-.244-2.011.06 0 0 1.219 0 1.036 1.768-.183 1.768-2.62 2.134-3.291 2.195l-.061.243c1.158 0 4.206-.365 4.693-1.95Zm-12.736-.06h-1.219c.61 1.707 2.377 2.255 3.535 2.438l-.06-.183c-1.22-.487-1.83-.975-2.256-2.255Zm-10.119-.976c.244 0 .366-.183.366-.426 0-.244-.183-.427-.366-.427-.244 0-.365.183-.365.427-.061.243.122.426.365.426Zm.001 2.256c.244 0 .488-1.037.488-1.524a.48.48 0 0 0-.488-.488.48.48 0 0 0-.488.488c0 .487.183 1.523.488 1.523Zm-.306-3.718h.548l-.06-.671.67.06v-.548l-.67.122.06-.67h-.548l.122.67-.67-.122v.549l.67-.061-.122.67Z" fill="#000"/><path d="M26.196 22.86h.366c.548.062 1.097.123 1.523.245.427.122.976.244 1.463.244h.793c.182 0 .365-.061.548-.122 0-.061 0-.061.061-.061.183-.549.366-1.341.366-1.768 0-.731-.366-1.524-1.829-1.767 0 .853-.426 3.047-.914 3.047h-.06c-.489 0-.915-2.133-.915-3.047-1.402.243-1.829 1.036-1.829 1.767 0 .366.122.975.305 1.524.061-.061.061-.061.122-.061Zm-4.813-7.435s1.219-.366 1.767 1.219c.488 1.34-.426 1.219.244 1.463.67.243.244 1.28.244 1.28.67-.122 1.097-1.28.731-2.56-.304-.976-.731-1.463-1.036-1.707-.487-.305-1.097-.366-1.95.305Z" fill="#000"/><path d="M18.64 17.436c.365 1.036-1.585 2.438-1.585 2.438s3.413-.854 3.413-2.865c.061-1.34.244-2.438 2.316-2.499-.914-.183-.975-.183-1.767-.183-.305 0-1.524.122-2.316.975-.732.793.243 1.768-2.865 2.438a5.6 5.6 0 0 0 2.804-.304Zm3.655 2.865c-.183-1.767 1.036-1.767 1.036-1.767-.426-.305-1.706-.305-2.011-.061 0 0-.792.67-.366 2.316.427 1.585 3.535 1.95 4.694 1.95l-.061-.244c-.67-.06-3.109-.426-3.292-2.194Zm12.619.427h-1.219c-.427 1.28-1.036 1.768-2.255 2.255l-.061.183c1.219-.183 2.925-.731 3.535-2.438Zm2.864 7.496a9.714 9.714 0 0 0-.915 1.768c.183-.244.488-.488.793-.732a10.844 10.844 0 0 1 1.036-.609l.487-.183-.122.488s-.182.792-.121 1.463c0 .304.121.61.182.792.122-.305.305-.61.488-.914.61-.793 1.097-1.098 1.097-1.098l.366-.182v.426s.122 1.402.426 2.134c.55 1.219 1.585 1.89 2.195 2.194l-.305-.305c-.305-.305-.61-.853-.792-2.011-.122-.975.243-1.95.365-2.255.061.243.183.487.305.548 0 0 0-.244.061-.488.122-.67.853-1.706 1.829-2.316.182-.121.365-.243.487-.304.183-.061.305-.183.427-.305-.183 0-.427.06-.61.06h-.61c-.487 0-1.035-.06-1.462-.426-.427-.366-.61-.731-.67-.975h-.732c-.366 0-.67-.122-.853-.122-.488.305-.975.427-1.585.488h-.244c.183.183.427.304.61.426h.06l-.121.061c.06-.06-.793.427-2.072 2.377Zm7.986-3.413h-.67v.366c.06.183.122.305.244.426.182-.122.365-.426.426-.792Z" fill="#000"/><path d="M46.25 23.41c-.06 0-.06 0 0 0h-.243c-.488 0-.975.122-1.463.244-.488.122-1.036.244-1.524.244h-.853c-1.097-.122-1.829-.488-2.194-.67.06.121.183.243.365.426l.183.183c.122.122.305.243.488.365.244.122 1.28.549 2.62.366 1.524-.244 1.83-.183 2.195-.183h.122c.548.061 1.34.366 1.646.549.121-.305.304-.61.365-.915a1.532 1.532 0 0 0-.426-.304c-.061-.061-.122-.061-.244-.122a1.217 1.217 0 0 0-.549-.122c-.244-.061-.366-.061-.487-.061Zm4.265 4.997c-.06 0-.61.305-1.767-.426-1.158-.732-2.012-1.036-2.5-1.158-.121.06-.182.122-.304.183a5.629 5.629 0 0 0-.488.304c-.06.061-.122.061-.183.122h.122c1.097.122 1.95.732 2.012.976h.06c.123-.366-.06-.671-.06-.671s.487.305 1.463.853c1.036.67 1.462.061 1.645-.183Zm-5.789-2.987c-.06-.06-.122-.182-.183-.243-.06-.122-.06-.183-.06-.244-.245 0-.55.06-.915.122h-.244c.183.366.488.731 1.097.853h.244c.244.061.549.061.732.061.426 0 .914-.06 1.401-.183.122-.122.183-.305.305-.426 0 0-.06-.061-.122-.061-.122-.061-.426-.244-.61-.305-.06.183-.182.366-.304.488a1.229 1.229 0 0 1-.67.182c-.244 0-.488-.06-.61-.183-.06 0-.06-.06-.06-.06Zm3.23-.914c-.365.976-.975 1.707-1.401 2.073 2.742-.732 3.23.67 3.23.731 0 .061 0 .061.061 0 .061-.06.975-1.036.305-1.95-.549-.732-1.768-.854-2.195-.854Zm0 .732c.122-.122.183-.366.183-.366.183 0 .549.061.549.305-.244-.061-.549-.061-.732.06Zm-20.602-.061v-.366h-.67c.06.366.243.67.426.792a.982.982 0 0 0 .244-.426Zm3.109-1.34c-.06 0-.06 0 0 0h-.853c-.549 0-1.036-.122-1.524-.244-.549-.061-1.036-.183-1.524-.183h-.487c-.244 0-.427.06-.549.122-.06.06-.183.06-.244.122-.183.122-.305.183-.426.304.06.305.243.67.365.915.305-.183 1.097-.549 1.646-.549h.122c.366 0 .67-.06 2.194.183 1.341.183 2.316-.244 2.621-.366.183-.122.366-.243.488-.365l.182-.183c.122-.183.244-.305.366-.427-.548.183-1.28.549-2.377.67Zm-8.533 4.57c.183.183.61.854 1.584.305.976-.549 1.463-.853 1.463-.853s-.183.304-.06.67h.06c.122-.244.975-.914 2.012-.975h.121c-.06-.061-.121-.061-.182-.122a5.6 5.6 0 0 0-.488-.305c-.122-.06-.183-.122-.305-.183-.487.061-1.34.427-2.499 1.158-1.097.61-1.645.305-1.706.305Z" fill="#000"/><path d="m26.075 24.994-.61.305c-.06 0-.06.06-.121.06.122.184.182.306.304.427.488.122.976.183 1.402.183.244 0 .488 0 .732-.06h.244c.609-.122.975-.55 1.097-.854h-.244c-.366-.06-.67-.122-.915-.122 0 .061-.06.183-.06.244a.842.842 0 0 1-.183.244l-.061.06a1.03 1.03 0 0 1-.61.184c-.244 0-.487-.061-.67-.183-.183-.122-.244-.305-.305-.488Zm-3.838.366c-.67.914.244 1.89.305 1.95.06.061.06 0 .06 0 0-.06.488-1.463 3.23-.731-.426-.366-1.035-1.097-1.401-2.073-.366 0-1.646.122-2.194.854Zm2.255-.122c-.183-.122-.488-.122-.732-.061 0-.244.366-.305.549-.305 0 0 .061.244.183.366Z" fill="#000"/><path d="M33.086 25.36h-.244c-.61 0-1.097-.183-1.585-.488a3.18 3.18 0 0 1-.853.122h-.731c-.061.244-.244.67-.67.975-.427.366-.976.427-1.464.427h-.609c-.122 0-.366-.061-.61-.061.183.122.305.183.427.305.122.06.305.183.488.304.975.67 1.706 1.646 1.828 2.317.061.243.061.487.061.487.122-.06.244-.305.305-.549.122.305.548 1.28.366 2.256-.183 1.158-.488 1.706-.793 2.011l-.305.305c.61-.305 1.646-.975 2.195-2.194.304-.67.426-2.073.426-2.073v-.426l.366.183s.549.304 1.097 1.097c.183.304.366.61.488.914.06-.244.122-.488.183-.792.06-.732-.122-1.463-.122-1.463l-.122-.488.487.183s.488.183 1.036.61c.366.243.61.487.793.73-.244-.609-.488-1.218-.914-1.767-1.28-1.95-2.073-2.377-2.073-2.377l-.122-.06h.061c.183-.184.427-.366.61-.488Zm41.456 4.936h-1.097V23.59h1.097l2.256 3.048 2.255-3.048h1.097v6.705h-1.097v-5.12l-1.95 2.56h-.671l-1.95-2.56.06 5.12Zm8.349 0h-.975V23.59h1.097v4.937l3.84-4.937h.975v6.705h-1.097v-4.937l-3.84 4.937Zm7.741 0h-1.097V23.59h1.097v2.682h3.657V23.59h1.097v6.705H94.29v-3.109h-3.657v3.109Zm7.435 0h-.915V23.59h1.097v4.937l3.84-4.937h.976v6.705h-1.098v-4.937l-3.9 4.937Zm10.059.122c-1.036 0-1.951-.305-2.621-.975-.731-.67-1.036-1.524-1.036-2.5 0-1.035.365-1.828 1.036-2.498.731-.67 1.585-.975 2.621-.975.731 0 1.341.183 1.889.426v1.037c-.548-.366-1.158-.549-1.889-.549-.732 0-1.341.244-1.829.731-.487.488-.731 1.037-.731 1.768 0 .731.244 1.34.731 1.768.488.487 1.097.73 1.89.73.792 0 1.463-.182 2.011-.609v1.037a3.73 3.73 0 0 1-2.072.61Zm2.925-5.851v-.976h5.729v.976h-2.316v5.79h-1.097v-5.79h-2.316Zm12.006 5.729h-5.12V23.59h4.998v.976h-3.901v1.706h3.17v.975h-3.17v2.073h4.023v.975Zm1.221 0V23.59h3.047c.732 0 1.341.183 1.707.549.426.366.67.853.67 1.402 0 .548-.244 1.036-.67 1.463-.427.365-.975.548-1.707.548h-1.95v2.743h-1.097Zm1.036-5.73v2.012h1.828c.427 0 .732-.122.975-.244a.868.868 0 0 0 .366-.731.869.869 0 0 0-.366-.732c-.243-.182-.548-.243-.975-.243l-1.828-.061Zm8.96 5.852c-1.036 0-1.95-.305-2.621-.975-.731-.67-1.036-1.524-1.036-2.5 0-1.035.366-1.828 1.036-2.498.732-.67 1.585-.975 2.621-.975.732 0 1.341.183 1.89.426v1.037c-.549-.366-1.158-.549-1.89-.549-.731 0-1.341.244-1.828.731-.488.488-.732 1.037-.732 1.768 0 .731.244 1.34.732 1.768.487.487 1.097.73 1.889.73.793 0 1.463-.182 2.012-.609v1.037c-.61.426-1.28.61-2.073.61Zm2.925-5.851v-.976h5.73v.976h-2.317v5.79h-1.097v-5.79h-2.316Zm10.302 5.729h-3.413V23.59h3.169c.671 0 1.097.183 1.524.427.366.305.549.731.549 1.219 0 .305-.122.61-.244.853-.183.244-.366.427-.671.488.427.06.793.305 1.037.61.243.304.426.73.426 1.218 0 .549-.244 1.037-.67 1.402-.366.305-.915.488-1.707.488Zm-2.316-4.023h1.889c.366 0 .671-.06.854-.244.183-.183.305-.365.305-.67 0-.305-.122-.488-.305-.67-.183-.183-.488-.244-.854-.244h-1.889v1.828Zm0 .914v2.134h2.133c.427 0 .793-.122.975-.305.244-.183.366-.427.366-.792 0-.305-.122-.549-.366-.793-.243-.183-.548-.244-.975-.244h-2.133Zm11.883 2.256c-.671.67-1.524.975-2.56.975s-1.89-.305-2.56-.975c-.671-.67-.975-1.524-.975-2.5 0-.974.304-1.828.975-2.437.67-.67 1.524-1.036 2.56-1.036s1.889.365 2.56 1.036c.67.67 1.036 1.524 1.036 2.438a3.56 3.56 0 0 1-1.036 2.499Zm-4.267-.732c.488.488 1.036.732 1.707.732.67 0 1.28-.244 1.706-.732a2.44 2.44 0 0 0 .732-1.767c0-.732-.244-1.341-.732-1.768-.487-.487-1.036-.731-1.706-.731-.671 0-1.28.244-1.707.731-.487.488-.731 1.037-.731 1.768 0 .731.244 1.28.731 1.768Zm10.485 1.585h-1.097V23.59h1.097v2.682h3.657V23.59h1.098v6.705h-1.098v-3.109h-3.657v3.109Zm7.009.001h-1.158l3.047-6.766h1.036l3.048 6.766h-1.158l-.792-1.646h-3.292l-.731 1.646Zm2.438-5.425-1.28 2.804h2.56l-1.28-2.804Zm5.668 5.547c-.427 0-.792-.061-.975-.183v-.975c.244.122.488.182.792.182.305 0 .488-.06.732-.243.183-.122.365-.427.609-.915l-2.743-4.754h1.28l2.073 3.657 1.706-3.657h1.158l-2.56 5.303c-.548 1.097-1.219 1.585-2.072 1.585Zm5.669-.123V23.59h1.097v2.743l2.865-2.743h1.402l-3.23 3.048 3.778 3.657h-1.462l-3.292-3.23v3.23h-1.158Zm7.862 0h-.914V23.59h1.097v4.937l3.84-4.937h.975v6.705h-1.097v-4.937l-3.901 4.937ZM74.42 41.937h-.914v-6.705h1.097v4.937l3.84-4.937h.975v6.705h-1.097V37l-3.9 4.937Zm12.737 0h-3.413v-6.705h3.17c.67 0 1.097.183 1.523.427.366.305.549.732.549 1.22 0 .304-.122.609-.244.852a.944.944 0 0 1-.67.488c.426.06.792.305 1.036.61.244.304.426.73.426 1.218 0 .55-.243 1.037-.67 1.402-.427.305-.975.488-1.707.488Zm-2.316-4.084h1.89c.365 0 .67-.06.853-.244.183-.182.305-.365.305-.67 0-.305-.122-.488-.305-.67-.183-.183-.488-.244-.853-.244h-1.89v1.828Zm0 .975v2.134h2.134c.426 0 .792-.122.975-.305.243-.183.365-.427.365-.792 0-.305-.121-.549-.365-.793-.244-.183-.549-.244-.975-.244H84.84Zm8.718 3.109h-2.682v-6.704h1.097v2.316h1.585c.792 0 1.463.183 1.95.61.488.426.732.913.732 1.584 0 .67-.244 1.158-.732 1.585-.548.426-1.158.61-1.95.61Zm-1.585-3.413v2.438h1.524c.487 0 .853-.122 1.158-.305.305-.183.426-.487.426-.914 0-.427-.121-.731-.426-.914a2.169 2.169 0 0 0-1.158-.305h-1.524Zm6.217 3.413h-1.097v-6.704h1.097v6.704Zm5.06.123c-1.037 0-1.951-.305-2.621-.975-.732-.67-1.036-1.524-1.036-2.5 0-1.035.365-1.828 1.036-2.498.731-.67 1.584-.975 2.621-.975.731 0 1.34.182 1.889.426v1.036c-.549-.365-1.158-.548-1.889-.548-.732 0-1.341.244-1.829.731-.488.488-.731 1.036-.731 1.768 0 .731.243 1.34.731 1.767.488.488 1.097.732 1.89.732.792 0 1.462-.183 2.011-.61v1.036c-.61.427-1.28.61-2.072.61Zm11.946-.123h-8.533v-6.705h1.097v5.79h2.621v-5.79h1.097v5.79h2.621v-5.79h1.097v6.705Zm6.765 0h-5.12v-6.705h4.998v.976h-3.901v1.645h3.169v.975h-3.169v2.134h4.023v.975Zm2.317 0h-1.097v-6.705h4.937v.976h-3.84v5.729Zm10.605-.852c-.67.67-1.524.975-2.56.975s-1.889-.305-2.56-.975c-.67-.67-.975-1.524-.975-2.499 0-.975.305-1.828.975-2.438.671-.67 1.524-1.036 2.56-1.036s1.89.365 2.56 1.036c.671.67 1.036 1.524 1.036 2.438 0 .914-.365 1.828-1.036 2.499Zm-4.327-.732c.487.488 1.036.732 1.706.732.671 0 1.28-.244 1.707-.732a2.443 2.443 0 0 0 .731-1.767c0-.731-.244-1.34-.731-1.768-.488-.487-1.036-.731-1.707-.731-.67 0-1.28.244-1.706.731-.488.488-.732 1.037-.732 1.768.061.731.244 1.28.732 1.767Zm15.296.732c-.671.67-1.524.975-2.56.975s-1.89-.305-2.56-.975c-.67-.67-.975-1.524-.975-2.499 0-.975.305-1.828.975-2.438.67-.67 1.524-1.036 2.56-1.036s1.889.365 2.56 1.036c.67.67 1.036 1.524 1.036 2.438a3.56 3.56 0 0 1-1.036 2.499Zm-4.328-.732c.488.488 1.037.732 1.707.732.67 0 1.28-.244 1.707-.732a2.443 2.443 0 0 0 .731-1.767c0-.731-.244-1.34-.731-1.768-.488-.487-1.037-.731-1.707-.731-.67 0-1.28.244-1.707.731-.487.488-.731 1.037-.731 1.768.061.731.305 1.28.731 1.767Zm9.692 1.584h-2.926v-6.704h4.937v.975h-3.84v1.402h1.89c.792 0 1.402.183 1.889.61.427.365.732.913.732 1.584 0 .67-.244 1.158-.732 1.585-.487.365-1.158.548-1.95.548Zm-1.89-3.352v2.377h1.768a2.17 2.17 0 0 0 1.158-.305c.244-.244.427-.487.427-.853s-.122-.67-.427-.914-.671-.305-1.158-.305h-1.768Zm6.825 3.352h-1.097v-6.705h2.986c.732 0 1.341.183 1.707.549.427.366.67.853.67 1.402 0 .548-.243 1.036-.67 1.463-.427.365-.975.548-1.707.548h-1.95v2.743h.061Zm0-5.79v2.011h1.828c.427 0 .732-.122.976-.244.243-.122.365-.426.365-.731a.87.87 0 0 0-.365-.732c-.244-.182-.549-.243-.976-.243l-1.828-.061Zm5.305 5.791h-1.158l3.047-6.765h1.036l3.048 6.765h-1.097l-.792-1.645h-3.292l-.792 1.645Zm2.438-5.485-1.28 2.803h2.56l-1.28-2.803Zm6.887 5.607c-.975 0-1.768-.182-2.438-.548v-1.036c.305.183.67.366 1.097.426a4.22 4.22 0 0 0 1.219.183 3.19 3.19 0 0 0 1.402-.304c.366-.244.488-.488.488-.854 0-.304-.183-.548-.488-.792-.305-.183-.731-.305-1.28-.305h-.792v-.975h.975c.427 0 .792-.122.975-.244.244-.183.366-.366.366-.67 0-.305-.122-.488-.427-.67-.244-.184-.67-.245-1.097-.245-.731 0-1.463.183-2.133.488v-.975c.67-.366 1.402-.488 2.194-.488s1.402.183 1.828.488c.488.304.732.792.732 1.34 0 .366-.122.671-.366.915s-.487.427-.731.488c.365.122.67.304.975.61.305.304.427.67.427 1.096 0 .61-.244 1.097-.793 1.524-.609.366-1.28.548-2.133.548Zm10.057-.975c-.67.67-1.524.975-2.56.975s-1.889-.305-2.56-.975c-.67-.67-.975-1.524-.975-2.499 0-.975.305-1.828.975-2.438.671-.67 1.524-1.036 2.56-1.036s1.89.365 2.56 1.036c.671.67 1.036 1.524 1.036 2.438 0 .914-.365 1.828-1.036 2.499Zm-4.327-.732c.487.488 1.036.732 1.706.732.671 0 1.28-.244 1.707-.732a2.439 2.439 0 0 0 .731-1.767c0-.731-.243-1.34-.731-1.768-.488-.426-1.036-.731-1.707-.731-.67 0-1.28.244-1.706.731-.488.488-.732 1.037-.732 1.768.061.731.305 1.28.732 1.767Zm10.179 1.584h-3.413v-6.704h3.169c.67 0 1.097.183 1.524.426.365.305.548.732.548 1.22 0 .304-.122.609-.243.853-.183.243-.366.426-.671.487.427.061.792.305 1.036.61.244.304.427.731.427 1.219 0 .548-.244 1.036-.671 1.402-.426.304-1.036.487-1.706.487Zm-2.377-4.084h1.889c.366 0 .671-.06.854-.243.182-.183.304-.366.304-.67 0-.305-.122-.488-.304-.671-.183-.183-.488-.244-.854-.244h-1.889v1.828Zm0 .976v2.133h2.133c.427 0 .792-.122.975-.305.244-.183.366-.426.366-.792 0-.305-.122-.549-.366-.793-.244-.182-.548-.243-.975-.243h-2.133Zm6.522 3.109h-1.158l3.047-6.765h1.036l3.048 6.765h-1.158l-.792-1.645h-3.292l-.731 1.645Zm2.438-5.485-1.28 2.803h2.56l-1.28-2.803Zm5.79 5.485h-1.097v-6.704h1.097v2.62h3.657v-2.681h1.097v6.704h-1.097V38.77h-3.657v3.17Zm7.374-.001h-.915v-6.705h1.098v4.937l3.839-4.937h.976v6.705h-1.097V37l-3.901 4.937Zm7.438.001h-1.341l2.255-2.925c-.487-.122-.853-.305-1.158-.67-.305-.306-.426-.732-.426-1.159 0-.548.182-1.036.609-1.402.427-.365.975-.487 1.707-.487h3.169v6.704h-1.097v-2.925h-1.646l-2.072 2.864Zm1.707-3.779h2.072v-2.011h-2.072c-.366 0-.732.122-.915.244-.243.183-.304.426-.304.731s.122.549.304.732a1.5 1.5 0 0 0 .915.304ZM74.542 53.58h-1.097v-6.706h3.048c.731 0 1.34.183 1.706.55.427.365.67.852.67 1.4 0 .55-.243 1.037-.67 1.464-.426.366-.975.548-1.706.548h-1.95v2.743Zm0-5.791V49.8h1.829c.427 0 .731-.122.975-.244a.869.869 0 0 0 .366-.731.869.869 0 0 0-.366-.732c-.244-.182-.548-.243-.975-.243l-1.829-.061Zm11.398 4.877c-.67.67-1.523.975-2.56.975-1.035 0-1.889-.304-2.56-.975-.67-.67-.974-1.524-.974-2.499 0-.975.304-1.828.975-2.438.67-.67 1.524-1.036 2.56-1.036s1.89.366 2.56 1.036c.67.67 1.036 1.524 1.036 2.438 0 .975-.366 1.829-1.036 2.499Zm-4.266-.731c.488.487 1.036.731 1.707.731.67 0 1.28-.244 1.706-.731a2.441 2.441 0 0 0 .732-1.768c0-.67-.244-1.34-.732-1.767-.487-.488-1.036-.732-1.706-.732-.67 0-1.28.244-1.707.732-.487.487-.731 1.036-.731 1.767 0 .731.244 1.341.731 1.768Zm10.178 1.767c-1.036 0-1.95-.305-2.62-.975-.732-.67-1.037-1.524-1.037-2.5 0-1.036.366-1.828 1.037-2.498.73-.67 1.584-.976 2.62-.976.732 0 1.341.183 1.89.427v1.036c-.549-.366-1.158-.548-1.89-.548-.731 0-1.34.243-1.828.731s-.732 1.036-.732 1.768c0 .731.244 1.34.732 1.767.487.488 1.097.732 1.89.732.792 0 1.462-.183 2.01-.61v1.036c-.609.427-1.28.61-2.072.61Zm6.645 0c-1.036 0-1.95-.305-2.621-.975-.731-.67-1.036-1.524-1.036-2.5 0-1.036.365-1.828 1.036-2.498.731-.67 1.585-.976 2.62-.976.732 0 1.342.183 1.89.427v1.036c-.548-.366-1.158-.548-1.89-.548-.73 0-1.34.243-1.828.731-.487.488-.731 1.036-.731 1.768 0 .731.244 1.34.731 1.767.488.488 1.097.732 1.89.732.792 0 1.463-.183 2.011-.61v1.036a3.72 3.72 0 0 1-2.072.61Zm4.265-.122h-.914v-6.706h1.097v4.938l3.84-4.938h.975v6.705h-1.097v-4.937l-3.901 4.937Zm7.619 0h-.914v-6.705h1.097v4.937l3.84-4.937h.975v6.705h-1.097v-4.937l-3.901 4.937Zm2.011-7.193c-.487 0-.975-.182-1.28-.426a1.563 1.563 0 0 1-.487-1.158h.914c0 .244.061.426.244.548a.783.783 0 0 0 .609.244c.244 0 .488-.06.61-.244a.744.744 0 0 0 .244-.548h.914c0 .487-.183.853-.488 1.158-.304.305-.731.426-1.28.426Zm8.046 7.315c-1.036 0-1.95-.305-2.621-.975-.731-.67-1.036-1.524-1.036-2.5 0-1.036.366-1.828 1.036-2.498.732-.67 1.585-.976 2.621-.976.732 0 1.341.183 1.89.427v1.036c-.549-.366-1.158-.548-1.89-.548-.731 0-1.341.243-1.828.731-.488.488-.732 1.036-.732 1.768 0 .731.244 1.34.732 1.767.487.488 1.097.732 1.889.732.793 0 1.463-.183 2.012-.61v1.036c-.61.427-1.28.61-2.073.61Zm4.509-.122h-1.097v-6.706h1.097v2.743l2.864-2.742h1.402l-3.23 3.047 3.779 3.657h-1.524l-3.291-3.23v3.23Zm10.97-.914c-.67.67-1.523.975-2.56.975-1.036 0-1.889-.304-2.56-.975-.67-.67-.975-1.524-.975-2.499 0-.975.305-1.828.975-2.438.671-.67 1.524-1.036 2.56-1.036 1.037 0 1.89.366 2.56 1.036.671.67 1.036 1.524 1.036 2.438-.06.975-.365 1.829-1.036 2.499Zm-4.327-.731c.487.487 1.036.731 1.706.731.671 0 1.28-.244 1.707-.731a2.44 2.44 0 0 0 .731-1.768c0-.67-.243-1.34-.731-1.767-.488-.488-1.036-.732-1.707-.732-.67 0-1.28.244-1.706.732-.488.487-.732 1.036-.732 1.767.061.731.244 1.341.732 1.768Zm7.68 1.645h-.975v-6.705h1.097v4.937l3.84-4.937h.975v6.705h-1.097v-4.937l-3.84 4.937Zm1.951-7.193c-.488 0-.976-.182-1.28-.426a1.56 1.56 0 0 1-.488-1.158h.914c0 .244.061.426.244.548a.784.784 0 0 0 .61.244c.243 0 .487-.06.609-.244a.744.744 0 0 0 .244-.548h.914c0 .487-.183.853-.488 1.158-.365.305-.731.426-1.279.426Zm11.58 7.375h-1.097v-.731c-1.097-.06-1.95-.305-2.56-.853-.548-.549-.853-1.22-.853-2.012 0-.365.061-.731.244-1.036.122-.366.366-.67.609-.914.244-.305.671-.488 1.098-.67.426-.183.975-.244 1.523-.305v-.67h1.097v.67c.549 0 1.037.122 1.524.243.427.183.793.366 1.097.671.305.305.488.548.61.914s.244.732.244 1.036c0 .305-.061.732-.244 1.037-.183.304-.366.67-.61.914-.304.305-.67.487-1.097.67-.426.183-.975.244-1.524.244l-.061.792Zm-1.097-1.645v-3.962c-.731 0-1.341.183-1.706.548-.366.366-.549.854-.549 1.402 0 .549.183 1.037.549 1.402.365.366.975.549 1.706.61Zm1.097-3.962v3.962c.793 0 1.341-.183 1.707-.549.366-.365.549-.853.549-1.402 0-.548-.183-1.036-.549-1.401-.366-.427-.975-.61-1.707-.61Zm9.815 5.425h-5.12v-6.706h4.998v.976h-3.901v1.706h3.17v.976h-3.17v2.133h4.023v.914Zm1.949 1.4h-1.036v-2.376h.671c.365-.549.67-1.158.792-1.89.183-.731.244-1.706.244-2.925v-.915h4.632v5.79h.975v2.378h-1.036v-1.463h-5.302l.06 1.402Zm.793-2.437h3.413v-4.815h-2.499c0 1.097-.061 2.072-.244 2.803-.061.854-.304 1.524-.67 2.012Zm11.762 1.037H172v-6.706h4.998v.976h-3.901v1.706h3.17v.976h-3.17v2.133h4.023v.914Zm2.317 0h-1.097v-6.706h3.047c.732 0 1.341.183 1.707.55.427.365.67.852.67 1.4 0 .55-.243 1.037-.67 1.464-.427.365-.975.548-1.707.548h-1.95v2.743Zm0-5.791V49.8h1.828c.427 0 .732-.122.976-.244a.87.87 0 0 0 .365-.731.87.87 0 0 0-.365-.732c-.244-.182-.549-.243-.976-.243l-1.828-.061Zm5.303 5.791h-1.158l3.048-6.766h1.036l3.047 6.766h-1.158l-.792-1.646h-3.292l-.731 1.646Zm2.438-5.486-1.28 2.804h2.56l-1.28-2.804Zm11.337 6.887h-1.037V53.52h-5.607v-6.705h1.097v5.79h3.413v-5.79h1.097v5.79h.976v2.377h.061Zm2.073-1.401h-.914v-6.706h1.097v4.938l3.84-4.938h.975v6.705h-1.097v-4.937l-3.901 4.937Zm7.619 0h-.914v-6.706h1.097v4.938l3.84-4.938h.975v6.705h-1.097v-4.937l-3.901 4.937Z" fill="#000"/></svg>