<svg width="71" height="71" viewBox="0 0 71 71" fill="none" xmlns="http://www.w3.org/2000/svg">
<rect width="71" height="71" fill="url(#paint0_linear_1635_9903)"/>
<path d="M37.4027 13.0785C47.4517 13.8918 55.9288 20.5614 58.8627 30.2282C59.083 30.9523 59.4183 31.7378 59.4202 32.5405C59.7076 34.6957 59.7076 36.7072 59.5639 39.2935C59.4681 41.0176 59.0629 42.1613 58.7277 43.2858C57.8081 46.3644 56.3263 49.1365 54.2822 51.6021C50.7285 55.7324 46.2974 58.4192 40.9889 59.6625C40.6154 59.7506 40.0722 59.787 39.3596 59.7717L20.6438 59.7631L12.0805 59.7545C11.7031 59.7545 11.6513 59.6252 11.9253 59.3665L17.9828 53.6193C18.0071 53.596 18.0266 53.5682 18.04 53.5374C18.0535 53.5066 18.0607 53.4735 18.0612 53.4401C18.0618 53.4066 18.0556 53.3735 18.0431 53.3426C18.0307 53.3117 18.0121 53.2836 17.9886 53.2601C6.59763 41.7973 9.56319 23.4005 23.7444 15.8516C28.0165 13.635 32.5693 12.7107 37.4027 13.0785ZM19.9858 22.7971C16.48 26.504 14.615 30.801 14.3908 35.688C14.1236 41.5186 16.4081 47.3146 20.8651 51.3837C21.5183 51.9795 22.1841 52.581 22.8622 53.1883C22.8882 53.212 22.9089 53.2408 22.9231 53.273C22.9373 53.3052 22.9446 53.3399 22.9446 53.3751C22.9446 53.4102 22.9373 53.445 22.9231 53.4771C22.9089 53.5093 22.8882 53.5382 22.8622 53.5619L19.3507 56.7314C19.1227 56.9364 19.162 57.0389 19.4685 57.0389L27.2732 57.0648C31.7062 57.0801 34.5185 57.0791 35.7101 57.0619C40.5416 56.991 44.8769 55.4374 48.716 52.4009C58.1932 44.8376 59.0438 30.7196 50.2161 22.2597C49.8597 21.9187 49.4297 21.6802 48.9258 21.5442C46.2687 20.8315 43.6853 21.1256 41.1757 22.4264C38.3787 23.9206 36.6469 26.1237 35.9802 29.0356C35.1392 32.7119 36.1306 35.9783 38.9544 38.8346C39.0253 38.9074 39.0243 38.9802 38.9515 39.053L35.6182 42.3174C35.4898 42.4439 35.3614 42.4439 35.2331 42.3174L31.9888 39.1479C31.9595 39.1192 31.9362 39.085 31.9204 39.0473C31.9045 39.0095 31.8963 38.969 31.8963 38.928C31.8963 38.8871 31.9045 38.8465 31.9204 38.8088C31.9362 38.771 31.9595 38.7368 31.9888 38.7082C33.9007 36.8327 34.9429 34.5989 35.1153 32.007C35.2819 29.5012 34.394 26.7195 32.7302 24.889C29.7895 21.661 26.1228 20.5422 21.73 21.5327C21.1611 21.661 20.5796 22.0825 19.9858 22.7971Z" fill="white"/>
<path d="M21.8722 31.1243L24.763 33.9376C24.8137 33.9873 24.882 34.0151 24.9533 34.0151C25.0247 34.0151 25.0935 33.9873 25.1452 33.9376L28.8895 30.2536C28.9097 30.2338 28.9339 30.2187 28.9604 30.2091C28.987 30.1996 29.0153 30.1959 29.0435 30.1984C29.0716 30.2008 29.0989 30.2094 29.1234 30.2234C29.1479 30.2374 29.1691 30.2565 29.1855 30.2795C30.3407 31.883 30.6137 33.7566 29.7516 35.6359C28.7497 37.8198 26.9019 38.8553 24.2084 38.7423C23.0034 38.6005 22.0772 38.2375 21.4296 37.6532C18.9986 35.4596 18.6767 32.9577 20.4641 30.1473C20.5158 30.0649 20.5829 30.0487 20.6653 30.0985C21.1193 30.3686 21.5216 30.7105 21.8722 31.1243Z" fill="white"/>
<path d="M43.029 31.1502L45.7848 33.8743C45.9821 34.0698 46.1794 34.0698 46.3767 33.8743L50.0348 30.2938C50.0615 30.2675 50.0936 30.2474 50.1288 30.2348C50.1641 30.2222 50.2017 30.2176 50.239 30.2211C50.2763 30.2247 50.3123 30.2364 50.3446 30.2554C50.3768 30.2744 50.4045 30.3003 50.4257 30.3312C52.9832 34.0812 50.4371 38.6934 46.0061 38.7681C43.3853 38.7336 41.2933 37.133 40.6755 34.6129C40.3154 33.1435 40.6295 31.6942 41.6181 30.2651C41.7483 30.0754 41.8968 30.0601 42.0635 30.2191L43.029 31.1502Z" fill="white"/>
<defs>
<linearGradient id="paint0_linear_1635_9903" x1="3" y1="71" x2="71" y2="7.5" gradientUnits="userSpaceOnUse">
<stop stop-color="#64009E"/>
<stop offset="1" stop-color="#DF001F"/>
</linearGradient>
</defs>
</svg>
