<svg width="33" height="33" viewBox="0 0 33 33" fill="none" xmlns="http://www.w3.org/2000/svg">
<path d="M24.8237 17.4705C24.8387 16.3007 25.1495 15.1538 25.7269 14.1363C26.3044 13.1189 27.1298 12.2641 28.1264 11.6514C27.4933 10.7472 26.6581 10.0031 25.6871 9.47811C24.7161 8.95317 23.636 8.66188 22.5328 8.62736C20.1793 8.38033 17.8977 10.0356 16.6984 10.0356C15.4759 10.0356 13.6294 8.65188 11.6411 8.69279C10.3549 8.73435 9.1015 9.10835 8.00289 9.77835C6.90427 10.4484 5.99795 11.3915 5.37222 12.5159C2.6617 17.2088 4.6835 24.1057 7.27995 27.899C8.57901 29.7565 10.0972 31.8314 12.0838 31.7578C14.0278 31.6772 14.7538 30.5182 17.1004 30.5182C19.4252 30.5182 20.1063 31.7578 22.1332 31.711C24.2192 31.6772 25.5335 29.8453 26.7869 27.9702C27.7203 26.6467 28.4385 25.1839 28.915 23.636C27.7031 23.1234 26.6689 22.2655 25.9414 21.1691C25.2138 20.0727 24.8251 18.7864 24.8237 17.4705Z" fill="black"/>
<path d="M20.9953 6.13243C22.1327 4.76707 22.693 3.01213 22.5573 1.2403C20.8197 1.4228 19.2146 2.25328 18.0619 3.56626C17.4983 4.20768 17.0666 4.95389 16.7916 5.76224C16.5165 6.57059 16.4035 7.42522 16.459 8.27728C17.3281 8.28623 18.1879 8.09785 18.9737 7.72632C19.7595 7.3548 20.4507 6.80982 20.9953 6.13243Z" fill="black"/>
</svg>
