<svg width="33" height="33" viewBox="0 0 33 33" fill="none" xmlns="http://www.w3.org/2000/svg">
<path d="M22.4671 23.1201L7.70737 31.3934L7.66117 31.4158C7.13761 31.7225 6.52166 31.8946 5.86721 31.8946C4.22724 31.8946 2.84905 30.8099 2.44868 29.3438C2.44355 29.3388 2.44098 29.3363 2.44098 29.3363L15.5608 15.8118L22.4671 23.1201Z" fill="#EA4335"/>
<path d="M30.6746 16.53C30.6746 17.839 29.9201 18.9835 28.8036 19.567L22.4671 23.1201L15.2604 16.1185L22.4439 9.90985L28.8113 13.5004L28.8267 13.5079C29.9278 14.0914 30.6746 15.2284 30.6746 16.53Z" fill="#FBBC04"/>
<path d="M16.0073 16.1558L2.44098 29.3363C2.36399 29.052 2.32544 28.7601 2.32544 28.4534V4.55373C2.32544 4.24704 2.36394 3.94782 2.44093 3.66357L16.0073 16.1558Z" fill="#4285F4"/>
<path d="M2.44093 3.66357C2.849 2.18994 4.22724 1.10541 5.86721 1.10541C6.53706 1.10541 7.16071 1.29242 7.69967 1.59911L22.4439 9.90985L15.6532 16.5L2.44093 3.66357Z" fill="#34A853"/>
</svg>
