<svg width="460" height="339" viewBox="0 0 460 339" fill="none" xmlns="http://www.w3.org/2000/svg">
<path d="M339.214 249.738C341.831 249.738 343.959 247.615 343.959 244.993V101.154C343.959 100.071 343.233 99.1831 342.349 99.1831H150.187C149.299 99.1831 148.577 100.071 148.577 101.154V111.149L136.668 111.13V241.155C136.668 248.584 144.625 249.738 148.577 249.738H336.801H339.214Z" fill="#D13FC3"/>
<path d="M130.341 103.117C129.296 103.117 128.441 103.967 128.441 105.012V233.137C128.441 240.566 138.459 241.54 138.459 241.54C139.499 241.64 141.205 241.721 142.25 241.721H326.674C327.719 241.721 328.574 240.866 328.574 239.821V105.321C328.574 104.276 327.719 103.421 326.674 103.416L130.341 103.117Z" fill="#D13FC3"/>
<path d="M326.678 242.433H142.25C141.186 242.433 139.457 242.347 138.388 242.248C138.279 242.238 135.733 241.977 133.144 240.77C129.6 239.112 127.724 236.471 127.724 233.137V105.012C127.724 103.572 128.892 102.404 130.332 102.404L326.669 102.708C328.108 102.713 329.281 103.886 329.281 105.325V239.825C329.291 241.26 328.117 242.433 326.678 242.433ZM130.341 103.829C129.686 103.829 129.154 104.361 129.154 105.012V233.137C129.154 239.844 138.435 240.818 138.526 240.827C139.552 240.927 141.224 241.008 142.25 241.008H326.673C327.329 241.008 327.861 240.476 327.861 239.82V105.32C327.861 104.665 327.329 104.133 326.673 104.128L130.341 103.829Z" fill="black"/>
<path d="M329.091 241.722C330.136 241.722 331.771 241.375 332.725 240.948L334.958 238.715C335.385 237.76 335.732 236.126 335.732 235.081V93.1378C335.732 92.0548 335.732 92.0548 335.732 92.0548C334.844 91.5655 333.267 91.1665 332.222 91.1665H141.965C141.077 91.1665 141.01 91.3518 141.01 91.3518C140.649 92.3303 140.355 93.9881 140.355 95.0331V239.817C140.355 240.862 141.21 241.717 142.255 241.717H329.091V241.722Z" fill="white"/>
<path d="M329.091 242.434H142.25C140.811 242.434 139.637 241.26 139.637 239.821V95.0371C139.637 93.9019 139.946 92.1728 140.336 91.1088C140.549 90.5293 141.314 90.458 141.96 90.458H332.217C333.385 90.458 335.081 90.8855 336.074 91.4318L336.445 91.636V235.08C336.445 236.23 336.074 237.954 335.604 239.004L335.552 239.123L333.134 241.541L333.015 241.593C331.97 242.068 330.246 242.434 329.091 242.434ZM141.575 91.8973C141.29 92.8188 141.062 94.1726 141.062 95.0371V239.821C141.062 240.477 141.594 241.009 142.25 241.009H329.091C329.999 241.009 331.438 240.709 332.317 240.344L334.355 238.306C334.72 237.427 335.02 235.988 335.02 235.08V92.5006C334.203 92.1491 333.02 91.8783 332.222 91.8783H141.965C141.789 91.8783 141.666 91.8878 141.575 91.8973Z" fill="black"/>
<path d="M250.614 191.934C250.614 192.979 249.759 193.834 248.714 193.834H156.828C155.783 193.834 154.928 192.979 154.928 191.934V166.72C154.928 165.675 155.783 164.82 156.828 164.82H248.714C249.759 164.82 250.614 165.675 250.614 166.72V191.934Z" fill="#D13FC3"/>
<path d="M248.714 194.546H156.828C155.389 194.546 154.215 193.373 154.215 191.934V166.72C154.215 165.281 155.389 164.107 156.828 164.107H248.714C250.154 164.107 251.327 165.281 251.327 166.72V191.934C251.327 193.373 250.154 194.546 248.714 194.546ZM156.828 165.532C156.172 165.532 155.64 166.064 155.64 166.72V191.934C155.64 192.589 156.172 193.121 156.828 193.121H248.714C249.37 193.121 249.902 192.589 249.902 191.934V166.72C249.902 166.064 249.37 165.532 248.714 165.532H156.828Z" fill="black"/>
<path d="M319.658 168.82C319.658 169.865 318.803 170.72 317.757 170.72H258.903C257.858 170.72 257.003 169.865 257.003 168.82V166.72C257.003 165.675 257.858 164.82 258.903 164.82H317.757C318.803 164.82 319.658 165.675 319.658 166.72V168.82Z" fill="#695EC4"/>
<path d="M317.758 171.432H258.903C257.464 171.432 256.291 170.259 256.291 168.82V166.72C256.291 165.281 257.464 164.107 258.903 164.107H317.758C319.197 164.107 320.37 165.281 320.37 166.72V168.82C320.37 170.259 319.197 171.432 317.758 171.432ZM258.903 165.532C258.248 165.532 257.716 166.064 257.716 166.72V168.82C257.716 169.475 258.248 170.007 258.903 170.007H317.758C318.413 170.007 318.945 169.475 318.945 168.82V166.72C318.945 166.064 318.413 165.532 317.758 165.532H258.903Z" fill="black"/>
<path d="M319.658 180.378C319.658 181.423 318.803 182.278 317.757 182.278H258.903C257.858 182.278 257.003 181.423 257.003 180.378V178.278C257.003 177.233 257.858 176.378 258.903 176.378H317.757C318.803 176.378 319.658 177.233 319.658 178.278V180.378Z" fill="#D13FC3"/>
<path d="M317.758 182.99H258.903C257.464 182.99 256.291 181.816 256.291 180.377V178.278C256.291 176.838 257.464 175.665 258.903 175.665H317.758C319.197 175.665 320.37 176.838 320.37 178.278V180.377C320.37 181.816 319.197 182.99 317.758 182.99ZM258.903 177.09C258.248 177.09 257.716 177.622 257.716 178.278V180.377C257.716 181.033 258.248 181.565 258.903 181.565H317.758C318.413 181.565 318.945 181.033 318.945 180.377V178.278C318.945 177.622 318.413 177.09 317.758 177.09H258.903Z" fill="black"/>
<path d="M217.582 205.711C217.582 206.756 216.727 207.611 215.682 207.611H156.828C155.783 207.611 154.928 206.756 154.928 205.711V203.611C154.928 202.566 155.783 201.711 156.828 201.711H215.682C216.727 201.711 217.582 202.566 217.582 203.611V205.711Z" fill="#695EC4"/>
<path d="M215.682 208.323H156.828C155.389 208.323 154.215 207.15 154.215 205.711V203.611C154.215 202.172 155.389 200.999 156.828 200.999H215.682C217.121 200.999 218.295 202.172 218.295 203.611V205.711C218.295 207.155 217.126 208.323 215.682 208.323ZM156.828 202.428C156.172 202.428 155.64 202.96 155.64 203.616V205.715C155.64 206.371 156.172 206.903 156.828 206.903H215.682C216.338 206.903 216.87 206.371 216.87 205.715V203.616C216.87 202.96 216.338 202.428 215.682 202.428H156.828Z" fill="black"/>
<path d="M319.657 205.711C319.657 206.756 318.802 207.611 317.757 207.611H227.571C226.526 207.611 225.671 206.756 225.671 205.711V203.611C225.671 202.566 226.526 201.711 227.571 201.711H317.753C318.798 201.711 319.653 202.566 319.653 203.611V205.711H319.657Z" fill="#695EC4"/>
<path d="M317.757 208.323H227.572C226.132 208.323 224.959 207.15 224.959 205.711V203.611C224.959 202.172 226.132 200.999 227.572 200.999H317.753C319.192 200.999 320.365 202.172 320.365 203.611V205.711C320.37 207.155 319.197 208.323 317.757 208.323ZM227.572 202.428C226.916 202.428 226.384 202.96 226.384 203.616V205.715C226.384 206.371 226.916 206.903 227.572 206.903H317.753C318.408 206.903 318.94 206.371 318.94 205.715V203.616C318.94 202.96 318.408 202.428 317.753 202.428H227.572Z" fill="black"/>
<path d="M257.003 215.215C257.003 214.17 257.858 213.315 258.903 213.315H317.757C318.803 213.315 319.658 214.17 319.658 215.215V217.315C319.658 218.36 318.803 219.215 317.757 219.215H258.903C257.858 219.215 257.003 218.36 257.003 217.315V215.215Z" fill="#D13FC3"/>
<path d="M317.758 219.928H258.903C257.464 219.928 256.291 218.754 256.291 217.315V215.216C256.291 213.776 257.464 212.603 258.903 212.603H317.758C319.197 212.603 320.37 213.776 320.37 215.216V217.315C320.37 218.754 319.197 219.928 317.758 219.928ZM258.903 214.028C258.248 214.028 257.716 214.56 257.716 215.216V217.315C257.716 217.971 258.248 218.503 258.903 218.503H317.758C318.413 218.503 318.945 217.971 318.945 217.315V215.216C318.945 214.56 318.413 214.028 317.758 214.028H258.903Z" fill="black"/>
<path d="M154.928 215.215C154.928 214.17 155.783 213.315 156.828 213.315H247.009C248.054 213.315 248.909 214.17 248.909 215.215V217.315C248.909 218.36 248.054 219.215 247.009 219.215H156.828C155.783 219.215 154.928 218.36 154.928 217.315V215.215Z" fill="#695EC4"/>
<path d="M247.014 219.928H156.828C155.389 219.928 154.215 218.754 154.215 217.315V215.216C154.215 213.776 155.389 212.603 156.828 212.603H247.009C248.448 212.603 249.622 213.776 249.622 215.216V217.315C249.626 218.754 248.453 219.928 247.014 219.928ZM156.828 214.028C156.172 214.028 155.64 214.56 155.64 215.216V217.315C155.64 217.971 156.172 218.503 156.828 218.503H247.009C247.665 218.503 248.197 217.971 248.197 217.315V215.216C248.197 214.56 247.665 214.028 247.009 214.028H156.828Z" fill="black"/>
<path d="M319.658 191.935C319.658 192.98 318.803 193.835 317.757 193.835H258.903C257.858 193.835 257.003 192.98 257.003 191.935V189.836C257.003 188.791 257.858 187.936 258.903 187.936H317.757C318.803 187.936 319.658 188.791 319.658 189.836V191.935Z" fill="#695EC4"/>
<path d="M317.758 194.548H258.903C257.464 194.548 256.291 193.375 256.291 191.935V189.836C256.291 188.396 257.464 187.223 258.903 187.223H317.758C319.197 187.223 320.37 188.396 320.37 189.836V191.935C320.37 193.375 319.197 194.548 317.758 194.548ZM258.903 188.648C258.248 188.648 257.716 189.18 257.716 189.836V191.935C257.716 192.591 258.248 193.123 258.903 193.123H317.758C318.413 193.123 318.945 192.591 318.945 191.935V189.836C318.945 189.18 318.413 188.648 317.758 188.648H258.903Z" fill="black"/>
<path d="M171.8 82.312H159.355L165.578 71.5339L171.8 82.312ZM161.825 80.8869H169.335L165.582 74.384L161.825 80.8869Z" fill="black"/>
<path d="M121.387 89.7831C118.727 89.7831 116.561 87.6171 116.561 84.957C116.561 82.2969 118.727 80.1309 121.387 80.1309C124.047 80.1309 126.213 82.2969 126.213 84.957C126.213 87.6218 124.052 89.7831 121.387 89.7831ZM121.387 82.5107C120.033 82.5107 118.936 83.608 118.936 84.9617C118.936 86.3155 120.038 87.4128 121.387 87.4128C122.741 87.4128 123.838 86.3155 123.838 84.9617C123.838 83.608 122.741 82.5107 121.387 82.5107Z" fill="black"/>
<path d="M136.668 268.682C134.008 268.682 131.842 266.516 131.842 263.856C131.842 261.196 134.008 259.03 136.668 259.03C139.328 259.03 141.494 261.196 141.494 263.856C141.494 266.516 139.328 268.682 136.668 268.682ZM136.668 261.405C135.315 261.405 134.217 262.502 134.217 263.856C134.217 265.21 135.315 266.307 136.668 266.307C138.022 266.307 139.119 265.21 139.119 263.856C139.119 262.502 138.017 261.405 136.668 261.405Z" fill="black"/>
<path d="M303.764 267.847C301.104 267.847 298.938 265.681 298.938 263.02C298.938 260.36 301.104 258.194 303.764 258.194C306.424 258.194 308.59 260.36 308.59 263.02C308.59 265.681 306.424 267.847 303.764 267.847ZM303.764 260.569C302.41 260.569 301.313 261.667 301.313 263.02C301.313 264.37 302.41 265.472 303.764 265.472C305.117 265.472 306.215 264.374 306.215 263.02C306.215 261.671 305.113 260.569 303.764 260.569Z" fill="black"/>
<path d="M254.88 82.1029C252.22 82.1029 250.054 79.9369 250.054 77.2768C250.054 74.6167 252.22 72.4507 254.88 72.4507C257.54 72.4507 259.706 74.6167 259.706 77.2768C259.706 79.9369 257.54 82.1029 254.88 82.1029ZM254.88 74.8257C253.526 74.8257 252.429 75.923 252.429 77.2768C252.429 78.6306 253.526 79.7279 254.88 79.7279C256.234 79.7279 257.331 78.6306 257.331 77.2768C257.331 75.923 256.234 74.8257 254.88 74.8257Z" fill="black"/>
</svg>
