<svg width="460" height="340" viewBox="0 0 460 340" fill="none" xmlns="http://www.w3.org/2000/svg">
<path d="M300.465 105.463H289V95.1032C289 94.1694 288.473 93.4072 287.831 93.4072H163.556C162.914 93.4072 162.387 94.1694 162.387 95.1032V249.22H175.021V261.276H301.628V107.159C301.634 106.225 301.107 105.463 300.465 105.463Z" fill="#D13FC3"/>
<path d="M278.932 239.406V85.2887C278.932 84.355 278.405 83.5928 277.763 83.5928H153.488C152.846 83.5928 152.319 84.355 152.319 85.2887V239.406H278.932Z" fill="white"/>
<path d="M279.885 240.358H151.366V85.2889C151.366 83.8025 152.3 82.6401 153.488 82.6401H277.757C278.945 82.6401 279.878 83.8025 279.878 85.2889V240.358H279.885ZM153.272 238.453H277.973V85.2889C277.973 84.8506 277.789 84.5775 277.706 84.5394L153.481 84.5457C153.45 84.5775 153.266 84.8506 153.266 85.2889V238.453H153.272Z" fill="black"/>
<path d="M291.566 251.462V97.3454C291.566 96.4116 291.039 95.6494 290.397 95.6494H166.128C165.487 95.6494 164.959 96.4116 164.959 97.3454V251.462H291.566Z" fill="#695EC4"/>
<path d="M292.519 252.415H164.007V97.3455C164.007 95.8592 164.94 94.6968 166.128 94.6968H290.397C291.585 94.6968 292.519 95.8592 292.519 97.3455V252.415ZM165.912 250.51H290.613V97.3455C290.613 96.9072 290.429 96.6341 290.346 96.596L166.122 96.6024C166.09 96.6341 165.906 96.9072 165.906 97.3455V250.51H165.912Z" fill="black"/>
<path d="M284.109 118.923H245.254V130.808H284.109V118.923Z" fill="white"/>
<path d="M285.062 131.761H244.301V117.971H285.062V131.761ZM246.207 129.855H283.156V119.876H246.207V129.855Z" fill="black"/>
<path d="M216.207 109.801H177.352V141.262H216.207V109.801Z" fill="white"/>
<path d="M217.16 142.215H176.399V108.848H217.16V142.215ZM178.305 140.309H215.254V110.754H178.305V140.309Z" fill="black"/>
<path d="M264.678 152.658H199.304V203.384H264.678V152.658Z" fill="#D13FC3"/>
<path d="M265.631 204.337H198.351V151.705H265.631V204.337ZM200.257 202.432H263.725V153.611H200.257V202.432Z" fill="black"/>
<path d="M238.254 219.772H177.352V239.088H238.254V219.772Z" fill="white"/>
<path d="M239.207 240.041H176.399V218.819H239.207V240.041ZM178.305 238.136H237.302V220.725H178.305V238.136Z" fill="black"/>
<path d="M134.572 255.674H117.93L126.251 241.261L134.572 255.674ZM121.233 253.768H131.275L126.257 245.072L121.233 253.768Z" fill="black"/>
<path d="M113.128 92.4413C109.571 92.4413 106.674 89.5448 106.674 85.9878C106.674 82.4307 109.571 79.5342 113.128 79.5342C116.685 79.5342 119.581 82.4307 119.581 85.9878C119.581 89.5448 116.685 92.4413 113.128 92.4413ZM113.128 82.7101C111.317 82.7101 109.85 84.1775 109.85 85.9878C109.85 87.7981 111.317 89.2653 113.128 89.2653C114.938 89.2653 116.405 87.7981 116.405 85.9878C116.405 84.1775 114.932 82.7101 113.128 82.7101Z" fill="black"/>
<path d="M346.872 254.588C343.315 254.588 340.419 251.691 340.419 248.134C340.419 244.577 343.315 241.681 346.872 241.681C350.429 241.681 353.326 244.577 353.326 248.134C353.326 251.691 350.429 254.588 346.872 254.588ZM346.872 244.857C345.062 244.857 343.595 246.324 343.595 248.134C343.595 249.945 345.062 251.412 346.872 251.412C348.683 251.412 350.15 249.945 350.15 248.134C350.15 246.324 348.683 244.857 346.872 244.857Z" fill="black"/>
<path d="M336.569 91.3236C333.012 91.3236 330.116 88.4272 330.116 84.8701C330.116 81.313 333.012 78.4165 336.569 78.4165C340.127 78.4165 343.023 81.313 343.023 84.8701C343.023 88.4272 340.127 91.3236 336.569 91.3236ZM336.569 81.5925C334.759 81.5925 333.292 83.0598 333.292 84.8701C333.292 86.674 334.759 88.1477 336.569 88.1477C338.38 88.1477 339.847 86.6804 339.847 84.8701C339.847 83.0661 338.373 81.5925 336.569 81.5925Z" fill="black"/>
</svg>
