<svg width="460" height="340" viewBox="0 0 460 340" fill="none" xmlns="http://www.w3.org/2000/svg">
<path d="M192.963 248.849H329.322C339.125 248.849 347.081 240.902 347.081 231.089V141.751C347.081 131.948 339.135 123.992 329.322 123.992H192.963C183.16 123.992 175.204 131.938 175.204 141.751V231.1C175.214 240.902 183.16 248.849 192.963 248.849Z" fill="#D13FC3"/>
<path d="M311.271 231.257H174.912C165.109 231.257 157.152 223.311 157.152 213.498V124.149C157.152 114.346 165.099 106.39 174.912 106.39H311.271C321.074 106.39 329.03 114.336 329.03 124.149V213.498C329.02 223.311 321.074 231.257 311.271 231.257Z" fill="#D13FC3"/>
<path d="M311.271 232.822H174.912C164.264 232.822 155.588 224.156 155.588 213.498V124.149C155.588 113.492 164.254 104.826 174.912 104.826H311.271C321.918 104.826 330.595 113.492 330.595 124.149V213.498C330.584 224.156 321.918 232.822 311.271 232.822ZM174.912 107.965C165.985 107.965 158.717 115.233 158.717 124.16V213.509C158.717 222.435 165.975 229.704 174.912 229.704H311.271C320.198 229.704 327.466 222.435 327.466 213.509V124.16C327.466 115.233 320.208 107.965 311.271 107.965H174.912Z" fill="black"/>
<path d="M329.02 126.745H157.152V210.9H329.02V126.745Z" fill="#695EC4"/>
<path d="M330.584 212.464H155.588V125.18H330.584V212.464ZM158.717 209.336H327.456V128.309H158.717V209.336Z" fill="black"/>
<path d="M329.02 168.822H157.152V210.9H329.02V168.822Z" fill="#695EC4"/>
<path d="M330.584 212.464H155.588V167.258H330.584V212.464ZM158.717 209.336H327.456V170.386H158.717V209.336Z" fill="black"/>
<path d="M261.549 213.326C286.132 203.143 297.806 174.959 287.623 150.376C277.44 125.793 249.256 114.119 224.673 124.302C200.09 134.485 188.416 162.668 198.599 187.252C208.782 211.835 236.966 223.509 261.549 213.326Z" fill="white"/>
<path d="M243.091 218.566C215.665 218.566 193.349 196.25 193.349 168.824C193.349 141.397 215.665 119.081 243.091 119.081C270.518 119.081 292.834 141.397 292.834 168.824C292.834 196.26 270.518 218.566 243.091 218.566ZM243.091 122.21C217.386 122.21 196.477 143.118 196.477 168.824C196.477 194.529 217.386 215.438 243.091 215.438C268.797 215.438 289.705 194.529 289.705 168.824C289.705 143.129 268.797 122.21 243.091 122.21Z" fill="black"/>
<path d="M277.369 168.823C277.369 187.751 262.018 203.101 243.091 203.101C224.164 203.101 208.814 187.751 208.814 168.823C208.814 149.896 224.164 134.546 243.091 134.546C262.018 134.546 277.369 149.896 277.369 168.823Z" fill="#695EC4"/>
<path d="M243.091 204.665C223.33 204.665 207.25 188.585 207.25 168.823C207.25 149.062 223.33 132.981 243.091 132.981C262.853 132.981 278.933 149.062 278.933 168.823C278.933 188.585 262.853 204.665 243.091 204.665ZM243.091 136.11C225.05 136.11 210.378 150.782 210.378 168.823C210.378 186.864 225.05 201.537 243.091 201.537C261.132 201.537 275.805 186.864 275.805 168.823C275.805 150.793 261.122 136.11 243.091 136.11Z" fill="black"/>
<path d="M268.077 106.327V97.8806C268.077 95.1797 265.887 92.9897 263.187 92.9897H222.996C220.295 92.9897 218.105 95.1797 218.105 97.8806V106.327H268.077Z" fill="white"/>
<path d="M269.642 107.891H216.541V97.8803C216.541 94.3243 219.44 91.4253 222.996 91.4253H263.187C266.743 91.4253 269.642 94.3243 269.642 97.8803V107.891ZM219.67 104.763H266.513V97.8803C266.513 96.045 265.022 94.5538 263.187 94.5538H222.996C221.161 94.5538 219.67 96.045 219.67 97.8803V104.763Z" fill="black"/>
<path d="M195.612 115.411H179.656V120.646H195.612V115.411Z" fill="white"/>
<path d="M197.176 122.21H178.092V113.846H197.176V122.21ZM181.221 119.081H194.047V116.975H181.221V119.081Z" fill="black"/>
<path d="M306.766 106.402C306.693 103.576 305.243 101.302 303.45 101.302H287.839C286.045 101.302 284.596 103.565 284.523 106.402H306.766Z" fill="white"/>
<path d="M308.372 107.966H282.927L282.969 106.36C283.073 102.585 285.169 99.7378 287.849 99.7378H303.46C306.14 99.7378 308.236 102.585 308.341 106.36L308.372 107.966ZM286.327 104.837H304.962C304.607 103.607 303.94 102.866 303.45 102.866H287.839C287.349 102.866 286.681 103.596 286.327 104.837Z" fill="black"/>
</svg>
