<svg width="170" height="70" viewBox="0 0 170 70" fill="none" xmlns="http://www.w3.org/2000/svg">
<path d="M10.8984 10.8096H20.5703V30.457H41.8984V10.8096H51.5703V59.21H41.8984V39.2471H20.5703V59.21H10.8984V10.8096Z" fill="black"/>
<path fill-rule="evenodd" clip-rule="evenodd" d="M83.5703 60C97.3537 60 108.527 49.8843 108.527 35C108.527 20.1157 97.3537 10 83.5703 10C69.7869 10 58.6133 19.5757 58.6133 35C58.6133 50.4243 69.7869 60 83.5703 60ZM83.5508 51.0512C91.9429 51.0512 98.5277 44.5566 98.5277 35.0002C98.5277 25.4439 91.9429 18.9492 83.5508 18.9492C75.1586 18.9492 68.5244 25.0972 68.5244 35.0002C68.5244 44.9032 75.1586 51.0512 83.5508 51.0512Z" fill="black"/>
<path d="M159.105 44.9609C155.523 54.2168 146.965 60 136.977 60C123.766 60 113.055 50.4238 113.055 35C113.055 19.5762 123.766 10 136.977 10C146.801 10 155.242 15.5928 158.926 24.5811L149.516 26.3066C147.027 21.7207 142.531 18.9492 137.301 18.9492C129.293 18.9492 122.965 25.0977 122.965 35C122.965 44.9033 129.293 51.0508 137.301 51.0508C142.621 51.0508 147.176 48.1855 149.637 43.46L159.105 44.9609Z" fill="black"/>
</svg>
