<svg xmlns="http://www.w3.org/2000/svg" width="165" height="79" fill="#685dc3" viewBox="0 0 165 79">
  <path d="M38.95 28.303V8.666h9.615v48.405H38.95v-19.98H17.594v19.98H7.98V8.666h9.614v19.637h21.357Zm41.585 29.455c-4.807 0-9.11-1.053-12.91-3.158-3.754-2.152-6.707-5.104-8.859-8.858-2.106-3.799-3.159-8.101-3.159-12.907 0-4.807 1.053-9.087 3.16-12.84 2.15-3.8 5.104-6.752 8.858-8.857 3.8-2.106 8.103-3.159 12.91-3.159 4.852 0 9.156 1.053 12.91 3.159 3.8 2.105 6.752 5.058 8.858 8.857 2.152 3.753 3.228 8.033 3.228 12.84 0 4.806-1.076 9.108-3.228 12.907-2.106 3.754-5.059 6.706-8.858 8.858-3.754 2.105-8.058 3.158-12.91 3.158Zm0-8.789c2.93 0 5.516-.663 7.76-1.99 2.288-1.374 4.074-3.273 5.355-5.7 1.282-2.471 1.923-5.286 1.923-8.445 0-3.112-.64-5.881-1.922-8.308-1.282-2.471-3.068-4.37-5.357-5.698-2.243-1.373-4.83-2.06-7.76-2.06-2.93 0-5.539.687-7.828 2.06-2.243 1.327-4.005 3.227-5.288 5.698-1.236 2.427-1.854 5.196-1.854 8.308 0 3.159.619 5.974 1.855 8.446 1.282 2.426 3.044 4.325 5.287 5.698 2.29 1.328 4.899 1.991 7.829 1.991Zm53.493 8.789c-4.578 0-8.698-1.053-12.361-3.158-3.616-2.152-6.455-5.104-8.515-8.858-2.014-3.799-3.021-8.101-3.021-12.907 0-4.761 1.03-9.018 3.09-12.771 2.06-3.8 4.898-6.752 8.515-8.857 3.662-2.152 7.805-3.228 12.429-3.228 5.128 0 9.614 1.305 13.459 3.914 3.892 2.563 6.661 6.11 8.31 10.642l-9.546 1.58c-1.007-2.29-2.563-4.074-4.669-5.356-2.06-1.327-4.464-1.991-7.21-1.991-2.793 0-5.288.687-7.486 2.06-2.151 1.327-3.845 3.227-5.081 5.698-1.19 2.427-1.786 5.196-1.786 8.308 0 3.159.596 5.974 1.786 8.446 1.19 2.426 2.861 4.325 5.013 5.698 2.151 1.328 4.624 1.991 7.416 1.991 2.747 0 5.219-.686 7.417-2.06 2.243-1.372 3.891-3.25 4.944-5.63l9.544 1.58c-1.738 4.577-4.6 8.216-8.582 10.917-3.984 2.655-8.539 3.982-13.666 3.982ZM11.94 66.292v-2.25h1.101v5.546H11.94v-2.29H9.493v2.29H8.39v-5.546h1.102v2.25h2.447Zm6.893 3.296H17.67l-.394-1.11H14.75l-.4 1.11H13.2l2.117-5.546h1.463l2.054 5.546Zm-2.888-4.382-.826 2.266h1.802l-.795-2.266h-.18Z"/>
  <path d="M21.95 64.042h1.11l-1.78 4.208c-.204.493-.432.839-.684 1.038-.252.2-.593.3-1.023.3h-.819l-.094-1.008h.913a.944.944 0 0 0 .377-.063.592.592 0 0 0 .237-.22l-2.101-4.256h1.212l1.33 2.808h.133l1.188-2.808Zm3.427 2.658 2.44 2.888h-1.401l-1.928-2.337h-.212v2.337h-1.102v-5.546h1.102v2.218h.197l1.84-2.218h1.307L25.377 66.7Z"/>
  <path d="M33.017 69.588h-1.165l-.393-1.11h-2.526l-.401 1.11h-1.149l2.117-5.546h1.463l2.054 5.546Zm-2.888-4.382-.826 2.266h1.802l-.795-2.266h-.18Zm11.315 4.461a3 3 0 0 1-1.48-.362 2.695 2.695 0 0 1-1.014-1.015 3 3 0 0 1-.362-1.48c0-.55.12-1.04.362-1.47a2.621 2.621 0 0 1 1.015-1.015 3 3 0 0 1 1.479-.362c.556 0 1.05.12 1.48.362.435.241.773.58 1.014 1.015.247.43.37.92.37 1.47 0 .552-.123 1.045-.37 1.48-.241.43-.58.768-1.015 1.015-.43.241-.923.362-1.48.362Zm0-1.007c.336 0 .632-.076.889-.228.262-.158.467-.375.614-.653.147-.284.22-.606.22-.968 0-.357-.073-.674-.22-.952a1.571 1.571 0 0 0-.614-.653 1.668 1.668 0 0 0-.89-.236 1.71 1.71 0 0 0-.896.236 1.59 1.59 0 0 0-.606.653 2.069 2.069 0 0 0-.212.952c0 .362.07.684.212.968.147.278.349.495.606.653.262.152.561.228.897.228Zm3.253.928v-5.546h3.69v1.007H45.8V66h.992c.388 0 .734.076 1.038.228.31.152.548.364.716.637.173.273.26.58.26.92 0 .347-.087.656-.26.929a1.746 1.746 0 0 1-.716.645 2.29 2.29 0 0 1-1.038.228h-2.094Zm2.093-.952c.268 0 .483-.076.646-.228a.826.826 0 0 0 .244-.622.781.781 0 0 0-.244-.597c-.163-.158-.378-.236-.645-.236h-.992v1.683h.992Zm2.405.952v-5.546h1.983c.409 0 .773.08 1.094.243a1.834 1.834 0 0 1 1.022 1.668c0 .367-.091.695-.275.984-.178.288-.43.516-.755.684-.32.163-.682.244-1.086.244h-.881v1.723h-1.102Zm1.983-2.706c.304 0 .545-.084.724-.252a.9.9 0 0 0 .267-.677c0-.278-.089-.5-.267-.668-.179-.173-.42-.26-.724-.26h-.881v1.857h.88Zm7.045 2.706h-1.165l-.393-1.11h-2.526l-.401 1.11h-1.149l2.117-5.546h1.463l2.054 5.546Zm-2.888-4.382-.826 2.266h1.802l-.795-2.266h-.18Zm5.859 1.494c.278.1.504.26.677.48.173.216.26.483.26.803 0 .32-.087.608-.26.865-.168.252-.414.451-.74.598-.32.147-.697.22-1.133.22-.377 0-.723-.065-1.038-.196a2.13 2.13 0 0 1-.787-.55 1.793 1.793 0 0 1-.417-.819l1.062-.173c.12.246.273.43.457.55.183.121.422.182.715.182.315 0 .562-.066.74-.197a.624.624 0 0 0 .276-.535.583.583 0 0 0-.276-.504c-.183-.125-.461-.188-.834-.188h-.692v-.952h.684c.3 0 .546-.06.74-.181.194-.126.291-.286.291-.48a.543.543 0 0 0-.26-.464c-.173-.126-.39-.189-.653-.189-.252 0-.47.06-.653.18a1.19 1.19 0 0 0-.433.489l-1.038-.181c.173-.488.443-.858.81-1.11.367-.257.813-.385 1.338-.385.383 0 .724.068 1.023.205.304.13.54.314.708.55.173.236.26.504.26.803 0 .299-.077.553-.229.763a1.088 1.088 0 0 1-.598.417Zm3.951 2.967a3 3 0 0 1-1.48-.362 2.695 2.695 0 0 1-1.014-1.015 3 3 0 0 1-.362-1.48c0-.55.12-1.04.362-1.47a2.621 2.621 0 0 1 1.015-1.015 3 3 0 0 1 1.479-.362c.556 0 1.05.12 1.48.362.435.241.773.58 1.014 1.015.247.43.37.92.37 1.47 0 .552-.123 1.045-.37 1.48-.241.43-.58.768-1.015 1.015-.43.241-.923.362-1.48.362Zm0-1.007c.336 0 .632-.076.889-.228.262-.158.467-.375.614-.653a2.07 2.07 0 0 0 .22-.968c0-.357-.073-.674-.22-.952a1.57 1.57 0 0 0-.614-.653 1.668 1.668 0 0 0-.89-.236 1.71 1.71 0 0 0-.896.236 1.59 1.59 0 0 0-.606.653 2.068 2.068 0 0 0-.212.952c0 .362.07.684.212.968.147.278.349.495.606.653.262.152.561.228.897.228Zm6.542-1.92c.3.084.53.239.693.464.163.22.244.49.244.81 0 .315-.076.59-.228.827-.153.236-.37.42-.653.55a2.319 2.319 0 0 1-.984.197h-2.36v-5.546h2.195c.367 0 .69.065.968.196.283.126.5.305.653.535.157.231.236.493.236.787 0 .273-.069.511-.205.716-.131.205-.317.36-.559.464ZM69.5 64.994v1.33h1.094c.23 0 .412-.061.543-.182a.61.61 0 0 0 .204-.48.619.619 0 0 0-.204-.488c-.132-.12-.313-.18-.543-.18H69.5Zm1.259 3.642c.225 0 .404-.063.535-.189a.643.643 0 0 0 .205-.495c0-.2-.069-.362-.205-.488-.131-.126-.31-.189-.535-.189H69.5v1.361h1.259Zm7.267.952H76.86l-.393-1.11h-2.526l-.401 1.11h-1.149l2.117-5.546h1.463l2.054 5.546Zm-2.888-4.382-.826 2.266h1.802l-.795-2.266h-.18Zm6.595 1.086v-2.25h1.102v5.546h-1.102v-2.29h-2.447v2.29h-1.101v-5.546h1.101v2.25h2.447Zm3.313 3.296h-1.542v-5.546h1.086v4.17h.142l2.234-4.17h1.543v5.546h-1.086v-4.17h-.142l-2.235 4.17Zm7.964 0h-3.833v-5.546h3.754v1.007h-2.652v1.266h2.4v.952h-2.4v1.314h2.73v1.007Zm8.389.079c-.525 0-.997-.12-1.416-.362a2.631 2.631 0 0 1-.976-1.015 3.11 3.11 0 0 1-.346-1.48c0-.544.118-1.032.354-1.462a2.56 2.56 0 0 1 .976-1.015 2.76 2.76 0 0 1 1.424-.37c.587 0 1.101.15 1.542.448.446.294.763.7.952 1.22l-1.094.18a1.32 1.32 0 0 0-.535-.613 1.49 1.49 0 0 0-.826-.228c-.32 0-.606.079-.857.236-.247.152-.441.37-.583.653a2.137 2.137 0 0 0-.204.952c0 .362.068.684.204.968.137.278.328.495.575.653.246.152.529.228.849.228.315 0 .598-.079.85-.236.257-.158.446-.373.567-.645l1.093.18a2.581 2.581 0 0 1-.983 1.251 2.756 2.756 0 0 1-1.566.457Z"/>
  <path d="M106.503 69.588h-1.102v-4.54h-1.841v-1.006h4.784v1.007h-1.841v4.54Z"/>
  <path d="M111.927 64.042h1.109l-1.778 4.209c-.205.493-.433.839-.685 1.038-.252.2-.592.3-1.023.3h-.818l-.094-1.008h.912a.943.943 0 0 0 .378-.063.596.596 0 0 0 .236-.22l-2.101-4.256h1.212l1.33 2.808h.133l1.189-2.808Zm.204 6.978v-2.44h.22a.582.582 0 0 0 .402-.134c.105-.089.194-.262.267-.519.074-.262.131-.65.173-1.164l.229-2.722h3.698v4.539h.842v2.439h-1.102v-1.432h-3.627v1.432h-1.102Zm3.887-2.439v-3.532h-1.574l-.149 1.778c-.068.828-.231 1.413-.488 1.754h2.211Zm5.969 1.007h-3.832v-5.546h3.753v1.007h-2.651v1.266h2.4v.952h-2.4v1.314h2.73v1.007Zm4.061-3.296v-2.25h1.101v5.546h-1.101v-2.29h-2.447v2.29h-1.102v-5.546h1.102v2.25h2.447Zm4.635 1.329a2.28 2.28 0 0 1-1.047.228c-.656 0-1.162-.175-1.519-.527-.356-.356-.535-.865-.535-1.526v-1.754h1.102v1.723c0 .734.359 1.1 1.078 1.1.336 0 .643-.072.921-.22v-2.603h1.101v5.546h-1.101v-1.967Zm5.603 1.967h-3.832v-5.546h3.753v1.007h-2.651v1.266h2.4v.952h-2.4v1.314h2.73v1.007Zm2.898.079c-.525 0-.997-.12-1.416-.362a2.627 2.627 0 0 1-.976-1.015 3.107 3.107 0 0 1-.346-1.48c0-.544.118-1.032.354-1.462.236-.436.561-.774.975-1.015.42-.247.895-.37 1.425-.37.587 0 1.101.15 1.542.448.445.294.763.7.952 1.22l-1.094.18a1.325 1.325 0 0 0-.535-.613 1.49 1.49 0 0 0-.826-.228c-.32 0-.606.079-.858.236-.246.152-.44.37-.582.653a2.139 2.139 0 0 0-.205.952c0 .362.069.684.205.968.136.278.328.495.574.653.247.152.53.228.85.228.315 0 .599-.079.849-.236.258-.158.447-.373.568-.645l1.094.18a2.59 2.59 0 0 1-.984 1.251 2.758 2.758 0 0 1-1.566.457Z"/>
  <path d="M144.287 69.588h-1.101v-4.54h-1.841v-1.006h4.783v1.007h-1.841v4.54Zm5.286-2.848c.3.084.531.239.692.464.163.22.245.49.245.81 0 .315-.077.59-.229.827-.151.236-.369.42-.653.55-.283.131-.61.197-.983.197h-2.36v-5.546h2.194c.368 0 .691.065.968.196.284.126.502.305.654.535.156.231.235.493.235.787 0 .273-.068.511-.203.716-.132.205-.318.36-.56.464Zm-2.187-1.746v1.33h1.093c.231 0 .413-.061.544-.182a.61.61 0 0 0 .205-.48.62.62 0 0 0-.205-.488c-.131-.12-.313-.18-.544-.18h-1.093Zm1.259 3.642c.226 0 .404-.063.535-.189a.644.644 0 0 0 .204-.495c0-.2-.068-.362-.204-.488-.131-.126-.309-.189-.535-.189h-1.259v1.361h1.259Zm4.879 1.031a2.99 2.99 0 0 1-1.479-.362 2.691 2.691 0 0 1-1.015-1.015 2.993 2.993 0 0 1-.363-1.48c0-.55.121-1.04.363-1.47a2.618 2.618 0 0 1 1.015-1.015 2.997 2.997 0 0 1 1.479-.362c.557 0 1.049.12 1.48.362.435.241.773.58 1.014 1.015.247.43.37.92.37 1.47 0 .552-.123 1.045-.37 1.48a2.62 2.62 0 0 1-1.014 1.015c-.431.241-.923.362-1.48.362Zm0-1.007c.336 0 .631-.076.889-.228.263-.158.467-.375.614-.653.146-.284.22-.606.22-.968 0-.357-.074-.674-.22-.952a1.568 1.568 0 0 0-.614-.653 1.67 1.67 0 0 0-.889-.236c-.335 0-.635.079-.897.236-.258.152-.459.37-.606.653a2.063 2.063 0 0 0-.213.952c0 .362.071.684.213.968.147.278.348.495.606.653.262.152.562.228.897.228Z"/>
</svg>
