<svg width="229" height="79" viewBox="0 0 229 79" fill="none" xmlns="http://www.w3.org/2000/svg">
<path d="M51.1251 53.6411C50.9422 53.6411 50.8203 53.763 50.8203 53.9459C50.8203 54.1287 50.9422 54.2506 51.1251 54.2506C51.3079 54.2506 51.4298 54.1287 51.4298 53.9459C51.4298 53.824 51.3079 53.6411 51.1251 53.6411Z" fill="black"/>
<path d="M52.1641 56.627C52.1641 56.8099 52.286 56.9318 52.4688 56.9318C52.6517 56.9318 52.7736 56.8099 52.7736 56.627C52.7736 56.4442 52.6517 56.3223 52.4688 56.3223C52.286 56.3223 52.1641 56.4442 52.1641 56.627Z" fill="black"/>
<path d="M51.1251 56.3223C50.9422 56.3223 50.8203 56.4442 50.8203 56.627C50.8203 56.8099 50.9422 56.9318 51.1251 56.9318C51.3079 56.9318 51.4298 56.8099 51.4298 56.627C51.4298 56.4442 51.3079 56.3223 51.1251 56.3223Z" fill="black"/>
<path d="M53.5019 56.6268C53.5019 56.8097 53.6238 56.9316 53.8066 56.9316C53.9895 56.9316 54.1114 56.8097 54.1114 56.6268C54.1114 56.444 53.9895 56.3221 53.8066 56.3221C53.6238 56.3221 53.5019 56.444 53.5019 56.6268Z" fill="black"/>
<path d="M50.6993 50.6538L50.7603 51.4462L50.0898 51.3852V52.2385L50.7603 52.1166L50.6993 52.909H51.5527L51.4917 52.1166L52.1622 52.2385V51.3852L51.4917 51.4462L51.5527 50.6538H50.6993Z" fill="black"/>
<path d="M51.6758 53.3975V56.1402H54.2966C54.1138 54.7384 53.0167 53.6413 51.6758 53.3975Z" fill="black"/>
<path d="M51.1251 54.9824C50.9422 54.9824 50.8203 55.1043 50.8203 55.2872C50.8203 55.47 50.9422 55.5919 51.1251 55.5919C51.3079 55.5919 51.4298 55.47 51.4298 55.2872C51.4298 55.1043 51.3079 54.9824 51.1251 54.9824Z" fill="black"/>
<path d="M52.2219 58.4565C52.1609 58.4565 51.9171 59.127 52.1609 59.6146C52.2828 59.8584 52.5266 59.9803 52.7704 59.9194C53.0142 59.8584 53.0752 59.6146 53.0752 59.4927C53.0142 58.9441 52.5876 58.4565 52.2219 58.4565Z" fill="black"/>
<path d="M50.0306 58.4565C49.6649 58.4565 49.2383 58.9441 49.2383 59.4927C49.2383 59.6755 49.2992 59.8584 49.543 59.9194C49.7868 59.9803 50.0306 59.8584 50.1525 59.6146C50.2744 59.127 50.0916 58.4565 50.0306 58.4565Z" fill="black"/>
<path d="M51.1262 58.0902C50.8824 58.0902 50.151 59.492 50.6996 60.1625C50.8215 60.2844 50.9434 60.3453 51.1262 60.3453C51.3091 60.3453 51.4919 60.2844 51.5529 60.1625C52.0405 59.492 51.37 58.0902 51.1262 58.0902Z" fill="black"/>
<path d="M47.8948 56.627C47.8948 56.3223 47.9558 56.0785 47.9558 56.0785H50.5766V53.3357C49.2967 53.5795 48.2605 54.5547 47.9558 55.8347C47.8948 55.9566 47.651 56.0175 47.4682 55.9566C46.493 55.8347 44.5426 55.469 44.5426 55.0423C44.5426 54.4328 44.9692 54.189 45.3349 54.189C45.8835 54.189 46.493 54.4938 46.9806 53.7623C45.213 53.8233 46.5539 51.2634 45.0911 50.7758C45.1521 51.4462 45.0911 52.6043 44.8473 53.2138C44.8473 53.2138 44.2987 52.6652 43.7502 52.4214C43.8111 52.909 43.6892 53.8842 43.5064 54.3719C43.5064 54.3719 42.8969 53.7623 42.2264 53.5795C42.8359 54.4328 42.8359 55.7128 42.6531 56.4442C42.5921 56.688 42.775 56.9318 43.2016 56.9318C43.933 56.8708 46.3711 56.9927 47.4072 57.4194C47.712 57.5413 48.0167 57.7241 48.1386 57.9679C48.2605 58.2727 48.5043 58.7603 48.87 59.0041C49.0529 58.4555 49.6624 57.846 50.089 57.907C50.2109 57.907 50.3328 58.1508 50.3938 58.3336C50.4547 58.1508 50.7595 57.6022 51.0642 57.6022C51.369 57.6022 51.6737 58.0289 51.7956 58.3946C51.8566 58.1508 51.9785 57.907 52.1004 57.907C52.5271 57.907 53.0756 58.2727 53.2585 58.9431C53.4413 58.7603 54.1727 57.7851 54.2337 57.1146H47.8948C47.8948 57.1756 47.8948 56.9318 47.8948 56.627Z" fill="black"/>
<path d="M49.4805 56.627C49.4805 56.8099 49.6024 56.9318 49.7852 56.9318C49.9681 56.9318 50.09 56.8099 50.09 56.627C50.09 56.4442 49.9681 56.3223 49.7852 56.3223C49.6024 56.3223 49.4805 56.4442 49.4805 56.627Z" fill="black"/>
<path d="M48.1992 56.627C48.1992 56.8099 48.3211 56.9318 48.504 56.9318C48.6868 56.9318 48.8087 56.8099 48.8087 56.627C48.8087 56.4442 48.6868 56.3223 48.504 56.3223C48.3211 56.3223 48.1992 56.4442 48.1992 56.627Z" fill="black"/>
<path d="M22.9684 57.9683C22.8465 58.0902 22.6027 58.7606 22.7246 59.1873C22.7856 59.3701 22.8465 59.4311 23.0294 59.4311C23.2122 59.4311 23.2732 59.3092 23.3341 59.1263C23.3951 58.6997 23.0903 58.0292 22.9684 57.9683Z" fill="black"/>
<path d="M25.2213 59.858C25.0994 60.0409 24.9166 60.1018 24.8556 60.1628C24.9166 60.2237 25.0994 60.3456 25.2823 60.3456C25.4042 60.3456 25.5261 60.2847 25.587 60.2237C25.7699 59.858 25.587 59.5533 25.5261 59.4314C25.4651 59.5533 25.4042 59.7361 25.2213 59.858Z" fill="black"/>
<path d="M24.3682 59.0046C24.612 58.7608 24.6729 58.578 24.612 58.4561C24.551 58.2732 24.0025 57.7247 23.393 57.0542C23.393 57.1761 23.332 57.298 23.332 57.4199C23.7587 58.0294 23.9415 58.6389 23.8196 59.1875C23.8806 59.2484 23.8806 59.2484 23.9415 59.2484C24.0634 59.3703 24.2463 59.1875 24.3682 59.0046Z" fill="black"/>
<path d="M25.2198 59.0651C25.2198 58.9432 25.2198 58.8822 25.1588 58.8213H25.0978C25.0369 58.8213 24.9759 58.9432 24.915 59.0041C24.854 59.0651 24.7931 59.187 24.6712 59.3089C24.5493 59.4308 24.4883 59.4917 24.3664 59.6136C24.2445 59.6746 24.1836 59.7965 24.1836 59.8574C24.1836 59.8574 24.1836 59.8574 24.1836 59.9184C24.2445 59.9794 24.2445 59.9793 24.3055 59.9793C24.3664 59.9793 24.5493 59.9184 24.854 59.6136C25.1588 59.3089 25.2198 59.187 25.2198 59.0651Z" fill="black"/>
<path d="M21.2 55.8347C21.2 55.8347 21.1391 55.8957 21.0781 56.0176C21.2 56.0176 21.3829 56.0176 21.5048 56.0785C21.5048 55.9566 21.5048 55.7738 21.5048 55.6519C21.3829 55.6519 21.261 55.7738 21.2 55.8347Z" fill="black"/>
<path d="M22.8447 56.0182C22.8447 56.0182 24.1246 57.1153 24.5513 57.5419C24.6732 57.6638 24.7951 57.6638 24.917 57.6029C24.9779 57.5419 25.0999 57.5419 25.2218 57.481C26.5017 57.0543 28.574 56.9934 29.3054 56.9934C29.793 56.9934 29.9149 56.7496 29.854 56.5058C29.7321 55.7744 29.6711 54.4944 30.2806 53.6411C29.6102 53.8849 29.0007 54.4335 29.0007 54.4335C28.7569 54.0068 28.6959 52.9707 28.7569 52.4831C28.1474 52.6659 27.6598 53.2754 27.6598 53.2754C27.416 52.6659 27.355 51.5079 27.416 50.8374C25.9532 51.325 27.2941 53.9459 25.5265 53.824C26.0141 54.5554 26.6236 54.2506 27.1722 54.2506C27.5379 54.2506 28.0255 54.4944 27.9645 55.1039C27.9036 55.5306 25.5265 56.0182 24.5513 56.0182C23.8808 56.0182 23.3932 55.8353 23.0885 55.3477C22.9056 55.1039 22.7837 55.043 22.6009 55.043C22.3571 55.1039 22.1133 55.2868 22.1133 55.8963C22.1133 56.262 22.2961 57.1153 22.7228 57.1153C22.9666 57.1762 22.9666 56.4448 22.8447 56.0182Z" fill="black"/>
<path d="M20.4053 55.6518C20.4662 55.6518 20.5272 55.6518 20.5881 55.6518C20.4053 55.8956 20.4053 56.0784 20.4662 56.1394C20.5881 56.2613 20.6491 56.0175 20.9538 55.7127C21.2586 55.408 21.4414 55.2861 21.3805 55.1642C21.3195 55.1032 21.1367 55.1032 20.8929 55.2861C20.8929 55.2251 20.9538 55.1642 20.8929 55.1032C20.771 54.7985 20.3443 54.4328 20.0396 54.4328C19.9786 54.4328 19.9786 54.4328 19.9177 54.4328C20.0396 54.2499 19.9786 54.128 19.9177 54.0061C19.8567 53.9451 19.7958 54.0061 19.6739 54.128C19.6739 54.067 19.6739 53.9451 19.6129 53.8232C19.2472 53.2137 17.1749 51.2633 16.6873 51.0805C16.3826 50.9586 16.3216 51.1414 16.3216 51.1414C16.3216 51.1414 16.1388 51.2633 16.2607 51.5071C16.4435 51.9947 18.4549 54.0061 19.0034 54.3718C19.1253 54.4327 19.2472 54.4937 19.3082 54.4328C19.1863 54.5547 19.1253 54.5547 19.2472 54.6766C19.3082 54.7375 19.4301 54.7985 19.6129 54.6766C19.6129 54.7375 19.6129 54.7375 19.6129 54.7985C19.7348 55.0423 20.1005 55.5299 20.4053 55.6518Z" fill="black"/>
<path d="M21.8715 57.1145C21.8715 56.9316 21.5058 56.5659 21.0182 56.5659C20.3477 56.5659 20.043 56.9926 20.043 57.2364C20.043 57.663 20.4696 57.724 20.5915 57.724C21.0182 57.724 21.8105 57.2364 21.8715 57.1145Z" fill="black"/>
<path d="M21.2604 58.1509C21.0775 58.3947 21.0166 58.6385 21.0775 58.8214C21.1385 59.0652 21.3823 59.1871 21.6261 59.1871C21.8699 59.1871 22.1137 59.0652 22.2356 58.8823C22.4794 58.4557 22.4794 57.5414 22.4185 57.4805C22.1747 57.4805 21.5651 57.7243 21.2604 58.1509Z" fill="black"/>
<path d="M15.2875 48.6423C15.1047 48.4595 14.678 48.7642 14.4342 48.5814C14.5561 47.9719 14.9828 48.5814 15.3485 48.2157C15.5313 48.0328 15.4094 47.789 15.3485 47.7281C15.1656 47.9109 14.9218 47.85 14.8609 47.7281C15.2875 46.631 14.4342 45.4729 13.5809 45.5948C13.7638 45.8386 13.8247 46.631 13.7028 46.8138C14.0076 47.0576 13.8247 47.6062 13.459 47.4233C13.2152 47.3014 12.7885 46.6919 13.2762 46.3262C13.2762 46.1433 12.9714 46.1433 12.7276 46.5091C12.9104 45.8386 11.6305 46.0214 11.3867 46.2043C11.2648 46.5091 11.0819 47.789 11.7524 47.5452C11.3867 47.85 11.4476 48.1547 11.5695 48.1547C11.9962 47.6671 12.5447 48.0328 12.6666 48.2766C12.8495 48.6423 12.3009 48.8861 12.0571 48.5814C11.8743 48.6423 11.0819 48.6423 10.8991 48.4595C10.7772 49.3128 11.9962 50.227 13.0323 49.7394C13.1542 49.7394 13.2152 50.0442 13.0323 50.227C13.0933 50.3489 13.3981 50.4099 13.52 50.227C13.9466 49.8004 13.3371 49.3737 13.8857 49.2518C14.0076 49.4956 13.7638 49.9223 13.9466 50.1051C14.2514 50.4099 14.6171 49.8004 15.0437 49.8004C15.0437 49.3128 15.5923 48.9471 15.2875 48.6423ZM12.1181 47.2405C12.1181 47.2405 11.9352 47.1186 12.179 46.8138C12.4228 46.57 12.5447 46.7528 12.5447 46.7528C12.5447 46.7528 12.7885 47.2405 12.8495 47.4843C12.6057 47.4843 12.1181 47.2405 12.1181 47.2405ZM14.0685 48.7642C13.9466 48.7642 13.6419 49.069 13.52 48.8861L12.8495 48.2157L13.5809 47.4843L14.2514 48.1547C14.3123 48.3376 14.0685 48.6423 14.0685 48.7642Z" fill="black"/>
<path d="M15.4704 49.8618C15.4094 49.8618 15.3485 49.8618 15.2875 49.9228C15.2266 49.9837 15.2266 50.1056 15.2266 50.2275C15.2266 50.3494 15.3485 50.4713 15.4704 50.5932C15.5313 50.7761 15.7142 50.837 15.8361 50.837C15.897 50.837 15.958 50.837 16.0189 50.7761C16.1408 50.6542 16.0799 50.2885 15.897 50.1056C15.7751 49.9837 15.5923 49.8618 15.4704 49.8618Z" fill="black"/>
<path d="M13.518 47.8501L13.1523 48.2158C13.1523 48.2158 13.518 48.7034 13.8228 48.5206C14.0056 48.2158 13.518 47.8501 13.518 47.8501Z" fill="black"/>
<path d="M49.1137 46.0215C49.1137 46.1434 48.6261 46.3872 48.2604 45.7167C47.8947 45.6558 47.529 45.5339 47.2852 45.412C47.7118 46.2653 48.0775 46.9967 48.687 47.3624C49.6013 47.9109 51.0031 47.7891 51.4298 47.1795C50.6374 46.7529 49.7232 45.6558 49.2356 44.6196C49.1137 44.8634 48.9308 45.2901 48.8089 45.5948C48.8699 45.7167 48.9918 45.8996 49.1137 46.0215Z" fill="black"/>
<path d="M57.5856 32.674C58.5609 32.2474 59.9627 31.2722 60.6332 30.6627C60.6941 30.7846 60.9379 31.3331 60.2065 31.9426C59.658 32.3693 58.5609 32.9178 57.7685 33.2226C57.4028 33.7711 56.6714 34.3806 55.6962 35.0511C57.6466 34.7463 59.9627 33.954 61.1208 32.8569C63.254 30.7236 62.1569 28.1637 61.8522 27.5542C60.4503 29.3218 57.7685 31.1503 55.2695 32.1255C56.1228 32.2474 56.9761 32.4302 57.5856 32.674Z" fill="black"/>
<path d="M56.0009 28.7735C57.2809 27.7373 58.6218 25.665 58.8656 24.9336C59.1704 25.1165 59.2923 25.726 58.9266 26.3964C58.2561 27.5545 57.0371 28.5906 56.0009 29.4439C55.94 30.1753 55.6352 31.0896 55.2695 31.76C56.7933 30.7239 58.5609 29.2001 59.3532 28.164C60.3894 26.8231 60.816 25.4822 60.6332 24.1412C60.6941 22.6175 59.597 21.0937 59.1704 20.728C58.8656 22.3737 57.2199 25.1774 55.7571 26.7621C55.879 27.3107 56.0009 28.103 56.0009 28.7735Z" fill="black"/>
<path d="M55.0276 38.4028C55.3324 38.7685 55.6371 39.1952 55.8809 39.5609C57.039 39.8047 58.4408 39.7437 58.4408 39.7437C58.4408 39.7437 58.3799 40.3532 57.5875 40.4142C57.2218 40.4142 56.1247 40.2313 55.6981 40.1094C55.5152 40.1704 54.6619 40.4142 53.8086 40.5361C55.0276 40.9627 56.7952 41.3894 57.8923 41.3894C58.0142 41.3894 58.0751 41.3894 58.197 41.3894C59.9646 41.2066 60.8788 39.5609 60.9398 38.6466C60.3912 38.7685 59.477 38.8295 58.5627 38.8295C57.7094 38.8295 56.1857 38.7685 55.0276 38.4028Z" fill="black"/>
<path d="M62.4016 33.7712C60.8169 34.6245 58.0132 35.4778 55.758 35.4778C56.3066 35.8435 56.8551 36.2092 57.2208 36.5749C58.1351 36.514 59.4151 36.2092 60.1465 35.9654C60.1465 36.0873 60.1465 36.6968 59.2932 36.9406C58.6836 37.1235 57.8303 37.1235 57.1599 37.1235C56.6113 37.4892 55.819 37.7939 55.1485 38.0377C55.758 38.0987 56.5504 38.1596 57.2208 38.1596C58.3789 38.1596 59.476 38.0377 60.1465 37.7939C60.756 37.6111 62.7673 36.7578 62.4016 33.7712Z" fill="black"/>
<path d="M53.866 42.1819C54.5365 42.4867 55.2679 42.7305 55.8774 42.7914C55.8774 42.7914 55.7555 43.4009 54.8412 43.279C54.2927 43.2181 53.6832 42.7914 53.5613 42.7305C53.1346 42.7914 52.2813 42.7914 51.9766 42.7305C53.0127 43.4619 54.5974 44.3152 55.9383 44.4371C55.9993 44.4371 56.0602 44.4371 56.1212 44.4371C57.523 44.4371 58.6202 43.0352 58.9249 42.3647C57.523 42.3647 55.085 41.7552 53.6222 40.9629C53.6832 41.2067 53.8051 41.6943 53.866 42.1819Z" fill="black"/>
<path d="M51.4324 44.0717C51.7981 44.4984 52.4076 44.7422 52.4076 44.7422C52.4076 44.7422 52.2248 45.0469 51.8591 45.0469C51.7372 45.0469 51.6153 44.986 51.4934 44.925C51.2496 44.8031 50.8839 44.3765 50.8839 44.3765C50.3963 44.3155 49.9696 44.2546 49.543 44.1327C50.2744 45.0469 51.4934 46.205 52.8343 46.5097C53.0171 46.5707 53.2 46.5707 53.4438 46.5707C54.6019 46.5707 55.5771 45.7174 55.8209 45.1688C54.4799 44.986 52.5295 43.9498 51.5543 42.9746C51.5543 43.3403 51.4934 43.767 51.4324 44.0717Z" fill="black"/>
<path d="M42.7149 59.0041C43.3854 59.0041 43.812 58.7603 44.1168 58.0898C43.2025 58.5165 42.2273 58.2727 40.3988 57.7241C40.3988 57.7241 39.7283 58.0289 39.3017 58.0898C40.3988 58.3946 41.9835 58.9431 42.2273 59.5526C42.3492 60.0402 42.0444 60.1621 42.0444 60.1621C41.4349 59.4307 40.7035 59.0041 39.1188 58.5165C39.1188 58.8212 39.0579 59.0041 39.0579 59.0041C39.0579 59.0041 38.7531 59.065 38.0217 58.9431C38.6312 59.4307 40.094 60.7107 40.2769 62.0516C40.3988 62.9659 39.7283 63.0268 39.7283 63.0268C39.6674 61.6249 39.0579 60.7716 37.717 59.3698C37.717 59.3698 37.4732 59.6745 37.2294 59.8574C37.2294 59.8574 36.7418 59.7964 36.3761 59.4917C36.5589 61.3202 36.6199 65.7086 36.498 66.3791C36.437 66.8667 36.1323 67.1105 36.1323 67.1105C36.1323 67.1105 35.8275 66.9276 35.7666 66.3791C35.6447 65.6477 35.7666 61.2592 35.8885 59.4917C35.4618 59.7355 35.0352 59.8574 35.0352 59.8574C34.7304 59.6745 34.5476 59.3698 34.5476 59.3698C33.2676 60.7716 32.6581 61.6859 32.5362 63.0268C32.5362 63.0268 31.9267 62.9659 31.9876 62.0516C32.1705 60.7107 33.6333 59.4307 34.2428 58.9431C33.5723 59.065 33.2066 59.0041 33.2066 59.0041C33.2066 59.0041 33.1457 58.8212 33.1457 58.5165C31.561 59.0041 30.8905 59.4307 30.2201 60.1621C30.2201 60.1621 29.9153 60.1012 30.0372 59.5526C30.281 58.9431 31.8657 58.4555 32.9628 58.0898C32.5971 58.0289 31.8657 57.7241 31.8657 57.7241C30.0982 58.2727 29.062 58.5165 28.1478 58.0898C28.3916 58.7603 28.8792 59.0041 29.5496 59.0041C28.6963 59.3088 27.904 60.1621 27.6602 61.0154C28.2697 63.2706 30.2201 63.9411 30.2201 63.9411C29.7325 62.844 29.9153 60.7107 32.8409 59.2479C31.0734 61.0154 30.342 62.6611 30.8296 64.1849C31.2562 65.5867 32.719 66.1353 33.7552 66.1962C33.0238 63.8801 33.3285 61.7468 34.9133 60.1012C34.2428 61.9297 33.2676 67.5981 36.0104 68.5123C38.7531 67.5981 37.7779 61.9297 37.1075 60.1012C38.6922 61.8078 38.9969 63.8801 38.2655 66.1962C39.3626 66.1962 40.7645 65.5867 41.1911 64.1849C41.6787 62.6611 41.0083 61.0154 39.1798 59.2479C42.1054 60.7107 42.2882 62.9049 41.8006 63.9411C41.8006 63.9411 43.7511 63.2706 44.3606 61.0154C44.3606 60.1621 43.5073 59.3698 42.7149 59.0041Z" fill="black"/>
<path d="M23.8209 47.3624C24.4304 46.9967 24.7961 46.2653 25.2228 45.412C24.979 45.5339 24.6132 45.6558 24.2475 45.7167C23.8818 46.3872 23.3942 46.1434 23.3942 46.0215C23.5161 45.8996 23.638 45.7167 23.699 45.5948C23.5771 45.2901 23.3942 44.8634 23.2723 44.6196C22.7847 45.7167 21.8095 46.7529 21.0781 47.1795C21.5048 47.7891 22.9066 47.9109 23.8209 47.3624Z" fill="black"/>
<path d="M16.7496 35.0512C15.7134 34.3807 15.0429 33.7712 14.6772 33.2227C13.8239 32.9179 12.7268 32.3694 12.2392 31.9427C11.5078 31.3332 11.7516 30.7847 11.8126 30.6628C12.4221 31.3332 13.8239 32.2475 14.8601 32.6741C15.4696 32.4303 16.3229 32.2475 17.1762 32.1256C14.6772 31.2113 11.9954 29.3218 10.5936 27.6152C10.2888 28.1638 9.13076 30.7847 11.325 32.9179C12.4221 33.9541 14.7991 34.7464 16.7496 35.0512Z" fill="black"/>
<path d="M17.176 31.6985C16.8103 31.028 16.5055 30.1747 16.4446 29.3824C15.4084 28.59 14.2504 27.5539 13.519 26.3349C13.1533 25.6644 13.2752 25.0549 13.5799 24.8721C13.8237 25.6035 15.1646 27.6758 16.4446 28.7119C16.4446 28.0415 16.5665 27.2491 16.7493 26.7006C15.2865 25.1159 13.5799 22.3121 13.3361 20.6665C12.9095 21.0322 11.8124 22.5559 11.8733 24.0797C11.6905 25.4206 12.1171 26.7615 13.1533 28.1024C13.8847 29.1386 15.6522 30.7233 17.176 31.6985Z" fill="black"/>
<path d="M16.5681 39.561C16.751 39.1953 17.1167 38.7687 17.4214 38.403C16.2634 38.7077 14.7396 38.7687 13.9473 38.7687C12.9721 38.7687 12.0578 38.7077 11.5702 38.5858C11.6312 39.561 12.5454 41.2067 14.313 41.3286C14.4349 41.3286 14.4958 41.3286 14.6177 41.3286C15.7148 41.3286 17.4824 40.9019 18.7014 40.4753C17.8481 40.3534 16.9948 40.1705 16.8119 40.0486C16.3243 40.2924 15.2272 40.4753 14.8615 40.4143C14.0692 40.3534 14.0082 39.7439 14.0082 39.7439C14.0082 39.7439 15.4101 39.8048 16.5681 39.561Z" fill="black"/>
<path d="M12.2993 37.8548C12.9697 38.0986 14.0059 38.2205 15.2249 38.2205C15.9563 38.2205 16.6877 38.1595 17.2972 38.0986C16.6267 37.8548 15.8344 37.55 15.2858 37.1843C14.6154 37.1843 13.7011 37.1234 13.1526 37.0015C12.2993 36.7576 12.2993 36.1481 12.2993 36.0262C13.0307 36.331 14.3106 36.6357 15.2249 36.6357C15.5906 36.331 16.0782 35.9043 16.6877 35.5386C14.4935 35.5386 11.6288 34.6853 10.0441 33.832C9.67839 36.7577 11.6898 37.611 12.2993 37.8548Z" fill="black"/>
<path d="M16.3857 44.3764C16.4467 44.3764 16.5076 44.3764 16.5686 44.3764C17.9095 44.2545 19.4942 43.4012 20.5304 42.6698C20.2256 42.7308 19.3114 42.7308 18.9457 42.6698C18.8238 42.7917 18.1533 43.1574 17.6657 43.2184C16.6905 43.3403 16.6296 42.7308 16.6296 42.7308C17.2391 42.6698 17.9705 42.426 18.6409 42.1213C18.7019 41.6337 18.8238 41.1461 18.9457 40.8413C17.4219 41.6946 14.9839 42.3041 13.582 42.3041C13.8868 42.9746 14.9839 44.3764 16.3857 44.3764Z" fill="black"/>
<path d="M19.006 46.5707C19.1888 46.5707 19.4326 46.5707 19.6155 46.5097C20.8954 46.205 22.1754 45.0469 22.9068 44.1327C22.4801 44.2546 22.0535 44.3765 21.5659 44.3765C21.5659 44.3765 21.2611 44.7422 20.9564 44.925C20.8345 44.986 20.7126 45.0469 20.5907 45.0469C20.225 45.0469 20.0421 44.7422 20.0421 44.7422C20.0421 44.7422 20.6516 44.4374 21.0173 44.0717C20.9564 43.767 20.8954 43.3403 20.8954 42.9746C19.8593 44.0108 17.9698 44.986 16.6289 45.1688C16.8727 45.7174 17.787 46.5707 19.006 46.5707Z" fill="black"/>
<path d="M35.707 13.2309C35.707 13.5356 35.9508 13.7185 36.1946 13.7185C36.4384 13.7185 36.6822 13.4747 36.6822 13.2309C36.6822 12.9261 36.4384 12.7433 36.1946 12.7433C35.9508 12.6823 35.707 12.9261 35.707 13.2309Z" fill="black"/>
<path d="M35.8892 12.1333H36.5597L36.4987 11.28L37.2301 11.4019V10.7314L36.4987 10.7924L36.5597 10H35.8892L35.9502 10.7924L35.2188 10.7314V11.4019L35.9502 11.28L35.8892 12.1333Z" fill="black"/>
<path d="M33.5118 20.1787C33.5727 20.1787 33.6946 20.2396 33.7556 20.2396H38.6316C38.7535 20.2396 38.8145 20.2396 38.8754 20.1787C39.0583 20.1177 39.1192 19.9958 39.1802 19.813H33.207C33.268 20.0568 33.3899 20.1177 33.5118 20.1787Z" fill="black"/>
<path d="M38.8754 19.4476C38.9363 19.4476 38.9363 19.3866 38.9363 19.3866V19.0209C38.9363 18.96 38.8754 18.96 38.8754 18.96H33.5727C33.5117 18.96 33.5117 19.0209 33.5117 19.0209V19.3866C33.5117 19.4476 33.5727 19.4476 33.5727 19.4476H38.8754Z" fill="black"/>
<path d="M39.425 18.5335C39.5469 18.3507 40.2173 17.0707 40.2173 15.7298C40.2173 14.5108 38.6936 13.8403 37.8403 13.8403C37.7184 15.5469 37.0479 18.2288 36.1946 18.2288C35.4022 18.2288 34.6708 15.5469 34.5489 13.8403C33.6347 13.8403 32.1719 14.5108 32.1719 15.7298C32.1719 17.0707 32.8423 18.4116 32.9642 18.5335H39.425Z" fill="black"/>
<path d="M36.1909 17.3744C36.6175 17.3744 37.1051 16.0945 37.288 14.8145C37.288 14.5707 36.8613 14.205 36.1909 14.144C35.5204 14.144 35.0938 14.5097 35.0938 14.8145C35.2766 15.9726 35.8252 17.3744 36.1909 17.3744Z" fill="black"/>
<path d="M43.9361 37.3668C43.9361 37.1839 43.8142 37.062 43.6313 37.062H28.8204C28.6375 37.062 28.5156 37.1839 28.5156 37.3668V47.6674C28.5156 47.6674 28.5156 48.2159 28.7594 48.8254C29.0642 49.5568 30.3441 50.7758 31.9288 51.6292C34.184 52.7872 35.5249 53.7015 36.1954 54.25C36.8658 53.7015 38.2067 52.7872 40.4619 51.6292C42.1076 50.7758 43.3266 49.5568 43.6313 48.8254C43.9361 48.155 43.8751 47.6674 43.8751 47.6674L43.9361 37.3668ZM38.9381 41.0847V41.1457C39.121 41.8771 39.3038 42.6694 39.3648 43.4008C39.9743 43.8885 40.5229 44.3761 41.0105 44.8637C41.9247 43.8275 42.4123 42.8523 42.4123 42.0599C41.9857 42.0599 41.62 41.6942 41.62 41.2676C41.62 41.0847 41.6809 40.9628 41.7419 40.8409C41.3152 40.6581 40.8276 40.5971 40.401 40.5971C40.0353 40.5971 39.6695 40.6581 39.2429 40.719H39.1819L39.06 40.78L39.121 40.719C39.1819 40.5971 39.1819 40.5362 39.2429 40.4143C40.4619 40.1705 41.4371 40.2924 42.0466 40.6581C42.1685 40.5971 42.2904 40.5362 42.4123 40.5362C42.839 40.5362 43.2047 40.9019 43.2047 41.3285C43.2047 41.6333 43.0218 41.8771 42.778 41.999C42.778 42.8523 42.2904 43.9494 41.2543 45.1684C41.3152 45.2294 41.3762 45.2903 41.4371 45.3513C41.4981 45.4122 41.4981 45.4122 41.559 45.4732V45.5341C41.4981 45.5951 41.4371 45.656 41.3762 45.717H41.3152C41.3152 45.717 41.3152 45.717 41.2543 45.717C41.1933 45.656 41.1933 45.656 41.1933 45.5951C41.1324 45.5341 41.1324 45.4732 41.0714 45.4122C40.9495 45.5341 40.8276 45.656 40.7057 45.7779L40.5838 45.9608C40.401 46.0827 40.2181 46.1436 40.0962 46.0827H40.0352L40.0962 46.0217C40.401 45.7779 40.6448 45.4732 40.8886 45.2903C40.5229 44.8637 40.0353 44.437 39.5476 44.0104C39.6086 44.437 39.6086 44.8637 39.6086 45.2903C39.6086 45.656 39.6086 46.0827 39.5476 46.5093C39.4867 46.5703 39.3648 46.6312 39.3038 46.6922L39.2429 46.7531V46.6922C39.3038 46.2046 39.3038 45.717 39.3038 45.2903C39.3038 45.1684 39.3038 44.9856 39.3038 44.8637V44.7418C39.3038 44.437 39.2429 43.5837 39.1819 43.0351C39.121 42.5475 38.9991 42.0599 38.8772 41.5723V41.5114C38.9381 41.4504 38.9991 41.3895 39.06 41.3285L38.9381 41.0847ZM33.9402 39.9876C34.5497 38.5248 35.403 37.7325 36.2563 37.7325C37.1096 37.7325 37.9629 38.5248 38.5724 39.9876V40.0486H38.5115C38.4505 40.0486 38.3896 40.1095 38.2677 40.1705H38.2067V40.1095C37.6582 38.8296 36.9268 38.0982 36.1954 38.0982C35.464 38.0982 34.7326 38.8296 34.184 40.1095V40.1705H34.1231C34.0621 40.0486 33.9402 40.0486 33.9402 39.9876ZM33.6964 40.3533C33.8793 40.4752 34.4278 40.78 35.0373 40.5971C35.5859 40.4143 36.1954 40.4143 36.1954 40.4143C36.1954 40.4143 36.8658 40.4143 37.3534 40.5971C37.9629 40.78 38.5115 40.4752 38.6943 40.3533C38.7553 40.3533 38.7553 40.3533 38.7553 40.4143C38.6943 40.6581 38.5115 41.2676 37.5972 41.5114C36.7439 41.6942 36.3173 42.6694 36.1954 43.0961C36.1954 43.1571 36.1344 43.1571 36.0735 43.0961C35.9516 42.6694 35.5249 41.6942 34.6716 41.5114C33.7574 41.3285 33.5745 40.6581 33.5136 40.4143C33.6355 40.3533 33.6964 40.3533 33.6964 40.3533ZM35.1592 42.7913C35.2811 42.7913 35.464 42.7304 35.5859 42.6694C35.6468 42.7913 35.7078 42.9742 35.7687 43.0961C35.5859 43.218 35.403 43.2789 35.1592 43.2789C34.4888 43.2789 34.0012 42.7304 34.0012 42.1209C34.0012 41.938 34.0621 41.8161 34.1231 41.6942C34.245 41.7552 34.3669 41.8161 34.5497 41.8771C34.4888 41.938 34.4888 42.0599 34.4888 42.1209C34.4278 42.4866 34.7935 42.7913 35.1592 42.7913ZM34.8545 42.0599C34.8545 41.999 34.8545 41.999 34.8545 41.938C35.0373 41.999 35.2202 42.1818 35.3421 42.3037C35.2811 42.3647 35.2202 42.3647 35.1592 42.3647C34.9764 42.3647 34.8545 42.2428 34.8545 42.0599ZM35.1592 43.6447C35.403 43.6447 35.7078 43.5837 35.9516 43.4008C36.0125 43.4618 36.1344 43.7056 36.1954 43.7056C36.3173 43.7056 36.3782 43.4618 36.4392 43.4008C36.683 43.5227 36.9877 43.6447 37.2315 43.6447C37.6582 43.6447 38.0239 43.4618 38.3286 43.218C38.3286 43.218 38.3286 43.218 38.3286 43.2789C38.4505 43.7666 38.5115 44.3761 38.4505 44.6199C38.4505 44.8637 38.3286 45.1075 38.2677 45.3513C38.1458 45.656 38.0848 45.8998 38.0848 45.8998C38.0848 45.8998 38.0848 45.9608 38.0239 46.0827C37.9629 46.3265 37.7801 46.7531 37.5363 47.1798C37.0487 46.875 36.5611 46.7531 35.9516 46.7531C35.403 46.7531 34.9154 46.875 34.4888 47.1188C34.3059 46.6922 34.1231 46.3265 34.0621 46.1436C34.0012 46.0217 34.0012 45.9608 34.0012 45.9608C34.0012 45.9608 33.8793 45.717 33.7574 45.3513C33.6964 45.1684 33.6355 44.9246 33.6355 44.6808C33.6355 44.498 33.5745 43.8885 33.7574 43.3399C33.7574 43.279 33.8183 43.218 33.8183 43.1571C34.245 43.4009 34.7326 43.6447 35.1592 43.6447ZM37.2925 42.7913C37.7191 42.7913 38.0239 42.4866 38.0239 42.0599C38.0239 41.938 38.0239 41.8771 37.9629 41.8161C38.0848 41.7552 38.2677 41.6942 38.3896 41.6333C38.4505 41.7552 38.5115 41.938 38.5115 42.0599C38.5115 42.7304 37.9629 43.218 37.3534 43.218C37.1096 43.218 36.9268 43.157 36.7439 43.0351C36.8049 42.9132 36.8658 42.7913 36.9268 42.6085C36.9877 42.7304 37.1706 42.7913 37.2925 42.7913ZM37.1096 42.3037C37.2315 42.1209 37.4144 41.999 37.5972 41.938C37.5972 41.999 37.5972 41.999 37.5972 42.0599C37.5972 42.2428 37.4753 42.3647 37.2925 42.3647C37.2315 42.3647 37.1706 42.3647 37.1096 42.3037ZM30.0394 40.5971C30.2222 40.5971 30.3441 40.6581 30.466 40.719C30.8927 40.4752 31.3803 40.3533 32.0507 40.3533C32.4165 40.3533 32.7822 40.4143 33.2088 40.4752H33.2698C33.2698 40.5362 33.3307 40.6581 33.3917 40.78L33.4526 40.8409L33.3307 40.78C33.2698 40.78 33.2698 40.78 33.2088 40.78C32.8431 40.719 32.4774 40.6581 32.1117 40.6581C31.685 40.6581 31.1365 40.719 30.7708 40.9628C30.8317 41.0847 30.8927 41.2066 30.8927 41.3895C30.8927 41.8161 30.527 42.1818 30.1003 42.1818C30.1003 42.9132 30.5879 43.8885 31.5022 44.9856C31.9898 44.498 32.5384 43.9494 33.1479 43.5228C33.2088 42.7913 33.3917 41.999 33.5745 41.2676V41.2066L33.6355 41.2676C33.6964 41.3285 33.7574 41.3895 33.8183 41.4504C33.8183 41.4504 33.8183 41.4504 33.8793 41.5114V41.5723C33.7574 42.0599 33.6355 42.4866 33.5745 42.9742V43.0351C33.5136 43.4009 33.4526 43.8885 33.4526 44.3761C33.4526 44.7418 33.3917 45.0465 33.3917 45.2903C33.3917 45.656 33.3917 46.0217 33.4526 46.5093V46.5703H33.3917C33.2698 46.5093 33.2088 46.5093 33.1479 46.5093H33.0869V46.4484C33.0869 46.1436 33.026 45.717 33.026 45.2903C33.026 44.8637 33.026 44.437 33.0869 44.0104C32.5993 44.437 32.1117 44.8637 31.746 45.2903C32.0507 45.656 32.4774 46.0217 32.965 46.4484L33.026 46.5093H32.965C32.8431 46.5703 32.6603 46.5703 32.5384 46.5093C32.1726 46.1436 31.8679 45.8998 31.5631 45.5951C31.5022 45.656 31.4412 45.717 31.4412 45.7779L31.3803 45.8389C31.3193 45.8389 31.2584 45.8998 31.1365 45.9608L31.0755 45.8998C31.0755 45.8998 31.0146 45.8998 31.0146 45.8389H30.9536V45.7779C31.0755 45.5951 31.1974 45.4732 31.3193 45.3513C30.2832 44.1932 29.7956 43.0961 29.7956 42.2428C29.5518 42.1209 29.3689 41.8771 29.3689 41.5723C29.247 40.9628 29.6127 40.5971 30.0394 40.5971ZM38.6943 50.0444C38.2677 51.2634 37.6582 52.1168 36.9877 52.4825C36.9268 52.8482 36.622 53.1529 36.2563 53.1529C35.8906 53.1529 35.5859 52.8482 35.5249 52.4825C34.8545 52.1168 34.245 51.3244 33.8183 50.1054V50.0444L34.184 49.9225V49.9835C34.5497 51.0196 35.0373 51.7511 35.5859 52.1168C35.7078 51.812 35.9516 51.5682 36.3173 51.5682C36.683 51.5682 36.9268 51.812 37.0487 52.0558C37.5972 51.6901 38.0848 50.9587 38.4505 49.9835V49.9225H38.5115C38.5115 49.9835 38.5724 49.9835 38.6943 50.0444ZM35.5859 49.9835C35.5859 49.7397 35.6468 49.0692 35.7687 48.8254C35.8906 48.7645 36.0735 48.7035 36.2563 48.7035C36.4392 48.7035 36.622 48.7645 36.8049 48.8864C36.8658 49.1302 36.9877 49.7397 36.9877 49.9835C36.9877 50.2273 36.3782 50.4101 36.3173 50.4711C36.1344 50.4101 35.5859 50.2882 35.5859 49.9835ZM43.3875 47.5455C43.3266 47.6064 43.2656 47.6674 43.2047 47.6674C43.1437 47.6674 43.0828 47.7283 42.9609 47.7283H42.8999C42.778 47.7283 42.6561 47.7283 42.5952 47.6674C42.5342 47.6674 42.5342 47.6064 42.4733 47.6064C42.2904 47.6064 41.8638 47.7283 41.7419 47.7893C41.8028 47.7893 42.3514 47.8502 42.7171 48.155C42.8999 48.2769 43.2656 48.3378 43.3875 48.3378C43.3875 48.3988 42.778 48.8254 41.62 48.5816L41.3152 48.5207C40.7667 48.3988 40.2791 48.3378 39.7305 48.3378C39.7914 48.3378 39.8524 48.3988 39.8524 48.3988C39.9743 48.4597 40.1572 48.5207 40.2791 48.5816C40.2791 48.5816 40.34 48.5816 40.34 48.6426H40.401C40.4619 48.6426 40.5229 48.6426 40.5229 48.7035C40.5838 48.7035 40.6448 48.7645 40.7057 48.7645C40.7667 48.8254 40.8886 48.8864 40.8886 48.9473C40.8886 49.0083 40.9495 49.0083 40.9495 49.0692C40.9495 49.1911 40.9495 49.2521 40.8886 49.374C40.7057 49.6178 40.4619 49.6178 40.2181 49.374L40.1572 49.313C40.0962 49.2521 40.0353 49.1911 39.9743 49.0692V49.0083C39.9743 49.0083 39.9743 49.0083 39.9133 49.0083C39.7914 48.9473 39.7305 48.8254 39.6086 48.8254C39.4257 48.7645 39.1819 48.7035 38.9991 48.6426C38.9381 48.6426 38.8772 48.6426 38.8162 48.6426C38.9991 48.7645 39.1819 48.8864 39.2429 49.0083C39.2429 49.0083 39.2429 49.0083 39.2429 49.0692C39.3648 49.2521 39.3648 49.4349 39.4257 49.6178C39.6086 49.9835 39.6695 50.0444 39.8524 50.1663C39.6695 50.2273 38.7553 50.2273 38.3286 49.5568C38.3286 49.5568 38.2677 49.4959 38.2677 49.4349C38.1458 49.1911 38.0848 48.9473 38.0239 48.7645C37.9629 48.5816 38.0848 48.3988 37.9629 48.3378C37.841 48.2769 37.7801 48.3378 37.7801 48.3378C37.7191 48.3988 37.7191 48.3988 37.7191 48.3988V48.4597C37.7191 48.5207 37.6582 48.5207 37.6582 48.5207V48.5816C37.6582 48.5816 37.6582 48.6426 37.5972 48.6426C37.5972 48.6426 37.5972 48.6426 37.5363 48.6426C37.4753 48.6426 37.4753 48.6426 37.4144 48.6426C37.4144 48.6426 37.4144 48.6426 37.3534 48.6426C37.3534 48.6426 37.2925 48.6426 37.2925 48.7035C37.2315 48.7035 37.1706 48.7645 37.1096 48.7645C37.0487 48.7645 36.9877 48.7035 36.9877 48.6426C36.9877 48.5816 36.9877 48.5816 36.9877 48.5207C36.9268 48.5207 36.9268 48.5207 36.8658 48.5207C36.8049 48.5207 36.8049 48.5207 36.7439 48.4597C36.7439 48.3988 36.7439 48.3378 36.7439 48.3378C36.7439 48.2769 36.7439 48.2769 36.7439 48.2769C36.683 48.3378 36.683 48.3378 36.622 48.3378C36.5611 48.3378 36.5611 48.3378 36.5001 48.3378C36.4392 48.3378 36.4392 48.2769 36.4392 48.2159V48.155C36.4392 48.155 36.4392 48.155 36.4392 48.094C36.4392 48.094 36.4392 48.094 36.3782 48.094H36.3173C36.2563 48.094 36.1344 48.0331 36.0735 48.0331C36.0735 48.0331 36.0735 48.0331 36.0125 48.0331C35.9516 48.0331 35.8297 48.094 35.7687 48.094H35.6468C35.6468 48.094 35.6468 48.094 35.6468 48.0331C35.6468 48.0331 35.6468 48.0331 35.6468 47.9721L35.7078 47.9112C35.7078 47.9112 35.7078 47.9112 35.7078 47.8502C35.6468 47.8502 35.6468 47.8502 35.5859 47.8502V47.9112C35.5859 47.9112 35.5859 47.9112 35.5249 47.9112V48.0331C35.5249 48.094 35.5249 48.155 35.464 48.155C35.403 48.2159 35.403 48.2159 35.3421 48.155C35.3421 48.155 35.2811 48.155 35.2811 48.094C35.2811 48.094 35.2202 48.094 35.2202 48.0331C35.2202 48.0331 35.2202 48.094 35.2811 48.094C35.2811 48.155 35.2811 48.155 35.2811 48.2159C35.2202 48.2769 35.2202 48.2769 35.1592 48.2769H35.0373C35.0373 48.3378 35.0983 48.3378 35.0373 48.3988C35.0373 48.4597 34.9764 48.4597 34.9154 48.4597C34.8545 48.4597 34.8545 48.4597 34.7935 48.4597C34.7935 48.4597 34.7935 48.4597 34.7326 48.4597H34.6716L34.6107 48.3988C34.6107 48.3988 34.5497 48.3988 34.4888 48.3988C34.4888 48.3988 34.4278 48.3988 34.4278 48.3378L34.3669 48.2769V48.2159C34.245 48.094 34.0621 48.5207 34.0621 48.5207C33.5136 49.6787 32.1726 49.9225 32.1726 49.8616C32.1726 49.8616 32.4774 49.7397 32.5993 49.313C32.6603 49.0692 32.6603 49.0083 32.7822 48.7645C32.7822 48.7035 32.8431 48.7035 32.8431 48.6426C32.9041 48.5207 33.0869 48.4597 33.2088 48.3378C33.1479 48.3378 33.0869 48.3378 33.026 48.3378C32.8431 48.3988 32.6603 48.3988 32.4165 48.5207C32.2945 48.5816 32.2336 48.6426 32.1117 48.7035C32.1117 48.7035 32.1117 48.7035 32.0507 48.7035V48.7645C32.0507 48.8254 31.9898 48.8864 31.9288 49.0083L31.8679 49.0692C31.6241 49.313 31.4412 49.313 31.1974 49.0692L31.1365 49.0083C31.0755 48.9473 31.0755 48.8254 31.1365 48.7645C31.1365 48.7035 31.1974 48.6426 31.2584 48.5816C31.3193 48.5207 31.3803 48.5207 31.4412 48.4597C31.5022 48.3988 31.5631 48.3988 31.6241 48.3988C31.685 48.3988 31.685 48.3988 31.746 48.3378C31.746 48.3378 31.8069 48.3378 31.8679 48.3378C31.8679 48.3378 31.8679 48.2769 31.9288 48.2769C31.9898 48.2769 32.0507 48.2159 32.1117 48.2159C32.1726 48.2159 32.2336 48.155 32.2945 48.155C32.2945 48.155 32.3555 48.155 32.4165 48.094C31.9288 48.094 31.4412 48.155 30.8927 48.2769C30.8317 48.2769 30.7098 48.3378 30.5879 48.3378C29.9784 48.4597 28.8204 48.155 28.8204 48.094C28.8204 48.0331 29.1251 48.0331 29.4299 47.8502C29.6737 47.7283 29.7956 47.6064 29.9784 47.5455C30.2832 47.7893 30.6489 47.7893 30.7098 47.7893C30.5879 47.7283 30.0394 47.6674 29.8565 47.6064C29.8565 47.6064 29.7956 47.6674 29.7346 47.6674C29.6127 47.7283 29.4908 47.7283 29.3689 47.7283C29.308 47.7283 29.1861 47.7283 29.1251 47.6674C29.0642 47.6674 29.0032 47.6064 28.9423 47.5455C28.8813 47.4845 28.8813 47.4236 28.8813 47.2407C28.9423 46.9969 29.1861 46.875 29.4908 46.936C29.6737 46.9969 29.7956 47.0579 29.8565 47.1188L29.9175 47.1798C30.1003 47.1798 30.3441 47.3017 30.5879 47.3626C30.8317 47.4845 31.0146 47.5455 31.1365 47.5455C31.0755 47.5455 31.0146 47.4845 30.9536 47.4845C30.8927 47.4845 30.8317 47.4236 30.8317 47.4236C30.7708 47.3626 30.7098 47.3626 30.6489 47.3017C30.2832 47.1188 29.9175 46.936 29.6737 46.6922C29.4908 46.4484 29.4299 46.3265 29.3689 46.0827C29.308 45.5341 29.0642 45.2903 29.0642 45.2294C29.1251 45.1684 29.9784 45.5951 30.2832 45.8998C30.466 46.1436 30.527 46.3265 30.5879 46.5093V46.5703C30.6489 46.7531 30.8317 46.936 31.1365 47.1188C31.1974 47.1188 31.1974 47.1798 31.2584 47.1798C31.1974 47.0579 31.1365 46.9969 31.0755 46.875V46.8141L31.0146 46.7531C31.0146 46.7531 30.9536 46.6922 30.9536 46.6312C30.8927 46.5703 30.8927 46.5093 30.8317 46.4484C30.7708 46.2655 30.7708 46.0827 30.8317 46.0217C30.8927 45.9608 30.9536 45.8998 31.0755 45.8389C31.3193 45.7779 31.5022 45.8998 31.5631 46.2655C31.5631 46.3265 31.5631 46.3874 31.5631 46.4484C31.5631 46.5093 31.5631 46.5703 31.5631 46.6312V46.6922C31.5631 46.6922 31.5631 46.6922 31.5631 46.7531C31.685 47.1188 31.9898 47.4236 32.3555 47.6674C31.9288 47.3017 31.685 46.4484 31.746 46.4484C31.8069 46.3874 32.1726 46.6312 32.5384 46.8141C32.7212 46.875 32.9041 46.9969 33.0869 47.1188C33.2088 47.1798 33.3307 47.3017 33.3917 47.3626C33.5136 47.4236 33.5745 47.5455 33.6355 47.6064C33.6964 47.6674 33.7574 47.7283 33.8183 47.7893C33.8793 47.8502 33.8793 47.8502 33.9402 47.9112C34.0621 47.9721 34.245 47.9112 34.245 47.9112C34.3059 47.9112 34.3669 47.9112 34.4278 47.8502C34.4278 47.8502 34.4278 47.8502 34.4888 47.7893C34.5497 47.7283 34.6107 47.7283 34.6716 47.7283V47.6674C34.6716 47.5455 34.7326 47.4845 34.8545 47.4236C34.8545 47.4236 34.9154 47.4236 34.9154 47.3626H35.0983C35.0983 47.3017 35.1592 47.3017 35.2202 47.2407C35.3421 47.1798 35.5249 47.1798 35.6468 47.3017C35.7078 47.3626 35.7078 47.4236 35.7687 47.4845V47.5455C35.7687 47.6064 35.7687 47.6064 35.7687 47.6674C35.7687 47.7283 35.7687 47.7283 35.7687 47.7893C35.8297 47.7893 35.9516 47.7893 36.0125 47.7893C36.0735 47.7893 36.0735 47.7893 36.1344 47.7893C36.1954 47.7893 36.2563 47.7893 36.3173 47.8502C36.3782 47.8502 36.4392 47.7893 36.5001 47.7893C36.5611 47.7893 36.5611 47.7893 36.622 47.7893H36.683C36.683 47.7283 36.683 47.6674 36.683 47.6064C36.683 47.5455 36.683 47.4845 36.7439 47.4236C36.7439 47.4236 36.7439 47.3626 36.8049 47.3626L36.8658 47.3017C36.9877 47.2407 37.1096 47.2407 37.2315 47.3017C37.2925 47.3017 37.2925 47.3626 37.3534 47.4236C37.4144 47.4236 37.4144 47.4236 37.4753 47.4236H37.5972C37.7191 47.4845 37.7801 47.5455 37.7801 47.6674C37.7801 47.6674 37.7801 47.6674 37.841 47.6674H37.902C37.902 47.6674 38.2067 47.6674 38.2677 47.7283H38.5724C38.6334 47.6674 38.6334 47.6674 38.6943 47.6064C38.7553 47.5455 38.8772 47.4236 38.9381 47.3626C39.06 47.3017 39.121 47.1798 39.2429 47.1188C39.4257 46.9969 39.6695 46.936 39.8524 46.875C40.4619 46.6312 40.5229 46.2655 40.5838 46.2655C40.6448 46.3265 40.4619 47.3017 40.0352 47.6674C40.34 47.4236 40.6448 47.1188 40.8276 46.7531C40.8276 46.7531 40.8276 46.7531 40.8276 46.6922V46.6312C40.8276 46.5703 40.8276 46.5093 40.8276 46.4484C40.8276 46.3874 40.8276 46.3265 40.8276 46.2655C40.9495 45.9608 41.0714 45.7779 41.3152 45.8389C41.4371 45.8998 41.4981 45.9608 41.559 46.0217C41.62 46.1436 41.62 46.2655 41.559 46.4484C41.559 46.5093 41.4981 46.5703 41.4371 46.6312C41.3762 46.6922 41.3762 46.6922 41.3152 46.7531L41.2543 46.8141V46.875C41.1933 46.9969 41.1324 47.0579 41.0105 47.1798C41.0714 47.1188 41.0714 47.1188 41.1324 47.0579C41.4371 46.8141 41.62 46.6312 41.6809 46.4484C41.7419 46.2655 41.8028 46.0827 41.9857 45.8389C42.2904 45.5341 42.3514 45.4122 42.6561 45.2294C42.7171 45.1684 43.1437 45.1075 43.2047 45.1075C43.2656 45.1684 42.8999 45.2903 42.778 45.8998C42.7171 46.0827 42.6561 46.3874 42.4733 46.6312C42.2295 46.936 41.9857 46.9969 41.6809 47.1798L41.62 47.2407C41.559 47.3017 41.4981 47.3017 41.3762 47.3626C41.2543 47.4236 41.1933 47.4845 41.1324 47.4845C41.3152 47.4236 41.4981 47.3626 41.7419 47.3017C41.9247 47.1798 42.1685 47.1188 42.4123 47.1188C42.4123 47.1188 42.4123 47.0579 42.4733 47.0579C42.5342 46.9969 42.6561 46.936 42.839 46.875C43.1437 46.7531 43.3875 46.875 43.4485 47.1798C43.5094 47.3626 43.4485 47.4845 43.3875 47.5455Z" fill="black"/>
<path d="M54.0535 35.2949C54.9678 34.8682 56.4915 33.8321 57.101 33.1007C56.2477 32.7959 54.5411 32.6131 53.5659 32.6131C55.5773 31.2112 55.6382 28.2856 55.0897 26.1523C54.6021 27.859 53.3831 29.2608 52.5907 30.1141C52.6517 30.9674 52.4079 32.4302 51.9202 33.2835C52.5907 33.5273 53.3831 33.893 53.9316 34.3197C53.5659 34.8073 52.7736 35.4778 52.2859 35.9044C52.7126 36.3311 53.3831 37.1234 53.7488 37.611C53.2612 37.9767 52.2859 38.3424 51.7374 38.5253C51.9812 39.0738 52.3469 39.9881 52.4688 40.6585C51.8593 40.7804 51.0669 40.8414 50.2136 40.8414C50.2746 41.4509 50.1527 42.4261 50.0308 43.0356C49.2384 42.9747 48.3242 42.6699 47.8975 42.4261C47.6537 43.2794 47.1052 44.1327 47.1052 44.1937C46.3738 43.3404 45.6424 43.0356 44.9719 43.0356V42.487C45.6424 42.487 46.3738 42.7308 46.9223 43.2794C47.1661 42.8527 47.4099 42.0604 47.5318 41.5728C48.0194 41.8166 48.8118 42.1213 49.4822 42.2432C49.5432 41.6337 49.6041 40.8414 49.5432 40.2319C50.2136 40.2928 50.945 40.2928 51.7374 40.1709C51.6155 39.6224 51.1279 38.7081 50.8231 38.2205C51.4936 38.0377 52.3469 37.672 52.7736 37.4282C52.4078 36.9406 51.7983 36.2701 51.3717 35.8435C51.8593 35.4778 52.6517 34.8682 52.9564 34.5025C52.4079 34.1368 51.6764 33.7711 51.0669 33.5273C51.9202 32.3693 52.1031 29.9922 51.9202 28.8951C51.1888 31.3941 48.9946 33.2226 47.6537 34.0759C47.5928 34.1368 47.5318 34.1978 47.4709 34.1978C47.4099 34.2587 47.1661 34.5635 47.288 34.9292C47.288 35.0511 47.349 35.1121 47.349 35.234C47.4709 35.7216 47.4709 36.453 46.7395 37.1234C46.13 37.672 45.3986 37.7329 44.9719 37.672V36.3311C44.9719 36.1482 44.85 36.0263 44.6672 36.0263H43.7529L43.3262 35.5997C43.3262 35.5997 43.7529 35.5997 44.2405 35.5997C44.7281 35.5387 45.2767 35.2949 45.2767 35.2949C45.2767 35.2949 44.7281 35.2949 44.4843 35.234C44.1795 35.2949 43.5091 34.9901 42.9605 34.3806C42.7777 34.1368 42.5948 33.893 42.4729 33.6492C41.9853 33.2226 41.4368 32.674 41.0711 31.8817C40.8273 31.3331 40.7054 30.5408 40.6444 30.0532C40.4616 30.1751 40.2787 30.4189 40.0349 30.7236C39.6083 31.2722 39.4254 32.0645 39.4254 32.0645L39.2426 32.674L38.9378 32.1255C38.9378 32.1255 38.5112 31.3941 38.4502 30.4798C38.4502 30.0532 38.4502 29.6875 38.5112 29.3827C38.3893 29.4437 38.2064 29.5656 38.0236 29.6875C37.2922 30.236 36.8655 30.7846 36.8655 30.7846C36.4998 31.2722 36.256 31.6988 36.195 31.8817C36.1341 31.6379 35.8903 31.2722 35.5246 30.7846C35.5246 30.7846 35.1589 30.1751 34.3665 29.6875C34.1837 29.5656 34.0008 29.4437 33.8789 29.3827C33.9399 29.6875 33.9399 30.1141 33.9399 30.4798C33.8789 31.3941 33.4523 32.0645 33.4523 32.1255L33.1475 32.6131L32.9647 32.0036C32.9647 32.0036 32.7209 31.2112 32.3552 30.6627C32.1114 30.3579 31.9285 30.1141 31.7457 29.9922C31.6847 30.4798 31.5628 31.3331 31.319 31.8207C30.9533 32.6131 30.4657 33.2226 29.9172 33.5883C29.7953 33.8321 29.6124 34.0759 29.4296 34.3197C28.881 34.9292 28.2105 35.234 27.9058 35.2949C27.662 35.3559 27.1134 35.3559 27.1134 35.3559C27.1134 35.3559 27.662 35.5997 28.1496 35.6606C28.6372 35.7216 29.0639 35.6606 29.0639 35.6606L28.6372 36.0873H27.7229C27.5401 36.0873 27.4182 36.2092 27.4182 36.392V37.7329C26.9915 37.7939 26.1992 37.7329 25.6506 37.1844C24.9802 36.5139 24.9192 35.7825 25.0411 35.2949C25.1021 35.234 25.1021 35.1121 25.1021 34.9902C25.224 34.6244 24.9802 34.3197 24.9192 34.2587C24.8583 34.1978 24.7973 34.1368 24.7364 34.1368C23.3955 33.2835 21.2622 31.455 20.4698 28.9561C20.287 30.0532 20.5308 32.3693 21.3232 33.5883C20.7136 33.8321 19.9213 34.1978 19.4337 34.5635C19.7384 34.9292 20.5308 35.5997 21.0184 35.9044C20.5917 36.2701 19.9213 37.0015 19.6165 37.4891C20.0432 37.7329 20.8965 38.0986 21.567 38.2815C21.2622 38.7691 20.7746 39.6833 20.6527 40.2319C21.3841 40.3538 22.1765 40.3538 22.8469 40.2928C22.786 40.9023 22.8469 41.7556 22.9079 42.3042C23.5783 42.1823 24.3707 41.9385 24.8583 41.6337C24.9802 42.0604 25.224 42.9137 25.4678 43.3404C26.0163 42.7918 26.7477 42.548 27.4182 42.548V43.0965C26.7477 43.0965 26.0163 43.4013 25.2849 44.2546C25.2849 44.1937 24.7364 43.3404 24.4926 42.487C24.0659 42.6699 23.1517 43.0356 22.3593 43.0965C22.2374 42.487 22.1765 41.5118 22.1765 40.9023C21.3232 40.9023 20.5308 40.8414 19.9213 40.7195C20.0432 40.049 20.4089 39.1348 20.6527 38.5862C20.1041 38.4034 19.1289 37.9767 18.6413 37.672C18.9461 37.1844 19.6775 36.392 20.1041 35.9654C19.6165 35.5997 18.8242 34.8682 18.4585 34.3806C19.007 33.954 19.7994 33.5883 20.4698 33.3445C19.9822 32.4302 19.7384 30.9674 19.7994 30.1751C18.9461 29.3218 17.7271 27.9199 17.3004 26.2133C16.6909 28.3466 16.8128 31.3331 18.8242 32.674C17.849 32.674 16.1424 32.9178 15.2891 33.1616C15.8986 33.893 17.4223 34.8682 18.3366 35.3559C17.6052 35.5997 16.3252 36.3311 15.7767 36.8187C16.4471 37.2453 17.9709 37.7329 18.7023 37.9158C18.2756 38.2815 17.4223 39.2567 17.1176 39.7443C17.7271 39.9271 18.9461 40.11 19.7384 40.11C19.4946 40.6585 19.1899 41.5728 19.1289 42.1213C19.4946 42.1823 20.7746 42.1213 21.4451 41.9385C21.3841 42.487 21.3841 43.4013 21.506 43.828C22.1155 43.767 23.0298 43.4623 23.4564 43.3404C23.5783 43.828 24.005 44.8032 24.1878 45.047C24.4926 44.986 24.7973 44.9251 25.1021 44.8032C25.9554 44.4984 26.8696 44.8641 27.2353 45.6565C27.8448 47.0583 27.601 48.704 26.443 48.3992C25.1021 48.643 26.0163 50.3496 25.224 50.8982C26.2601 51.6296 26.5649 49.923 27.9058 50.2277C27.7839 50.8372 27.7839 51.9953 27.9058 52.4829C28.3324 52.1782 28.942 51.9344 29.3077 51.8734C29.1858 52.2391 29.1248 53.0924 29.2467 53.641C29.4905 53.4581 31.2581 52.9705 31.2581 52.9705C31.2581 52.9705 30.5876 54.3114 31.0143 55.6523C31.2581 55.8352 32.8428 55.0428 32.8428 54.6162C32.9037 55.1647 32.2333 56.3837 31.1971 56.6275C32.2942 57.7246 33.2694 57.6637 33.3913 57.6637C33.5742 57.6637 33.6961 57.6637 33.818 57.5418C33.757 57.8465 33.6961 58.2732 33.757 58.517C33.818 58.517 33.8789 58.517 33.9399 58.517C34.2446 58.517 34.4884 58.4561 34.6713 58.3951C34.7322 58.6999 34.8541 59.0046 35.037 59.2484C35.0979 59.3094 35.0979 59.3094 35.1589 59.3703C35.4027 59.3703 36.0122 59.0655 36.1341 58.8827C36.256 59.0655 36.8655 59.3703 37.1093 59.3703C37.1703 59.3094 37.2312 59.3094 37.2312 59.2484C37.475 59.0046 37.5969 58.6389 37.5969 58.3951C37.8407 58.517 38.0845 58.517 38.3283 58.517C38.3893 58.517 38.4502 58.517 38.5112 58.517C38.5721 58.2732 38.5721 57.8465 38.4502 57.5418C38.5721 57.6027 38.755 57.6637 38.8769 57.6637C38.9988 57.6637 39.974 57.7246 41.0711 56.6275C40.0349 56.3837 39.3645 55.1647 39.4254 54.6162C39.4254 55.1038 41.0101 55.8352 41.2539 55.6523C41.6806 54.3114 41.0101 52.9705 41.0101 52.9705C41.0101 52.9705 42.7167 53.3972 43.0215 53.641C43.1434 53.0924 43.0824 52.2391 42.9605 51.8734C43.3262 51.8734 43.9357 52.1782 44.3624 52.4829C44.4843 51.9953 44.4843 50.8982 44.3624 50.2277C45.6424 49.923 45.9471 51.6296 47.0442 50.8982C46.3128 50.3496 47.2271 48.643 45.8252 48.3992C44.6671 48.7649 44.4233 47.0583 45.0329 45.6565C45.3986 44.8641 46.3738 44.4984 47.1661 44.8032C47.4709 44.9251 47.7756 44.986 48.0804 45.047C48.2023 44.8032 48.6899 43.828 48.8118 43.3404C49.2384 43.5232 50.1527 43.767 50.7622 43.828C50.8231 43.4013 50.8841 42.487 50.8231 41.9385C51.4326 42.0604 52.7736 42.1213 53.1393 42.1213C53.0783 41.5118 52.7736 40.5976 52.5298 40.11C53.3221 40.049 54.5411 39.9271 55.1506 39.7443C54.8459 39.1957 53.9926 38.2205 53.5659 37.9158C54.2973 37.7329 55.8211 37.2453 56.4915 36.8187C56.0649 36.2701 54.7849 35.5387 54.0535 35.2949ZM44.1795 49.0087C44.1186 49.1306 44.0576 49.1916 43.9967 49.3135C43.9967 49.3744 43.9357 49.3744 43.9357 49.4354C43.8748 49.4963 43.8138 49.5573 43.7529 49.6792C43.6919 49.7401 43.6919 49.7401 43.631 49.8011C43.57 49.923 43.4481 49.9839 43.3872 50.1058C43.3262 50.1668 43.2653 50.2277 43.2043 50.2887C43.1434 50.3496 43.0824 50.4106 43.0215 50.4715C42.9605 50.5325 42.8996 50.5935 42.7777 50.7154C42.7167 50.7763 42.7167 50.7763 42.6558 50.8372C42.4729 51.0201 42.2291 51.203 41.9853 51.3249C41.6806 51.5687 41.3758 51.7515 41.0101 51.9344C40.8882 51.9953 40.7663 52.0563 40.6444 52.1172C37.9017 53.5191 36.5608 54.6162 36.1341 54.9209H36.0731C35.6465 54.5552 34.3056 53.5191 31.5628 52.1172C31.4409 52.0563 31.319 51.9953 31.1971 51.9344C30.8314 51.7515 30.5267 51.5687 30.2219 51.3249C29.9781 51.142 29.7953 50.9592 29.5515 50.8372C29.4905 50.7763 29.4296 50.7763 29.4296 50.7154C29.3686 50.6544 29.2467 50.5935 29.1858 50.4715C29.1248 50.4106 29.0639 50.3496 29.0029 50.2887C28.942 50.2277 28.881 50.1668 28.82 50.1058C28.6981 49.9839 28.6372 49.923 28.5762 49.8011C28.5153 49.7401 28.5153 49.7401 28.4543 49.6792C28.3934 49.6182 28.3324 49.5573 28.2715 49.4354C28.2715 49.3744 28.2105 49.3744 28.2105 49.3135C28.1496 49.1916 28.0886 49.1306 28.0277 49.0087C27.662 48.2164 27.7229 47.5459 27.7229 47.5459V36.8796C27.7229 36.6968 27.8448 36.5749 28.0277 36.5749H44.1186C44.3015 36.5749 44.4234 36.6968 44.4234 36.8796V47.5459C44.4843 47.5459 44.5452 48.2164 44.1795 49.0087Z" fill="black"/>
<path d="M43.811 19.7522C44.0548 19.7522 44.1767 19.5694 44.1767 19.3256C44.1767 19.0818 43.9939 18.8989 43.811 18.8989C43.5672 18.8989 43.4453 19.0818 43.4453 19.3256C43.4453 19.5694 43.6282 19.7522 43.811 19.7522Z" fill="black"/>
<path d="M43.8118 22.0075C44.0556 22.0075 44.2994 20.9714 44.2994 20.4838C44.2994 20.179 44.0556 19.9962 43.8118 19.9962C43.568 19.9962 43.3242 20.179 43.3242 20.4838C43.3242 20.9714 43.568 22.0075 43.8118 22.0075Z" fill="black"/>
<path d="M43.5665 18.2891H44.1151L43.9932 17.6187L44.6636 17.6796V17.1311L43.9932 17.253L44.1151 16.5825H43.5665L43.6275 17.253L42.957 17.1311V17.6796L43.6275 17.6187L43.5665 18.2891Z" fill="black"/>
<path d="M41.4353 23.2268C41.6181 23.2878 41.801 23.2878 41.9838 23.3487H42.1057C42.1667 23.3487 42.1667 23.3487 42.1667 23.3487H42.2886C42.3495 23.3487 42.4105 23.3487 42.4714 23.3487C42.5324 23.3487 42.5324 23.3487 42.5933 23.3487C42.6543 23.3487 42.7152 23.3487 42.7762 23.3487C43.2638 23.3487 43.7514 23.2268 44.239 23.1049C44.7266 22.983 45.2142 22.8611 45.7627 22.8611H46.1285C46.2504 22.3126 46.4332 21.7031 46.4332 21.3374C46.4332 20.606 46.0065 19.8136 44.6047 19.5698C44.6047 20.4841 44.178 22.6173 43.6904 22.6173H43.6295C43.1419 22.6173 42.7152 20.4841 42.7152 19.5698C41.3134 19.8136 40.8867 20.606 40.8867 21.3374C40.8867 21.764 41.0696 22.5564 41.2524 23.1049C41.4353 23.1659 41.4353 23.1659 41.4353 23.2268Z" fill="black"/>
<path d="M48.7489 19.3873C48.7489 19.3873 48.3832 18.4121 48.9927 18.1073C49.6631 17.8635 48.7489 17.9854 49.2365 16.6445C49.785 15.0598 51.004 15.4255 51.004 15.4255C50.1507 14.7551 49.4803 14.816 48.9927 15.1817C48.6879 15.4255 48.2613 15.9131 47.9565 16.8883C47.7127 18.1073 48.1394 19.2654 48.7489 19.3873Z" fill="black"/>
<path d="M51.92 17.0091C51.981 19.0205 55.3333 19.8738 55.3333 19.8738C55.3333 19.8738 53.3828 18.4719 53.7485 17.4358C53.7485 17.4358 55.0285 17.9843 56.4913 17.7405C53.3828 17.0701 54.419 16.0949 53.6266 15.3025C52.8343 14.4492 51.6153 14.3883 51.3105 14.3273C50.5182 14.2664 50.4572 14.2664 49.543 14.5102C51.6762 14.5711 51.92 15.6682 51.92 17.0091Z" fill="black"/>
<path d="M51.4901 20.788C51.9167 19.2032 51.1244 18.4718 51.1244 18.4718C50.8805 18.1671 49.6006 18.228 49.113 18.5328C49.113 18.5328 50.332 18.5328 50.1491 20.3004C49.9663 22.0679 47.5283 22.4336 46.8578 22.4946L46.7969 22.7384C47.9549 22.7384 51.0025 22.3727 51.4901 20.788Z" fill="black"/>
<path d="M38.7542 20.728H37.5352C38.1447 22.4346 39.9122 22.9832 41.0703 23.166L41.0093 22.9832C39.7903 22.4956 39.1808 22.008 38.7542 20.728Z" fill="black"/>
<path d="M28.6353 19.7522C28.8791 19.7522 29.001 19.5694 29.001 19.3256C29.001 19.0818 28.8182 18.8989 28.6353 18.8989C28.3915 18.8989 28.2696 19.0818 28.2696 19.3256C28.2087 19.5694 28.3915 19.7522 28.6353 19.7522Z" fill="black"/>
<path d="M28.636 22.0075C28.8798 22.0075 29.1236 20.9713 29.1236 20.4837C29.1236 20.1789 28.8798 19.9961 28.636 19.9961C28.3922 19.9961 28.1484 20.1789 28.1484 20.4837C28.1484 20.9713 28.3313 22.0075 28.636 22.0075Z" fill="black"/>
<path d="M28.3298 18.2891H28.8784L28.8174 17.6187L29.4879 17.6796V17.1311L28.8174 17.253L28.8784 16.5825H28.3298L28.4517 17.253L27.7812 17.1311V17.6796L28.4517 17.6187L28.3298 18.2891Z" fill="black"/>
<path d="M26.196 22.8609H26.4398C26.5008 22.8609 26.5008 22.8609 26.5008 22.8609H26.5617C27.1103 22.9218 27.6588 22.9828 28.0855 23.1047C28.5121 23.2266 29.0607 23.3485 29.5483 23.3485C29.6092 23.3485 29.6702 23.3485 29.7311 23.3485C29.7921 23.3485 29.7921 23.3485 29.853 23.3485C29.914 23.3485 29.9749 23.3485 30.0359 23.3485H30.3407C30.5235 23.3485 30.7064 23.2875 30.8892 23.2266C30.8892 23.1656 30.8892 23.1656 30.9502 23.1656C31.133 22.6171 31.3159 21.8247 31.3159 21.3981C31.3159 20.6667 30.9502 19.8743 29.4873 19.6305C29.4873 20.4838 29.0607 22.678 28.5731 22.678H28.5121C28.0245 22.678 27.5979 20.5448 27.5979 19.6305C26.196 19.8743 25.7694 20.6667 25.7694 21.3981C25.7694 21.7638 25.8913 22.3733 26.0741 22.9218C26.1351 22.8609 26.1351 22.8609 26.196 22.8609Z" fill="black"/>
<path d="M21.3828 15.4248C21.3828 15.4248 22.6018 15.0591 23.1504 16.6438C23.638 17.9847 22.7237 17.8628 23.3942 18.1066C24.0646 18.3504 23.638 19.3866 23.638 19.3866C24.3084 19.2647 24.7351 18.1066 24.3694 16.8267C24.0646 15.8514 23.638 15.3638 23.3332 15.12C22.8456 14.8153 22.2361 14.7543 21.3828 15.4248Z" fill="black"/>
<path d="M18.6397 17.4356C19.0054 18.4718 17.0549 19.8736 17.0549 19.8736C17.0549 19.8736 20.4682 19.0203 20.4682 17.009C20.5291 15.6681 20.712 14.571 22.7843 14.51C21.87 14.3271 21.8091 14.3271 21.0167 14.3271C20.712 14.3271 19.493 14.449 18.7006 15.3024C17.9692 16.0947 18.9444 17.0699 15.8359 17.7404C17.3597 17.9842 18.6397 17.4356 18.6397 17.4356Z" fill="black"/>
<path d="M22.2952 20.3013C22.1123 18.5337 23.3313 18.5337 23.3313 18.5337C22.9047 18.2289 21.6247 18.2289 21.32 18.4727C21.32 18.4727 20.5276 19.1432 20.9543 20.7889C21.3809 22.3736 24.4894 22.7393 25.6475 22.7393L25.5865 22.4955C24.9161 22.4345 22.478 22.0688 22.2952 20.3013Z" fill="black"/>
<path d="M34.914 20.728H33.695C33.2684 22.008 32.6589 22.4956 31.4399 22.9832L31.3789 23.166C32.5979 22.9832 34.3045 22.4346 34.914 20.728Z" fill="black"/>
<path d="M37.7775 28.2243C37.4118 28.7729 37.1071 29.3824 36.8633 29.9919C37.0461 29.7481 37.3509 29.5043 37.6556 29.2605C38.2042 28.8948 38.6918 28.651 38.6918 28.651L39.1794 28.4681L39.0575 28.9557C39.0575 28.9557 38.8746 29.7481 38.9356 30.4186C38.9356 30.7233 39.0575 31.0281 39.1184 31.2109C39.2403 30.9062 39.4232 30.6014 39.606 30.2967C40.2156 29.5043 40.7032 29.1995 40.7032 29.1995L41.0689 29.0167V29.4433C41.0689 29.4433 41.1908 30.8452 41.4955 31.5766C42.0441 32.7956 43.0802 33.4661 43.6897 33.7708C43.6288 33.7099 43.5069 33.588 43.385 33.4661C43.0802 33.1613 42.7755 32.6128 42.5926 31.4547C42.4707 30.4795 42.8364 29.5043 42.9583 29.1995C43.0193 29.4434 43.1412 29.6872 43.2631 29.7481C43.2631 29.7481 43.2631 29.5043 43.324 29.2605C43.4459 28.59 44.1773 27.5539 45.1525 26.9444C45.3354 26.8225 45.5182 26.7006 45.6401 26.6396C45.823 26.5787 45.9449 26.4568 46.0668 26.3349C45.8839 26.3349 45.6401 26.3958 45.4573 26.3958H45.3963C45.2744 26.3958 45.0916 26.3958 44.8478 26.3958C44.3602 26.3958 43.8116 26.3349 43.385 25.9692C42.9583 25.6035 42.7755 25.2378 42.7145 24.994C42.5317 24.994 42.2879 24.994 41.9831 24.994C41.6174 24.994 41.3127 24.8721 41.1298 24.8721C40.6422 25.1768 40.1546 25.2987 39.5451 25.3597C39.4841 25.3597 39.3622 25.3597 39.3013 25.3597C39.4841 25.5425 39.7279 25.6644 39.9108 25.7863C39.9108 25.7863 39.9108 25.7863 39.9718 25.7863L39.8499 25.8473C39.9108 25.7863 39.0575 26.2739 37.7775 28.2243Z" fill="black"/>
<path d="M45.7642 24.811C45.5204 24.811 45.3376 24.811 45.0938 24.811C45.0938 24.9329 45.0938 25.0548 45.0938 25.1767C45.1547 25.3596 45.2157 25.4815 45.3376 25.6034C45.5204 25.4815 45.7033 25.1767 45.7642 24.811Z" fill="black"/>
<path d="M46.2505 23.4099C46.1896 23.4099 46.1896 23.4099 46.2505 23.4099H46.1896C46.1896 23.4099 46.1896 23.4099 46.1286 23.4099C46.0677 23.4099 46.0677 23.4099 46.0067 23.4099C45.5191 23.4099 45.0315 23.5318 44.5439 23.6537C44.0563 23.7756 43.5078 23.8975 43.0202 23.8975C42.8983 23.8975 42.8373 23.8975 42.7154 23.8975C42.6545 23.8975 42.5935 23.8975 42.5326 23.8975C42.4716 23.8975 42.4716 23.8975 42.4107 23.8975C42.3497 23.8975 42.3497 23.8975 42.2888 23.8975C42.2888 23.8975 42.2888 23.8975 42.2278 23.8975C42.2278 23.8975 42.2278 23.8975 42.1669 23.8975C41.0698 23.7756 40.3384 23.4099 39.9727 23.2271C40.0336 23.349 40.1555 23.4709 40.3384 23.6537C40.3993 23.7147 40.4603 23.7756 40.5212 23.8366C40.6431 23.9585 40.826 24.0804 41.0088 24.2023C41.2526 24.3242 42.2888 24.7508 43.6297 24.568C45.1534 24.3242 45.4582 24.3851 45.8239 24.3851H45.9458C46.4943 24.4461 47.2867 24.7508 47.5915 24.9337C47.7134 24.6289 47.8962 24.3242 47.9572 24.0194C47.8962 23.9585 47.7743 23.8366 47.5305 23.7147C47.4696 23.6537 47.4086 23.6537 47.2867 23.5928C47.1648 23.5318 46.9819 23.4709 46.7381 23.4709C46.4943 23.4099 46.3724 23.4099 46.2505 23.4099Z" fill="black"/>
<path d="M50.5152 28.4075C50.4542 28.4075 49.9057 28.7122 48.7476 27.9808C47.5896 27.2494 46.7362 26.9447 46.2486 26.8228C46.1267 26.8837 46.0658 26.9447 45.9439 27.0056C45.822 27.0666 45.6391 27.1885 45.4563 27.3104C45.3953 27.3713 45.3344 27.3713 45.2734 27.4323C45.2734 27.4323 45.3344 27.4323 45.3953 27.4323C46.4924 27.5542 47.3457 28.1637 47.4067 28.4075H47.4677C47.5896 28.0418 47.4067 27.737 47.4067 27.737C47.4067 27.737 47.8943 28.0418 48.8695 28.5903C49.9057 29.2608 50.3323 28.6513 50.5152 28.4075Z" fill="black"/>
<path d="M44.7261 25.4206C44.6651 25.3596 44.6042 25.2377 44.5432 25.1768C44.4823 25.0549 44.4823 24.9939 44.4823 24.933C44.2384 24.933 43.9337 24.9939 43.568 25.0549C43.507 25.0549 43.3851 25.0549 43.3242 25.0549C43.507 25.4206 43.8118 25.7863 44.4213 25.9082C44.4823 25.9082 44.4823 25.9082 44.5432 25.9082C44.6042 25.9082 44.6042 25.9082 44.6651 25.9082C44.9089 25.9691 45.2137 25.9691 45.3965 25.9691C45.8232 25.9691 46.3108 25.9082 46.7984 25.7863C46.9203 25.6644 46.9812 25.4815 47.1031 25.3596C47.1031 25.3596 47.0422 25.2987 46.9812 25.2987C46.8593 25.2377 46.5546 25.0549 46.3717 24.9939C46.3108 25.1768 46.1889 25.3596 46.067 25.4815C45.8841 25.6034 45.6403 25.6644 45.3965 25.6644C45.1527 25.6644 44.9089 25.6034 44.787 25.4815C44.7261 25.4815 44.7261 25.4206 44.7261 25.4206Z" fill="black"/>
<path d="M47.9565 24.5063C47.5908 25.4816 46.9813 26.213 46.5547 26.5787C49.2975 25.8473 49.7851 27.2491 49.7851 27.3101C49.7851 27.371 49.7851 27.371 49.846 27.3101C49.907 27.2491 50.8212 26.2739 50.1508 25.3597C49.6022 24.6282 48.3832 24.5063 47.9565 24.5063ZM47.9565 25.2378C48.0784 25.1159 48.1394 24.8721 48.1394 24.8721C48.3222 24.8721 48.688 24.933 48.688 25.1768C48.4441 25.1159 48.1394 25.1159 47.9565 25.2378Z" fill="black"/>
<path d="M27.354 25.1767C27.354 25.0548 27.354 24.9329 27.354 24.811C27.1102 24.811 26.8664 24.811 26.6836 24.811C26.7445 25.1767 26.9274 25.4815 27.1102 25.6034C27.2321 25.4815 27.2931 25.3596 27.354 25.1767Z" fill="black"/>
<path d="M30.463 23.8365C30.4021 23.8365 30.4021 23.8365 30.463 23.8365C30.4021 23.8365 30.4021 23.8365 30.4021 23.8365C30.4021 23.8365 30.4021 23.8365 30.3411 23.8365C30.2802 23.8365 30.2802 23.8365 30.2192 23.8365C30.1583 23.8365 30.1583 23.8365 30.0973 23.8365C30.0364 23.8365 29.9754 23.8365 29.9145 23.8365C29.7926 23.8365 29.7316 23.8365 29.6097 23.8365C29.0612 23.8365 28.5736 23.7146 28.086 23.5927C27.5374 23.5318 27.0498 23.4099 26.5622 23.4099C26.5013 23.4099 26.5013 23.4099 26.4403 23.4099C26.4403 23.4099 26.4403 23.4099 26.3794 23.4099C26.2575 23.4099 26.1356 23.4099 26.0746 23.4099C25.8308 23.4099 25.648 23.4708 25.5261 23.5318C25.4651 23.5927 25.3432 23.5927 25.2823 23.6537C25.0994 23.7756 24.9775 23.8365 24.8556 23.9584C24.9166 24.2632 25.0994 24.6289 25.2213 24.8727C25.5261 24.6898 26.3184 24.3241 26.867 24.3241H26.9889C27.3546 24.3241 27.6593 24.2632 29.1831 24.507C30.524 24.6898 31.4992 24.2632 31.804 24.1413C31.9868 24.0194 32.1697 23.8975 32.2916 23.7756C32.3525 23.7146 32.4135 23.6537 32.4744 23.5927C32.5963 23.4099 32.7182 23.288 32.8401 23.1661C32.2916 23.3489 31.5602 23.7146 30.463 23.8365Z" fill="black"/>
<path d="M21.9297 28.4071C22.1125 28.59 22.5392 29.2605 23.5144 28.7119C24.4896 28.1633 24.9772 27.8586 24.9772 27.8586C24.9772 27.8586 24.7944 28.1633 24.9163 28.529C24.9163 28.529 24.9163 28.529 24.9772 28.529C25.0991 28.2852 25.9524 27.6148 26.9886 27.5538C27.0495 27.5538 27.0495 27.5538 27.1105 27.5538C27.0495 27.4929 26.9886 27.4929 26.9276 27.4319C26.7448 27.31 26.5619 27.1881 26.44 27.1272C26.3181 27.0662 26.2572 27.0053 26.1353 26.9443C25.6477 27.0053 24.7944 27.371 23.6363 28.1024C22.5392 28.7119 21.9906 28.4071 21.9297 28.4071Z" fill="black"/>
<path d="M26.0751 24.9941C25.9532 25.0551 25.5875 25.2379 25.4656 25.2989C25.4046 25.2989 25.4046 25.3598 25.3437 25.3598C25.4656 25.5427 25.5265 25.6646 25.6484 25.7865C26.136 25.9084 26.6236 25.9693 27.0503 25.9693C27.2941 25.9693 27.5379 25.9693 27.7817 25.9084C27.8426 25.9084 27.8426 25.9084 27.9036 25.9084C27.9645 25.9084 27.9645 25.9084 28.0255 25.9084C28.635 25.7865 29.0007 25.3598 29.1226 25.0551C29.0617 25.0551 28.9397 25.0551 28.8788 25.0551C28.5131 24.9941 28.2083 24.9332 27.9645 24.9332C27.9645 24.9941 27.9036 25.116 27.9036 25.177C27.8426 25.2989 27.7817 25.3598 27.7207 25.4208L27.6598 25.4817C27.4769 25.6036 27.2941 25.6646 27.0503 25.6646C26.8065 25.6646 26.5627 25.6036 26.3798 25.4817C26.197 25.3598 26.136 25.177 26.0751 24.9941Z" fill="black"/>
<path d="M22.2367 25.3597C21.5663 26.2739 22.4805 27.2491 22.5415 27.3101C22.6024 27.371 22.6024 27.3101 22.6024 27.3101C22.6024 27.2491 23.09 25.8473 25.8328 26.5787C25.4061 26.213 24.7966 25.4816 24.4309 24.5063C24.0652 24.5063 22.7853 24.6282 22.2367 25.3597ZM24.4919 25.2378C24.309 25.1159 24.0043 25.1159 23.7605 25.1768C23.7605 24.933 24.1262 24.8721 24.309 24.8721C24.309 24.8721 24.37 25.1159 24.4919 25.2378Z" fill="black"/>
<path d="M33.0858 25.3597C33.0249 25.3597 32.903 25.3597 32.842 25.3597C32.2325 25.3597 31.7449 25.1768 31.2573 24.8721C31.0744 24.933 30.7087 24.994 30.404 24.994C30.0992 24.994 29.7945 24.994 29.6726 24.994C29.6116 25.2378 29.4288 25.6644 29.0021 25.9692C28.5755 26.3349 28.0269 26.3958 27.5393 26.3958C27.2955 26.3958 27.1127 26.3958 26.9908 26.3958H26.9298C26.8079 26.3958 26.5641 26.3349 26.3203 26.3349C26.5032 26.4568 26.6251 26.5177 26.747 26.6396C26.8689 26.7006 27.0517 26.8225 27.2346 26.9444C28.2098 27.6148 28.9412 28.59 29.0631 29.2605C29.124 29.5043 29.124 29.7481 29.124 29.7481C29.2459 29.6872 29.3678 29.4434 29.4288 29.1995C29.5507 29.5043 29.9773 30.4795 29.7945 31.4547C29.6116 32.6128 29.3069 33.1613 29.0021 33.4661C28.8802 33.588 28.7583 33.7099 28.6974 33.7708C29.3069 33.4661 30.343 32.7956 30.8916 31.5766C31.1963 30.9062 31.3182 29.5043 31.3182 29.5043V29.0776L31.6839 29.2605C31.6839 29.2605 32.2325 29.5653 32.7811 30.3576C32.9639 30.6624 33.1468 30.9671 33.2687 31.2719C33.3296 31.0281 33.3906 30.7843 33.4515 30.4795C33.5125 29.7481 33.3296 29.0167 33.3296 29.0167L33.2077 28.5291L33.6953 28.7119C33.6953 28.7119 34.1829 28.8948 34.7315 29.3214C35.0972 29.5653 35.341 29.8091 35.5238 30.0529C35.28 29.4434 35.0362 28.8338 34.6096 28.2853C33.3296 26.3349 32.5373 25.9082 32.5373 25.9082L32.4154 25.8473C32.4154 25.8473 32.4154 25.8473 32.4763 25.8473C32.6592 25.6644 32.903 25.4816 33.0858 25.3597Z" fill="black"/>
<path d="M74.5424 30.2959H73.4453V23.5914H74.5424L76.7976 26.6389L79.0528 23.5914H80.1499V30.2959H79.0528V25.1761L77.1023 27.736H76.4319L74.4815 25.1761L74.5424 30.2959Z" fill="black"/>
<path d="M82.8912 30.2958H81.916V23.5913H83.0131V28.5283L86.853 23.5913H87.8282V30.2958H86.7311V25.3589L82.8912 30.2958Z" fill="black"/>
<path d="M90.6323 30.2958H89.5352V23.5913H90.6323V26.2731H94.2893V23.5913H95.3864V30.2958H94.2893V27.1874H90.6323V30.2958Z" fill="black"/>
<path d="M98.0666 30.2958H97.1523V23.5913H98.2495V28.5283L102.089 23.5913H103.065V30.2958H101.967V25.3589L98.0666 30.2958Z" fill="black"/>
<path d="M108.126 30.4181C107.09 30.4181 106.175 30.1133 105.505 29.4429C104.774 28.7724 104.469 27.9191 104.469 26.9439C104.469 25.9077 104.834 25.1154 105.505 24.4449C106.236 23.7745 107.09 23.4697 108.126 23.4697C108.857 23.4697 109.467 23.6526 110.015 23.8964V24.9325C109.467 24.5668 108.857 24.384 108.126 24.384C107.394 24.384 106.785 24.6278 106.297 25.1154C105.81 25.603 105.566 26.1515 105.566 26.8829C105.566 27.6144 105.81 28.2239 106.297 28.6505C106.785 29.1381 107.394 29.3819 108.187 29.3819C108.979 29.3819 109.65 29.1991 110.198 28.7724V29.8086C109.528 30.2352 108.857 30.4181 108.126 30.4181Z" fill="black"/>
<path d="M111.051 24.5665V23.5913H116.78V24.5665H114.464V30.3568H113.367V24.5665H111.051Z" fill="black"/>
<path d="M123.057 30.2959H117.937V23.5914H122.935V24.5666H119.034V26.2732H122.204V27.2484H119.034V29.3207H123.057V30.2959Z" fill="black"/>
<path d="M124.278 30.2959V23.5914H127.325C128.057 23.5914 128.666 23.7742 129.032 24.1399C129.458 24.5056 129.702 24.9932 129.702 25.5418C129.702 26.0903 129.458 26.5779 129.032 27.0046C128.605 27.3703 128.057 27.5531 127.325 27.5531H125.375V30.2959H124.278ZM125.314 24.5666V26.5779H127.142C127.569 26.5779 127.874 26.456 128.117 26.3341C128.361 26.1513 128.483 25.9075 128.483 25.6027C128.483 25.298 128.361 25.0542 128.117 24.8713C127.874 24.6885 127.569 24.6275 127.142 24.6275L125.314 24.5666Z" fill="black"/>
<path d="M134.274 30.4181C133.238 30.4181 132.324 30.1133 131.653 29.4429C130.922 28.7724 130.617 27.9191 130.617 26.9439C130.617 25.9077 130.983 25.1154 131.653 24.4449C132.385 23.7745 133.238 23.4697 134.274 23.4697C135.006 23.4697 135.615 23.6526 136.164 23.8964V24.9325C135.615 24.5668 135.006 24.384 134.274 24.384C133.543 24.384 132.933 24.6278 132.446 25.1154C131.958 25.603 131.714 26.1515 131.714 26.8829C131.714 27.6144 131.958 28.2239 132.446 28.6505C132.933 29.1381 133.543 29.3819 134.335 29.3819C135.128 29.3819 135.798 29.1991 136.347 28.7724V29.8086C135.737 30.2352 135.067 30.4181 134.274 30.4181Z" fill="black"/>
<path d="M137.199 24.5665V23.5913H142.929V24.5665H140.612V30.3568H139.515V24.5665H137.199Z" fill="black"/>
<path d="M147.501 30.2958H144.088V23.5913H147.257C147.928 23.5913 148.354 23.7742 148.781 24.018C149.147 24.3227 149.33 24.7494 149.33 25.237C149.33 25.5417 149.208 25.8465 149.086 26.0903C148.903 26.3341 148.72 26.5169 148.415 26.5779C148.842 26.6388 149.208 26.8826 149.452 27.1874C149.695 27.4921 149.878 27.9188 149.878 28.4064C149.878 28.9549 149.634 29.4425 149.208 29.8082C148.842 30.113 148.293 30.2958 147.501 30.2958ZM145.185 26.2731H147.074C147.44 26.2731 147.745 26.2122 147.928 26.0293C148.111 25.8465 148.233 25.6636 148.233 25.3589C148.233 25.0541 148.111 24.8713 147.928 24.6884C147.745 24.5056 147.44 24.4446 147.074 24.4446H145.185V26.2731ZM145.185 27.1874V29.3206H147.318C147.745 29.3206 148.111 29.1987 148.293 29.0159C148.537 28.833 148.659 28.5892 148.659 28.2235C148.659 27.9188 148.537 27.675 148.293 27.4312C148.05 27.2483 147.745 27.1874 147.318 27.1874H145.185Z" fill="black"/>
<path d="M157.068 29.4429C156.397 30.1133 155.544 30.4181 154.508 30.4181C153.472 30.4181 152.618 30.1133 151.948 29.4429C151.277 28.7724 150.973 27.9191 150.973 26.9439C150.973 25.9687 151.277 25.1154 151.948 24.5059C152.618 23.8354 153.472 23.4697 154.508 23.4697C155.544 23.4697 156.397 23.8354 157.068 24.5059C157.738 25.1763 158.104 26.0296 158.104 26.9439C158.104 27.8582 157.738 28.7724 157.068 29.4429ZM152.801 28.7115C153.289 29.1991 153.837 29.4429 154.508 29.4429C155.178 29.4429 155.788 29.1991 156.214 28.7115C156.702 28.2239 156.946 27.6144 156.946 26.9439C156.946 26.2125 156.702 25.603 156.214 25.1763C155.727 24.6887 155.178 24.4449 154.508 24.4449C153.837 24.4449 153.228 24.6887 152.801 25.1763C152.314 25.6639 152.07 26.2125 152.07 26.9439C152.07 27.6753 152.314 28.2239 152.801 28.7115Z" fill="black"/>
<path d="M163.286 30.2959H162.189V23.5914H163.286V26.2732H166.943V23.5914H168.041V30.2959H166.943V27.1874H163.286V30.2959Z" fill="black"/>
<path d="M170.295 30.2967H169.137L172.184 23.5312H173.22L176.268 30.2967H175.11L174.318 28.6511H171.026L170.295 30.2967ZM172.733 24.8722L171.453 27.6759H174.013L172.733 24.8722Z" fill="black"/>
<path d="M178.401 30.4186C177.974 30.4186 177.609 30.3577 177.426 30.2358V29.2606C177.67 29.3825 177.914 29.4434 178.218 29.4434C178.523 29.4434 178.706 29.3825 178.95 29.1996C179.133 29.0777 179.315 28.773 179.559 28.2854L176.816 23.5312H178.096L180.169 27.1883L181.875 23.5312H183.033L180.473 28.8339C179.925 29.931 179.254 30.4186 178.401 30.4186Z" fill="black"/>
<path d="M184.07 30.2958V23.5913H185.167V26.3341L188.032 23.5913H189.434L186.204 26.6388L189.982 30.2958H188.52L185.228 27.0655V30.2958H184.07Z" fill="black"/>
<path d="M191.932 30.2958H191.018V23.5913H192.115V28.5283L195.955 23.5913H196.93V30.2958H195.833V25.3589L191.932 30.2958Z" fill="black"/>
<path d="M74.4201 41.937H73.5059V35.2324H74.603V40.1694L78.4428 35.2324H79.4181V41.937H78.3209V37L74.4201 41.937Z" fill="black"/>
<path d="M87.1574 41.937H83.7441V35.2324H86.9136C87.584 35.2324 88.0107 35.4153 88.4373 35.6591C88.803 35.9638 88.9859 36.3905 88.9859 36.8781C88.9859 37.1828 88.864 37.4876 88.7421 37.7314C88.6202 37.9752 88.3764 38.158 88.0716 38.219C88.4983 38.2799 88.864 38.5237 89.1078 38.8285C89.3516 39.1332 89.5344 39.5599 89.5344 40.0475C89.5344 40.5961 89.2906 41.0837 88.864 41.4494C88.4373 41.7541 87.8888 41.937 87.1574 41.937ZM84.8412 37.8533H86.7307C87.0964 37.8533 87.4012 37.7923 87.584 37.6095C87.7669 37.4266 87.8888 37.2438 87.8888 36.939C87.8888 36.6343 87.7669 36.4514 87.584 36.2686C87.4012 36.0857 87.0964 36.0248 86.7307 36.0248H84.8412V37.8533ZM84.8412 38.8285V40.9618H86.9745C87.4012 40.9618 87.7669 40.8399 87.9497 40.657C88.1935 40.4742 88.3154 40.2304 88.3154 39.8647C88.3154 39.5599 88.1935 39.3161 87.9497 39.0723C87.7059 38.8894 87.4012 38.8285 86.9745 38.8285H84.8412Z" fill="black"/>
<path d="M93.5588 41.9372H90.877V35.2327H91.9741V37.5488H93.5588C94.3511 37.5488 95.0216 37.7316 95.5092 38.1583C95.9968 38.5849 96.2406 39.0725 96.2406 39.743C96.2406 40.4134 95.9968 40.901 95.5092 41.3277C94.9606 41.7543 94.3511 41.9372 93.5588 41.9372ZM91.9741 38.524V40.962H93.4978C93.9854 40.962 94.3511 40.8401 94.6559 40.6572C94.9606 40.4744 95.0825 40.1696 95.0825 39.743C95.0825 39.3163 94.9606 39.0116 94.6559 38.8287C94.3511 38.6459 93.9854 38.524 93.4978 38.524H91.9741ZM98.191 41.9372H97.0939V35.2327H98.191V41.9372Z" fill="black"/>
<path d="M103.251 42.06C102.214 42.06 101.3 41.7552 100.63 41.0847C99.8983 40.4143 99.5935 39.561 99.5935 38.5858C99.5935 37.5496 99.9593 36.7573 100.63 36.0868C101.361 35.4164 102.214 35.1116 103.251 35.1116C103.982 35.1116 104.591 35.2945 105.14 35.5383V36.5744C104.591 36.2087 103.982 36.0259 103.251 36.0259C102.519 36.0259 101.91 36.2697 101.422 36.7573C100.934 37.2449 100.691 37.7934 100.691 38.5248C100.691 39.2562 100.934 39.8657 101.422 40.2924C101.91 40.78 102.519 41.0238 103.312 41.0238C104.104 41.0238 104.774 40.8409 105.323 40.4143V41.4505C104.713 41.8771 104.043 42.06 103.251 42.06Z" fill="black"/>
<path d="M115.197 41.937H106.664V35.2324H107.761V41.0227H110.382V35.2324H111.479V41.0227H114.1V35.2324H115.197V41.937Z" fill="black"/>
<path d="M121.962 41.937H116.842V35.2324H121.84V36.2076H117.939V37.8533H121.108V38.8285H117.939V40.9618H121.962V41.937Z" fill="black"/>
<path d="M124.279 41.937H123.182V35.2324H128.119V36.2076H124.279V41.937Z" fill="black"/>
<path d="M134.884 41.085C134.214 41.7554 133.36 42.0602 132.324 42.0602C131.288 42.0602 130.435 41.7554 129.764 41.085C129.094 40.4145 128.789 39.5612 128.789 38.586C128.789 37.6108 129.094 36.7575 129.764 36.148C130.435 35.4775 131.288 35.1118 132.324 35.1118C133.36 35.1118 134.214 35.4775 134.884 36.148C135.555 36.8184 135.92 37.6717 135.92 38.586C135.92 39.5002 135.555 40.4145 134.884 41.085ZM130.557 40.3535C131.044 40.8412 131.593 41.085 132.263 41.085C132.934 41.085 133.543 40.8412 133.97 40.3535C134.457 39.8659 134.701 39.2564 134.701 38.586C134.701 37.8546 134.457 37.2451 133.97 36.8184C133.482 36.3308 132.934 36.087 132.263 36.087C131.593 36.087 130.983 36.3308 130.557 36.8184C130.069 37.306 129.825 37.8546 129.825 38.586C129.886 39.3174 130.069 39.8659 130.557 40.3535Z" fill="black"/>
<path d="M145.853 41.085C145.182 41.7554 144.329 42.0602 143.293 42.0602C142.257 42.0602 141.403 41.7554 140.733 41.085C140.063 40.4145 139.758 39.5612 139.758 38.586C139.758 37.6108 140.063 36.7575 140.733 36.148C141.403 35.4775 142.257 35.1118 143.293 35.1118C144.329 35.1118 145.182 35.4775 145.853 36.148C146.523 36.8184 146.889 37.6717 146.889 38.586C146.889 39.5002 146.523 40.4145 145.853 41.085ZM141.525 40.3535C142.013 40.8412 142.562 41.085 143.232 41.085C143.902 41.085 144.512 40.8412 144.939 40.3535C145.426 39.8659 145.67 39.2564 145.67 38.586C145.67 37.8546 145.426 37.2451 144.939 36.8184C144.451 36.3308 143.902 36.087 143.232 36.087C142.562 36.087 141.952 36.3308 141.525 36.8184C141.038 37.306 140.794 37.8546 140.794 38.586C140.855 39.3174 141.099 39.8659 141.525 40.3535Z" fill="black"/>
<path d="M151.217 41.9372H148.291V35.2327H153.228V36.2079H149.388V37.6097H151.278C152.07 37.6097 152.68 37.7926 153.167 38.2192C153.594 38.5849 153.899 39.1335 153.899 39.8039C153.899 40.4744 153.655 40.962 153.167 41.3886C152.68 41.7543 152.009 41.9372 151.217 41.9372ZM149.327 38.5849V40.962H151.095C151.582 40.962 151.948 40.8401 152.253 40.6572C152.497 40.4134 152.68 40.1696 152.68 39.8039C152.68 39.4382 152.558 39.1335 152.253 38.8897C151.948 38.6459 151.582 38.5849 151.095 38.5849H149.327Z" fill="black"/>
<path d="M156.152 41.937H155.055V35.2324H158.041C158.773 35.2324 159.382 35.4153 159.748 35.781C160.175 36.1467 160.418 36.6343 160.418 37.1828C160.418 37.7314 160.175 38.219 159.748 38.6456C159.321 39.0113 158.773 39.1942 158.041 39.1942H156.091V41.937H156.152ZM156.152 36.1467V38.158H157.98C158.407 38.158 158.712 38.0361 158.956 37.9142C159.199 37.7923 159.321 37.4876 159.321 37.1828C159.321 36.8781 159.199 36.6343 158.956 36.4514C158.712 36.2686 158.407 36.2076 157.98 36.2076L156.152 36.1467Z" fill="black"/>
<path d="M161.457 41.9383H160.299L163.346 35.1729H164.382L167.43 41.9383H166.333L165.541 40.2927H162.249L161.457 41.9383ZM163.895 36.4528L162.615 39.2565H165.175L163.895 36.4528Z" fill="black"/>
<path d="M170.782 42.0605C169.807 42.0605 169.014 41.8776 168.344 41.5119V40.4758C168.649 40.6586 169.014 40.8415 169.441 40.9024C169.868 41.0243 170.233 41.0853 170.66 41.0853C171.209 41.0853 171.696 40.9634 172.062 40.7805C172.428 40.5367 172.55 40.2929 172.55 39.9272C172.55 39.6225 172.367 39.3787 172.062 39.1349C171.757 38.952 171.331 38.8301 170.782 38.8301H169.99V37.8549H170.965C171.392 37.8549 171.757 37.733 171.94 37.6111C172.184 37.4282 172.306 37.2454 172.306 36.9406C172.306 36.6359 172.184 36.453 171.879 36.2702C171.635 36.0873 171.209 36.0264 170.782 36.0264C170.051 36.0264 169.319 36.2092 168.649 36.514V35.5388C169.319 35.1731 170.051 35.0512 170.843 35.0512C171.635 35.0512 172.245 35.234 172.671 35.5388C173.159 35.8435 173.403 36.3311 173.403 36.8797C173.403 37.2454 173.281 37.5502 173.037 37.794C172.793 38.0378 172.55 38.2206 172.306 38.2816C172.671 38.4035 172.976 38.5863 173.281 38.8911C173.586 39.1958 173.708 39.5615 173.708 39.9882C173.708 40.5977 173.464 41.0853 172.915 41.5119C172.306 41.8776 171.635 42.0605 170.782 42.0605Z" fill="black"/>
<path d="M180.839 41.085C180.169 41.7554 179.315 42.0602 178.279 42.0602C177.243 42.0602 176.39 41.7554 175.719 41.085C175.049 40.4145 174.744 39.5612 174.744 38.586C174.744 37.6108 175.049 36.7575 175.719 36.148C176.39 35.4775 177.243 35.1118 178.279 35.1118C179.315 35.1118 180.169 35.4775 180.839 36.148C181.51 36.8184 181.875 37.6717 181.875 38.586C181.875 39.5002 181.51 40.4145 180.839 41.085ZM176.512 40.3535C176.999 40.8412 177.548 41.085 178.218 41.085C178.889 41.085 179.498 40.8412 179.925 40.3535C180.413 39.8659 180.656 39.2564 180.656 38.586C180.656 37.8546 180.413 37.2451 179.925 36.8184C179.437 36.3918 178.889 36.087 178.218 36.087C177.548 36.087 176.938 36.3308 176.512 36.8184C176.024 37.306 175.78 37.8546 175.78 38.586C175.841 39.3174 176.085 39.8659 176.512 40.3535Z" fill="black"/>
<path d="M186.691 41.9372H183.278V35.2327H186.447C187.117 35.2327 187.544 35.4155 187.971 35.6593C188.336 35.9641 188.519 36.3907 188.519 36.8783C188.519 37.1831 188.397 37.4878 188.276 37.7316C188.093 37.9754 187.91 38.1583 187.605 38.2192C188.032 38.2802 188.397 38.524 188.641 38.8287C188.885 39.1335 189.068 39.5601 189.068 40.0477C189.068 40.5963 188.824 41.0839 188.397 41.4496C187.971 41.7543 187.361 41.9372 186.691 41.9372ZM184.314 37.8535H186.203C186.569 37.8535 186.874 37.7926 187.057 37.6097C187.239 37.4269 187.361 37.244 187.361 36.9393C187.361 36.6345 187.239 36.4517 187.057 36.2688C186.874 36.086 186.569 36.025 186.203 36.025H184.314V37.8535ZM184.314 38.8287V40.962H186.447C186.874 40.962 187.239 40.8401 187.422 40.6572C187.666 40.4744 187.788 40.2306 187.788 39.8649C187.788 39.5601 187.666 39.3163 187.422 39.0725C187.178 38.8897 186.874 38.8287 186.447 38.8287H184.314Z" fill="black"/>
<path d="M190.836 41.9383H189.678L192.725 35.1729H193.761L196.809 41.9383H195.651L194.859 40.2927H191.567L190.836 41.9383ZM193.274 36.4528L191.994 39.2565H194.554L193.274 36.4528Z" fill="black"/>
<path d="M199.064 41.9383H197.967V35.2338H199.064V37.8547H202.721V35.1729H203.818V41.8774H202.721V38.7689H199.064V41.9383Z" fill="black"/>
<path d="M206.438 41.937H205.523V35.2324H206.621V40.1694L210.46 35.2324H211.436V41.937H210.339V37L206.438 41.937Z" fill="black"/>
<path d="M213.876 41.9382H212.535L214.79 39.0126C214.303 38.8907 213.937 38.7079 213.632 38.3422C213.327 38.0374 213.206 37.6108 213.206 37.1841C213.206 36.6355 213.388 36.1479 213.815 35.7822C214.242 35.4165 214.79 35.2946 215.522 35.2946H218.691V41.9992H217.594V39.0736H215.948L213.876 41.9382ZM215.583 38.1593H217.655V36.1479H215.583C215.217 36.1479 214.851 36.2698 214.668 36.3917C214.425 36.5746 214.364 36.8184 214.364 37.1231C214.364 37.4279 214.486 37.6717 214.668 37.8546C214.912 38.0374 215.217 38.1593 215.583 38.1593Z" fill="black"/>
<path d="M74.5424 53.5791H73.4453V46.8745H76.4928C77.2242 46.8745 77.8337 47.0574 78.1994 47.4231C78.6261 47.7888 78.8699 48.2764 78.8699 48.8249C78.8699 49.3735 78.6261 49.8611 78.1994 50.2878C77.7728 50.6535 77.2242 50.8363 76.4928 50.8363H74.5424V53.5791ZM74.5424 47.7888V49.8002H76.3709C76.7976 49.8002 77.1023 49.6783 77.3461 49.5564C77.5899 49.3735 77.7118 49.1297 77.7118 48.8249C77.7118 48.5202 77.5899 48.2764 77.3461 48.0935C77.1023 47.9107 76.7976 47.8497 76.3709 47.8497L74.5424 47.7888Z" fill="black"/>
<path d="M85.9407 52.666C85.2703 53.3365 84.417 53.6412 83.3808 53.6412C82.3447 53.6412 81.4914 53.3365 80.8209 52.666C80.1505 51.9956 79.8457 51.1422 79.8457 50.167C79.8457 49.1918 80.1505 48.3385 80.8209 47.729C81.4914 47.0586 82.3447 46.6929 83.3808 46.6929C84.417 46.6929 85.2703 47.0586 85.9407 47.729C86.6112 48.3995 86.9769 49.2528 86.9769 50.167C86.9769 51.1422 86.6112 51.9956 85.9407 52.666ZM81.6742 51.9346C82.1618 52.4222 82.7104 52.666 83.3808 52.666C84.0513 52.666 84.6608 52.4222 85.0874 51.9346C85.575 51.447 85.8188 50.8375 85.8188 50.167C85.8188 49.4966 85.575 48.8261 85.0874 48.3995C84.5998 47.9119 84.0513 47.6681 83.3808 47.6681C82.7104 47.6681 82.1009 47.9119 81.6742 48.3995C81.1866 48.8871 80.9428 49.4356 80.9428 50.167C80.9428 50.8984 81.1866 51.508 81.6742 51.9346Z" fill="black"/>
<path d="M91.8523 53.7018C90.8162 53.7018 89.9019 53.397 89.2315 52.7266C88.5001 52.0561 88.1953 51.2028 88.1953 50.2276C88.1953 49.1914 88.561 48.3991 89.2315 47.7286C89.9629 47.0582 90.8162 46.7534 91.8523 46.7534C92.5837 46.7534 93.1932 46.9363 93.7418 47.1801V48.2162C93.1932 47.8505 92.5837 47.6677 91.8523 47.6677C91.1209 47.6677 90.5114 47.9115 90.0238 48.3991C89.5362 48.8867 89.2924 49.4352 89.2924 50.1666C89.2924 50.898 89.5362 51.5075 90.0238 51.9342C90.5114 52.4218 91.1209 52.6656 91.9133 52.6656C92.7056 52.6656 93.3761 52.4828 93.9246 52.0561V53.0923C93.3151 53.5189 92.6447 53.7018 91.8523 53.7018Z" fill="black"/>
<path d="M98.4969 53.7018C97.4607 53.7018 96.5465 53.397 95.876 52.7266C95.1446 52.0561 94.8398 51.2028 94.8398 50.2276C94.8398 49.1914 95.2055 48.3991 95.876 47.7286C96.6074 47.0582 97.4607 46.7534 98.4969 46.7534C99.2283 46.7534 99.8378 46.9363 100.386 47.1801V48.2162C99.8378 47.8505 99.2283 47.6677 98.4969 47.6677C97.7655 47.6677 97.156 47.9115 96.6684 48.3991C96.1808 48.8867 95.937 49.4352 95.937 50.1666C95.937 50.898 96.1808 51.5075 96.6684 51.9342C97.156 52.4218 97.7655 52.6656 98.5578 52.6656C99.3502 52.6656 100.021 52.4828 100.569 52.0561V53.0923C99.8987 53.5189 99.2283 53.7018 98.4969 53.7018Z" fill="black"/>
<path d="M102.762 53.5791H101.848V46.8745H102.945V51.8115L106.785 46.8745H107.76V53.5791H106.663V48.6421L102.762 53.5791Z" fill="black"/>
<path d="M110.381 53.5796H109.467V46.875H110.564V51.812L114.404 46.875H115.379V53.5796H114.282V48.6426L110.381 53.5796ZM112.392 46.3874C111.905 46.3874 111.417 46.2046 111.112 45.9608C110.808 45.656 110.625 45.2903 110.625 44.8027H111.539C111.539 45.0465 111.6 45.2294 111.783 45.3513C111.966 45.5341 112.149 45.5951 112.392 45.5951C112.636 45.5951 112.88 45.5341 113.002 45.3513C113.185 45.1684 113.246 44.9856 113.246 44.8027H114.16C114.16 45.2903 113.977 45.656 113.672 45.9608C113.368 46.2655 112.941 46.3874 112.392 46.3874Z" fill="black"/>
<path d="M120.438 53.7018C119.402 53.7018 118.488 53.397 117.817 52.7266C117.086 52.0561 116.781 51.2028 116.781 50.2276C116.781 49.1914 117.147 48.3991 117.817 47.7286C118.549 47.0582 119.402 46.7534 120.438 46.7534C121.17 46.7534 121.779 46.9363 122.328 47.1801V48.2162C121.779 47.8505 121.17 47.6677 120.438 47.6677C119.707 47.6677 119.097 47.9115 118.61 48.3991C118.122 48.8867 117.878 49.4352 117.878 50.1666C117.878 50.898 118.122 51.5075 118.61 51.9342C119.097 52.4218 119.707 52.6656 120.499 52.6656C121.292 52.6656 121.962 52.4828 122.511 52.0561V53.0923C121.901 53.5189 121.231 53.7018 120.438 53.7018Z" fill="black"/>
<path d="M124.947 53.5791H123.85V46.8745H124.947V49.6173L127.811 46.8745H129.213L125.983 49.922L129.762 53.5791H128.238L124.947 50.3487V53.5791Z" fill="black"/>
<path d="M135.917 52.666C135.247 53.3365 134.394 53.6412 133.357 53.6412C132.321 53.6412 131.468 53.3365 130.797 52.666C130.127 51.9956 129.822 51.1422 129.822 50.167C129.822 49.1918 130.127 48.3385 130.797 47.729C131.468 47.0586 132.321 46.6929 133.357 46.6929C134.394 46.6929 135.247 47.0586 135.917 47.729C136.588 48.3995 136.953 49.2528 136.953 50.167C136.893 51.1422 136.588 51.9956 135.917 52.666ZM131.59 51.9346C132.077 52.4222 132.626 52.666 133.296 52.666C133.967 52.666 134.576 52.4222 135.003 51.9346C135.491 51.447 135.734 50.8375 135.734 50.167C135.734 49.4966 135.491 48.8261 135.003 48.3995C134.515 47.9119 133.967 47.6681 133.296 47.6681C132.626 47.6681 132.016 47.9119 131.59 48.3995C131.102 48.8871 130.858 49.4356 130.858 50.167C130.919 50.8984 131.102 51.508 131.59 51.9346Z" fill="black"/>
<path d="M139.27 53.5796H138.295V46.875H139.392V51.812L143.232 46.875H144.207V53.5796H143.11V48.6426L139.27 53.5796ZM141.221 46.3874C140.733 46.3874 140.245 46.2046 139.941 45.9608C139.636 45.656 139.453 45.2903 139.453 44.8027H140.367C140.367 45.0465 140.428 45.2294 140.611 45.3513C140.794 45.5341 140.977 45.5951 141.221 45.5951C141.464 45.5951 141.708 45.5341 141.83 45.3513C142.013 45.1684 142.074 44.9856 142.074 44.8027H142.988C142.988 45.2903 142.805 45.656 142.5 45.9608C142.135 46.2655 141.769 46.3874 141.221 46.3874Z" fill="black"/>
<path d="M152.801 53.7624H151.704V53.031C150.607 52.9701 149.754 52.7263 149.144 52.1777C148.596 51.6292 148.291 50.9587 148.291 50.1663C148.291 49.8006 148.352 49.4349 148.535 49.1302C148.657 48.7645 148.901 48.4597 149.144 48.2159C149.388 47.9112 149.815 47.7283 150.242 47.5455C150.668 47.3626 151.217 47.3017 151.765 47.2407V46.5703H152.862V47.2407C153.411 47.2407 153.899 47.3626 154.386 47.4845C154.813 47.6674 155.179 47.8502 155.483 48.155C155.788 48.4597 155.971 48.7035 156.093 49.0692C156.215 49.4349 156.337 49.8006 156.337 50.1054C156.337 50.4101 156.276 50.8368 156.093 51.1416C155.91 51.4463 155.727 51.812 155.483 52.0558C155.179 52.3606 154.813 52.5434 154.386 52.7263C153.96 52.9091 153.411 52.9701 152.862 52.9701L152.801 53.7624ZM151.704 52.1168V48.155C150.973 48.155 150.363 48.3378 149.998 48.7035C149.632 49.0692 149.449 49.5568 149.449 50.1054C149.449 50.6539 149.632 51.1416 149.998 51.5073C150.363 51.873 150.973 52.0558 151.704 52.1168ZM152.801 48.155V52.1168C153.594 52.1168 154.142 51.9339 154.508 51.5682C154.874 51.2025 155.057 50.7149 155.057 50.1663C155.057 49.6178 154.874 49.1302 154.508 48.7645C154.142 48.3378 153.533 48.155 152.801 48.155Z" fill="black"/>
<path d="M162.616 53.5791H157.496V46.8745H162.494V47.8497H158.593V49.5563H161.763V50.5315H158.593V52.6648H162.616V53.5791Z" fill="black"/>
<path d="M164.565 54.9809H163.529V52.6038H164.2C164.565 52.0553 164.87 51.4458 164.992 50.7144C165.175 49.983 165.236 49.0078 165.236 47.7888V46.8745H169.868V52.6648H170.843V55.0419H169.807V53.5791H164.505L164.565 54.9809ZM165.358 52.5429H168.771V47.7278H166.272C166.272 48.8249 166.211 49.8001 166.028 50.5315C165.967 51.3848 165.724 52.0553 165.358 52.5429Z" fill="black"/>
<path d="M177.12 53.5791H172V46.8745H176.998V47.8497H173.097V49.5563H176.267V50.5315H173.097V52.6648H177.12V53.5791Z" fill="black"/>
<path d="M179.437 53.5791H178.34V46.8745H181.387C182.119 46.8745 182.728 47.0574 183.094 47.4231C183.521 47.7888 183.764 48.2764 183.764 48.8249C183.764 49.3735 183.521 49.8611 183.094 50.2877C182.667 50.6534 182.119 50.8363 181.387 50.8363H179.437V53.5791ZM179.437 47.7888V49.8001H181.265C181.692 49.8001 181.997 49.6782 182.241 49.5563C182.484 49.3735 182.606 49.1297 182.606 48.8249C182.606 48.5202 182.484 48.2764 182.241 48.0935C181.997 47.9107 181.692 47.8497 181.265 47.8497L179.437 47.7888Z" fill="black"/>
<path d="M184.74 53.5795H183.582L186.63 46.814H187.666L190.713 53.5795H189.555L188.763 51.9338H185.471L184.74 53.5795ZM187.178 48.0939L185.898 50.8976H188.458L187.178 48.0939Z" fill="black"/>
<path d="M198.515 54.9813H197.478V53.5185H191.871V46.8139H192.968V52.6042H196.381V46.8139H197.478V52.6042H198.454V54.9813H198.515Z" fill="black"/>
<path d="M200.588 53.5791H199.674V46.8745H200.771V51.8115L204.611 46.8745H205.586V53.5791H204.489V48.6421L200.588 53.5791Z" fill="black"/>
<path d="M208.207 53.5791H207.293V46.8745H208.39V51.8115L212.23 46.8745H213.205V53.5791H212.108V48.6421L208.207 53.5791Z" fill="black"/>
</svg>
