<svg width="33" height="33" viewBox="0 0 33 33" fill="none" xmlns="http://www.w3.org/2000/svg">
<path fill-rule="evenodd" clip-rule="evenodd" d="M15.88 32C8.8655 32 5.35826 32 3.17913 29.8209C1 27.6418 1 24.1345 1 17.1199V15.8799C1 8.8654 1 5.35814 3.17913 3.179C5.35826 1 8.8655 1 15.88 1H17.12C24.1345 1 27.6417 1 29.8209 3.179C32 5.35811 32 8.8654 32 15.8799V17.1199C32 24.1345 32 27.6418 29.8209 29.8209C27.6417 32 24.1345 32 17.12 32H15.88ZM7.61862 24.7531C6.78334 24.5445 6.19774 23.7974 6.19774 22.9405V12.8451C6.19774 11.8718 7.11743 11.158 8.06614 11.395L11.8517 12.3406V10.5208C11.8517 9.54744 12.7714 8.83363 13.72 9.0706L17.5052 10.0162V8.19623C17.5052 7.22293 18.4249 6.50909 19.3736 6.74609L25.3813 8.24684C26.2165 8.45547 26.8022 9.2026 26.8022 10.0595V20.1549C26.8022 21.1282 25.8824 21.842 24.9338 21.605L22.8595 21.0872L22.8401 21.082C22.5875 21.01 22.4089 20.7828 22.4 20.5187L22.1386 12.8094C22.063 11.7891 21.3056 10.9775 20.514 10.7385C20.4696 10.7251 20.4221 10.7432 20.3958 10.7814C20.369 10.8203 20.3794 10.8741 20.4167 10.9029C20.6121 11.0542 21.1501 11.548 21.1501 12.3997L21.1486 22.4794C21.1486 23.4527 20.2289 24.1666 19.2802 23.9296L17.1536 23.3983C16.9175 23.3159 16.7536 23.0962 16.745 22.8427L16.4837 15.1329C16.4081 14.1125 15.6506 13.301 14.8591 13.062C14.8146 13.0486 14.7671 13.0667 14.7408 13.1049C14.7141 13.1438 14.7244 13.1975 14.7617 13.2264C14.9572 13.3777 15.4952 13.8715 15.4952 14.7232L15.4936 22.9801L16.4782 23.2296L15.4947 22.9839V24.8038C15.4947 25.7771 14.5749 26.4909 13.6263 26.2539L7.61862 24.7531Z" fill="#2B71F6"/>
</svg>
