<svg width="512" height="512" fill="none" xmlns="http://www.w3.org/2000/svg"><path d="M32.816 183.144h29.13v59.174h64.235v-59.174h29.13v145.771h-29.13v-60.124H61.946v60.124h-29.13V183.144Z" fill="#685DC3"/><path fill-rule="evenodd" clip-rule="evenodd" d="M251.687 331.294c41.512 0 75.165-30.466 75.165-75.294 0-44.828-33.653-75.294-75.165-75.294-41.512 0-75.165 28.84-75.165 75.294 0 46.454 33.653 75.294 75.165 75.294Zm-.059-26.951c25.275 0 45.107-19.561 45.107-48.342 0-28.782-19.832-48.342-45.107-48.342s-45.256 18.516-45.256 48.342c0 29.825 19.981 48.342 45.256 48.342Z" fill="#685DC3"/><path d="M479.181 286c-10.788 27.877-36.565 45.294-66.647 45.294-39.788 0-72.047-28.841-72.047-75.294 0-46.453 32.259-75.294 72.047-75.294 29.588 0 55.012 16.844 66.106 43.915l-28.341 5.197c-7.494-13.812-21.036-22.159-36.788-22.159-24.118 0-43.177 18.518-43.177 48.341 0 29.827 19.059 48.341 43.177 48.341 16.023 0 29.741-8.629 37.152-22.861l28.518 4.52Z" fill="#685DC3"/></svg>