<svg width="71" height="71" fill="none" xmlns="http://www.w3.org/2000/svg"><path fill="url(#a)" d="M0 0h71v71H0z"/><path d="M37.403 13.079c10.049.813 18.526 7.482 21.46 17.15.22.723.555 1.509.557 2.312.288 2.155.288 4.166.144 6.753-.096 1.724-.501 2.867-.836 3.992a23.385 23.385 0 0 1-4.446 8.316c-3.553 4.13-7.985 6.817-13.293 8.06-.374.089-.917.125-1.63.11l-18.715-.009-8.563-.008c-.378 0-.43-.13-.156-.389l6.058-5.747a.254.254 0 0 0 .06-.276.247.247 0 0 0-.054-.083C6.598 41.797 9.563 23.4 23.744 15.852c4.273-2.217 8.825-3.141 13.659-2.774Zm-17.417 9.718c-3.506 3.707-5.371 8.004-5.595 12.891-.267 5.83 2.017 11.627 6.474 15.696.653.596 1.32 1.197 1.997 1.804a.252.252 0 0 1 0 .374l-3.511 3.17c-.228.204-.189.307.117.307l7.805.026c4.433.015 7.246.014 8.437-.003 4.832-.071 9.167-1.625 13.006-4.661 9.477-7.563 10.328-21.681 1.5-30.141a2.94 2.94 0 0 0-1.29-.716c-2.657-.713-5.24-.418-7.75.882-2.797 1.495-4.53 3.698-5.196 6.61-.84 3.676.15 6.942 2.974 9.799.071.072.07.145-.002.218l-3.334 3.264c-.128.127-.257.127-.385 0l-3.244-3.17a.307.307 0 0 1 0-.439c1.912-1.875 2.954-4.11 3.126-6.701.167-2.506-.721-5.287-2.385-7.118-2.94-3.228-6.607-4.347-11-3.356-.569.128-1.15.55-1.744 1.264Z" fill="#fff"/><path d="m21.872 31.124 2.891 2.814a.277.277 0 0 0 .382 0l3.745-3.684a.197.197 0 0 1 .233-.03.195.195 0 0 1 .063.055c1.155 1.604 1.428 3.478.566 5.357-1.002 2.184-2.85 3.22-5.544 3.106-1.205-.142-2.13-.505-2.778-1.089-2.431-2.193-2.753-4.695-.966-7.506.052-.082.119-.098.201-.048.454.27.857.611 1.207 1.025Zm21.157.026 2.756 2.724c.197.196.394.196.592 0l3.658-3.58a.258.258 0 0 1 .31-.039c.032.02.06.045.08.076 2.558 3.75.012 8.362-4.419 8.437-2.62-.034-4.713-1.635-5.33-4.155-.36-1.47-.047-2.919.942-4.348.13-.19.279-.205.445-.046l.966.931Z" fill="#fff"/><defs><linearGradient id="a" x1="3" y1="71" x2="71" y2="7.5" gradientUnits="userSpaceOnUse"><stop stop-color="#64009E"/><stop offset="1" stop-color="#DF001F"/></linearGradient></defs></svg>