<svg width="33" height="33" fill="none" xmlns="http://www.w3.org/2000/svg"><path d="M24.824 17.47a6.936 6.936 0 0 1 3.302-5.819 7.1 7.1 0 0 0-5.593-3.024c-2.354-.247-4.635 1.409-5.835 1.409-1.222 0-3.069-1.384-5.057-1.343a7.45 7.45 0 0 0-6.269 3.823c-2.71 4.693-.688 11.59 1.908 15.383 1.299 1.857 2.817 3.932 4.804 3.859 1.944-.08 2.67-1.24 5.016-1.24 2.325 0 3.006 1.24 5.033 1.193 2.086-.034 3.4-1.866 4.654-3.74a15.362 15.362 0 0 0 2.128-4.335 6.702 6.702 0 0 1-4.091-6.165ZM20.995 6.132a6.829 6.829 0 0 0 1.562-4.892 6.948 6.948 0 0 0-4.495 2.326 6.497 6.497 0 0 0-1.603 4.711 5.745 5.745 0 0 0 4.536-2.145Z" fill="#000"/></svg>