<svg width="33" height="33" fill="none" xmlns="http://www.w3.org/2000/svg"><path d="m22.467 23.12-14.76 8.273-.046.023a3.542 3.542 0 0 1-1.794.479c-1.64 0-3.018-1.085-3.418-2.551a12.422 12.422 0 0 0-.008-.008l13.12-13.524 6.906 7.308Z" fill="#EA4335"/><path d="M30.675 16.53c0 1.309-.755 2.453-1.871 3.037l-6.337 3.553-7.207-7.002 7.184-6.208 6.367 3.59.016.008c1.1.583 1.848 1.72 1.848 3.022Z" fill="#FBBC04"/><path d="M16.007 16.156 2.441 29.336a3.35 3.35 0 0 1-.116-.883v-23.9c0-.306.039-.605.116-.89l13.566 12.493Z" fill="#4285F4"/><path d="M2.44 3.664c.41-1.474 1.788-2.559 3.428-2.559.67 0 1.294.187 1.833.494l14.744 8.31-6.79 6.591L2.44 3.664Z" fill="#34A853"/></svg>