<?xml version="1.0" encoding="utf-8"?><svg viewBox="0 0 24 24" xmlns="http://www.w3.org/2000/svg" xmlns:xlink="http://www.w3.org/1999/xlink"><style>:root>svg{display:none}:root>svg:target{display:block}</style><svg fill="none" viewBox="0 0 24 24" id="attach" xmlns="http://www.w3.org/2000/svg"><path fill-rule="evenodd" clip-rule="evenodd" d="M3.912 3.152C5.274 1.964 7.673 1.367 9.412 3l11.04 10.372c1.177 1.107 1.634 2.427 1.535 3.707-.098 1.258-.727 2.43-1.632 3.306-.906.877-2.133 1.502-3.48 1.601-1.372.102-2.788-.349-4.005-1.492l-10.613-9.97a.79.79 0 0 1 0-1.167.92.92 0 0 1 1.243 0l10.613 9.97c.873.82 1.792 1.075 2.624 1.013.857-.063 1.7-.47 2.356-1.104.656-.635 1.077-1.454 1.141-2.277.062-.801-.208-1.652-1.025-2.42L8.17 4.168c-.827-.777-2.109-.637-3.061.194-.456.397-.739.889-.794 1.363-.051.445.086.954.633 1.469l8.951 8.408c.356.335.643.397.818.393a.766.766 0 0 0 .535-.253c.321-.338.396-.89-.078-1.337l-4.155-3.903a.79.79 0 0 1 0-1.167.92.92 0 0 1 1.242 0l4.155 3.903c1.211 1.138 1.013 2.693.147 3.604a2.568 2.568 0 0 1-1.8.804c-.745.018-1.477-.285-2.106-.876L3.705 8.36c-.9-.845-1.25-1.842-1.138-2.814.11-.944.644-1.783 1.345-2.394Z" fill="#000"/></svg><svg fill="none" viewBox="0 0 24 24" id="calendar" xmlns="http://www.w3.org/2000/svg"><path fill-rule="evenodd" clip-rule="evenodd" d="M16.494 1.048c.559 0 1.012.455 1.012 1.016v.893c.598.076 1.137.211 1.641.47a5.238 5.238 0 0 1 2.284 2.294c.314.62.446 1.292.508 2.06.061.748.061 1.672.061 2.82v4.604c0 1.15 0 2.073-.06 2.82-.063.77-.195 1.44-.51 2.06-.5.989-1.3 1.792-2.283 2.295-.617.316-1.285.449-2.05.512-.744.06-1.663.06-2.806.06H9.709c-1.143 0-2.062 0-2.806-.06-.765-.063-1.433-.196-2.05-.512a5.238 5.238 0 0 1-2.284-2.294c-.314-.62-.446-1.292-.508-2.06C2 17.277 2 16.354 2 15.206v-4.604c0-1.149 0-2.073.06-2.82.063-.77.195-1.44.51-2.06.5-.989 1.3-1.792 2.283-2.295.504-.259 1.043-.394 1.641-.47v-.893c0-.561.453-1.016 1.012-1.016.558 0 1.01.455 1.01 1.016v.794c.369-.004.765-.004 1.193-.004h4.582c.428 0 .824 0 1.192.004v-.794c0-.561.453-1.016 1.011-1.016Zm-10 3.964v.665c0 .561.453 1.016 1.012 1.016.558 0 1.01-.455 1.01-1.016V4.89c.366-.003.774-.003 1.237-.003h4.494c.463 0 .871 0 1.236.003v.787c0 .561.453 1.016 1.011 1.016.559 0 1.012-.455 1.012-1.016v-.665c.312.055.537.13.723.226a3.21 3.21 0 0 1 1.4 1.406c.144.286.242.66.294 1.303.037.453.049.994.053 1.682H4.024c.004-.688.016-1.23.053-1.682.052-.643.15-1.017.295-1.303A3.21 3.21 0 0 1 5.77 5.238a2.47 2.47 0 0 1 .723-.226Zm-2.472 6.65h15.955v3.5c0 1.202 0 2.043-.053 2.698-.053.643-.15 1.017-.296 1.303a3.21 3.21 0 0 1-1.399 1.407c-.284.145-.657.243-1.297.296-.652.053-1.488.054-2.685.054H9.753c-1.197 0-2.033 0-2.685-.054-.64-.053-1.013-.15-1.297-.296a3.21 3.21 0 0 1-1.4-1.407c-.144-.286-.242-.66-.294-1.303-.054-.655-.055-1.496-.055-2.698v-3.5Zm11.91 6.887a1.69 1.69 0 0 0 1.686-1.694 1.69 1.69 0 0 0-1.685-1.693 1.69 1.69 0 0 0-1.686 1.693 1.69 1.69 0 0 0 1.686 1.694Z" fill="#000"/></svg><svg fill="none" viewBox="0 0 24 24" id="camera" xmlns="http://www.w3.org/2000/svg"><path fill-rule="evenodd" clip-rule="evenodd" d="M7.304 3.864c.182-.381.566-.624.989-.624h7.43c.413 0 .791.233.977.602l.98 1.94h1.854A2.466 2.466 0 0 1 22 8.247v10.047a2.466 2.466 0 0 1-2.466 2.466H4.466A2.466 2.466 0 0 1 2 18.294V8.247a2.466 2.466 0 0 1 2.466-2.465h1.922l.916-1.918Zm-1.5 3.138H4.47c-.681 0-1.233.552-1.233 1.232v10.039c0 .68.552 1.233 1.233 1.233h15.06c.681 0 1.233-.552 1.233-1.233V8.234c0-.68-.552-1.232-1.233-1.232h-1.236l.001.002H17.01l-1.015-1.935a1.096 1.096 0 0 0-.97-.587H8.976c-.41 0-.785.229-.973.592l-1 1.93h-1.2v-.002Z" fill="#000"/><path fill-rule="evenodd" clip-rule="evenodd" d="M12 18.262a4.992 4.992 0 1 0 0-9.985 4.992 4.992 0 0 0 0 9.985Zm0-1.241a3.752 3.752 0 1 0 0-7.503 3.752 3.752 0 0 0 0 7.503Z" fill="#000"/></svg><svg fill="none" viewBox="0 0 24 24" id="check" xmlns="http://www.w3.org/2000/svg"><path d="M2 15.62V8.47c.03-.315.06-.628.088-.941.234-2.622 1.741-4.516 4.26-5.246.606-.176 1.355-.267 2.25-.274 2.213-.014 4.408-.016 6.583-.005 1.219.005 2.48.131 3.567.677 1.572.79 2.574 2.053 3.009 3.79.155.62.234 1.332.237 2.134.01 2.34.007 4.682-.008 7.026-.027 3.884-2.478 6.304-6.364 6.35-1.893.02-3.96.026-6.198.017-1.377-.006-2.808-.043-4.052-.637-1.876-.893-2.99-2.532-3.248-4.592A35.773 35.773 0 0 1 2 15.619Zm18.187-7.602a4.171 4.171 0 0 0-4.164-4.179l-8.001-.014A4.171 4.171 0 0 0 3.843 7.99l-.014 8.001a4.171 4.171 0 0 0 4.164 4.179l8.001.014a4.171 4.171 0 0 0 4.179-4.164l.014-8.001Z" fill="#000"/><path d="M11.527 13.915a.077.077 0 0 0 .027.016c.01.003.021.004.032.003a.076.076 0 0 0 .054-.031 11728.1 11728.1 0 0 0 4.478-6.069c.867-1.177 2.619.037 1.693 1.296-1.95 2.653-3.903 5.303-5.86 7.95-.03.039-.063.042-.099.01a2618.08 2618.08 0 0 0-5.482-4.94c-1.166-1.048.294-2.62 1.394-1.626a965.097 965.097 0 0 0 3.763 3.39Z" fill="#000"/></svg><svg fill="none" viewBox="0 0 24 24" id="chevron-left" xmlns="http://www.w3.org/2000/svg"><path d="m15 18-6-6 6-6" stroke="#000" stroke-width="2" stroke-linecap="round" stroke-linejoin="round"/></svg><svg fill="none" viewBox="0 0 24 24" id="chevron-right" xmlns="http://www.w3.org/2000/svg"><path d="m9 17.999 6-6-6-6" stroke="#000" stroke-width="2" stroke-linecap="round" stroke-linejoin="round"/></svg><svg fill="none" viewBox="0 0 24 24" id="close" xmlns="http://www.w3.org/2000/svg"><path d="M14.617 2c2.19 0 3.234.202 4.319.782a5.498 5.498 0 0 1 2.282 2.282c.58 1.085.782 2.13.782 4.32v5.232c0 2.19-.202 3.235-.782 4.32a5.498 5.498 0 0 1-2.282 2.282c-1.085.58-2.13.782-4.32.782H9.384c-2.19 0-3.235-.202-4.32-.782a5.498 5.498 0 0 1-2.282-2.282C2.202 17.85 2 16.806 2 14.616V9.384c0-2.19.202-3.235.782-4.32a5.498 5.498 0 0 1 2.282-2.282C6.15 2.202 7.194 2 9.384 2h5.232Zm0 1.818H9.384c-1.916 0-2.677.147-3.462.567a3.68 3.68 0 0 0-1.537 1.537c-.42.785-.567 1.546-.567 3.462v5.232c0 1.916.147 2.677.567 3.462a3.68 3.68 0 0 0 1.537 1.537c.785.42 1.546.567 3.462.567h5.232c1.916 0 2.677-.147 3.462-.567a3.681 3.681 0 0 0 1.537-1.537c.42-.785.567-1.546.567-3.461V9.384c0-1.916-.147-2.677-.567-3.462a3.68 3.68 0 0 0-1.537-1.537c-.785-.42-1.546-.567-3.461-.567Z" fill="#272B37"/><path fill-rule="evenodd" clip-rule="evenodd" d="M15.62 8.478a.91.91 0 0 1-.018 1.286l-2.317 2.254 2.254 2.317a.909.909 0 1 1-1.303 1.268l-2.254-2.317-2.317 2.254a.91.91 0 0 1-1.267-1.303l2.316-2.254L8.46 9.666a.91.91 0 0 1 1.303-1.268l2.254 2.317 2.317-2.254a.91.91 0 0 1 1.286.017Z" fill="#272B37"/></svg><svg fill="none" viewBox="0 0 24 24" id="docs" xmlns="http://www.w3.org/2000/svg"><path fill-rule="evenodd" clip-rule="evenodd" d="M4.402 4.076C4.402 2.929 5.333 2 6.478 2h7.245a2.08 2.08 0 0 1 1.43.57l3.798 3.602c.412.393.646.937.646 1.506v12.246A2.077 2.077 0 0 1 17.521 22H6.478a2.077 2.077 0 0 1-2.076-2.076V4.076Zm1.139-.091a.83.83 0 0 1 .83-.83h7.125v3.28c0 .803.65 1.453 1.453 1.453h3.506v12.05a.83.83 0 0 1-.83.83H6.37a.83.83 0 0 1-.83-.83V3.984Zm12.277 2.658-3.076-2.887v2.68c0 .114.093.207.207.207h2.87Z" fill="#000"/><path fill-rule="evenodd" clip-rule="evenodd" d="M6.98 10.387c0-.344.28-.623.623-.623h8.54a.623.623 0 1 1 0 1.246h-8.54a.623.623 0 0 1-.622-.623Zm0 3.183c0-.343.28-.622.623-.622h8.54a.623.623 0 0 1 0 1.246h-8.54a.623.623 0 0 1-.622-.623Z" fill="#000"/><path fill-rule="evenodd" clip-rule="evenodd" d="M6.98 13.57c0-.343.28-.622.623-.622h8.54a.623.623 0 0 1 0 1.246h-8.54a.623.623 0 0 1-.622-.623Zm0 3.084c0-.343.28-.622.623-.622h2.809a.623.623 0 0 1 0 1.245H7.603a.623.623 0 0 1-.622-.623Z" fill="#000"/><path fill-rule="evenodd" clip-rule="evenodd" d="M6.98 16.654c0-.343.28-.622.623-.622h2.809a.623.623 0 0 1 0 1.245H7.603a.623.623 0 0 1-.622-.623Z" fill="#000"/></svg><svg fill="none" viewBox="0 0 24 24" id="edit" xmlns="http://www.w3.org/2000/svg"><path d="M2 15.785V8.301c.032-.332.067-.665.105-.997.298-2.596 1.937-4.449 4.442-5.076.584-.146 1.308-.221 2.172-.226a645.98 645.98 0 0 1 6.548 0c1.008.005 2.196.113 3.127.513 1.825.784 2.968 2.187 3.429 4.209.11.482.168 1.2.172 2.156.01 2.364.005 4.645-.011 6.844-.024 2.948-1.573 5.3-4.52 6.04-.585.147-1.42.224-2.503.232-2.268.017-4.46.012-6.574-.015-.854-.011-1.898-.15-2.69-.478-2.108-.872-3.365-2.61-3.6-4.885A29.506 29.506 0 0 0 2 15.785Zm18.19-7.77a4.174 4.174 0 0 0-4.166-4.18L8.021 3.82a4.174 4.174 0 0 0-4.18 4.167l-.015 8.003a4.174 4.174 0 0 0 4.167 4.18l8.003.015a4.174 4.174 0 0 0 4.18-4.167l.015-8.003Z" fill="#272B37"/><path d="m7.013 14.95 8.635-8.634a.056.056 0 0 1 .08 0l1.952 1.959a.057.057 0 0 1 0 .08l-8.613 8.613a.057.057 0 0 1-.04.017l-1.972-.007a.056.056 0 0 1-.057-.057l-.001-1.93c0-.015.006-.03.016-.04Z" fill="#272B37"/></svg><svg fill="none" viewBox="0 0 24 24" id="email" xmlns="http://www.w3.org/2000/svg"><path fill-rule="evenodd" clip-rule="evenodd" d="M12.3 13.984s-.124.068-.284.068c-.16 0-.278-.06-.278-.06L2.5 6.484v11.53c0 .414.336.75.75.75h17.5a.75.75 0 0 0 .75-.75V6.51l-9.2 7.474Zm8.571-8.738-8.86 7.195-8.859-7.199a.818.818 0 0 1 .098-.006h17.5c.04 0 .082.004.121.01Z" fill="#000"/></svg><svg fill="currentColor" viewBox="0 0 24 24" id="error" xmlns="http://www.w3.org/2000/svg"><path d="M13 9h-2V7h2m0 10h-2v-6h2m-1-9A10 10 0 0 0 2 12a10 10 0 0 0 10 10 10 10 0 0 0 10-10A10 10 0 0 0 12 2Z"/></svg><svg fill="none" viewBox="0 0 24 24" id="eye" xmlns="http://www.w3.org/2000/svg"><path d="M12 14.256A2.255 2.255 0 0 0 14.255 12 2.254 2.254 0 0 0 12 9.744a2.255 2.255 0 0 0 0 4.512Z" fill="#000"/><path fill-rule="evenodd" clip-rule="evenodd" d="M22 12c0 .157-.122.426-.353.767-1.157 1.716-5.04 5.236-9.647 5.236-3.441 0-6.48-1.995-8.28-3.708C2.638 13.26 2 12.327 2 12c0-.87 4.475-6.004 10-6.004 5.524 0 10 5.058 10 6.004Zm-5.799 0a4.18 4.18 0 0 1-.868 2.555A4.202 4.202 0 1 1 12 7.799a4.202 4.202 0 0 1 4.201 4.2Z" fill="#000"/></svg><svg fill="none" viewBox="0 0 24 24" id="like" xmlns="http://www.w3.org/2000/svg"><path d="M21.98 8.966c-.603 5.528-4.75 6.736-9.988 12.14-4.673-4.91-9.56-7.024-9.986-12.14C1.783 3.07 8.335.439 11.992 5.81 15.721.38 22.42 3.462 21.98 8.966Z" fill="#000"/></svg><svg fill="none" viewBox="0 0 24 24" id="location" xmlns="http://www.w3.org/2000/svg"><path fill-rule="evenodd" clip-rule="evenodd" d="M17.656 4.5a8 8 0 0 0-11.314 0l-.186.186a8 8 0 0 0 0 11.314l5.843 5.843L17.843 16a8 8 0 0 0 0-11.314l-.187-.187ZM9.84 12.204a2.956 2.956 0 1 0 4.18-4.18 2.956 2.956 0 0 0-4.18 4.18Z" fill="#000"/></svg><svg fill="currentColor" viewBox="0 0 24 24" id="medal" xmlns="http://www.w3.org/2000/svg"><path d="M11.568 2h1.035c.133.02.265.04.398.056.138.017.27.038.396.064 1.13.233 2.11.698 2.938 1.395 1.579 1.33 2.375 3.047 2.39 5.155a.764.764 0 0 1-.022.186c-.018.073-.004.168-.011.248a6.47 6.47 0 0 1-1.061 3 .043.043 0 0 0-.002.048l3.679 6.615c.024.044.032.118.023.223-.027.34-.33.51-.66.425l-2.953-.76a.028.028 0 0 0-.033.017l-1.11 2.998a.455.455 0 0 1-.308.295c-.292.087-.497-.018-.635-.266-1.237-2.23-2.437-4.388-3.599-6.475-.018-.033-.037-.033-.055 0l-3.627 6.521a.507.507 0 0 1-.75.15.542.542 0 0 1-.18-.256c-.345-.937-.709-1.92-1.09-2.95-.01-.025-.026-.034-.052-.028l-3.026.775a.488.488 0 0 1-.229-.013c-.228-.074-.346-.226-.356-.456a.535.535 0 0 1 .077-.28c1.178-2.132 2.342-4.227 3.491-6.287.072-.128.136-.254.194-.377a.051.051 0 0 0-.003-.052A6.43 6.43 0 0 1 5.481 9.3a9.054 9.054 0 0 1-.052-.79c-.005-.145.03-.28.022-.424a1.11 1.11 0 0 1 .007-.193c.186-1.588.837-2.926 1.952-4.015.93-.906 2.047-1.493 3.355-1.76.126-.025.261-.046.404-.063.134-.017.266-.035.399-.055Zm6.144 6.53a5.5 5.5 0 0 0-1.651-3.921 5.684 5.684 0 0 0-3.986-1.624 5.684 5.684 0 0 0-3.986 1.624 5.5 5.5 0 0 0-1.65 3.92 5.5 5.5 0 0 0 1.65 3.922 5.684 5.684 0 0 0 3.986 1.624 5.684 5.684 0 0 0 3.986-1.624 5.5 5.5 0 0 0 1.65-3.921Zm-6.772 6.44a6.725 6.725 0 0 1-3.188-1.47c-.215-.183-.416-.391-.611-.59-.018-.018-.033-.016-.045.006l-2.91 5.234a.014.014 0 0 0 .001.016.016.016 0 0 0 .016.005c.715-.184 1.478-.38 2.291-.586.252-.064.517.049.605.286l.878 2.38a.026.026 0 0 0 .023.017.026.026 0 0 0 .025-.013l2.929-5.257a.02.02 0 0 0 .002-.009c0-.003 0-.006-.002-.008a.019.019 0 0 0-.014-.01Zm5.072 5.304c.292-.767.576-1.542.863-2.313.067-.181.165-.32.362-.378a.647.647 0 0 1 .337.017 233.779 233.779 0 0 0 2.234.568.012.012 0 0 0 .006-.004.012.012 0 0 0 .001-.014l-2.845-5.112c-.02-.038-.046-.04-.076-.01-1.032 1.063-2.295 1.718-3.791 1.964-.031.005-.04.021-.024.048l2.906 5.236a.014.014 0 0 0 .006.006.015.015 0 0 0 .008.001.015.015 0 0 0 .013-.009Z"/></svg><svg fill="none" viewBox="0 0 24 24" id="menu" xmlns="http://www.w3.org/2000/svg"><path fill-rule="evenodd" clip-rule="evenodd" d="M4.105 5.684c0-.698.566-1.263 1.264-1.263h13.263a1.263 1.263 0 0 1 0 2.526H5.369a1.263 1.263 0 0 1-1.264-1.263Zm0 6.316c0-.698.566-1.263 1.264-1.263h13.263a1.263 1.263 0 1 1 0 2.526H5.369A1.263 1.263 0 0 1 4.105 12Zm0 6.316c0-.698.566-1.264 1.264-1.264h13.263a1.263 1.263 0 1 1 0 2.527H5.369a1.263 1.263 0 0 1-1.264-1.263Z" fill="#000"/></svg><svg fill="none" viewBox="0 0 24 24" id="ministry" xmlns="http://www.w3.org/2000/svg"><path d="M17.092 16.917c-.063 0-.104.042-.104.104 0 .063.041.104.104.104.062 0 .104-.041.104-.104 0-.042-.042-.104-.104-.104Zm.355 1.021c0 .062.042.104.104.104.063 0 .104-.042.104-.105 0-.062-.041-.104-.104-.104-.062 0-.104.042-.104.105Zm-.355-.105c-.063 0-.104.042-.104.105 0 .062.041.104.104.104.062 0 .104-.042.104-.105a.099.099 0 0 0-.104-.104Zm.812.104c0 .063.042.105.104.105.063 0 .105-.042.105-.105 0-.062-.042-.104-.105-.104a.099.099 0 0 0-.104.104Zm-.958-2.041.021.27-.229-.02v.291l.23-.041-.022.27h.292l-.02-.27.228.041v-.291l-.229.02.021-.27h-.292Zm.334.938v.937h.896a1.106 1.106 0 0 0-.896-.937Zm-.188.541c-.063 0-.104.042-.104.105 0 .062.041.104.104.104a.099.099 0 0 0 .104-.104c0-.063-.042-.105-.104-.105Zm.375 1.188c-.021 0-.104.229-.021.396.042.083.125.125.208.104.084-.021.104-.104.104-.146-.02-.188-.166-.354-.291-.354Zm-.749 0c-.125 0-.271.167-.271.354 0 .063.02.125.104.146a.183.183 0 0 0 .208-.104c.042-.167-.02-.396-.041-.396Zm.374-.125c-.083 0-.333.479-.146.708a.189.189 0 0 0 .146.062c.063 0 .125-.02.146-.062.167-.23-.062-.708-.146-.708Z" fill="#000"/><path d="M15.988 17.938c0-.105.02-.188.02-.188h.896v-.938a1.141 1.141 0 0 0-.895.855c-.021.041-.105.062-.167.041-.333-.041-1-.166-1-.312 0-.209.146-.292.27-.292.188 0 .397.104.563-.146-.604.021-.146-.854-.646-1.02.021.229 0 .624-.083.833 0 0-.187-.188-.375-.271.02.167-.02.5-.083.667 0 0-.209-.209-.438-.271.209.291.209.729.146.979-.02.083.042.167.188.167.25-.021 1.083.02 1.437.166.104.042.208.105.25.188.042.104.125.27.25.354.063-.188.27-.396.417-.375.041 0 .083.083.104.146.02-.063.125-.25.23-.25.103 0 .207.146.25.27.02-.083.062-.166.103-.166.146 0 .334.125.396.354.063-.062.313-.396.333-.625h-2.166v-.166Z" fill="#000"/><path d="M16.53 17.938c0 .062.041.104.104.104.062 0 .104-.042.104-.105a.099.099 0 0 0-.104-.104c-.063 0-.104.042-.104.105Zm-.438 0c0 .062.041.104.104.104.062 0 .104-.042.104-.105a.099.099 0 0 0-.104-.104c-.063 0-.104.042-.104.105Zm-8.624.458a.596.596 0 0 0-.084.417c.021.062.042.083.105.083.062 0 .083-.042.104-.104.02-.146-.084-.375-.125-.396Zm.77.646c-.042.062-.104.083-.125.104a.24.24 0 0 0 .146.063.16.16 0 0 0 .104-.042c.062-.125 0-.23-.021-.271-.02.042-.042.104-.104.146Zm-.292-.292c.084-.083.104-.146.084-.187-.021-.063-.209-.25-.417-.48 0 .042-.02.084-.02.126.145.208.207.416.166.604.02.02.02.02.041.02.042.042.105-.02.146-.083Zm.291.02c0-.04 0-.062-.02-.082h-.021c-.021 0-.042.041-.063.062-.02.02-.042.063-.083.104l-.104.104c-.042.021-.063.063-.063.084v.02c.021.021.021.021.042.021.02 0 .083-.02.187-.125.104-.104.125-.145.125-.187Zm-1.374-1.103s-.02.02-.041.062c.041 0 .104 0 .146.021v-.146c-.042 0-.084.042-.105.063Z" fill="#000"/><path d="M7.426 17.73s.437.374.583.52c.042.042.083.042.125.021.02-.02.062-.02.104-.042.438-.145 1.146-.166 1.396-.166.166 0 .208-.084.187-.167-.041-.25-.062-.687.146-.98-.229.084-.437.272-.437.272-.084-.146-.105-.5-.084-.667-.208.063-.375.27-.375.27-.083-.207-.104-.603-.083-.832-.5.166-.042 1.062-.646 1.02.167.25.375.146.563.146.125 0 .291.084.27.292-.02.146-.833.312-1.166.312-.23 0-.396-.062-.5-.229-.063-.083-.104-.104-.167-.104-.083.02-.166.083-.166.292 0 .125.062.416.208.416.083.021.083-.229.042-.375Zm-.834-.126h.062c-.062.084-.062.146-.041.167.041.041.062-.042.166-.146.104-.104.167-.146.146-.188-.02-.02-.083-.02-.167.042 0-.02.021-.041 0-.062-.041-.105-.187-.23-.291-.23h-.042c.042-.062.02-.104 0-.145-.02-.021-.042 0-.083.041 0-.02 0-.062-.021-.104-.125-.208-.833-.875-1-.937-.104-.042-.125.02-.125.02s-.063.042-.02.125c.062.167.75.855.937.98.041.02.083.041.104.02-.042.042-.063.042-.021.084.02.02.062.041.125 0v.041c.042.084.167.25.27.292Zm.501.5c0-.062-.125-.187-.292-.187-.229 0-.333.145-.333.229 0 .146.146.166.187.166.146 0 .417-.166.438-.208Zm-.209.354c-.063.084-.083.167-.063.23.021.083.105.125.188.125a.256.256 0 0 0 .208-.105c.084-.145.084-.458.063-.479a.611.611 0 0 0-.396.23Zm-2.042-3.25c-.062-.062-.208.042-.291-.02.041-.209.187 0 .312-.126.063-.062.021-.145 0-.166-.062.062-.146.041-.166 0 .145-.375-.146-.771-.438-.73.063.084.083.355.042.417.104.084.041.271-.084.209-.083-.042-.229-.25-.062-.375 0-.063-.104-.063-.188.062.063-.23-.375-.167-.458-.104-.042.104-.104.542.125.458-.125.104-.104.209-.062.209.145-.167.333-.042.375.041.062.125-.125.209-.209.104-.062.021-.333.021-.396-.041-.041.291.375.604.73.437.041 0 .062.104 0 .167.02.042.125.062.166 0 .146-.146-.062-.292.125-.333.042.083-.041.229.021.291.104.104.23-.104.375-.104 0-.167.188-.292.083-.396ZM3.76 14.73s-.062-.042.021-.146c.083-.083.125-.02.125-.02s.083.166.104.25c-.083 0-.25-.084-.25-.084Zm.667.52c-.042 0-.146.105-.188.043l-.229-.23.25-.25.23.23c.02.062-.063.166-.063.208Zm.478.375c-.02 0-.042 0-.063.02-.02.022-.02.063-.02.105 0 .042.041.083.083.125.02.063.083.083.125.083.02 0 .042 0 .062-.02.042-.042.021-.167-.041-.23-.042-.041-.104-.083-.146-.083Z" fill="#000"/><path d="m4.238 14.938-.125.124s.125.167.229.105c.062-.104-.104-.23-.104-.23Zm12.166-.626c0 .042-.166.125-.291-.104a1.258 1.258 0 0 1-.334-.104c.146.292.271.542.48.667.312.187.791.146.937-.063-.27-.146-.583-.52-.75-.875-.042.084-.104.23-.146.334a.655.655 0 0 0 .104.145ZM19.3 9.75a4.78 4.78 0 0 0 1.042-.687c.02.041.104.229-.146.437-.188.146-.563.334-.833.438-.125.187-.375.396-.709.625.667-.104 1.459-.375 1.854-.75.73-.73.355-1.604.25-1.813-.479.604-1.395 1.23-2.25 1.563.292.041.584.104.792.187Zm-.542-1.333c.438-.354.896-1.063.98-1.313.104.063.145.271.02.5-.229.396-.645.75-1 1.042a2.18 2.18 0 0 1-.25.792c.521-.354 1.125-.875 1.396-1.23.354-.458.5-.916.438-1.374.02-.521-.354-1.042-.5-1.167-.104.562-.667 1.52-1.167 2.062.042.188.083.459.083.688Zm-.332 3.291c.104.125.208.271.291.396.396.084.875.063.875.063s-.02.208-.291.229c-.125 0-.5-.063-.646-.104-.063.02-.354.104-.646.146.417.145 1.02.291 1.396.291h.104c.604-.062.917-.625.938-.937a4.29 4.29 0 0 1-.813.062c-.292 0-.812-.02-1.208-.146Zm2.52-1.583c-.541.292-1.5.584-2.27.584.187.125.374.25.5.375.312-.021.75-.125 1-.209 0 .042 0 .25-.292.334-.209.062-.5.062-.73.062-.187.125-.458.23-.687.313.208.02.48.041.708.041.396 0 .771-.041 1-.125.209-.062.896-.354.771-1.375ZM18.029 13c.229.104.479.188.687.208 0 0-.042.209-.354.167-.188-.02-.396-.167-.437-.188a2.34 2.34 0 0 1-.542 0c.354.25.896.542 1.354.584h.063c.479 0 .854-.48.958-.709-.48 0-1.313-.208-1.813-.479.021.084.063.25.084.417Zm-.832.646c.125.146.333.23.333.23s-.062.103-.187.103a.297.297 0 0 1-.125-.041 1.002 1.002 0 0 1-.209-.188 2.99 2.99 0 0 1-.458-.083c.25.312.667.708 1.125.812a.638.638 0 0 0 .208.021c.396 0 .73-.291.813-.479-.458-.063-1.125-.417-1.458-.75 0 .125-.021.27-.042.375Zm-2.98 5.104c.23 0 .375-.083.48-.313-.313.146-.646.063-1.271-.125 0 0-.23.105-.375.125.375.105.916.292 1 .5.041.167-.063.209-.063.209-.208-.25-.458-.396-1-.563 0 .105-.02.167-.02.167s-.105.02-.355-.02c.208.166.708.603.77 1.062.043.312-.187.333-.187.333-.02-.48-.229-.77-.687-1.25 0 0-.083.104-.167.167 0 0-.166-.021-.291-.125.062.625.083 2.125.041 2.354-.02.166-.125.25-.125.25s-.104-.063-.125-.25c-.041-.25 0-1.75.042-2.354-.146.083-.292.125-.292.125-.104-.063-.166-.167-.166-.167-.438.48-.646.792-.688 1.25 0 0-.208-.02-.187-.333.062-.459.562-.896.77-1.063-.229.042-.354.021-.354.021s-.02-.063-.02-.167c-.542.167-.771.313-1 .563 0 0-.105-.021-.063-.209.083-.208.625-.375 1-.5-.125-.02-.375-.125-.375-.125-.604.188-.958.271-1.27.125.082.23.25.313.478.313a1.11 1.11 0 0 0-.646.688c.209.77.875 1 .875 1-.166-.375-.104-1.105.896-1.605-.604.605-.854 1.167-.687 1.688.146.479.646.666 1 .687-.25-.791-.146-1.52.396-2.083-.23.625-.563 2.563.375 2.875.937-.313.604-2.25.375-2.875.541.583.645 1.292.395 2.083.375 0 .855-.208 1-.687.167-.521-.062-1.084-.687-1.688 1 .5 1.062 1.25.896 1.605 0 0 .666-.23.875-1 0-.292-.292-.563-.563-.688ZM7.76 14.77c.208-.124.333-.374.478-.666a1.259 1.259 0 0 1-.333.104c-.125.23-.292.146-.292.104a.63.63 0 0 0 .105-.145 5.265 5.265 0 0 0-.146-.334c-.167.375-.5.73-.75.875.146.209.625.25.937.063Zm-2.418-4.207c-.354-.23-.583-.438-.708-.625-.292-.104-.667-.292-.833-.438-.25-.208-.167-.396-.146-.437.208.229.687.541 1.041.687.209-.083.5-.146.792-.187-.854-.313-1.77-.959-2.25-1.542-.104.188-.5 1.083.25 1.813.375.354 1.188.625 1.854.729Zm.146-1.146a2.065 2.065 0 0 1-.25-.792c-.354-.27-.75-.625-1-1.042-.125-.229-.083-.437.02-.5.084.25.542.959.98 1.313 0-.23.042-.5.104-.688-.5-.541-1.083-1.5-1.167-2.062-.145.125-.52.646-.5 1.167-.062.458.084.916.438 1.375.25.354.854.895 1.375 1.229Zm-.208 2.687c.063-.125.188-.27.292-.396-.396.104-.917.125-1.188.125-.333 0-.645-.02-.812-.062.02.333.333.896.937.937h.105c.375 0 .979-.146 1.395-.291-.291-.042-.583-.104-.646-.146-.166.083-.541.146-.666.125-.271-.021-.292-.23-.292-.23s.48.021.875-.062Zm-1.459-.583c.23.083.583.125 1 .125.25 0 .5-.02.708-.042-.229-.083-.5-.187-.687-.312a3.94 3.94 0 0 1-.73-.063c-.291-.083-.291-.291-.291-.333.25.104.688.208 1 .208.125-.104.292-.25.5-.375-.75 0-1.73-.291-2.27-.583-.126 1 .562 1.292.77 1.375Zm1.397 2.229h.062c.459-.041 1-.333 1.354-.583-.104.02-.416.02-.541 0a1.074 1.074 0 0 1-.438.187c-.333.042-.354-.166-.354-.166a2.34 2.34 0 0 0 .688-.209 1.93 1.93 0 0 1 .104-.437c-.521.292-1.354.5-1.833.5.104.229.479.708.958.708Zm.895.75c.063 0 .146 0 .209-.02.437-.105.875-.5 1.125-.813a1.617 1.617 0 0 1-.459.083s-.104.125-.208.188a.296.296 0 0 1-.125.041.23.23 0 0 1-.187-.104s.208-.104.333-.229a2.065 2.065 0 0 1-.042-.375c-.354.354-1 .688-1.458.75.083.188.396.48.812.48Zm5.709-11.396c0 .105.083.167.167.167a.18.18 0 0 0 .166-.167.164.164 0 0 0-.166-.166c-.084-.021-.167.062-.167.166Zm.062-.374h.23l-.022-.292.25.041V2.25l-.25.02.021-.27h-.229l.021.27-.25-.02v.23l.25-.042-.02.291Zm-.812 2.75c.02 0 .062.02.083.02h1.667c.041 0 .062 0 .083-.02.062-.022.083-.063.104-.126h-2.042c.021.083.063.104.105.125Zm1.833-.25c.02 0 .02-.022.02-.022v-.125c0-.02-.02-.02-.02-.02h-1.813c-.02 0-.02.02-.02.02v.125c0 .021.02.021.02.021h1.813Zm.188-.313c.041-.063.27-.5.27-.959 0-.416-.52-.645-.812-.645-.042.583-.27 1.5-.562 1.5-.271 0-.521-.917-.563-1.5-.312 0-.812.229-.812.645 0 .459.229.917.27.959h2.209Z" fill="#000"/><path d="M11.987 4.52c.146 0 .313-.437.375-.874 0-.084-.146-.209-.375-.23-.229 0-.375.125-.375.23.063.395.25.875.375.875Zm2.648 6.834a.099.099 0 0 0-.104-.104H9.468a.099.099 0 0 0-.104.104v3.521s0 .188.083.396c.104.25.542.666 1.084.958.77.396 1.229.709 1.458.896.229-.188.687-.5 1.458-.896.563-.291.98-.708 1.084-.958.104-.23.083-.396.083-.396l.02-3.52Zm-1.709 1.271v.02c.063.25.125.522.146.772.209.166.396.333.563.5.312-.354.479-.688.479-.959a.276.276 0 0 1-.271-.27c0-.063.02-.105.042-.146a1.187 1.187 0 0 0-.459-.084c-.125 0-.25.021-.396.042h-.02l-.042.02.02-.02c.022-.042.022-.063.043-.104.416-.084.75-.042.958.083.041-.02.083-.041.125-.041.146 0 .27.124.27.27a.256.256 0 0 1-.145.23c0 .291-.167.666-.521 1.083l.063.062.041.042v.02c-.02.022-.041.043-.062.063h-.042c-.02-.02-.02-.02-.02-.041-.022-.021-.022-.042-.043-.063l-.124.125-.042.063c-.063.041-.125.062-.167.041h-.02l.02-.02c.104-.084.188-.188.271-.25-.125-.146-.292-.292-.458-.438.02.146.02.292.02.438 0 .124 0 .27-.02.416-.021.021-.063.042-.084.063l-.02.02v-.02c.02-.167.02-.334.02-.48v-.187c0-.104-.02-.396-.041-.583-.021-.167-.063-.334-.104-.5v-.021l.062-.063-.042-.083Zm-1.708-.375c.208-.5.5-.77.792-.77.291 0 .583.27.791.77v.02h-.02c-.021 0-.042.022-.084.043h-.02v-.021c-.188-.438-.438-.688-.688-.688-.25 0-.5.25-.688.688v.02h-.02c-.021-.041-.063-.041-.063-.062Zm-.083.125c.062.042.25.146.458.083.188-.062.396-.062.396-.062s.229 0 .396.062c.208.063.396-.041.458-.083.02 0 .02 0 .02.02-.02.084-.082.293-.395.376-.292.062-.438.396-.48.541 0 .021-.02.021-.04 0-.043-.145-.188-.479-.48-.541a.472.472 0 0 1-.396-.375c.042-.021.063-.021.063-.021Zm.5.833c.041 0 .104-.02.146-.041.02.041.041.104.062.146a.352.352 0 0 1-.208.062.396.396 0 0 1-.396-.396c0-.062.02-.104.041-.146.042.021.084.042.146.063-.02.02-.02.062-.02.083-.021.125.104.23.229.23Zm-.104-.25v-.041c.062.02.124.083.166.125-.02.02-.041.02-.062.02-.063 0-.104-.041-.104-.104Zm.104.542c.083 0 .187-.02.27-.083.021.02.063.104.084.104.041 0 .062-.084.083-.104a.678.678 0 0 0 .271.083.6.6 0 0 0 .375-.146v.021c.042.167.063.375.042.458 0 .084-.042.167-.063.25-.041.104-.062.188-.062.188s0 .02-.021.062c-.021.084-.084.23-.167.375a.962.962 0 0 0-.541-.146.99.99 0 0 0-.5.126c-.063-.146-.126-.271-.146-.334-.021-.041-.021-.062-.021-.062s-.042-.084-.084-.209a.75.75 0 0 1-.041-.229c0-.062-.021-.27.041-.458 0-.021.021-.042.021-.063.146.084.313.167.459.167Zm.729-.292a.24.24 0 0 0 .25-.25c0-.041 0-.062-.021-.083.042-.02.104-.042.146-.063.02.042.041.105.041.146 0 .23-.187.396-.395.396a.352.352 0 0 1-.209-.062c.021-.042.042-.084.063-.146.02.041.083.062.125.062Zm-.063-.166a.324.324 0 0 1 .167-.125v.041c0 .063-.042.104-.104.104-.021 0-.042 0-.063-.02Zm-2.416-.584c.062 0 .104.021.146.042.145-.083.312-.125.541-.125.125 0 .25.02.396.042h.02c0 .02.022.062.043.104l.02.02-.041-.02h-.042a2.288 2.288 0 0 0-.375-.042c-.146 0-.333.021-.458.104.02.042.041.084.041.146a.276.276 0 0 1-.27.271c0 .25.166.583.479.958.166-.166.354-.354.562-.5.021-.25.084-.52.146-.77v-.021l.02.02.063.063.021.02v.022c-.041.166-.083.312-.104.479v.02c-.02.126-.042.292-.042.459 0 .125-.02.23-.02.313 0 .124 0 .25.02.416v.021h-.02c-.042-.02-.063-.02-.084-.02h-.02v-.022c0-.104-.021-.25-.021-.396 0-.145 0-.291.02-.437-.166.146-.333.292-.458.438.104.124.25.25.417.395l.02.021h-.02a.178.178 0 0 1-.146 0c-.125-.125-.23-.208-.334-.312-.02.02-.041.041-.041.062l-.021.021c-.02 0-.042.02-.083.042l-.021-.021s-.021 0-.021-.021h-.02v-.02a.903.903 0 0 1 .124-.147c-.354-.396-.52-.77-.52-1.062a.256.256 0 0 1-.146-.23c-.042-.208.083-.333.229-.333Zm2.958 3.23c-.146.416-.354.708-.583.833-.021.125-.125.229-.25.229s-.23-.104-.25-.23c-.23-.124-.438-.395-.584-.812v-.02l.125-.042v.02c.125.355.292.605.48.73.041-.104.124-.188.25-.188.124 0 .208.084.25.167.187-.125.354-.375.479-.708v-.021h.02c0 .02.021.02.063.041Zm-1.063-.021c0-.084.021-.313.063-.396a.392.392 0 0 1 .167-.042c.062 0 .125.021.187.063.021.083.063.291.063.375 0 .083-.209.146-.23.166-.062-.02-.25-.062-.25-.166Zm2.667-.834c-.02.021-.041.042-.062.042-.021 0-.042.02-.084.02h-.02c-.042 0-.084 0-.105-.02-.02 0-.02-.02-.041-.02a.88.88 0 0 0-.25.062c.02 0 .208.02.333.125a.543.543 0 0 0 .23.062c0 .021-.21.167-.605.084l-.104-.021a2.4 2.4 0 0 0-.542-.063c.021 0 .042.021.042.021.041.02.104.042.146.063 0 0 .02 0 .02.02h.021c.021 0 .042 0 .042.021.02 0 .042.021.063.021.02.02.062.042.062.063 0 .02.02.02.02.041 0 .042 0 .063-.02.104-.063.084-.146.084-.23 0l-.02-.02a.285.285 0 0 1-.063-.084v-.02h-.02c-.042-.021-.063-.063-.104-.063-.063-.021-.146-.042-.209-.063h-.062c.062.042.125.084.146.125v.021c.041.063.041.125.062.188.063.125.083.146.146.187-.063.021-.375.021-.521-.208 0 0-.02-.021-.02-.042-.043-.083-.063-.166-.084-.229-.021-.063.02-.125-.021-.146-.042-.02-.063 0-.063 0l-.02.021v.02c0 .022-.021.022-.021.022v.02s0 .021-.021.021h-.083s-.021 0-.021.021c-.021 0-.042.021-.063.021a.045.045 0 0 1-.041-.042v-.041h-.042c-.02 0-.02 0-.042-.021v-.062c-.02.02-.02.02-.041.02h-.042c-.02 0-.02-.02-.02-.041v-.042h-.043c-.021 0-.063-.021-.084-.021h-.02c-.021 0-.063.02-.084.02H11.8v-.04l.021-.022v-.02h-.041v.02h-.021V15c0 .02 0 .042-.021.042-.021.02-.021.02-.042 0 0 0-.02 0-.02-.021 0 0-.021 0-.021-.021 0 0 0 .02.02.02v.043c-.02.02-.02.02-.041.02h-.042c0 .021.02.021 0 .042 0 .02-.02.02-.042.02h-.083l-.02-.02h-.043s-.02 0-.02-.02l-.021-.022v-.02c-.042-.042-.104.104-.104.104-.188.396-.646.479-.646.458 0 0 .104-.042.146-.188.02-.083.02-.104.062-.187 0-.02.021-.02.021-.042.02-.041.083-.062.125-.104h-.063c-.062.021-.124.021-.208.063-.041.02-.062.041-.104.062h-.02v.021c0 .02-.022.042-.043.083l-.02.021c-.084.084-.146.084-.23 0l-.02-.02a.064.064 0 0 1 0-.084c0-.02.02-.042.041-.063.021-.02.042-.02.063-.041.02-.021.041-.021.062-.021.021 0 .021 0 .042-.02h.042s0-.022.02-.022c.021 0 .042-.02.063-.02.02 0 .042-.021.063-.021 0 0 .02 0 .041-.021-.166 0-.333.02-.52.062-.021 0-.063.021-.105.021-.208.042-.604-.062-.604-.083 0-.021.104-.021.208-.084.084-.041.125-.083.188-.104.104.084.229.084.25.084-.042-.021-.23-.042-.292-.063 0 0-.02.021-.041.021-.042.02-.084.02-.125.02-.021 0-.063 0-.084-.02-.02 0-.041-.02-.062-.042-.021-.02-.021-.041-.021-.104.02-.083.104-.125.208-.104a.34.34 0 0 1 .125.063l.021.02c.063 0 .146.042.23.063a.48.48 0 0 0 .187.062c-.021 0-.042-.02-.063-.02-.02 0-.041-.021-.041-.021-.021-.021-.042-.021-.063-.042-.125-.063-.25-.125-.333-.208a.49.49 0 0 1-.104-.209c-.021-.187-.105-.27-.105-.291.021-.021.313.125.417.229a.642.642 0 0 1 .104.208v.021c.021.063.084.125.188.188.02 0 .02.02.041.02-.02-.041-.041-.062-.062-.104v-.02l-.021-.021s-.02-.021-.02-.042c-.022-.021-.022-.042-.043-.063-.02-.062-.02-.125 0-.146.021-.02.042-.041.084-.062.083-.02.146.02.166.146v.166c.042.126.146.23.271.313-.146-.125-.229-.417-.208-.417.02-.02.146.063.27.125.063.021.126.063.188.104a.43.43 0 0 1 .104.084c.042.02.063.062.084.083l.062.063.042.041c.042.021.104 0 .104 0 .021 0 .042 0 .063-.02l.02-.021c.021-.021.042-.021.063-.021v-.021c0-.042.02-.063.063-.083 0 0 .02 0 .02-.021h.063c0-.021.02-.021.041-.042a.128.128 0 0 1 .146.021c.021.02.021.042.042.063v.103h.125c.02 0 .042 0 .063.02.02 0 .041-.02.062-.02h.062v-.063c0-.02 0-.041.021-.062 0 0 0-.021.021-.021l.021-.021a.133.133 0 0 1 .125 0c.02 0 .02.02.042.042h.083c.042.02.063.041.063.083h.041s.104 0 .125.02h.104l.042-.04c.02-.022.063-.063.083-.084.042-.021.063-.063.104-.084.063-.041.146-.062.209-.083.208-.083.229-.208.25-.208.02.02-.042.354-.188.479a.98.98 0 0 0 .271-.313v-.166c.042-.104.084-.167.167-.146.041.02.062.042.083.063.021.041.021.083 0 .145 0 .021-.02.042-.041.063l-.042.041-.021.021v.021c-.02.042-.042.063-.083.104l.041-.041c.104-.084.167-.146.188-.209a.643.643 0 0 1 .104-.208c.104-.104.125-.146.23-.208a.61.61 0 0 1 .187-.042c.02.02-.104.063-.146.27-.021.063-.042.168-.104.25-.084.105-.167.126-.271.188l-.021.021c-.02.021-.042.021-.083.042-.042.02-.063.041-.084.041.063-.02.125-.041.209-.062a.42.42 0 0 1 .229-.063s0-.02.02-.02a.34.34 0 0 1 .126-.063c.104-.041.187 0 .208.104.02.063 0 .104-.02.125Z" fill="#000"/><path d="M18.093 10.646c.312-.146.833-.5 1.041-.75-.291-.104-.875-.167-1.208-.167.688-.479.709-1.479.521-2.208-.167.583-.583 1.063-.854 1.354.02.292-.063.792-.23 1.084.23.083.5.208.688.354-.125.166-.396.396-.562.541.145.146.375.417.5.584-.167.125-.5.25-.688.312.084.188.209.5.25.73a4.17 4.17 0 0 1-.77.062c.02.208-.021.542-.063.75a2.027 2.027 0 0 1-.73-.208c-.083.291-.27.583-.27.604-.25-.292-.5-.396-.73-.396v-.188c.23 0 .48.084.667.271.084-.146.167-.416.209-.583.166.083.437.187.666.229.021-.208.042-.48.021-.688.23.021.48.021.75-.02-.041-.188-.208-.5-.312-.667a3.4 3.4 0 0 0 .666-.27 5.916 5.916 0 0 0-.479-.542c.167-.125.438-.334.542-.459a3.795 3.795 0 0 0-.646-.333c.292-.396.354-1.208.292-1.583-.25.854-1 1.479-1.459 1.77-.02.021-.041.042-.062.042-.021.02-.104.125-.063.25 0 .042.021.063.021.104a.63.63 0 0 1-.208.646c-.209.188-.459.208-.604.188V11c0-.062-.042-.104-.105-.104h-.312l-.146-.146h.313c.166-.02.354-.104.354-.104s-.188 0-.271-.02c-.104.02-.333-.084-.52-.292a1.74 1.74 0 0 1-.168-.25 1.81 1.81 0 0 1-.479-.605c-.083-.187-.125-.458-.146-.625-.062.042-.125.125-.208.23a1.35 1.35 0 0 0-.208.458l-.063.208-.104-.187s-.146-.25-.167-.563c0-.146 0-.27.021-.375-.041.021-.104.063-.166.104-.25.188-.396.375-.396.375a1.758 1.758 0 0 0-.23.375c-.02-.083-.103-.208-.228-.375 0 0-.125-.208-.396-.375-.063-.041-.125-.083-.167-.104.02.104.02.25.02.375-.02.313-.166.542-.166.563l-.104.166-.062-.208s-.084-.27-.209-.458c-.083-.104-.146-.188-.208-.23-.02.167-.063.459-.146.626-.125.27-.292.479-.48.604-.04.083-.103.166-.166.25a1.102 1.102 0 0 1-.52.333c-.084.02-.271.02-.271.02s.187.084.354.105c.166.02.312 0 .312 0l-.146.146h-.312c-.063 0-.104.042-.104.104v.458c-.146.021-.417 0-.604-.187-.23-.23-.25-.48-.209-.646.021-.02.021-.063.021-.104.042-.125-.042-.23-.062-.25-.021-.021-.042-.042-.063-.042-.458-.291-1.187-.916-1.458-1.77-.063.374.02 1.166.291 1.583-.208.083-.479.208-.645.333.104.125.375.354.541.458a2.974 2.974 0 0 0-.479.542 3.4 3.4 0 0 0 .667.27c-.104.168-.271.48-.313.668.25.041.521.041.75.02-.02.209 0 .5.021.688.23-.042.5-.125.667-.23.041.147.125.438.208.584a.946.946 0 0 1 .667-.27v.187c-.23 0-.48.104-.73.396 0-.021-.187-.313-.27-.605-.146.063-.459.188-.73.209a4.555 4.555 0 0 1-.062-.75 4.12 4.12 0 0 1-.77-.063c.041-.229.166-.541.25-.729a4.09 4.09 0 0 1-.688-.313c.104-.166.354-.437.5-.583a3.46 3.46 0 0 1-.563-.541c.188-.146.459-.271.688-.355a2.364 2.364 0 0 1-.23-1.083c-.291-.292-.708-.77-.854-1.354-.208.729-.166 1.75.521 2.208-.333 0-.916.084-1.208.167.208.25.73.583 1.042.75-.25.083-.688.333-.875.5.229.146.75.312 1 .375a3.893 3.893 0 0 0-.542.625c.208.062.625.125.896.125-.084.187-.188.5-.209.687.125.021.563 0 .792-.062-.02.187-.02.5.021.646.208-.021.52-.125.667-.167.041.167.187.5.25.583a1.73 1.73 0 0 0 .312-.083.578.578 0 0 1 .73.292c.208.479.124 1.041-.272.937-.458.084-.145.667-.416.854.354.25.458-.333.916-.229-.041.209-.041.604 0 .771a1.34 1.34 0 0 1 .48-.208 1.434 1.434 0 0 0-.021.604c.083-.063.687-.23.687-.23s-.229.459-.083.917c.083.063.625-.208.625-.354.02.188-.208.604-.563.688.375.375.709.354.75.354.063 0 .105 0 .146-.042-.02.104-.041.25-.02.334h.062a.775.775 0 0 0 .25-.042.73.73 0 0 0 .125.291l.042.042c.083 0 .291-.104.333-.166.041.062.25.166.333.166.021-.02.042-.02.042-.041a.45.45 0 0 0 .125-.292.528.528 0 0 0 .25.041h.062a.618.618 0 0 0-.02-.333.38.38 0 0 0 .145.042c.042 0 .375.02.75-.354-.354-.084-.583-.5-.562-.688 0 .167.541.417.625.354.146-.458-.084-.916-.084-.916s.584.146.688.229c.042-.188.02-.48-.02-.604.124 0 .332.104.478.208.042-.167.042-.542 0-.77.438-.105.542.478.917.228-.25-.187.063-.77-.417-.854-.396.125-.479-.458-.27-.937a.586.586 0 0 1 .729-.292c.104.042.208.063.312.083.042-.083.209-.416.25-.583.146.063.459.146.667.167.02-.146.041-.459.02-.646.209.042.667.062.792.062a2.405 2.405 0 0 0-.208-.687c.27-.021.688-.063.896-.125a2.663 2.663 0 0 0-.542-.625c.25-.063.771-.23 1-.375-.146-.188-.583-.438-.833-.521Zm-3.375 4.688c-.021.041-.042.062-.063.104 0 .02-.02.02-.02.041-.021.021-.042.042-.063.084l-.042.041c-.02.042-.062.063-.083.105l-.063.062-.062.063-.083.083-.042.042a.926.926 0 0 1-.23.166 1.802 1.802 0 0 1-.333.209l-.125.062c-.937.48-1.395.854-1.541.958h-.021c-.146-.125-.604-.479-1.542-.958l-.125-.063a1.8 1.8 0 0 1-.333-.208c-.083-.062-.146-.125-.23-.166-.02-.021-.04-.021-.04-.042-.022-.021-.063-.042-.084-.083l-.063-.063-.062-.063a.333.333 0 0 1-.083-.104l-.042-.041c-.02-.021-.042-.042-.063-.084 0-.02-.02-.02-.02-.041-.021-.042-.042-.063-.063-.104-.125-.271-.104-.5-.104-.5v-3.646c0-.063.042-.104.104-.104h5.5c.063 0 .104.041.104.104v3.646c.021 0 .042.229-.083.5Zm-.126-10.001c.083 0 .125-.062.125-.145 0-.084-.063-.146-.125-.146-.084 0-.125.062-.125.146 0 .083.062.145.125.145Zm0 .771c.083 0 .167-.354.167-.52a.164.164 0 0 0-.167-.167.164.164 0 0 0-.167.166c0 .167.084.521.167.521Zm-.084-1.271h.188l-.042-.229.23.021v-.188l-.23.042.042-.229h-.188l.021.23-.229-.043v.188l.23-.02-.022.228Z" fill="#000"/><path d="M13.78 6.521c.062.02.125.02.187.042h.271c.167 0 .334-.042.5-.084.167-.041.334-.083.521-.083h.125c.042-.187.104-.396.104-.52 0-.25-.146-.522-.625-.605 0 .313-.146 1.042-.312 1.042h-.021c-.167 0-.313-.73-.313-1.042-.479.083-.625.354-.625.604 0 .146.063.417.125.604.063.021.063.021.063.042Zm2.5-1.312s-.125-.334.083-.438c.23-.083-.083-.042.083-.5.188-.542.604-.417.604-.417-.291-.229-.52-.208-.687-.083-.104.083-.25.25-.354.583-.084.417.062.813.27.855Z" fill="#000"/><path d="M17.364 4.396c.02.687 1.166.979 1.166.979s-.666-.48-.541-.833c0 0 .437.187.937.104-1.062-.23-.708-.563-.98-.834-.27-.291-.687-.312-.79-.333-.272-.02-.292-.02-.605.063.73.02.813.395.813.854Zm-.147 1.291c.145-.541-.125-.791-.125-.791-.084-.104-.521-.084-.688.02 0 0 .417 0 .354.605-.062.604-.895.729-1.125.75l-.02.083c.395 0 1.437-.125 1.604-.667Zm-4.354-.02h-.416c.208.583.812.77 1.208.833l-.02-.062c-.417-.167-.626-.334-.772-.771Zm-3.458-.334c.083 0 .125-.062.125-.145 0-.084-.063-.146-.125-.146-.084 0-.125.062-.125.146-.021.083.041.145.125.145Zm0 .771c.083 0 .167-.354.167-.52a.164.164 0 0 0-.167-.167.164.164 0 0 0-.167.166c0 .167.063.521.167.521ZM9.3 4.833h.188l-.021-.229.23.021v-.188l-.23.042.02-.229H9.3l.042.23-.23-.043v.188l.23-.02-.042.228Z" fill="#000"/><path d="M8.571 6.396h.125c.188.02.375.042.52.083.147.042.334.084.5.084h.272a.601.601 0 0 0 .187-.042c0-.02 0-.02.021-.02.063-.188.125-.46.125-.605 0-.25-.125-.52-.625-.604 0 .291-.146 1.041-.313 1.041h-.02c-.167 0-.313-.729-.313-1.041-.479.083-.625.354-.625.604 0 .125.042.333.104.52.021-.02.021-.02.042-.02ZM6.926 3.854s.417-.125.604.417c.167.458-.146.417.083.5.23.083.084.437.084.437.229-.041.375-.437.25-.875-.104-.333-.25-.5-.354-.583-.167-.104-.375-.125-.667.104Z" fill="#000"/><path d="M5.988 4.542c.125.354-.541.833-.541.833s1.166-.292 1.166-.98c.021-.458.084-.833.792-.853-.313-.063-.333-.063-.604-.063-.104 0-.521.042-.792.333-.25.271.083.605-.98.834.522.083.96-.104.96-.104Zm1.25.979c-.063-.604.354-.604.354-.604-.146-.104-.583-.104-.688-.021 0 0-.27.23-.125.792.146.541 1.209.666 1.605.666l-.021-.083c-.23-.02-1.063-.146-1.125-.75Zm4.312.146h-.416c-.146.437-.354.604-.77.77l-.022.063c.417-.062 1-.25 1.209-.833Zm.98 2.563c-.125.187-.23.395-.313.603.063-.083.167-.166.271-.25.187-.125.354-.208.354-.208l.167-.062-.042.166s-.062.271-.042.5c0 .104.042.209.063.271.042-.104.104-.208.167-.312.208-.271.375-.375.375-.375l.125-.063v.146s.041.48.145.73c.188.416.542.645.75.75-.02-.022-.062-.063-.104-.105-.104-.104-.208-.292-.27-.688-.042-.333.083-.666.124-.77.021.083.063.166.105.187 0 0 0-.083.02-.167.042-.229.292-.583.625-.791.063-.042.125-.084.167-.104.063-.021.104-.063.146-.105-.063 0-.146.021-.208.021h-.209c-.166 0-.354-.02-.5-.146a.676.676 0 0 1-.229-.333h-.25c-.125 0-.23-.042-.292-.042a1.181 1.181 0 0 1-.541.167h-.084c.063.063.146.104.209.146h.02l-.041.02c.02-.02-.27.147-.708.813Zm2.73-1.167h-.23v.125a.331.331 0 0 0 .084.145c.062-.041.125-.145.145-.27Z" fill="#000"/><path d="M15.426 6.584c-.021 0-.021 0 0 0h-.084c-.166 0-.333.041-.5.083a2.262 2.262 0 0 1-.52.083h-.292a2.091 2.091 0 0 1-.75-.229c.02.042.062.083.125.146l.062.062c.042.042.105.084.167.125.083.042.438.188.896.125.52-.083.625-.062.75-.062h.042c.187.02.458.125.562.187.042-.104.104-.208.125-.312a.518.518 0 0 0-.146-.104c-.02-.021-.041-.021-.083-.042a.416.416 0 0 0-.188-.042c-.083-.02-.125-.02-.166-.02Zm1.457 1.708c-.02 0-.208.104-.604-.146s-.687-.354-.854-.396c-.042.021-.062.042-.104.063-.042.02-.104.062-.167.104-.02.02-.041.02-.062.041h.041c.375.042.667.25.688.334h.02c.042-.125-.02-.23-.02-.23s.167.105.5.292c.354.23.5.021.562-.062ZM14.905 7.27c-.021-.02-.042-.062-.063-.082-.02-.042-.02-.063-.02-.084-.084 0-.188.021-.313.042h-.084c.063.125.167.25.375.292h.084c.083.02.187.02.25.02a2 2 0 0 0 .479-.062c.042-.042.063-.104.104-.146 0 0-.02-.02-.042-.02-.041-.022-.145-.084-.208-.105a.454.454 0 0 1-.104.167.42.42 0 0 1-.23.062c-.082 0-.166-.02-.207-.062-.021 0-.021-.021-.021-.021Zm1.104-.312a1.81 1.81 0 0 1-.48.709c.938-.25 1.105.229 1.105.25 0 .02 0 .02.02 0 .021-.021.334-.354.105-.667-.188-.25-.604-.292-.75-.292Zm0 .25c.041-.041.062-.125.062-.125.063 0 .188.021.188.105-.084-.021-.188-.021-.25.02Zm-7.042-.02v-.125h-.23c.021.125.084.229.146.27a.336.336 0 0 0 .084-.145Zm1.063-.458c-.021 0-.021 0 0 0h-.292c-.188 0-.354-.042-.521-.084-.187-.02-.354-.062-.52-.062H8.53a.416.416 0 0 0-.188.041c-.02.021-.062.021-.083.042-.063.042-.104.062-.146.104.02.104.083.23.125.313.104-.063.375-.188.562-.188h.042c.125 0 .23-.02.75.063.458.062.792-.084.896-.125.062-.042.125-.084.167-.125l.062-.063a.906.906 0 0 1 .125-.146c-.188.063-.438.188-.813.23ZM7.113 8.292c.062.062.208.291.541.104.334-.188.5-.292.5-.292s-.062.104-.02.23h.02c.042-.084.334-.313.688-.334h.042c-.021-.02-.042-.02-.063-.042a1.922 1.922 0 0 0-.167-.104c-.041-.02-.062-.041-.104-.062-.166.02-.458.146-.854.396-.375.208-.562.104-.583.104Z" fill="#000"/><path d="m8.53 7.125-.209.104c-.02 0-.02.021-.041.021.041.063.062.104.104.146a2 2 0 0 0 .479.062c.083 0 .167 0 .25-.02h.083a.515.515 0 0 0 .375-.292h-.083c-.125-.02-.23-.042-.313-.042 0 .021-.02.063-.02.084-.021.041-.042.062-.063.083l-.02.02a.42.42 0 0 1-.438 0c-.063-.04-.083-.103-.104-.166Zm-1.312.125c-.23.313.083.646.104.667.02.02.02 0 .02 0 0-.021.167-.5 1.105-.25a1.81 1.81 0 0 1-.48-.709c-.124 0-.562.042-.75.292Zm.77-.042c-.062-.041-.166-.041-.25-.02 0-.084.126-.105.188-.105 0 0 .02.084.063.125Z" fill="#000"/><path d="M10.926 7.25h-.083a.978.978 0 0 1-.542-.167 1.085 1.085 0 0 1-.292.042h-.25a.6.6 0 0 1-.229.333c-.146.125-.333.146-.5.146h-.208c-.042 0-.125-.02-.208-.02.062.041.104.062.145.104.042.02.104.062.167.104.333.229.583.562.625.791a.78.78 0 0 1 .02.167c.042-.02.084-.104.105-.187.042.104.187.437.125.77-.063.396-.167.584-.27.688l-.105.104c.208-.104.562-.333.75-.75.104-.23.146-.708.146-.708V8.52l.125.062s.187.105.375.375c.062.105.125.209.167.313.02-.083.041-.167.062-.27.02-.25-.042-.5-.042-.5l-.041-.168.166.063s.167.062.354.208c.126.084.209.167.271.25-.083-.208-.166-.416-.312-.604-.438-.667-.708-.812-.708-.812l-.042-.021h.02a1.46 1.46 0 0 1 .209-.167Z" fill="#000"/></svg><svg fill="none" viewBox="0 0 24 24" id="minus" xmlns="http://www.w3.org/2000/svg"><g opacity=".8" fill="#000"><path d="M14.617 2c2.19 0 3.234.202 4.319.782a5.498 5.498 0 0 1 2.282 2.282c.58 1.085.782 2.13.782 4.32v5.232c0 2.19-.202 3.235-.782 4.32a5.498 5.498 0 0 1-2.282 2.282c-1.085.58-2.13.782-4.32.782H9.384c-2.19 0-3.235-.202-4.32-.782a5.498 5.498 0 0 1-2.282-2.282C2.202 17.85 2 16.806 2 14.616V9.384c0-2.19.202-3.235.782-4.32a5.498 5.498 0 0 1 2.282-2.282C6.15 2.202 7.194 2 9.384 2h5.232Zm0 1.818H9.384c-1.916 0-2.677.147-3.462.567a3.68 3.68 0 0 0-1.537 1.537c-.42.785-.567 1.546-.567 3.462v5.232c0 1.916.147 2.677.567 3.462a3.68 3.68 0 0 0 1.537 1.537c.785.42 1.546.567 3.462.567h5.232c1.916 0 2.677-.147 3.462-.567a3.681 3.681 0 0 0 1.537-1.537c.42-.785.567-1.546.567-3.461V9.384c0-1.916-.147-2.677-.567-3.462a3.68 3.68 0 0 0-1.537-1.537c-.785-.42-1.546-.567-3.461-.567Z"/><path d="M6.95 11.995c0-.505.409-.914.914-.914h8.272a.915.915 0 0 1 0 1.829H7.864a.915.915 0 0 1-.915-.915Z"/></g></svg><svg fill="none" viewBox="0 0 24 24" id="notification" xmlns="http://www.w3.org/2000/svg"><path fill-rule="evenodd" clip-rule="evenodd" d="M18.599 10.424c0-2.707-1.693-5.028-4.1-6.005C14.485 3.08 13.37 2 11.998 2 10.641 2 9.535 3.06 9.5 4.378c-2.46.954-4.2 3.301-4.2 6.046v1.596c0 .843-.003 1.964-.266 3.095-.262 1.126-.774 2.218-1.762 3.03a.744.744 0 0 0-.233.82.76.76 0 0 0 .723.512h5.14C9.17 20.912 10.456 22 12 22c1.544 0 2.829-1.088 3.095-2.523h5.141c.4 0 .651-.28.73-.535a.749.749 0 0 0-.265-.824c-1.223-.92-1.77-2.411-1.994-3.764a10.26 10.26 0 0 1-.114-.995h.006v-2.935Zm-6.6-7.213a1.26 1.26 0 0 0-1.183.807 6.842 6.842 0 0 1 2.374.019A1.26 1.26 0 0 0 12 3.21Zm-1.822 16.266c.241.76.966 1.312 1.823 1.312.856 0 1.581-.552 1.822-1.312h-3.645Zm-3.638-9.053c0-2.921 2.422-5.29 5.41-5.29 2.989 0 5.411 2.369 5.411 5.29v1.44a4.151 4.151 0 0 0-.014.195 11.787 11.787 0 0 0 .138 2.488c.034.2.074.407.122.618H6.291c.13-.63.193-1.248.222-1.806h.026v-2.935Zm-.592 5.952h12.028c.256.657.612 1.31 1.108 1.89H4.878a6.485 6.485 0 0 0 1.07-1.89Z" fill="#000"/><path d="M8.162 10.857a.66.66 0 0 0 .647-.605c.182-1.948 1.276-3.004 3.18-3.185.34-.033.619-.3.619-.634a.58.58 0 0 0-.62-.584c-2.765.202-4.232 1.791-4.424 4.403-.024.334.256.605.598.605Z" fill="#000"/></svg><svg fill="none" viewBox="0 0 24 24" id="phone" xmlns="http://www.w3.org/2000/svg"><path d="M4.884 18.263a1.902 1.902 0 0 1 .106-2.59l1.93-1.862a1.681 1.681 0 0 1 2.46.112l.27.31-4.497 4.34-.27-.31Zm10.705-2.228c3.427-3.309 4.891-7.554 3.414-9.709l-.76.734-.01-.011-2.944 2.84c.206.237.472.38.75.43-.369 1.165-1.176 2.444-2.33 3.558-1.162 1.122-2.453 1.86-3.592 2.142a1.416 1.416 0 0 0-.341-.808l-2.943 2.84.01.012-.738.712c1.912 1.736 6.056.568 9.484-2.74Zm-1.374-9.267a1.902 1.902 0 0 0-.107 2.591l.27.31 4.496-4.34-.27-.31a1.681 1.681 0 0 0-2.46-.112l-1.929 1.861Z" fill="#000"/></svg><svg fill="none" viewBox="0 0 24 24" id="play" xmlns="http://www.w3.org/2000/svg"><path d="M19.662 10.637a1.578 1.578 0 0 1 0 2.726l-10.29 5.999A1.578 1.578 0 0 1 7 17.999V6.002a1.578 1.578 0 0 1 2.372-1.363l10.29 5.998Z" fill="#000"/></svg><svg fill="none" viewBox="0 0 24 24" id="plus" xmlns="http://www.w3.org/2000/svg"><path d="M14.617 2c2.19 0 3.234.202 4.319.782a5.498 5.498 0 0 1 2.282 2.282c.58 1.085.782 2.13.782 4.32v5.232c0 2.19-.202 3.235-.782 4.32a5.498 5.498 0 0 1-2.282 2.282c-1.085.58-2.13.782-4.32.782H9.384c-2.19 0-3.235-.202-4.32-.782a5.498 5.498 0 0 1-2.282-2.282C2.202 17.85 2 16.806 2 14.616V9.384c0-2.19.202-3.235.782-4.32a5.498 5.498 0 0 1 2.282-2.282C6.15 2.202 7.194 2 9.384 2h5.232Zm0 1.818H9.384c-1.916 0-2.677.147-3.462.567a3.68 3.68 0 0 0-1.537 1.537c-.42.785-.567 1.546-.567 3.462v5.232c0 1.916.147 2.677.567 3.462a3.68 3.68 0 0 0 1.537 1.537c.785.42 1.546.567 3.462.567h5.232c1.916 0 2.677-.147 3.462-.567a3.681 3.681 0 0 0 1.537-1.537c.42-.785.567-1.546.567-3.461V9.384c0-1.916-.147-2.677-.567-3.462a3.68 3.68 0 0 0-1.537-1.537c-.785-.42-1.546-.567-3.461-.567Z" fill="#272B37"/><path fill-rule="evenodd" clip-rule="evenodd" d="M17.05 12a.91.91 0 0 1-.908.91h-3.233v3.232a.91.91 0 0 1-1.818 0V12.91H7.86a.91.91 0 1 1 0-1.819h3.232V7.86a.91.91 0 1 1 1.818 0v3.232h3.233a.91.91 0 0 1 .909.91Z" fill="#272B37"/></svg><svg fill="none" viewBox="0 0 24 24" id="rutube" xmlns="http://www.w3.org/2000/svg"><path d="M11.92 11.817H5.056v-2.75h6.864c.401 0 .68.07.82.194.14.124.226.353.226.688v.987c0 .353-.086.582-.226.706-.14.123-.419.176-.82.176Zm.47-5.343H2.146v11.761h2.91V14.41h5.366l2.545 3.826h3.26l-2.806-3.844c1.034-.155 1.499-.476 1.882-1.005.383-.53.575-1.376.575-2.505V10c0-.67-.07-1.198-.192-1.604a2.681 2.681 0 0 0-.627-1.075 2.83 2.83 0 0 0-1.081-.653c-.419-.123-.942-.194-1.586-.194v.001Zm7.233-.001a2.236 2.236 0 1 0 0-4.473 2.236 2.236 0 0 0 0 4.473Z" fill="#000"/></svg><svg fill="none" viewBox="0 0 24 24" id="search" xmlns="http://www.w3.org/2000/svg"><path fill-rule="evenodd" clip-rule="evenodd" d="M15.154 16.86a8.37 8.37 0 1 1 3.585-6.869c0 2.06-.754 3.934-1.988 5.392l4.946 5.159c.155.162.25.36.286.565a1.084 1.084 0 0 1-1.85.937l-4.948-5.16c-.007-.007-.024-.016-.031-.025Zm1.473-6.87a6.257 6.257 0 0 1-6.257 6.26 6.259 6.259 0 1 1 6.257-6.26Z" fill="#000"/></svg><svg fill="none" viewBox="0 0 24 24" id="share" xmlns="http://www.w3.org/2000/svg"><path d="M22.002 11.896 13.693 2.98v5.232C12.43 8.135.851 7.487 2.093 21.02c4.335-5.281 9.228-5.364 11.074-5.396.221-.003.399-.006.526-.018v5.343l8.31-9.052Z" fill="#000"/></svg><svg fill="none" viewBox="0 0 24 24" id="star" xmlns="http://www.w3.org/2000/svg"><path d="M11.7 2.69a.328.328 0 0 1 .6 0l2.38 5.349a.33.33 0 0 0 .265.193l5.83.607c.283.029.397.38.185.57l-4.358 3.911a.328.328 0 0 0-.102.313l1.223 5.722a.328.328 0 0 1-.485.353l-5.074-2.93a.328.328 0 0 0-.328 0l-5.074 2.93a.328.328 0 0 1-.485-.353L7.5 13.633a.328.328 0 0 0-.102-.313L3.04 9.41a.328.328 0 0 1 .186-.571l5.828-.607a.328.328 0 0 0 .266-.193L11.7 2.69Z" fill="#000"/></svg><svg fill="none" viewBox="0 0 24 24" id="telegram" xmlns="http://www.w3.org/2000/svg"><path fill-rule="evenodd" clip-rule="evenodd" d="M4.64 11.045c4.577-1.954 7.624-3.253 9.153-3.883 4.355-1.788 5.27-2.096 5.858-2.11.131 0 .419.026.615.18.157.13.196.297.222.425.027.129.053.399.027.605-.236 2.443-1.256 8.371-1.779 11.098-.222 1.157-.654 1.543-1.072 1.581-.915.078-1.609-.591-2.485-1.157-1.386-.887-2.157-1.44-3.504-2.315-1.556-1.003-.55-1.556.34-2.456.235-.232 4.25-3.832 4.328-4.154.013-.038.013-.193-.078-.27-.092-.077-.223-.051-.327-.026-.144.026-2.34 1.466-6.617 4.308-.627.425-1.19.63-1.7.618-.562-.013-1.634-.309-2.445-.566-.98-.309-1.765-.476-1.7-1.016.04-.283.432-.566 1.164-.862Z" fill="#000"/></svg><svg fill="currentColor" viewBox="0 0 24 24" id="trophy" xmlns="http://www.w3.org/2000/svg"><path d="m5.78 3.245-.075-1.047c-.01-.129.051-.193.181-.193L18.166 2a.118.118 0 0 1 .118.125l-.067 1.155a.036.036 0 0 0 .022.035l.015.003c.664.003 1.296.004 1.896.003.307 0 .52.26.515.556-.04 2.881-.967 5.38-3.99 6.157a.18.18 0 0 0-.128.114c-.442 1.172-1.25 2.117-2.392 2.648a.212.212 0 0 0-.134.207c0 .283-.004.552-.01.805 0 .046-.023.076-.068.088-1.452.406-1.142 2.235-.641 3.262.407.836 1.234 1.23 2.144 1.368a.173.173 0 0 1 .15.173l-.006.726a.08.08 0 0 0 .05.074.08.08 0 0 0 .03.006l.98-.005c.043 0 .065.022.065.066v2.377a.055.055 0 0 1-.055.054L7.366 22a.084.084 0 0 1-.083-.083l.001-2.34c0-.049.024-.073.073-.073l.97.001c.06 0 .09-.03.09-.09l-.005-.77c0-.023.007-.045.021-.063a.1.1 0 0 1 .057-.034c.825-.166 1.648-.435 2.095-1.2.57-.972 1.004-3.008-.513-3.446a.126.126 0 0 1-.09-.12l-.01-.82a.164.164 0 0 0-.094-.146c-1.156-.545-1.967-1.436-2.431-2.672a.2.2 0 0 0-.147-.127c-2.989-.652-3.936-3.406-3.968-6.12-.004-.369.239-.587.59-.582.635.008 1.231.01 1.79.005.05 0 .072-.025.069-.075ZM4.395 4.451c.132 1.861.702 3.608 2.51 4.368a.025.025 0 0 0 .034-.017.025.025 0 0 0 0-.014A22.332 22.332 0 0 1 5.92 4.411c-.005-.033-.023-.049-.056-.049l-1.394.007c-.055 0-.08.027-.077.082Zm12.752 4.35c1.78-.806 2.354-2.548 2.456-4.363.003-.049-.02-.073-.07-.073l-1.415.001c-.01 0-.02.004-.028.01a.044.044 0 0 0-.014.027 22.617 22.617 0 0 1-.998 4.337c-.025.072-.002.093.069.06Z"/></svg><svg fill="none" viewBox="0 0 24 24" id="user" xmlns="http://www.w3.org/2000/svg"><path fill-rule="evenodd" clip-rule="evenodd" d="M7.1 18.62a8.198 8.198 0 0 0 4.9 1.615c1.835 0 3.53-.6 4.9-1.615a9.657 9.657 0 0 0-4.9-1.326 9.657 9.657 0 0 0-4.9 1.326Zm-1.34-1.246a8.235 8.235 0 1 1 12.48 0A11.42 11.42 0 0 0 12 15.529c-2.3 0-4.444.678-6.24 1.845ZM12 2C6.477 2 2 6.477 2 12s4.477 10 10 10 10-4.477 10-10S17.523 2 12 2Zm-1.765 8.235a1.765 1.765 0 1 0 3.53 0 1.765 1.765 0 0 0-3.53 0ZM12 6.705a3.53 3.53 0 1 0 0 7.06 3.53 3.53 0 0 0 0-7.06Z" fill="#000"/></svg><svg fill="none" viewBox="0 0 24 24" id="vkontakte" xmlns="http://www.w3.org/2000/svg"><path d="M12.875 18C6.185 18 2.37 13.495 2.21 6h3.35c.11 5.502 2.581 7.832 4.538 8.312V6h3.155v4.745C15.185 10.541 17.215 8.378 17.9 6h3.155c-.526 2.93-2.727 5.093-4.292 5.982 1.565.72 4.072 2.607 5.026 6.018h-3.473c-.746-2.282-2.605-4.048-5.063-4.288V18h-.38Z" fill="#000"/></svg></svg>