<svg width="460" height="340" fill="none" xmlns="http://www.w3.org/2000/svg"><path d="M192.963 248.849h136.359c9.803 0 17.759-7.947 17.759-17.76v-89.338c0-9.803-7.946-17.759-17.759-17.759H192.963c-9.803 0-17.759 7.946-17.759 17.759V231.1c.01 9.802 7.956 17.749 17.759 17.749Z" fill="#D13FC3"/><path d="M311.271 231.257H174.912c-9.803 0-17.76-7.946-17.76-17.759v-89.349c0-9.803 7.947-17.759 17.76-17.759h136.359c9.803 0 17.759 7.946 17.759 17.759v89.349c-.01 9.813-7.956 17.759-17.759 17.759Z" fill="#D13FC3"/><path d="M311.271 232.822H174.912c-10.648 0-19.324-8.666-19.324-19.324v-89.349c0-10.657 8.666-19.323 19.324-19.323h136.359c10.647 0 19.324 8.666 19.324 19.323v89.349c-.011 10.658-8.677 19.324-19.324 19.324ZM174.912 107.965c-8.927 0-16.195 7.268-16.195 16.195v89.349c0 8.926 7.258 16.195 16.195 16.195h136.359c8.927 0 16.195-7.269 16.195-16.195V124.16c0-8.927-7.258-16.195-16.195-16.195H174.912Z" fill="#000"/><path d="M329.02 126.745H157.152V210.9H329.02v-84.155Z" fill="#695EC4"/><path d="M330.584 212.464H155.588V125.18h174.996v87.284Zm-171.867-3.128h168.739v-81.027H158.717v81.027Z" fill="#000"/><path d="M329.02 168.822H157.152V210.9H329.02v-42.078Z" fill="#695EC4"/><path d="M330.584 212.464H155.588v-45.206h174.996v45.206Zm-171.867-3.128h168.739v-38.95H158.717v38.95Z" fill="#000"/><path d="M261.549 213.326c24.583-10.183 36.257-38.367 26.074-62.95-10.183-24.583-38.367-36.257-62.95-26.074-24.583 10.183-36.257 38.366-26.074 62.95 10.183 24.583 38.367 36.257 62.95 26.074Z" fill="#fff"/><path d="M243.091 218.566c-27.426 0-49.742-22.316-49.742-49.742 0-27.427 22.316-49.743 49.742-49.743 27.427 0 49.743 22.316 49.743 49.743 0 27.436-22.316 49.742-49.743 49.742Zm0-96.356c-25.705 0-46.614 20.908-46.614 46.614 0 25.705 20.909 46.614 46.614 46.614 25.706 0 46.614-20.909 46.614-46.614 0-25.695-20.908-46.614-46.614-46.614Z" fill="#000"/><path d="M277.369 168.823c0 18.928-15.351 34.278-34.278 34.278s-34.277-15.35-34.277-34.278c0-18.927 15.35-34.277 34.277-34.277s34.278 15.35 34.278 34.277Z" fill="#695EC4"/><path d="M243.091 204.665c-19.761 0-35.841-16.08-35.841-35.842 0-19.761 16.08-35.842 35.841-35.842 19.762 0 35.842 16.081 35.842 35.842 0 19.762-16.08 35.842-35.842 35.842Zm0-68.555c-18.041 0-32.713 14.672-32.713 32.713s14.672 32.714 32.713 32.714 32.714-14.673 32.714-32.714c0-18.03-14.683-32.713-32.714-32.713Z" fill="#000"/><path d="M268.077 106.327v-8.446a4.891 4.891 0 0 0-4.89-4.891h-40.191a4.891 4.891 0 0 0-4.891 4.89v8.447h49.972Z" fill="#fff"/><path d="M269.642 107.891h-53.101v-10.01c0-3.557 2.899-6.456 6.455-6.456h40.191c3.556 0 6.455 2.9 6.455 6.455v10.011Zm-49.972-3.128h46.843V97.88a3.329 3.329 0 0 0-3.326-3.326h-40.191a3.329 3.329 0 0 0-3.326 3.326v6.883Z" fill="#000"/><path d="M195.612 115.411h-15.956v5.235h15.956v-5.235Z" fill="#fff"/><path d="M197.176 122.21h-19.084v-8.364h19.084v8.364Zm-15.955-3.129h12.826v-2.106h-12.826v2.106Z" fill="#000"/><path d="M306.766 106.402c-.073-2.826-1.523-5.1-3.316-5.1h-15.611c-1.794 0-3.243 2.263-3.316 5.1h22.243Z" fill="#fff"/><path d="M308.372 107.966h-25.445l.042-1.606c.104-3.775 2.2-6.622 4.88-6.622h15.611c2.68 0 4.776 2.847 4.881 6.622l.031 1.606Zm-22.045-3.129h18.635c-.355-1.23-1.022-1.971-1.512-1.971h-15.611c-.49 0-1.158.73-1.512 1.971Z" fill="#000"/></svg>