<svg width="460" height="339" fill="none" xmlns="http://www.w3.org/2000/svg"><path d="M339.214 249.738a4.746 4.746 0 0 0 4.745-4.745V101.154c0-1.083-.726-1.97-1.61-1.97H150.187c-.888 0-1.61.887-1.61 1.97v9.995l-11.909-.019v130.025c0 7.429 7.957 8.583 11.909 8.583h190.637Z" fill="#D13FC3"/><path d="M130.341 103.117c-1.045 0-1.9.85-1.9 1.895v128.125c0 7.429 10.018 8.403 10.018 8.403 1.04.1 2.746.181 3.791.181h184.424c1.045 0 1.9-.855 1.9-1.9v-134.5c0-1.045-.855-1.9-1.9-1.905l-196.333-.299Z" fill="#D13FC3"/><path d="M326.678 242.433H142.25c-1.064 0-2.793-.086-3.862-.185-.109-.01-2.655-.271-5.244-1.478-3.544-1.658-5.42-4.299-5.42-7.633V105.012a2.608 2.608 0 0 1 2.608-2.608l196.337.304a2.624 2.624 0 0 1 2.612 2.617v134.5a2.602 2.602 0 0 1-2.603 2.608ZM130.341 103.829c-.655 0-1.187.532-1.187 1.183v128.125c0 6.707 9.281 7.681 9.372 7.69 1.026.1 2.698.181 3.724.181h184.423c.656 0 1.188-.532 1.188-1.188v-134.5c0-.655-.532-1.187-1.188-1.192l-196.332-.299Z" fill="#000"/><path d="M329.091 241.722c1.045 0 2.68-.347 3.634-.774l2.233-2.233c.427-.955.774-2.589.774-3.634V92.055c-.888-.49-2.465-.889-3.51-.889H141.965c-.888 0-.955.186-.955.186-.361.978-.655 2.636-.655 3.681v144.784c0 1.045.855 1.9 1.9 1.9h186.836v.005Z" fill="#fff"/><path d="M329.091 242.434H142.25a2.618 2.618 0 0 1-2.613-2.613V95.037c0-1.135.309-2.864.699-3.928.213-.58.978-.651 1.624-.651h190.257c1.168 0 2.864.427 3.857.974l.371.204V235.08c0 1.15-.371 2.874-.841 3.924l-.052.119-2.418 2.418-.119.052c-1.045.475-2.769.841-3.924.841ZM141.575 91.897c-.285.922-.513 2.276-.513 3.14v144.784c0 .656.532 1.188 1.188 1.188h186.841c.908 0 2.347-.3 3.226-.665l2.038-2.038c.365-.879.665-2.318.665-3.226V92.5c-.817-.35-2-.622-2.798-.622H141.965c-.176 0-.299.01-.39.02Z" fill="#000"/><path d="M250.614 191.934c0 1.045-.855 1.9-1.9 1.9h-91.886c-1.045 0-1.9-.855-1.9-1.9V166.72c0-1.045.855-1.9 1.9-1.9h91.886c1.045 0 1.9.855 1.9 1.9v25.214Z" fill="#D13FC3"/><path d="M248.714 194.546h-91.886a2.617 2.617 0 0 1-2.613-2.612V166.72a2.618 2.618 0 0 1 2.613-2.613h91.886a2.618 2.618 0 0 1 2.613 2.613v25.214a2.617 2.617 0 0 1-2.613 2.612Zm-91.886-29.014c-.656 0-1.188.532-1.188 1.188v25.214c0 .655.532 1.187 1.188 1.187h91.886c.656 0 1.188-.532 1.188-1.187V166.72c0-.656-.532-1.188-1.188-1.188h-91.886Z" fill="#000"/><path d="M319.658 168.82c0 1.045-.855 1.9-1.901 1.9h-58.854c-1.045 0-1.9-.855-1.9-1.9v-2.1c0-1.045.855-1.9 1.9-1.9h58.854c1.046 0 1.901.855 1.901 1.9v2.1Z" fill="#695EC4"/><path d="M317.758 171.432h-58.855a2.617 2.617 0 0 1-2.612-2.612v-2.1a2.617 2.617 0 0 1 2.612-2.613h58.855a2.617 2.617 0 0 1 2.612 2.613v2.1a2.617 2.617 0 0 1-2.612 2.612Zm-58.855-5.9c-.655 0-1.187.532-1.187 1.188v2.1c0 .655.532 1.187 1.187 1.187h58.855c.655 0 1.187-.532 1.187-1.187v-2.1c0-.656-.532-1.188-1.187-1.188h-58.855Z" fill="#000"/><path d="M319.658 180.378c0 1.045-.855 1.9-1.901 1.9h-58.854c-1.045 0-1.9-.855-1.9-1.9v-2.1c0-1.045.855-1.9 1.9-1.9h58.854c1.046 0 1.901.855 1.901 1.9v2.1Z" fill="#D13FC3"/><path d="M317.758 182.99h-58.855a2.617 2.617 0 0 1-2.612-2.613v-2.099a2.617 2.617 0 0 1 2.612-2.613h58.855a2.617 2.617 0 0 1 2.612 2.613v2.099a2.617 2.617 0 0 1-2.612 2.613Zm-58.855-5.9c-.655 0-1.187.532-1.187 1.188v2.099c0 .656.532 1.188 1.187 1.188h58.855c.655 0 1.187-.532 1.187-1.188v-2.099c0-.656-.532-1.188-1.187-1.188h-58.855Z" fill="#000"/><path d="M217.582 205.711c0 1.045-.855 1.9-1.9 1.9h-58.854c-1.045 0-1.9-.855-1.9-1.9v-2.1c0-1.045.855-1.9 1.9-1.9h58.854c1.045 0 1.9.855 1.9 1.9v2.1Z" fill="#695EC4"/><path d="M215.682 208.323h-58.854a2.617 2.617 0 0 1-2.613-2.612v-2.1a2.617 2.617 0 0 1 2.613-2.612h58.854a2.617 2.617 0 0 1 2.613 2.612v2.1a2.611 2.611 0 0 1-2.613 2.612Zm-58.854-5.895c-.656 0-1.188.532-1.188 1.188v2.099c0 .656.532 1.188 1.188 1.188h58.854c.656 0 1.188-.532 1.188-1.188v-2.099c0-.656-.532-1.188-1.188-1.188h-58.854Z" fill="#000"/><path d="M319.657 205.711c0 1.045-.855 1.9-1.9 1.9h-90.186c-1.045 0-1.9-.855-1.9-1.9v-2.1c0-1.045.855-1.9 1.9-1.9h90.182c1.045 0 1.9.855 1.9 1.9v2.1h.004Z" fill="#695EC4"/><path d="M317.757 208.323h-90.185a2.617 2.617 0 0 1-2.613-2.612v-2.1a2.617 2.617 0 0 1 2.613-2.612h90.181a2.617 2.617 0 0 1 2.612 2.612v2.1a2.606 2.606 0 0 1-2.608 2.612Zm-90.185-5.895c-.656 0-1.188.532-1.188 1.188v2.099c0 .656.532 1.188 1.188 1.188h90.181c.655 0 1.187-.532 1.187-1.188v-2.099c0-.656-.532-1.188-1.187-1.188h-90.181Z" fill="#000"/><path d="M257.003 215.215c0-1.045.855-1.9 1.9-1.9h58.854c1.046 0 1.901.855 1.901 1.9v2.1c0 1.045-.855 1.9-1.901 1.9h-58.854c-1.045 0-1.9-.855-1.9-1.9v-2.1Z" fill="#D13FC3"/><path d="M317.758 219.928h-58.855a2.617 2.617 0 0 1-2.612-2.613v-2.099a2.617 2.617 0 0 1 2.612-2.613h58.855a2.617 2.617 0 0 1 2.612 2.613v2.099a2.617 2.617 0 0 1-2.612 2.613Zm-58.855-5.9c-.655 0-1.187.532-1.187 1.188v2.099c0 .656.532 1.188 1.187 1.188h58.855c.655 0 1.187-.532 1.187-1.188v-2.099c0-.656-.532-1.188-1.187-1.188h-58.855Z" fill="#000"/><path d="M154.928 215.215c0-1.045.855-1.9 1.9-1.9h90.181c1.045 0 1.9.855 1.9 1.9v2.1c0 1.045-.855 1.9-1.9 1.9h-90.181c-1.045 0-1.9-.855-1.9-1.9v-2.1Z" fill="#695EC4"/><path d="M247.014 219.928h-90.186a2.618 2.618 0 0 1-2.613-2.613v-2.099a2.618 2.618 0 0 1 2.613-2.613h90.181a2.618 2.618 0 0 1 2.613 2.613v2.099a2.611 2.611 0 0 1-2.608 2.613Zm-90.186-5.9c-.656 0-1.188.532-1.188 1.188v2.099c0 .656.532 1.188 1.188 1.188h90.181c.656 0 1.188-.532 1.188-1.188v-2.099c0-.656-.532-1.188-1.188-1.188h-90.181Z" fill="#000"/><path d="M319.658 191.935c0 1.045-.855 1.9-1.901 1.9h-58.854c-1.045 0-1.9-.855-1.9-1.9v-2.099c0-1.045.855-1.9 1.9-1.9h58.854c1.046 0 1.901.855 1.901 1.9v2.099Z" fill="#695EC4"/><path d="M317.758 194.548h-58.855a2.617 2.617 0 0 1-2.612-2.613v-2.099a2.617 2.617 0 0 1 2.612-2.613h58.855a2.617 2.617 0 0 1 2.612 2.613v2.099a2.617 2.617 0 0 1-2.612 2.613Zm-58.855-5.9c-.655 0-1.187.532-1.187 1.188v2.099c0 .656.532 1.188 1.187 1.188h58.855c.655 0 1.187-.532 1.187-1.188v-2.099c0-.656-.532-1.188-1.187-1.188h-58.855ZM171.8 82.312h-12.445l6.223-10.778 6.222 10.778Zm-9.975-1.425h7.51l-3.753-6.503-3.757 6.503Zm-40.438 8.896a4.833 4.833 0 0 1-4.826-4.826 4.833 4.833 0 0 1 4.826-4.826 4.833 4.833 0 0 1 4.826 4.826 4.827 4.827 0 0 1-4.826 4.826Zm0-7.272a2.45 2.45 0 1 0 0 4.901 2.45 2.45 0 0 0 0-4.901Zm15.281 186.171a4.833 4.833 0 0 1-4.826-4.826 4.833 4.833 0 0 1 4.826-4.826 4.833 4.833 0 0 1 4.826 4.826 4.833 4.833 0 0 1-4.826 4.826Zm0-7.277a2.451 2.451 0 1 0 0 4.902 2.451 2.451 0 0 0 0-4.902Zm167.096 6.442a4.833 4.833 0 0 1-4.826-4.827 4.833 4.833 0 0 1 4.826-4.826 4.833 4.833 0 0 1 4.826 4.826 4.833 4.833 0 0 1-4.826 4.827Zm0-7.278a2.451 2.451 0 1 0 2.451 2.451 2.457 2.457 0 0 0-2.451-2.451ZM254.88 82.103a4.833 4.833 0 0 1-4.826-4.826 4.833 4.833 0 0 1 4.826-4.826 4.833 4.833 0 0 1 4.826 4.826 4.833 4.833 0 0 1-4.826 4.826Zm0-7.277a2.45 2.45 0 1 0 0 4.901 2.45 2.45 0 0 0 0-4.901Z" fill="#000"/></svg>