<svg width="460" height="340" fill="none" xmlns="http://www.w3.org/2000/svg"><path d="M300.465 105.463H289v-10.36c0-.934-.527-1.696-1.169-1.696H163.556c-.642 0-1.169.762-1.169 1.696V249.22h12.634v12.056h126.607V107.159c.006-.934-.521-1.696-1.163-1.696Z" fill="#D13FC3"/><path d="M278.932 239.406V85.289c0-.934-.527-1.696-1.169-1.696H153.488c-.642 0-1.169.762-1.169 1.696v154.117h126.613Z" fill="#fff"/><path d="M279.885 240.358H151.366V85.288c0-1.486.934-2.648 2.122-2.648h124.269c1.188 0 2.121 1.162 2.121 2.649v155.069h.007Zm-126.613-1.905h124.701V85.289c0-.438-.184-.712-.267-.75l-124.225.007c-.031.031-.215.305-.215.743v153.164h.006Z" fill="#000"/><path d="M291.566 251.462V97.345c0-.933-.527-1.696-1.169-1.696H166.128c-.641 0-1.169.763-1.169 1.696v154.117h126.607Z" fill="#695EC4"/><path d="M292.519 252.415H164.007V97.345c0-1.486.933-2.648 2.121-2.648h124.269c1.188 0 2.122 1.162 2.122 2.648v155.07Zm-126.607-1.905h124.701V97.346c0-.439-.184-.712-.267-.75l-124.224.006c-.032.032-.216.305-.216.743V250.51h.006Z" fill="#000"/><path d="M284.109 118.923h-38.855v11.885h38.855v-11.885Z" fill="#fff"/><path d="M285.062 131.761h-40.761v-13.79h40.761v13.79Zm-38.855-1.906h36.949v-9.979h-36.949v9.979Z" fill="#000"/><path d="M216.207 109.801h-38.855v31.461h38.855v-31.461Z" fill="#fff"/><path d="M217.16 142.215h-40.761v-33.367h40.761v33.367Zm-38.855-1.906h36.949v-29.555h-36.949v29.555Z" fill="#000"/><path d="M264.678 152.658h-65.374v50.726h65.374v-50.726Z" fill="#D13FC3"/><path d="M265.631 204.337h-67.28v-52.632h67.28v52.632Zm-65.374-1.905h63.468v-48.821h-63.468v48.821Z" fill="#000"/><path d="M238.254 219.772h-60.902v19.316h60.902v-19.316Z" fill="#fff"/><path d="M239.207 240.041h-62.808v-21.222h62.808v21.222Zm-60.902-1.905h58.997v-17.411h-58.997v17.411Zm-43.733 17.538H117.93l8.321-14.413 8.321 14.413Zm-13.339-1.906h10.042l-5.018-8.696-5.024 8.696Zm-8.105-161.327a6.463 6.463 0 0 1-6.454-6.453 6.463 6.463 0 0 1 6.454-6.454 6.462 6.462 0 0 1 6.453 6.454 6.462 6.462 0 0 1-6.453 6.453Zm0-9.73a3.277 3.277 0 1 0-.001 6.554 3.277 3.277 0 0 0 .001-6.555Zm233.744 171.877c-3.557 0-6.453-2.897-6.453-6.454a6.462 6.462 0 0 1 6.453-6.453c3.557 0 6.454 2.896 6.454 6.453a6.464 6.464 0 0 1-6.454 6.454Zm0-9.731a3.277 3.277 0 1 0 0 6.555 3.277 3.277 0 1 0 0-6.555ZM336.569 91.324a6.462 6.462 0 0 1-6.453-6.454 6.462 6.462 0 0 1 6.453-6.454 6.463 6.463 0 0 1 6.454 6.454 6.462 6.462 0 0 1-6.454 6.454Zm0-9.731a3.277 3.277 0 1 0 3.278 3.277 3.286 3.286 0 0 0-3.278-3.278Z" fill="#000"/></svg>