<svg xmlns="http://www.w3.org/2000/svg" fill="currentColor" viewBox="0 0 243 43"><path d="M23.031.296a.512.512 0 0 1 .936 0l6.166 13.857a.512.512 0 0 0 .415.301l15.104 1.572c.441.046.62.594.289.89L34.648 27.052a.512.512 0 0 0-.159.488l3.17 14.827a.512.512 0 0 1-.757.55l-13.147-7.592a.512.512 0 0 0-.512 0l-13.147 7.592a.512.512 0 0 1-.757-.55l3.17-14.827a.512.512 0 0 0-.159-.488L1.057 16.917a.512.512 0 0 1 .29-.89l15.104-1.573a.512.512 0 0 0 .415-.301L23.03.296Zm48.999 0a.512.512 0 0 1 .935 0l6.166 13.857a.512.512 0 0 0 .415.301l15.104 1.572c.441.046.62.594.289.89L83.646 27.052a.512.512 0 0 0-.159.488l3.17 14.827a.512.512 0 0 1-.757.55l-13.147-7.592a.512.512 0 0 0-.512 0l-13.147 7.592a.512.512 0 0 1-.757-.55l3.17-14.827a.512.512 0 0 0-.159-.488L50.056 16.917a.512.512 0 0 1 .289-.89l15.104-1.573a.512.512 0 0 0 .415-.301L72.029.296Zm98.003 0a.512.512 0 0 1 .936 0l6.166 13.857a.51.51 0 0 0 .414.301l15.105 1.572a.512.512 0 0 1 .289.89L181.65 27.052a.512.512 0 0 0-.159.488l3.17 14.827a.512.512 0 0 1-.757.55l-13.147-7.592a.511.511 0 0 0-.512 0l-13.147 7.592a.512.512 0 0 1-.757-.55l3.17-14.827a.512.512 0 0 0-.159-.488l-11.293-10.134a.512.512 0 0 1 .289-.89l15.104-1.573a.51.51 0 0 0 .415-.301L170.033.296Zm-49.002 0a.512.512 0 0 1 .936 0l6.166 13.857a.51.51 0 0 0 .415.301l15.104 1.572a.512.512 0 0 1 .289.89l-11.293 10.135a.512.512 0 0 0-.159.488l3.17 14.827a.512.512 0 0 1-.757.55l-13.147-7.592a.511.511 0 0 0-.512 0l-13.147 7.592a.512.512 0 0 1-.757-.55l3.17-14.827a.512.512 0 0 0-.159-.488L99.058 16.917a.512.512 0 0 1 .288-.89l15.105-1.573a.513.513 0 0 0 .415-.301L121.031.296Zm98 0a.512.512 0 0 1 .936 0l6.166 13.857a.51.51 0 0 0 .415.301l15.104 1.572a.512.512 0 0 1 .289.89l-11.293 10.135a.512.512 0 0 0-.159.488l3.17 14.827a.512.512 0 0 1-.757.55l-13.147-7.592a.511.511 0 0 0-.512 0l-13.147 7.592a.512.512 0 0 1-.757-.55l3.17-14.827a.512.512 0 0 0-.159-.488l-11.293-10.134a.512.512 0 0 1 .29-.89l15.104-1.573a.513.513 0 0 0 .415-.301L219.031.296Z"/></svg>