<svg width="33" height="33" fill="none" xmlns="http://www.w3.org/2000/svg"><path fill-rule="evenodd" clip-rule="evenodd" d="M15.88 32c-7.014 0-10.522 0-12.7-2.18C1 27.643 1 24.135 1 17.12v-1.24C1 8.865 1 5.358 3.18 3.179 5.357 1 8.865 1 15.88 1h1.24c7.014 0 10.522 0 12.7 2.179C32 5.359 32 8.865 32 15.879v1.24c0 7.015 0 10.523-2.18 12.702C27.643 32 24.135 32 17.12 32h-1.24Zm-8.261-7.247a1.87 1.87 0 0 1-1.421-1.813V12.845a1.5 1.5 0 0 1 1.868-1.45l3.786.946v-1.82a1.5 1.5 0 0 1 1.868-1.45l3.785.945v-1.82a1.5 1.5 0 0 1 1.869-1.45l6.007 1.5a1.87 1.87 0 0 1 1.421 1.813v10.096a1.5 1.5 0 0 1-1.868 1.45l-2.075-.518-.019-.005a.607.607 0 0 1-.44-.563l-.261-7.71c-.076-1.02-.833-1.832-1.625-2.07a.107.107 0 0 0-.118.042.09.09 0 0 0 .02.122 1.9 1.9 0 0 1 .734 1.497l-.001 10.08a1.5 1.5 0 0 1-1.869 1.45l-2.126-.532a.61.61 0 0 1-.409-.555l-.261-7.71c-.076-1.02-.833-1.832-1.625-2.071a.107.107 0 0 0-.118.043.09.09 0 0 0 .02.121c.196.152.734.645.734 1.497l-.001 8.257.984.25-.983-.246v1.82a1.5 1.5 0 0 1-1.869 1.45l-6.007-1.5Z" fill="#2B71F6"/></svg>