<svg width="24" height="24" viewBox="0 0 24 24" fill="none" xmlns="http://www.w3.org/2000/svg">
<path fill-rule="evenodd" clip-rule="evenodd" d="M3.91214 3.15154C5.27445 1.96358 7.67324 1.3675 9.41116 3.00016L20.4517 13.372C21.6295 14.4785 22.0862 15.7994 21.9868 17.0791C21.8891 18.3372 21.2597 19.5091 20.3545 20.3854C19.4492 21.2617 18.2218 21.8865 16.8749 21.9861C15.5031 22.0876 14.0868 21.637 12.8703 20.4942L2.25736 10.5241C1.91421 10.2017 1.91421 9.67903 2.25736 9.35666C2.60051 9.03429 3.15687 9.03429 3.50002 9.35666L14.113 19.3268C14.9859 20.1469 15.9053 20.4018 16.737 20.3403C17.5936 20.2769 18.4377 19.8703 19.0933 19.2356C19.749 18.6009 20.1701 17.7821 20.2341 16.959C20.2963 16.1576 20.0257 15.3066 19.2091 14.5394L8.1685 4.16755C7.34183 3.39095 6.06034 3.53085 5.10773 4.36154C4.65152 4.75936 4.36935 5.25079 4.31433 5.72464C4.26266 6.1696 4.3997 6.67894 4.94744 7.19351L13.8985 15.6024C14.2544 15.9368 14.5407 15.9995 14.7162 15.9952C14.9026 15.9907 15.0939 15.908 15.2513 15.7423C15.5723 15.4045 15.6473 14.8514 15.1726 14.4055L11.0176 10.5021C10.6744 10.1797 10.6744 9.65708 11.0176 9.33471C11.3607 9.01235 11.9171 9.01235 12.2603 9.33471L16.4153 13.2381C17.6264 14.3759 17.4283 15.9306 16.5622 16.8419C16.1261 17.3008 15.4952 17.6279 14.7616 17.6456C14.017 17.6637 13.2853 17.3611 12.6559 16.7698L3.70478 8.36091C2.80411 7.51479 2.45433 6.51846 2.56731 5.54559C2.67693 4.60161 3.21088 3.76305 3.91214 3.15154Z" fill="black"/>
</svg>
