<svg width="24" height="24" viewBox="0 0 24 24" fill="none" xmlns="http://www.w3.org/2000/svg">
<path d="M14.6165 2C16.8063 2 17.8508 2.20172 18.9359 2.78202C19.9174 3.30692 20.6931 4.08262 21.218 5.06409C21.7983 6.14916 22 7.19374 22 9.38355V14.6165C22 16.8063 21.7983 17.8508 21.218 18.9359C20.6931 19.9174 19.9174 20.6931 18.9359 21.218C17.8508 21.7983 16.8063 22 14.6165 22H9.38355C7.19374 22 6.14916 21.7983 5.06409 21.218C4.08262 20.6931 3.30692 19.9174 2.78202 18.9359C2.20172 17.8508 2 16.8063 2 14.6165V9.38355C2 7.19374 2.20172 6.14916 2.78202 5.06409C3.30692 4.08262 4.08262 3.30692 5.06409 2.78202C6.14916 2.20172 7.19374 2 9.38355 2H14.6165ZM14.6165 3.81818H9.38355C7.46822 3.81818 6.7072 3.96514 5.92154 4.38532C5.25692 4.74076 4.74076 5.25692 4.38532 5.92154C3.96514 6.7072 3.81818 7.46822 3.81818 9.38355V14.6165C3.81818 16.5318 3.96514 17.2928 4.38532 18.0785C4.74076 18.7431 5.25692 19.2592 5.92154 19.6147C6.7072 20.0349 7.46822 20.1818 9.38355 20.1818H14.6165C16.5318 20.1818 17.2928 20.0349 18.0785 19.6147C18.7431 19.2592 19.2592 18.7431 19.6147 18.0785C20.0349 17.2928 20.1818 16.5318 20.1818 14.6165V9.38355C20.1818 7.46822 20.0349 6.7072 19.6147 5.92154C19.2592 5.25692 18.7431 4.74076 18.0785 4.38532C17.2928 3.96514 16.5318 3.81818 14.6165 3.81818Z" fill="#272B37"/>
</svg>
