<svg width="24" height="24" viewBox="0 0 24 24" fill="none" xmlns="http://www.w3.org/2000/svg">
<path fill-rule="evenodd" clip-rule="evenodd" d="M16.4944 1.04785C17.0529 1.04785 17.5056 1.50282 17.5056 2.06405V2.95747C18.1038 3.03268 18.6426 3.16835 19.1473 3.42672C20.1303 3.93009 20.9296 4.7333 21.4305 5.72121C21.7449 6.34121 21.8767 7.01269 21.9392 7.78158C22 8.52916 22 9.45302 22 10.6016V15.2055C22 16.3541 22 17.2779 21.9392 18.0255C21.8767 18.7944 21.7449 19.4659 21.4305 20.0859C20.9296 21.0738 20.1303 21.877 19.1473 22.3804C18.5303 22.6963 17.8621 22.8287 17.0969 22.8916C16.353 22.9526 15.4337 22.9526 14.2907 22.9526H9.70933C8.56632 22.9526 7.64698 22.9526 6.90306 22.8916C6.13791 22.8287 5.46972 22.6963 4.85275 22.3804C3.86965 21.877 3.07037 21.0738 2.56946 20.0859C2.2551 19.4659 2.12328 18.7944 2.06076 18.0255C1.99998 17.2779 1.99999 16.3541 2 15.2055V10.6016C1.99999 9.45302 1.99998 8.52916 2.06076 7.78158C2.12328 7.01269 2.2551 6.34121 2.56946 5.72121C3.07037 4.7333 3.86965 3.93009 4.85275 3.42672C5.35736 3.16835 5.89623 3.03269 6.49438 2.95747V2.06405C6.49438 1.50282 6.94713 1.04785 7.50562 1.04785C8.06411 1.04785 8.51685 1.50282 8.51685 2.06405V2.85767C8.88465 2.85446 9.28126 2.85446 9.70923 2.85447H9.70933H14.2907H14.2908C14.7187 2.85446 15.1154 2.85446 15.4831 2.85767V2.06405C15.4831 1.50282 15.9359 1.04785 16.4944 1.04785ZM6.49438 5.0118V5.6772C6.49438 6.23843 6.94713 6.6934 7.50562 6.6934C8.06411 6.6934 8.51685 6.23843 8.51685 5.6772V4.89022C8.88183 4.88698 9.29045 4.88687 9.75281 4.88687H14.2472C14.7096 4.88687 15.1182 4.88698 15.4831 4.89022V5.6772C15.4831 6.23843 15.9359 6.6934 16.4944 6.6934C17.0529 6.6934 17.5056 6.23843 17.5056 5.6772V5.0118C17.8184 5.06703 18.0427 5.14215 18.2291 5.2376C18.8316 5.54612 19.3215 6.0384 19.6285 6.6439C19.7734 6.92964 19.8712 7.30387 19.9235 7.94709C19.9603 8.39975 19.972 8.94107 19.9758 9.62912H4.02422C4.02797 8.94107 4.03972 8.39975 4.07652 7.94709C4.12882 7.30387 4.22662 6.92964 4.3715 6.6439C4.67851 6.0384 5.16839 5.54612 5.77093 5.2376C5.95735 5.14215 6.18163 5.06703 6.49438 5.0118ZM4.02247 11.6615H19.9775V15.1618C19.9775 16.3642 19.9767 17.2049 19.9235 17.86C19.8712 18.5032 19.7734 18.8774 19.6285 19.1632C19.3215 19.7687 18.8316 20.261 18.2291 20.5695C17.9447 20.7151 17.5723 20.8134 16.9323 20.8659C16.2804 20.9194 15.4438 20.9202 14.2472 20.9202H9.75281C8.55624 20.9202 7.71963 20.9194 7.06775 20.8659C6.42768 20.8134 6.05527 20.7151 5.77093 20.5695C5.16839 20.261 4.67851 19.7687 4.3715 19.1632C4.22662 18.8774 4.12882 18.5032 4.07652 17.86C4.02326 17.2049 4.02247 16.3642 4.02247 15.1618V11.6615ZM15.9326 18.549C16.8634 18.549 17.618 17.7908 17.618 16.8554C17.618 15.92 16.8634 15.1617 15.9326 15.1617C15.0018 15.1617 14.2472 15.92 14.2472 16.8554C14.2472 17.7908 15.0018 18.549 15.9326 18.549Z" fill="black"/>
</svg>
