<svg width="24" height="24" viewBox="0 0 24 24" fill="none" xmlns="http://www.w3.org/2000/svg">
<path fill-rule="evenodd" clip-rule="evenodd" d="M7.30381 3.86373C7.4858 3.48277 7.87046 3.24023 8.29266 3.24023H15.7221C16.1357 3.24023 16.514 3.47307 16.7004 3.84227L17.6794 5.7817H19.5342C20.896 5.7817 22 6.88566 22 8.24746V18.294C22 19.6558 20.896 20.7598 19.5342 20.7598H4.46575C3.10396 20.7598 2 19.6558 2 18.294V8.24746C2 6.88566 3.10396 5.7817 4.46575 5.7817H6.38756L7.30381 3.86373ZM5.80479 7.00161H4.46876C3.78786 7.00161 3.23589 7.55358 3.23589 8.23448V18.273C3.23589 18.9539 3.78786 19.5059 4.46876 19.5059H19.5312C20.2121 19.5059 20.7641 18.9539 20.7641 18.273V8.23448C20.7641 7.55358 20.2121 7.00161 19.5312 7.00161H18.2952L18.2964 7.00388H17.0106L15.9957 5.06927C15.8064 4.70848 15.4326 4.48248 15.0252 4.48248H8.97696C8.56749 4.48248 8.19217 4.71076 8.00385 5.07436L7.00449 7.00388H5.8037L5.80479 7.00161Z" fill="black"/>
<path fill-rule="evenodd" clip-rule="evenodd" d="M12 18.2615C14.7571 18.2615 16.9922 16.0264 16.9922 13.2694C16.9922 10.5123 14.7571 8.27716 12 8.27716C9.24288 8.27716 7.00783 10.5123 7.00783 13.2694C7.00783 16.0264 9.24288 18.2615 12 18.2615ZM12 17.021C14.072 17.021 15.7517 15.3413 15.7517 13.2694C15.7517 11.1973 14.072 9.51766 12 9.51766C9.92802 9.51766 8.24833 11.1973 8.24833 13.2694C8.24833 15.3413 9.92802 17.021 12 17.021Z" fill="black"/>
</svg>
