<svg width="24" height="24" viewBox="0 0 24 24" fill="none" xmlns="http://www.w3.org/2000/svg">
<path d="M2 15.6195V8.46942C2.02985 8.15539 2.05916 7.84192 2.0879 7.529C2.32176 4.90679 3.82941 3.0127 6.34879 2.28292C6.95362 2.10711 7.7033 2.01589 8.59782 2.00926C10.8115 1.99488 13.0058 1.99322 15.1807 2.00428C16.3998 2.00926 17.6603 2.13531 18.7483 2.68098C20.3195 3.47046 21.3224 4.73375 21.757 6.47083C21.9118 7.09114 21.9908 7.80267 21.9942 8.60542C22.0041 10.9451 22.0013 13.287 21.9859 15.6312C21.9593 19.5155 19.508 21.9354 15.6219 21.9802C13.7289 22.0012 11.6629 22.0073 9.4238 21.9984C8.04718 21.9918 6.61582 21.9553 5.37189 21.3615C3.49604 20.4676 2.38147 18.8289 2.12439 16.7689C2.07685 16.3875 2.03538 16.0043 2 15.6195ZM20.1866 8.01762C20.1886 6.91132 19.7509 5.84957 18.97 5.06593C18.1891 4.2823 17.1289 3.84097 16.0226 3.83903L8.02163 3.82507C6.91534 3.82314 5.85358 4.26076 5.06994 5.04167C4.28631 5.82258 3.84498 6.8828 3.84305 7.98909L3.82908 15.9901C3.82715 17.0964 4.26478 18.1581 5.04568 18.9418C5.82659 19.7254 6.88681 20.1667 7.99311 20.1687L15.9941 20.1826C17.1004 20.1846 18.1621 19.7469 18.9458 18.966C19.7294 18.1851 20.1707 17.1249 20.1727 16.0186L20.1866 8.01762Z" fill="black"/>
<path d="M11.5269 13.9145C11.5348 13.9217 11.5442 13.9271 11.5543 13.9305C11.5645 13.9338 11.5752 13.9349 11.5859 13.9338C11.5965 13.9328 11.6068 13.9294 11.6161 13.9241C11.6253 13.9188 11.6334 13.9116 11.6397 13.9029C13.1346 11.8784 14.6273 9.85546 16.1178 7.8342C16.9853 6.65661 18.7367 7.87069 17.8113 9.12955C15.8608 11.7833 13.9075 14.4331 11.9515 17.0791C11.9216 17.1189 11.8885 17.1222 11.852 17.0891C10.095 15.5013 8.2678 13.8548 6.37038 12.1498C5.2044 11.1016 6.66395 9.52927 7.76359 10.5244C8.99425 11.639 10.2487 12.769 11.5269 13.9145Z" fill="black"/>
</svg>
