<svg width="24" height="24" viewBox="0 0 24 24" fill="none" xmlns="http://www.w3.org/2000/svg">
<path fill-rule="evenodd" clip-rule="evenodd" d="M4.42123 4.42179C4.98288 3.85941 5.8935 3.8594 6.45515 4.42178L12.201 10.175L17.5448 4.82424C18.1065 4.26186 19.0171 4.26186 19.5788 4.82424C20.1404 5.38662 20.1404 6.29841 19.5788 6.86079L14.2349 12.2116L19.558 17.5417C20.1197 18.104 20.1197 19.0158 19.558 19.5782C18.9964 20.1406 18.0858 20.1406 17.5241 19.5782L12.201 14.2482L6.89857 19.5575C6.33692 20.1198 5.42631 20.1198 4.86466 19.5575C4.30301 18.9951 4.30301 18.0833 4.86466 17.5209L10.1671 12.2116L4.42124 6.45835C3.85959 5.89597 3.85959 4.98417 4.42123 4.42179Z" fill="black"/>
</svg>
