<svg width="24" height="24" viewBox="0 0 24 24" fill="none" xmlns="http://www.w3.org/2000/svg">
<path fill-rule="evenodd" clip-rule="evenodd" d="M4.40234 4.07565C4.40234 2.92918 5.33314 2 6.47799 2H13.7233C14.2552 2 14.7676 2.20432 15.1535 2.56999L18.9513 6.17238C19.3632 6.5648 19.5967 7.10885 19.5967 7.67803V19.9244C19.5967 21.0708 18.6659 22 17.5211 22H6.47799C5.33314 22 4.40234 21.0708 4.40234 19.9244V4.07565ZM5.54071 3.98484C5.54071 3.52593 5.91367 3.15458 6.37097 3.15458H13.4963V6.43508C13.4963 7.23752 14.1468 7.88803 14.9492 7.88803H18.4551V19.9373C18.4551 20.3962 18.0854 20.7676 17.6249 20.7676H6.37097C5.91367 20.7676 5.54071 20.3962 5.54071 19.9373V3.98484ZM17.8182 6.64264L14.7417 3.75645V6.43508C14.7417 6.54971 14.8346 6.64264 14.9492 6.64264H17.8182Z" fill="black"/>
<path fill-rule="evenodd" clip-rule="evenodd" d="M6.98069 10.3869C6.98069 10.043 7.25948 9.76422 7.60338 9.76422L16.1427 9.76422C16.4866 9.76422 16.7654 10.043 16.7654 10.3869C16.7654 10.7308 16.4866 11.0096 16.1427 11.0096L7.60338 11.0096C7.25948 11.0096 6.98069 10.7308 6.98069 10.3869Z" fill="black"/>
<path fill-rule="evenodd" clip-rule="evenodd" d="M6.98069 13.5709C6.98069 13.227 7.25948 12.9482 7.60338 12.9482L16.1427 12.9482C16.4866 12.9482 16.7654 13.227 16.7654 13.5709C16.7654 13.9148 16.4866 14.1936 16.1427 14.1936L7.60338 14.1936C7.25948 14.1936 6.98069 13.9148 6.98069 13.5709Z" fill="black"/>
<path fill-rule="evenodd" clip-rule="evenodd" d="M6.98069 13.5709C6.98069 13.227 7.25948 12.9482 7.60338 12.9482L16.1427 12.9482C16.4866 12.9482 16.7654 13.227 16.7654 13.5709C16.7654 13.9148 16.4866 14.1936 16.1427 14.1936L7.60338 14.1936C7.25948 14.1936 6.98069 13.9148 6.98069 13.5709Z" fill="black"/>
<path fill-rule="evenodd" clip-rule="evenodd" d="M6.98069 16.6544C6.98069 16.3105 7.25948 16.0317 7.60338 16.0317H10.412C10.7559 16.0317 11.0347 16.3105 11.0347 16.6544C11.0347 16.9983 10.7559 17.2771 10.412 17.2771H7.60338C7.25948 17.2771 6.98069 16.9983 6.98069 16.6544Z" fill="black"/>
<path fill-rule="evenodd" clip-rule="evenodd" d="M6.98069 16.6544C6.98069 16.3105 7.25948 16.0317 7.60338 16.0317H10.412C10.7559 16.0317 11.0347 16.3105 11.0347 16.6544C11.0347 16.9983 10.7559 17.2771 10.412 17.2771H7.60338C7.25948 17.2771 6.98069 16.9983 6.98069 16.6544Z" fill="black"/>
</svg>
