<svg width="24" height="24" viewBox="0 0 24 24" fill="none" xmlns="http://www.w3.org/2000/svg">
<path d="M2 15.785V8.30149C2.03207 7.96859 2.06691 7.63625 2.10451 7.30446C2.40313 4.70819 4.04217 2.85514 6.5472 2.22805C7.13115 2.08207 7.855 2.00686 8.71877 2.00244C10.84 1.99138 13.0226 1.99138 15.2667 2.00244C16.2753 2.00741 17.4631 2.11524 18.3938 2.51505C20.2186 3.29919 21.3617 4.70211 21.8229 6.72382C21.9334 7.20602 21.991 7.9249 21.9954 8.88046C22.0042 11.2439 22.0004 13.525 21.9838 15.7237C21.9605 18.6716 20.4111 21.024 17.4648 21.7639C16.8786 21.911 16.0442 21.9884 14.9614 21.9962C12.6931 22.0127 10.5016 22.0078 8.38698 21.9812C7.53261 21.9696 6.48913 21.8303 5.69781 21.5035C3.58928 20.6308 2.33179 18.8939 2.09788 16.6178C2.06912 16.3391 2.0365 16.0615 2 15.785ZM20.1908 8.01548C20.1927 6.90849 19.7548 5.84608 18.9734 5.06195C18.192 4.27782 17.1311 3.83622 16.0241 3.83429L8.02134 3.82032C6.91435 3.81839 5.85194 4.25629 5.06781 5.03768C4.28368 5.81908 3.84208 6.87996 3.84015 7.98695L3.82618 15.9897C3.82425 17.0967 4.26215 18.1592 5.04354 18.9433C5.82494 19.7274 6.88582 20.169 7.99281 20.1709L15.9956 20.1849C17.1026 20.1868 18.165 19.7489 18.9491 18.9676C19.7333 18.1862 20.1749 17.1253 20.1768 16.0183L20.1908 8.01548Z" fill="#272B37"/>
<path d="M7.01323 14.9506L15.6481 6.31572C15.6587 6.30519 15.673 6.29927 15.6879 6.29927C15.7028 6.29927 15.7172 6.30519 15.7277 6.31572L17.6803 8.27495C17.6908 8.28552 17.6968 8.29984 17.6968 8.31476C17.6968 8.32969 17.6908 8.34401 17.6803 8.35458L9.06702 16.9679C9.05647 16.9785 9.04215 16.9844 9.0272 16.9845L7.05471 16.9778C7.03975 16.9778 7.0254 16.9719 7.01482 16.9613C7.00425 16.9507 6.9983 16.9364 6.9983 16.9214L6.99664 14.9904C6.99668 14.9755 7.00265 14.9611 7.01323 14.9506Z" fill="#272B37"/>
</svg>
