<svg width="24" height="24" viewBox="0 0 24 24" fill="none" xmlns="http://www.w3.org/2000/svg">
<path d="M12 14.2559C13.2451 14.2559 14.2549 13.2461 14.2549 11.9998C14.2549 11.3552 13.9853 10.7743 13.5539 10.3625C13.1471 9.97894 12.6029 9.74364 12 9.74364C10.7549 9.74364 9.7451 10.7534 9.7451 11.9998C9.7451 13.2461 10.7549 14.2559 12 14.2559Z" fill="black"/>
<path fill-rule="evenodd" clip-rule="evenodd" d="M22 11.9998C22 12.1566 21.8775 12.4262 21.6471 12.7669C20.4902 14.4826 16.6078 18.0034 12 18.0034C8.55882 18.0034 5.51961 16.0083 3.72059 14.2951C2.63725 13.2596 2 12.327 2 11.9998C2 11.1309 6.47549 5.99609 12 5.99609C17.5245 5.99609 22 11.0537 22 11.9998ZM16.201 11.9998C16.201 12.9606 15.8775 13.8466 15.3333 14.5549C14.5686 15.5561 13.3578 16.2008 12 16.2008C9.68137 16.2008 7.79902 14.3196 7.79902 11.9998C7.79902 9.67992 9.68137 7.79879 12 7.79879C14.3186 7.79879 16.201 9.67992 16.201 11.9998Z" fill="black"/>
</svg>
