<svg xmlns="http://www.w3.org/2000/svg" fill="currentColor" viewBox="0 0 24 24">
  <path d="M11.568 2h1.035c.133.02.265.04.398.056.138.017.27.038.396.064 1.13.233 2.11.698 2.938 1.395 1.579 1.33 2.375 3.047 2.39 5.155a.764.764 0 0 1-.022.186c-.018.073-.004.168-.011.248a6.47 6.47 0 0 1-1.061 3 .043.043 0 0 0-.002.048l3.679 6.615c.024.044.032.118.023.223-.027.34-.33.51-.66.425l-2.953-.76a.028.028 0 0 0-.033.017l-1.11 2.998a.455.455 0 0 1-.308.295c-.292.087-.497-.018-.635-.266-1.237-2.23-2.437-4.388-3.599-6.475-.018-.033-.037-.033-.055 0l-3.627 6.521a.507.507 0 0 1-.75.15.542.542 0 0 1-.18-.256c-.345-.937-.709-1.92-1.09-2.95-.01-.025-.026-.034-.052-.028l-3.026.775a.488.488 0 0 1-.229-.013c-.228-.074-.346-.226-.356-.456a.535.535 0 0 1 .077-.28c1.178-2.132 2.342-4.227 3.491-6.287.072-.128.136-.254.194-.377a.051.051 0 0 0-.003-.052A6.43 6.43 0 0 1 5.481 9.3a9.054 9.054 0 0 1-.052-.79c-.005-.145.03-.28.022-.424a1.11 1.11 0 0 1 .007-.193c.186-1.588.837-2.926 1.952-4.015.93-.906 2.047-1.493 3.355-1.76.126-.025.261-.046.404-.063.134-.017.266-.035.399-.055Zm6.144 6.53a5.5 5.5 0 0 0-1.651-3.921 5.684 5.684 0 0 0-3.986-1.624 5.684 5.684 0 0 0-3.986 1.624 5.5 5.5 0 0 0-1.65 3.92 5.5 5.5 0 0 0 1.65 3.922 5.684 5.684 0 0 0 3.986 1.624 5.684 5.684 0 0 0 3.986-1.624 5.5 5.5 0 0 0 1.65-3.921Zm-6.772 6.44a6.725 6.725 0 0 1-3.188-1.47c-.215-.183-.416-.391-.611-.59-.018-.018-.033-.016-.045.006l-2.91 5.234a.014.014 0 0 0 .001.016.016.016 0 0 0 .016.005c.715-.184 1.478-.38 2.291-.586.252-.064.517.049.605.286l.878 2.38a.026.026 0 0 0 .023.017.026.026 0 0 0 .025-.013l2.929-5.257a.02.02 0 0 0 .002-.009c0-.003 0-.006-.002-.008a.019.019 0 0 0-.014-.01Zm5.072 5.304c.292-.767.576-1.542.863-2.313.067-.181.165-.32.362-.378a.647.647 0 0 1 .337.017 233.779 233.779 0 0 0 2.234.568.012.012 0 0 0 .006-.004.012.012 0 0 0 .001-.014l-2.845-5.112c-.02-.038-.046-.04-.076-.01-1.032 1.063-2.295 1.718-3.791 1.964-.031.005-.04.021-.024.048l2.906 5.236a.014.014 0 0 0 .006.006.015.015 0 0 0 .008.001.015.015 0 0 0 .013-.009Z"/>
</svg>
