<svg width="24" height="24" viewBox="0 0 24 24" fill="none" xmlns="http://www.w3.org/2000/svg">
<path fill-rule="evenodd" clip-rule="evenodd" d="M4.10547 5.68406C4.10547 4.98643 4.671 4.4209 5.36863 4.4209H18.6318C19.3294 4.4209 19.8949 4.98643 19.8949 5.68406C19.8949 6.38168 19.3294 6.94721 18.6318 6.94721H5.36863C4.671 6.94721 4.10547 6.38168 4.10547 5.68406ZM4.10547 11.9998C4.10547 11.3022 4.671 10.7367 5.36863 10.7367H18.6318C19.3294 10.7367 19.8949 11.3022 19.8949 11.9998C19.8949 12.6975 19.3294 13.263 18.6318 13.263H5.36863C4.671 13.263 4.10547 12.6975 4.10547 11.9998ZM4.10547 18.3156C4.10547 17.618 4.671 17.0525 5.36863 17.0525H18.6318C19.3294 17.0525 19.8949 17.618 19.8949 18.3156C19.8949 19.0133 19.3294 19.5788 18.6318 19.5788H5.36863C4.671 19.5788 4.10547 19.0133 4.10547 18.3156Z" fill="black"/>
</svg>
