<svg width="24" height="24" viewBox="0 0 24 24" fill="none" xmlns="http://www.w3.org/2000/svg">
<path d="M17.0918 16.9169C17.0293 16.9169 16.9877 16.9586 16.9877 17.0211C16.9877 17.0836 17.0293 17.1252 17.0918 17.1252C17.1543 17.1252 17.196 17.0836 17.196 17.0211C17.196 16.9794 17.1543 16.9169 17.0918 16.9169Z" fill="black"/>
<path d="M17.447 17.9375C17.447 18 17.4886 18.0417 17.5511 18.0417C17.6136 18.0417 17.6553 18 17.6553 17.9375C17.6553 17.875 17.6136 17.8333 17.5511 17.8333C17.4886 17.8333 17.447 17.875 17.447 17.9375Z" fill="black"/>
<path d="M17.0918 17.8333C17.0293 17.8333 16.9877 17.875 16.9877 17.9375C16.9877 18 17.0293 18.0417 17.0918 18.0417C17.1543 18.0417 17.196 18 17.196 17.9375C17.196 17.875 17.1543 17.8333 17.0918 17.8333Z" fill="black"/>
<path d="M17.9043 17.9374C17.9043 17.9999 17.9459 18.0416 18.0084 18.0416C18.0709 18.0416 18.1126 17.9999 18.1126 17.9374C18.1126 17.8749 18.0709 17.8333 18.0084 17.8333C17.9459 17.8333 17.9043 17.8749 17.9043 17.9374Z" fill="black"/>
<path d="M16.9463 15.8958L16.9672 16.1666L16.738 16.1458V16.4375L16.9672 16.3958L16.9463 16.6666H17.238L17.2172 16.3958L17.4463 16.4375V16.1458L17.2172 16.1666L17.238 15.8958H16.9463Z" fill="black"/>
<path d="M17.2801 16.8336V17.7711H18.1759C18.1134 17.2919 17.7384 16.9169 17.2801 16.8336Z" fill="black"/>
<path d="M17.0918 17.3754C17.0293 17.3754 16.9877 17.417 16.9877 17.4795C16.9877 17.542 17.0293 17.5837 17.0918 17.5837C17.1543 17.5837 17.196 17.542 17.196 17.4795C17.196 17.417 17.1543 17.3754 17.0918 17.3754Z" fill="black"/>
<path d="M17.4667 18.5628C17.4459 18.5628 17.3626 18.792 17.4459 18.9587C17.4876 19.042 17.5709 19.0837 17.6542 19.0628C17.7376 19.042 17.7584 18.9587 17.7584 18.917C17.7376 18.7295 17.5917 18.5628 17.4667 18.5628Z" fill="black"/>
<path d="M16.7178 18.5628C16.5928 18.5628 16.4469 18.7295 16.4469 18.917C16.4469 18.9795 16.4678 19.042 16.5511 19.0628C16.6344 19.0837 16.7178 19.042 16.7594 18.9587C16.8011 18.792 16.7386 18.5628 16.7178 18.5628Z" fill="black"/>
<path d="M17.0922 18.4376C17.0089 18.4376 16.7589 18.9168 16.9464 19.1459C16.9881 19.1876 17.0297 19.2084 17.0922 19.2084C17.1547 19.2084 17.2172 19.1876 17.2381 19.1459C17.4047 18.9168 17.1756 18.4376 17.0922 18.4376Z" fill="black"/>
<path d="M15.9877 17.9375C15.9877 17.8333 16.0086 17.75 16.0086 17.75H16.9044V16.8125C16.4669 16.8958 16.1127 17.2292 16.0086 17.6667C15.9877 17.7083 15.9044 17.7292 15.8419 17.7083C15.5086 17.6667 14.8419 17.5417 14.8419 17.3958C14.8419 17.1875 14.9878 17.1042 15.1128 17.1042C15.3002 17.1042 15.5086 17.2083 15.6752 16.9583C15.0711 16.9792 15.5294 16.1042 15.0294 15.9375C15.0503 16.1667 15.0294 16.5625 14.9461 16.7708C14.9461 16.7708 14.7586 16.5833 14.5711 16.5C14.5919 16.6667 14.5503 17 14.4878 17.1667C14.4878 17.1667 14.2794 16.9583 14.0503 16.8958C14.2586 17.1875 14.2586 17.625 14.1961 17.875C14.1753 17.9583 14.2378 18.0417 14.3836 18.0417C14.6336 18.0208 15.4669 18.0625 15.8211 18.2083C15.9252 18.25 16.0294 18.3125 16.0711 18.3958C16.1127 18.5 16.1961 18.6667 16.3211 18.75C16.3836 18.5625 16.5919 18.3542 16.7377 18.375C16.7794 18.375 16.8211 18.4583 16.8419 18.5208C16.8627 18.4583 16.9669 18.2708 17.0711 18.2708C17.1752 18.2708 17.2794 18.4167 17.3211 18.5417C17.3419 18.4583 17.3836 18.375 17.4252 18.375C17.5711 18.375 17.7586 18.5 17.821 18.7292C17.8835 18.6667 18.1335 18.3333 18.1544 18.1042H15.9877C15.9877 18.125 15.9877 18.0417 15.9877 17.9375Z" fill="black"/>
<path d="M16.5297 17.9375C16.5297 18 16.5714 18.0417 16.6339 18.0417C16.6964 18.0417 16.7381 18 16.7381 17.9375C16.7381 17.875 16.6964 17.8333 16.6339 17.8333C16.5714 17.8333 16.5297 17.875 16.5297 17.9375Z" fill="black"/>
<path d="M16.0918 17.9375C16.0918 18 16.1334 18.0417 16.1959 18.0417C16.2584 18.0417 16.3001 18 16.3001 17.9375C16.3001 17.875 16.2584 17.8333 16.1959 17.8333C16.1334 17.8333 16.0918 17.875 16.0918 17.9375Z" fill="black"/>
<path d="M7.46781 18.3959C7.42615 18.4376 7.34281 18.6668 7.38448 18.8126C7.40531 18.8751 7.42615 18.8959 7.48864 18.8959C7.55114 18.8959 7.57198 18.8543 7.59281 18.7918C7.61364 18.6459 7.50948 18.4168 7.46781 18.3959Z" fill="black"/>
<path d="M8.23785 19.0419C8.19619 19.1044 8.13369 19.1252 8.11286 19.146C8.13369 19.1669 8.19619 19.2085 8.25869 19.2085C8.30035 19.2085 8.34202 19.1877 8.36285 19.1669C8.42535 19.0419 8.36285 18.9377 8.34202 18.896C8.32119 18.9377 8.30035 19.0002 8.23785 19.0419Z" fill="black"/>
<path d="M7.94625 18.7502C8.02959 18.6668 8.05042 18.6043 8.02959 18.5627C8.00875 18.5002 7.82126 18.3127 7.61292 18.0835C7.61292 18.1252 7.59209 18.1668 7.59209 18.2085C7.73792 18.4168 7.80042 18.6252 7.75876 18.8127C7.77959 18.8335 7.77959 18.8335 7.80042 18.8335C7.84209 18.8752 7.90459 18.8127 7.94625 18.7502Z" fill="black"/>
<path d="M8.23732 18.7709C8.23732 18.7292 8.23732 18.7084 8.21649 18.6875H8.19565C8.17482 18.6875 8.15399 18.7292 8.13316 18.75C8.11232 18.7709 8.09149 18.8125 8.04982 18.8542C8.00816 18.8959 7.98732 18.9167 7.94566 18.9584C7.90399 18.9792 7.88316 19.0209 7.88316 19.0417C7.88316 19.0417 7.88316 19.0417 7.88316 19.0625C7.90399 19.0834 7.90399 19.0834 7.92482 19.0834C7.94566 19.0834 8.00816 19.0625 8.11232 18.9584C8.21649 18.8542 8.23732 18.8125 8.23732 18.7709Z" fill="black"/>
<path d="M6.86336 17.6667C6.86336 17.6667 6.84253 17.6875 6.8217 17.7292C6.86336 17.7292 6.92586 17.7292 6.96753 17.75C6.96753 17.7083 6.96753 17.6458 6.96753 17.6042C6.92586 17.6042 6.8842 17.6458 6.86336 17.6667Z" fill="black"/>
<path d="M7.42552 17.7294C7.42552 17.7294 7.86301 18.1044 8.00884 18.2502C8.05051 18.2919 8.09217 18.2919 8.13384 18.2711C8.15467 18.2502 8.19634 18.2502 8.238 18.2294C8.6755 18.0836 9.38382 18.0627 9.63382 18.0627C9.80048 18.0627 9.84215 17.9794 9.82132 17.8961C9.77965 17.6461 9.75882 17.2086 9.96715 16.9169C9.73798 17.0002 9.52965 17.1877 9.52965 17.1877C9.44632 17.0419 9.42549 16.6877 9.44632 16.5211C9.23799 16.5836 9.07133 16.7919 9.07133 16.7919C8.98799 16.5836 8.96716 16.1877 8.98799 15.9586C8.488 16.1252 8.94633 17.0211 8.34217 16.9794C8.50883 17.2294 8.71717 17.1252 8.90466 17.1252C9.02966 17.1252 9.19633 17.2086 9.17549 17.4169C9.15466 17.5627 8.34217 17.7294 8.00884 17.7294C7.77968 17.7294 7.61301 17.6669 7.50885 17.5002C7.44635 17.4169 7.40468 17.3961 7.34218 17.3961C7.25885 17.4169 7.17552 17.4794 7.17552 17.6877C7.17552 17.8127 7.23802 18.1044 7.38385 18.1044C7.46718 18.1252 7.46718 17.8752 7.42552 17.7294Z" fill="black"/>
<path d="M6.59172 17.6041C6.61255 17.6041 6.63338 17.6041 6.65422 17.6041C6.59172 17.6875 6.59172 17.75 6.61255 17.7708C6.65422 17.8125 6.67505 17.7291 6.77922 17.625C6.88338 17.5208 6.94588 17.4791 6.92505 17.4375C6.90421 17.4166 6.84171 17.4166 6.75838 17.4791C6.75838 17.4583 6.77921 17.4375 6.75838 17.4166C6.71672 17.3125 6.57088 17.1875 6.46672 17.1875C6.44589 17.1875 6.44589 17.1875 6.42505 17.1875C6.46672 17.125 6.44589 17.0833 6.42505 17.0416C6.40422 17.0208 6.38339 17.0416 6.34172 17.0833C6.34172 17.0625 6.34172 17.0208 6.32089 16.9791C6.19589 16.7708 5.48757 16.1041 5.3209 16.0416C5.21674 16 5.1959 16.0625 5.1959 16.0625C5.1959 16.0625 5.1334 16.1041 5.17507 16.1875C5.23757 16.3541 5.92506 17.0416 6.11256 17.1666C6.15422 17.1875 6.19589 17.2083 6.21672 17.1875C6.17506 17.2291 6.15422 17.2291 6.19589 17.2708C6.21672 17.2916 6.25839 17.3125 6.32089 17.2708C6.32089 17.2916 6.32089 17.2916 6.32089 17.3125C6.36255 17.3958 6.48755 17.5625 6.59172 17.6041Z" fill="black"/>
<path d="M7.09287 18.1041C7.09287 18.0416 6.96787 17.9166 6.80121 17.9166C6.57204 17.9166 6.46788 18.0624 6.46788 18.1458C6.46788 18.2916 6.61371 18.3124 6.65538 18.3124C6.80121 18.3124 7.07204 18.1458 7.09287 18.1041Z" fill="black"/>
<path d="M6.884 18.4584C6.8215 18.5417 6.80067 18.625 6.8215 18.6875C6.84233 18.7709 6.92567 18.8125 7.009 18.8125C7.09233 18.8125 7.17566 18.7709 7.21733 18.7084C7.30066 18.5625 7.30066 18.25 7.27983 18.2292C7.19649 18.2292 6.98816 18.3125 6.884 18.4584Z" fill="black"/>
<path d="M4.84245 15.2083C4.77995 15.1458 4.63412 15.2499 4.55078 15.1874C4.59245 14.9791 4.73828 15.1874 4.86328 15.0624C4.92578 14.9999 4.88411 14.9166 4.86328 14.8958C4.80078 14.9583 4.71745 14.9374 4.69662 14.8958C4.84245 14.5208 4.55078 14.1249 4.25912 14.1666C4.32162 14.2499 4.34245 14.5208 4.30079 14.5833C4.40495 14.6666 4.34245 14.8541 4.21746 14.7916C4.13412 14.7499 3.98829 14.5416 4.15496 14.4166C4.15496 14.3541 4.05079 14.3541 3.96746 14.4791C4.02996 14.2499 3.59246 14.3124 3.50913 14.3749C3.46747 14.4791 3.40497 14.9166 3.63413 14.8333C3.50913 14.9374 3.52996 15.0416 3.57163 15.0416C3.71746 14.8749 3.90496 14.9999 3.94663 15.0833C4.00912 15.2083 3.82163 15.2916 3.73829 15.1874C3.6758 15.2083 3.40497 15.2083 3.34247 15.1458C3.3008 15.4374 3.71746 15.7499 4.07162 15.5833C4.11329 15.5833 4.13412 15.6874 4.07162 15.7499C4.09246 15.7916 4.19662 15.8124 4.23829 15.7499C4.38412 15.6041 4.17579 15.4583 4.36329 15.4166C4.40495 15.4999 4.32162 15.6458 4.38412 15.7083C4.48829 15.8124 4.61328 15.6041 4.75911 15.6041C4.75911 15.4374 4.94661 15.3124 4.84245 15.2083ZM3.75913 14.7291C3.75913 14.7291 3.69663 14.6874 3.77996 14.5833C3.86329 14.4999 3.90496 14.5624 3.90496 14.5624C3.90496 14.5624 3.98829 14.7291 4.00912 14.8124C3.92579 14.8124 3.75913 14.7291 3.75913 14.7291ZM4.42579 15.2499C4.38412 15.2499 4.27995 15.3541 4.23829 15.2916L4.00912 15.0624L4.25912 14.8124L4.48829 15.0416C4.50912 15.1041 4.42579 15.2083 4.42579 15.2499Z" fill="black"/>
<path d="M4.90495 15.6251C4.88411 15.6251 4.86328 15.6251 4.84245 15.6459C4.82161 15.6668 4.82161 15.7084 4.82161 15.7501C4.82161 15.7918 4.86328 15.8334 4.90495 15.8751C4.92578 15.9376 4.98828 15.9584 5.02994 15.9584C5.05078 15.9584 5.07161 15.9584 5.09244 15.9376C5.13411 15.8959 5.11328 15.7709 5.05078 15.7084C5.00911 15.6668 4.94661 15.6251 4.90495 15.6251Z" fill="black"/>
<path d="M4.23764 14.9375L4.11264 15.0625C4.11264 15.0625 4.23764 15.2291 4.3418 15.1666C4.4043 15.0625 4.23764 14.9375 4.23764 14.9375Z" fill="black"/>
<path d="M16.4043 14.3124C16.4043 14.3541 16.2377 14.4374 16.1127 14.2083C15.9877 14.1874 15.8627 14.1458 15.7794 14.1041C15.9252 14.3958 16.0502 14.6458 16.2585 14.7708C16.571 14.9583 17.0502 14.9166 17.196 14.7083C16.9252 14.5624 16.6127 14.1874 16.446 13.8333C16.4043 13.9166 16.3418 14.0624 16.3002 14.1666C16.321 14.2083 16.3627 14.2708 16.4043 14.3124Z" fill="black"/>
<path d="M19.3001 9.75017C19.6334 9.60434 20.1126 9.271 20.3417 9.06267C20.3626 9.10434 20.4459 9.29184 20.1959 9.50017C20.0084 9.646 19.6334 9.8335 19.3626 9.93767C19.2376 10.1252 18.9876 10.3335 18.6543 10.5627C19.3209 10.4585 20.1126 10.1877 20.5084 9.81267C21.2376 9.0835 20.8626 8.2085 20.7584 8.00017C20.2792 8.60434 19.3626 9.22934 18.5084 9.56267C18.8001 9.60434 19.0918 9.66684 19.3001 9.75017Z" fill="black"/>
<path d="M18.7584 8.41693C19.1959 8.06276 19.6543 7.35443 19.7376 7.10443C19.8418 7.16693 19.8834 7.37526 19.7584 7.60443C19.5293 8.00026 19.1126 8.35443 18.7584 8.6461C18.7376 8.8961 18.6334 9.2086 18.5084 9.43776C19.0293 9.0836 19.6334 8.56276 19.9043 8.2086C20.2584 7.75026 20.4042 7.29193 20.3417 6.8336C20.3626 6.31276 19.9876 5.79193 19.8418 5.66693C19.7376 6.22943 19.1751 7.18776 18.6751 7.72943C18.7168 7.91693 18.7584 8.18776 18.7584 8.41693Z" fill="black"/>
<path d="M18.4257 11.7083C18.5299 11.8333 18.6341 11.9792 18.7174 12.1042C19.1132 12.1875 19.5924 12.1667 19.5924 12.1667C19.5924 12.1667 19.5716 12.375 19.3007 12.3958C19.1757 12.3958 18.8007 12.3333 18.6549 12.2917C18.5924 12.3125 18.3008 12.3958 18.0091 12.4375C18.4257 12.5833 19.0299 12.7292 19.4049 12.7292C19.4466 12.7292 19.4674 12.7292 19.5091 12.7292C20.1132 12.6667 20.4257 12.1042 20.4466 11.7917C20.2591 11.8333 19.9466 11.8542 19.6341 11.8542C19.3424 11.8542 18.8216 11.8333 18.4257 11.7083Z" fill="black"/>
<path d="M20.9462 10.1252C20.4046 10.4169 19.4462 10.7085 18.6754 10.7085C18.8629 10.8335 19.0504 10.9585 19.1754 11.0835C19.4879 11.0627 19.9254 10.9585 20.1754 10.8752C20.1754 10.9169 20.1754 11.1252 19.8837 11.2085C19.6754 11.271 19.3837 11.271 19.1546 11.271C18.9671 11.396 18.6962 11.5002 18.4671 11.5835C18.6754 11.6044 18.9462 11.6252 19.1754 11.6252C19.5712 11.6252 19.9462 11.5835 20.1754 11.5002C20.3837 11.4377 21.0712 11.146 20.9462 10.1252Z" fill="black"/>
<path d="M18.0287 13C18.2579 13.1042 18.5079 13.1875 18.7162 13.2084C18.7162 13.2084 18.6745 13.4167 18.362 13.375C18.1745 13.3542 17.9662 13.2084 17.9246 13.1875C17.7787 13.2084 17.4871 13.2084 17.3829 13.1875C17.7371 13.4375 18.2787 13.7292 18.737 13.7709C18.7579 13.7709 18.7787 13.7709 18.7995 13.7709C19.2787 13.7709 19.6537 13.2917 19.7579 13.0625C19.2787 13.0625 18.4454 12.8542 17.9454 12.5834C17.9662 12.6667 18.0079 12.8334 18.0287 13Z" fill="black"/>
<path d="M17.1969 13.646C17.3219 13.7918 17.5302 13.8752 17.5302 13.8752C17.5302 13.8752 17.4677 13.9793 17.3427 13.9793C17.3011 13.9793 17.2594 13.9585 17.2177 13.9377C17.1344 13.896 17.0094 13.7502 17.0094 13.7502C16.8427 13.7293 16.6969 13.7085 16.5511 13.6668C16.8011 13.9793 17.2177 14.3752 17.6761 14.4793C17.7386 14.5002 17.8011 14.5002 17.8844 14.5002C18.2802 14.5002 18.6136 14.2085 18.6969 14.021C18.2386 13.9585 17.5719 13.6043 17.2386 13.271C17.2386 13.396 17.2177 13.5418 17.1969 13.646Z" fill="black"/>
<path d="M14.2172 18.75C14.4464 18.75 14.5922 18.6667 14.6964 18.4375C14.3839 18.5833 14.0506 18.5 13.4256 18.3125C13.4256 18.3125 13.1964 18.4167 13.0506 18.4375C13.4256 18.5417 13.9672 18.7292 14.0506 18.9375C14.0922 19.1042 13.9881 19.1458 13.9881 19.1458C13.7797 18.8958 13.5297 18.75 12.9881 18.5833C12.9881 18.6875 12.9672 18.75 12.9672 18.75C12.9672 18.75 12.8631 18.7708 12.6131 18.7292C12.8214 18.8958 13.3214 19.3333 13.3839 19.7917C13.4256 20.1042 13.1964 20.125 13.1964 20.125C13.1756 19.6458 12.9672 19.3542 12.5089 18.875C12.5089 18.875 12.4256 18.9792 12.3423 19.0417C12.3423 19.0417 12.1756 19.0208 12.0506 18.9167C12.1131 19.5417 12.1339 21.0417 12.0923 21.2708C12.0714 21.4375 11.9673 21.5208 11.9673 21.5208C11.9673 21.5208 11.8631 21.4583 11.8423 21.2708C11.8006 21.0208 11.8423 19.5208 11.8839 18.9167C11.7381 19 11.5923 19.0417 11.5923 19.0417C11.4881 18.9792 11.4256 18.875 11.4256 18.875C10.9881 19.3542 10.7798 19.6667 10.7381 20.125C10.7381 20.125 10.5298 20.1042 10.5506 19.7917C10.6131 19.3333 11.1131 18.8958 11.3214 18.7292C11.0923 18.7708 10.9673 18.75 10.9673 18.75C10.9673 18.75 10.9464 18.6875 10.9464 18.5833C10.4048 18.75 10.1756 18.8958 9.94645 19.1458C9.94645 19.1458 9.84228 19.125 9.88395 18.9375C9.96728 18.7292 10.5089 18.5625 10.8839 18.4375C10.7589 18.4167 10.5089 18.3125 10.5089 18.3125C9.90478 18.5 9.55062 18.5833 9.23812 18.4375C9.32146 18.6667 9.48812 18.75 9.71728 18.75C9.42562 18.8542 9.15479 19.1458 9.07146 19.4375C9.27979 20.2083 9.94645 20.4375 9.94645 20.4375C9.77978 20.0625 9.84228 19.3333 10.8423 18.8333C10.2381 19.4375 9.98811 20 10.1548 20.5208C10.3006 21 10.8006 21.1875 11.1548 21.2083C10.9048 20.4167 11.0089 19.6875 11.5506 19.125C11.3214 19.75 10.9881 21.6875 11.9256 22C12.8631 21.6875 12.5297 19.75 12.3006 19.125C12.8422 19.7083 12.9464 20.4167 12.6964 21.2083C13.0714 21.2083 13.5506 21 13.6964 20.5208C13.8631 20 13.6339 19.4375 13.0089 18.8333C14.0089 19.3333 14.0714 20.0833 13.9047 20.4375C13.9047 20.4375 14.5714 20.2083 14.7797 19.4375C14.7797 19.1458 14.4881 18.875 14.2172 18.75Z" fill="black"/>
<path d="M7.75919 14.7708C7.96752 14.6458 8.09251 14.3958 8.23835 14.1041C8.15501 14.1458 8.03002 14.1874 7.90502 14.2083C7.78002 14.4374 7.61335 14.3541 7.61335 14.3124C7.65502 14.2708 7.69669 14.2083 7.71752 14.1666C7.67585 14.0624 7.61335 13.9166 7.57169 13.8333C7.40502 14.2083 7.0717 14.5624 6.8217 14.7083C6.96753 14.9166 7.44669 14.9583 7.75919 14.7708Z" fill="black"/>
<path d="M5.34218 10.5627C4.98802 10.3335 4.75885 10.1252 4.63385 9.9377C4.34219 9.83353 3.9672 9.64603 3.80053 9.5002C3.55054 9.29187 3.63387 9.10437 3.6547 9.0627C3.86303 9.29187 4.34219 9.60437 4.69635 9.7502C4.90468 9.66687 5.19635 9.60437 5.48801 9.5627C4.63385 9.2502 3.7172 8.60437 3.23804 8.02103C3.13387 8.20853 2.73805 9.10437 3.48804 9.83353C3.86303 10.1877 4.67552 10.4585 5.34218 10.5627Z" fill="black"/>
<path d="M5.48794 9.41673C5.36294 9.18756 5.25877 8.89589 5.23794 8.62506C4.88378 8.35423 4.48795 8.00006 4.23795 7.58339C4.11295 7.35422 4.15462 7.14589 4.25879 7.08339C4.34212 7.33339 4.80045 8.04173 5.23794 8.39589C5.23794 8.16673 5.27961 7.89589 5.34211 7.70839C4.84211 7.16673 4.25879 6.20839 4.17545 5.64589C4.02962 5.77089 3.65463 6.29172 3.67546 6.81256C3.61296 7.27089 3.75879 7.72923 4.11295 8.18756C4.36295 8.54173 4.96711 9.08339 5.48794 9.41673Z" fill="black"/>
<path d="M5.28017 12.1042C5.34267 11.9792 5.46767 11.8334 5.57183 11.7084C5.176 11.8125 4.65518 11.8334 4.38435 11.8334C4.05102 11.8334 3.73852 11.8125 3.57186 11.7709C3.59269 12.1042 3.90519 12.6667 4.50934 12.7084C4.55101 12.7084 4.57184 12.7084 4.61351 12.7084C4.98851 12.7084 5.59266 12.5625 6.00933 12.4167C5.71766 12.375 5.426 12.3125 5.3635 12.2709C5.19684 12.3542 4.82184 12.4167 4.69684 12.3959C4.42601 12.375 4.40518 12.1667 4.40518 12.1667C4.40518 12.1667 4.88434 12.1875 5.28017 12.1042Z" fill="black"/>
<path d="M3.82105 11.521C4.05022 11.6043 4.40438 11.646 4.82104 11.646C5.07104 11.646 5.32103 11.6252 5.52936 11.6043C5.3002 11.521 5.02937 11.4168 4.84187 11.2918C4.61271 11.2918 4.30021 11.271 4.11271 11.2293C3.82105 11.146 3.82105 10.9377 3.82105 10.896C4.07105 11.0002 4.50854 11.1043 4.82104 11.1043C4.94604 11.0002 5.1127 10.8543 5.32103 10.7293C4.57104 10.7293 3.59189 10.4377 3.05023 10.146C2.92523 11.146 3.61272 11.4377 3.82105 11.521Z" fill="black"/>
<path d="M5.21783 13.7501C5.23866 13.7501 5.25949 13.7501 5.28033 13.7501C5.73865 13.7085 6.28031 13.4168 6.63448 13.1668C6.53031 13.1876 6.21781 13.1876 6.09282 13.1668C6.05115 13.2085 5.82199 13.3335 5.65532 13.3543C5.32199 13.396 5.30116 13.1876 5.30116 13.1876C5.50949 13.1668 5.75949 13.0835 5.98865 12.9793C6.00948 12.8126 6.05115 12.646 6.09282 12.5418C5.57199 12.8335 4.73867 13.0418 4.25951 13.0418C4.36367 13.271 4.73867 13.7501 5.21783 13.7501Z" fill="black"/>
<path d="M6.11343 14.5002C6.17593 14.5002 6.25926 14.5002 6.32176 14.4793C6.75925 14.3752 7.19675 13.9793 7.44675 13.6668C7.30091 13.7085 7.15508 13.7502 6.98842 13.7502C6.98842 13.7502 6.88425 13.8752 6.78009 13.9377C6.73842 13.9585 6.69675 13.9793 6.65509 13.9793C6.53009 13.9793 6.46759 13.8752 6.46759 13.8752C6.46759 13.8752 6.67592 13.771 6.80092 13.646C6.78009 13.5418 6.75925 13.396 6.75925 13.271C6.40509 13.6252 5.75927 13.9585 5.30094 14.021C5.38427 14.2085 5.69677 14.5002 6.11343 14.5002Z" fill="black"/>
<path d="M11.8219 3.10435C11.8219 3.20851 11.9052 3.27101 11.9886 3.27101C12.0719 3.27101 12.1552 3.18768 12.1552 3.10435C12.1552 3.00018 12.0719 2.93768 11.9886 2.93768C11.9052 2.91685 11.8219 3.00018 11.8219 3.10435Z" fill="black"/>
<path d="M11.8842 2.72917H12.1133L12.0925 2.4375L12.3425 2.47917V2.25L12.0925 2.27083L12.1133 2H11.8842L11.905 2.27083L11.655 2.25V2.47917L11.905 2.4375L11.8842 2.72917Z" fill="black"/>
<path d="M11.0716 5.47916C11.0924 5.47916 11.1341 5.49999 11.1549 5.49999H12.8215C12.8632 5.49999 12.884 5.49999 12.9049 5.47916C12.9674 5.45833 12.9882 5.41666 13.009 5.35416H10.9674C10.9882 5.43749 11.0299 5.45833 11.0716 5.47916Z" fill="black"/>
<path d="M12.9049 5.22926C12.9257 5.22926 12.9257 5.20842 12.9257 5.20842V5.08342C12.9257 5.06259 12.9049 5.06259 12.9049 5.06259H11.0924C11.0715 5.06259 11.0715 5.08342 11.0715 5.08342V5.20842C11.0715 5.22926 11.0924 5.22926 11.0924 5.22926H12.9049Z" fill="black"/>
<path d="M13.0927 4.91682C13.1344 4.85432 13.3635 4.41682 13.3635 3.95849C13.3635 3.54182 12.8427 3.31266 12.5511 3.31266C12.5094 3.89599 12.2802 4.81266 11.9886 4.81266C11.7177 4.81266 11.4677 3.89599 11.4261 3.31266C11.1136 3.31266 10.6136 3.54182 10.6136 3.95849C10.6136 4.41682 10.8427 4.87516 10.8844 4.91682H13.0927Z" fill="black"/>
<path d="M11.9873 4.52064C12.1331 4.52064 12.2998 4.08313 12.3623 3.64563C12.3623 3.5623 12.2164 3.4373 11.9873 3.41647C11.7581 3.41647 11.6123 3.54147 11.6123 3.64563C11.6748 4.04147 11.8623 4.52064 11.9873 4.52064Z" fill="black"/>
<path d="M14.6346 11.3542C14.6346 11.2917 14.593 11.25 14.5305 11.25H9.46803C9.40553 11.25 9.36386 11.2917 9.36386 11.3542V14.875C9.36386 14.875 9.36386 15.0625 9.44719 15.2709C9.55136 15.5209 9.98885 15.9375 10.5305 16.2292C11.3013 16.625 11.7597 16.9375 11.9888 17.125C12.218 16.9375 12.6763 16.625 13.4471 16.2292C14.0096 15.9375 14.4263 15.5209 14.5305 15.2709C14.6346 15.0417 14.6138 14.875 14.6138 14.875L14.6346 11.3542ZM12.9263 12.625V12.6459C12.9888 12.8959 13.0513 13.1667 13.0721 13.4167C13.2805 13.5834 13.468 13.75 13.6346 13.9167C13.9471 13.5625 14.1138 13.2292 14.1138 12.9584C13.968 12.9584 13.843 12.8334 13.843 12.6875C13.843 12.625 13.8638 12.5834 13.8846 12.5417C13.7388 12.4792 13.5721 12.4584 13.4263 12.4584C13.3013 12.4584 13.1763 12.4792 13.0305 12.5H13.0096L12.968 12.5209L12.9888 12.5C13.0096 12.4584 13.0096 12.4375 13.0305 12.3959C13.4471 12.3125 13.7805 12.3542 13.9888 12.4792C14.0305 12.4584 14.0721 12.4375 14.1138 12.4375C14.2596 12.4375 14.3846 12.5625 14.3846 12.7084C14.3846 12.8125 14.3221 12.8959 14.2388 12.9375C14.2388 13.2292 14.0721 13.6042 13.718 14.0209C13.7388 14.0417 13.7596 14.0625 13.7805 14.0834C13.8013 14.1042 13.8013 14.1042 13.8221 14.125V14.1459C13.8013 14.1667 13.7805 14.1875 13.7596 14.2084H13.7388C13.7388 14.2084 13.7388 14.2084 13.718 14.2084C13.6971 14.1875 13.6971 14.1875 13.6971 14.1667C13.6763 14.1459 13.6763 14.125 13.6555 14.1042C13.6138 14.1459 13.5721 14.1875 13.5305 14.2292L13.4888 14.2917C13.4263 14.3334 13.3638 14.3542 13.3221 14.3334H13.3013L13.3221 14.3125C13.4263 14.2292 13.5096 14.125 13.593 14.0625C13.468 13.9167 13.3013 13.7709 13.1346 13.625C13.1555 13.7709 13.1555 13.9167 13.1555 14.0625C13.1555 14.1875 13.1555 14.3334 13.1346 14.4792C13.1138 14.5 13.0721 14.5209 13.0513 14.5417L13.0305 14.5625V14.5417C13.0513 14.375 13.0513 14.2084 13.0513 14.0625C13.0513 14.0209 13.0513 13.9584 13.0513 13.9167V13.875C13.0513 13.7709 13.0305 13.4792 13.0096 13.2917C12.9888 13.125 12.9471 12.9584 12.9055 12.7917V12.7709C12.9263 12.75 12.9471 12.7292 12.968 12.7084L12.9263 12.625ZM11.218 12.25C11.4263 11.75 11.718 11.4792 12.0097 11.4792C12.3013 11.4792 12.593 11.75 12.8013 12.25V12.2709H12.7805C12.7597 12.2709 12.7388 12.2917 12.6972 12.3125H12.6763V12.2917C12.4888 11.8542 12.2388 11.6042 11.9888 11.6042C11.7388 11.6042 11.4888 11.8542 11.3013 12.2917V12.3125H11.2805C11.2597 12.2709 11.218 12.2709 11.218 12.25ZM11.1347 12.375C11.1972 12.4167 11.3847 12.5209 11.593 12.4584C11.7805 12.3959 11.9888 12.3959 11.9888 12.3959C11.9888 12.3959 12.218 12.3959 12.3847 12.4584C12.593 12.5209 12.7805 12.4167 12.843 12.375C12.8638 12.375 12.8638 12.375 12.8638 12.3959C12.843 12.4792 12.7805 12.6875 12.468 12.7709C12.1763 12.8334 12.0305 13.1667 11.9888 13.3125C11.9888 13.3334 11.968 13.3334 11.9472 13.3125C11.9055 13.1667 11.7597 12.8334 11.468 12.7709C11.1555 12.7084 11.093 12.4792 11.0722 12.3959C11.1138 12.375 11.1347 12.375 11.1347 12.375ZM11.6347 13.2084C11.6763 13.2084 11.7388 13.1875 11.7805 13.1667C11.8013 13.2084 11.8222 13.2709 11.843 13.3125C11.7805 13.3542 11.718 13.375 11.6347 13.375C11.4055 13.375 11.2388 13.1875 11.2388 12.9792C11.2388 12.9167 11.2597 12.875 11.2805 12.8334C11.3222 12.8542 11.3638 12.875 11.4263 12.8959C11.4055 12.9167 11.4055 12.9584 11.4055 12.9792C11.3847 13.1042 11.5097 13.2084 11.6347 13.2084ZM11.5305 12.9584C11.5305 12.9375 11.5305 12.9375 11.5305 12.9167C11.593 12.9375 11.6555 13 11.6972 13.0417C11.6763 13.0625 11.6555 13.0625 11.6347 13.0625C11.5722 13.0625 11.5305 13.0209 11.5305 12.9584ZM11.6347 13.5C11.718 13.5 11.8222 13.4792 11.9055 13.4167C11.9263 13.4375 11.968 13.5209 11.9888 13.5209C12.0305 13.5209 12.0513 13.4375 12.0722 13.4167C12.1555 13.4584 12.2597 13.5 12.343 13.5C12.4888 13.5 12.6138 13.4375 12.718 13.3542C12.718 13.3542 12.718 13.3542 12.718 13.375C12.7597 13.5417 12.7805 13.75 12.7597 13.8334C12.7597 13.9167 12.718 14 12.6972 14.0834C12.6555 14.1875 12.6347 14.2709 12.6347 14.2709C12.6347 14.2709 12.6347 14.2917 12.6138 14.3334C12.593 14.4167 12.5305 14.5625 12.4472 14.7084C12.2805 14.6042 12.1138 14.5625 11.9055 14.5625C11.718 14.5625 11.5513 14.6042 11.4055 14.6875C11.343 14.5417 11.2805 14.4167 11.2597 14.3542C11.2388 14.3125 11.2388 14.2917 11.2388 14.2917C11.2388 14.2917 11.1972 14.2084 11.1555 14.0834C11.1347 14.0209 11.1138 13.9375 11.1138 13.8542C11.1138 13.7917 11.093 13.5834 11.1555 13.3959C11.1555 13.375 11.1763 13.3542 11.1763 13.3334C11.3222 13.4167 11.4888 13.5 11.6347 13.5ZM12.3638 13.2084C12.5097 13.2084 12.6138 13.1042 12.6138 12.9584C12.6138 12.9167 12.6138 12.8959 12.593 12.875C12.6347 12.8542 12.6972 12.8334 12.7388 12.8125C12.7597 12.8542 12.7805 12.9167 12.7805 12.9584C12.7805 13.1875 12.593 13.3542 12.3847 13.3542C12.3013 13.3542 12.2388 13.3334 12.1763 13.2917C12.1972 13.25 12.218 13.2084 12.2388 13.1459C12.2597 13.1875 12.3222 13.2084 12.3638 13.2084ZM12.3013 13.0417C12.343 12.9792 12.4055 12.9375 12.468 12.9167C12.468 12.9375 12.468 12.9375 12.468 12.9584C12.468 13.0209 12.4263 13.0625 12.3638 13.0625C12.343 13.0625 12.3222 13.0625 12.3013 13.0417ZM9.88469 12.4584C9.94719 12.4584 9.98885 12.4792 10.0305 12.5C10.1764 12.4167 10.343 12.375 10.5722 12.375C10.6972 12.375 10.8222 12.3959 10.968 12.4167H10.9888C10.9888 12.4375 11.0097 12.4792 11.0305 12.5209L11.0513 12.5417L11.0097 12.5209C10.9888 12.5209 10.9888 12.5209 10.968 12.5209C10.843 12.5 10.718 12.4792 10.593 12.4792C10.4472 12.4792 10.2597 12.5 10.1347 12.5834C10.1555 12.625 10.1764 12.6667 10.1764 12.7292C10.1764 12.875 10.0514 13 9.90552 13C9.90552 13.25 10.0722 13.5834 10.3847 13.9584C10.5513 13.7917 10.7388 13.6042 10.9472 13.4584C10.968 13.2084 11.0305 12.9375 11.093 12.6875V12.6667L11.1138 12.6875C11.1347 12.7084 11.1555 12.7292 11.1763 12.75C11.1763 12.75 11.1763 12.75 11.1972 12.7709V12.7917C11.1555 12.9584 11.1138 13.1042 11.093 13.2709V13.2917C11.0722 13.4167 11.0513 13.5834 11.0513 13.75C11.0513 13.875 11.0305 13.9792 11.0305 14.0625C11.0305 14.1875 11.0305 14.3125 11.0513 14.4792V14.5H11.0305C10.9888 14.4792 10.968 14.4792 10.9472 14.4792H10.9263V14.4584C10.9263 14.3542 10.9055 14.2084 10.9055 14.0625C10.9055 13.9167 10.9055 13.7709 10.9263 13.625C10.7597 13.7709 10.593 13.9167 10.468 14.0625C10.5722 14.1875 10.718 14.3125 10.8847 14.4584L10.9055 14.4792H10.8847C10.843 14.5 10.7805 14.5 10.7388 14.4792C10.6138 14.3542 10.5097 14.2709 10.4055 14.1667C10.3847 14.1875 10.3638 14.2084 10.3638 14.2292L10.343 14.25C10.3222 14.25 10.3014 14.2709 10.2597 14.2917L10.2389 14.2709C10.2389 14.2709 10.218 14.2709 10.218 14.25H10.1972V14.2292C10.2389 14.1667 10.2805 14.125 10.3222 14.0834C9.96802 13.6875 9.80136 13.3125 9.80136 13.0209C9.71802 12.9792 9.65552 12.8959 9.65552 12.7917C9.61386 12.5834 9.73886 12.4584 9.88469 12.4584ZM12.843 15.6875C12.6972 16.1042 12.4888 16.3959 12.2597 16.5209C12.2388 16.6459 12.1347 16.75 12.0097 16.75C11.8847 16.75 11.7805 16.6459 11.7597 16.5209C11.5305 16.3959 11.3222 16.125 11.1763 15.7084V15.6875L11.3013 15.6459V15.6667C11.4263 16.0209 11.593 16.2709 11.7805 16.3959C11.8222 16.2917 11.9055 16.2084 12.0305 16.2084C12.1555 16.2084 12.2388 16.2917 12.2805 16.375C12.468 16.25 12.6347 16 12.7597 15.6667V15.6459H12.7805C12.7805 15.6667 12.8013 15.6667 12.843 15.6875ZM11.7805 15.6667C11.7805 15.5834 11.8013 15.3542 11.843 15.2709C11.8847 15.25 11.9472 15.2292 12.0097 15.2292C12.0722 15.2292 12.1347 15.25 12.1972 15.2917C12.218 15.375 12.2597 15.5834 12.2597 15.6667C12.2597 15.75 12.0513 15.8125 12.0305 15.8334C11.968 15.8125 11.7805 15.7709 11.7805 15.6667ZM14.4471 14.8334C14.4263 14.8542 14.4055 14.875 14.3846 14.875C14.3638 14.875 14.343 14.8959 14.3013 14.8959H14.2805C14.2388 14.8959 14.1971 14.8959 14.1763 14.875C14.1555 14.875 14.1555 14.8542 14.1346 14.8542C14.0721 14.8542 13.9263 14.8959 13.8846 14.9167C13.9055 14.9167 14.093 14.9375 14.218 15.0417C14.2805 15.0834 14.4055 15.1042 14.4471 15.1042C14.4471 15.125 14.2388 15.2709 13.843 15.1875L13.7388 15.1667C13.5513 15.125 13.3846 15.1042 13.1971 15.1042C13.218 15.1042 13.2388 15.125 13.2388 15.125C13.2805 15.1459 13.343 15.1667 13.3846 15.1875C13.3846 15.1875 13.4055 15.1875 13.4055 15.2084H13.4263C13.4471 15.2084 13.468 15.2084 13.468 15.2292C13.4888 15.2292 13.5096 15.25 13.5305 15.25C13.5513 15.2709 13.593 15.2917 13.593 15.3125C13.593 15.3334 13.6138 15.3334 13.6138 15.3542C13.6138 15.3959 13.6138 15.4167 13.593 15.4584C13.5305 15.5417 13.4471 15.5417 13.3638 15.4584L13.343 15.4375C13.3221 15.4167 13.3013 15.3959 13.2805 15.3542V15.3334C13.2805 15.3334 13.2805 15.3334 13.2596 15.3334C13.218 15.3125 13.1971 15.2709 13.1555 15.2709C13.093 15.25 13.0096 15.2292 12.9471 15.2084C12.9263 15.2084 12.9055 15.2084 12.8846 15.2084C12.9471 15.25 13.0096 15.2917 13.0305 15.3334C13.0305 15.3334 13.0305 15.3334 13.0305 15.3542C13.0721 15.4167 13.0721 15.4792 13.093 15.5417C13.1555 15.6667 13.1763 15.6875 13.2388 15.7292C13.1763 15.75 12.8638 15.75 12.718 15.5209C12.718 15.5209 12.6972 15.5 12.6972 15.4792C12.6555 15.3959 12.6347 15.3125 12.6138 15.25C12.593 15.1875 12.6347 15.125 12.593 15.1042C12.5513 15.0834 12.5305 15.1042 12.5305 15.1042C12.5097 15.125 12.5097 15.125 12.5097 15.125V15.1459C12.5097 15.1667 12.4888 15.1667 12.4888 15.1667V15.1875C12.4888 15.1875 12.4888 15.2084 12.468 15.2084C12.468 15.2084 12.468 15.2084 12.4472 15.2084C12.4263 15.2084 12.4263 15.2084 12.4055 15.2084C12.4055 15.2084 12.4055 15.2084 12.3847 15.2084C12.3847 15.2084 12.3638 15.2084 12.3638 15.2292C12.343 15.2292 12.3222 15.25 12.3013 15.25C12.2805 15.25 12.2597 15.2292 12.2597 15.2084C12.2597 15.1875 12.2597 15.1875 12.2597 15.1667C12.2388 15.1667 12.2388 15.1667 12.218 15.1667C12.1972 15.1667 12.1972 15.1667 12.1763 15.1459C12.1763 15.125 12.1763 15.1042 12.1763 15.1042C12.1763 15.0834 12.1763 15.0834 12.1763 15.0834C12.1555 15.1042 12.1555 15.1042 12.1347 15.1042C12.1138 15.1042 12.1138 15.1042 12.093 15.1042C12.0722 15.1042 12.0722 15.0834 12.0722 15.0625V15.0417C12.0722 15.0417 12.0722 15.0417 12.0722 15.0209C12.0722 15.0209 12.0722 15.0209 12.0513 15.0209H12.0305C12.0097 15.0209 11.968 15 11.9472 15C11.9472 15 11.9472 15 11.9263 15C11.9055 15 11.8638 15.0209 11.843 15.0209H11.8013C11.8013 15.0209 11.8013 15.0209 11.8013 15C11.8013 15 11.8013 15 11.8013 14.9792L11.8222 14.9584C11.8222 14.9584 11.8222 14.9584 11.8222 14.9375C11.8013 14.9375 11.8013 14.9375 11.7805 14.9375V14.9584C11.7805 14.9584 11.7805 14.9584 11.7597 14.9584V15C11.7597 15.0209 11.7597 15.0417 11.7388 15.0417C11.718 15.0625 11.718 15.0625 11.6972 15.0417C11.6972 15.0417 11.6763 15.0417 11.6763 15.0209C11.6763 15.0209 11.6555 15.0209 11.6555 15C11.6555 15 11.6555 15.0209 11.6763 15.0209C11.6763 15.0417 11.6763 15.0417 11.6763 15.0625C11.6555 15.0834 11.6555 15.0834 11.6347 15.0834H11.593C11.593 15.1042 11.6138 15.1042 11.593 15.125C11.593 15.1459 11.5722 15.1459 11.5513 15.1459C11.5305 15.1459 11.5305 15.1459 11.5097 15.1459C11.5097 15.1459 11.5097 15.1459 11.4888 15.1459H11.468L11.4472 15.125C11.4472 15.125 11.4263 15.125 11.4055 15.125C11.4055 15.125 11.3847 15.125 11.3847 15.1042L11.3638 15.0834V15.0625C11.3222 15.0209 11.2597 15.1667 11.2597 15.1667C11.0722 15.5625 10.6138 15.6459 10.6138 15.625C10.6138 15.625 10.718 15.5834 10.7597 15.4375C10.7805 15.3542 10.7805 15.3334 10.8222 15.25C10.8222 15.2292 10.843 15.2292 10.843 15.2084C10.8638 15.1667 10.9263 15.1459 10.968 15.1042C10.9472 15.1042 10.9263 15.1042 10.9055 15.1042C10.843 15.125 10.7805 15.125 10.6972 15.1667C10.6555 15.1875 10.6347 15.2084 10.593 15.2292C10.593 15.2292 10.593 15.2292 10.5722 15.2292V15.25C10.5722 15.2709 10.5513 15.2917 10.5305 15.3334L10.5097 15.3542C10.4263 15.4375 10.3638 15.4375 10.2805 15.3542L10.2597 15.3334C10.2389 15.3125 10.2389 15.2709 10.2597 15.25C10.2597 15.2292 10.2805 15.2084 10.3014 15.1875C10.3222 15.1667 10.343 15.1667 10.3638 15.1459C10.3847 15.125 10.4055 15.125 10.4263 15.125C10.4472 15.125 10.4472 15.125 10.468 15.1042C10.468 15.1042 10.4888 15.1042 10.5097 15.1042C10.5097 15.1042 10.5097 15.0834 10.5305 15.0834C10.5513 15.0834 10.5722 15.0625 10.593 15.0625C10.6138 15.0625 10.6347 15.0417 10.6555 15.0417C10.6555 15.0417 10.6763 15.0417 10.6972 15.0209C10.5305 15.0209 10.3638 15.0417 10.1764 15.0834C10.1555 15.0834 10.1139 15.1042 10.0722 15.1042C9.86386 15.1459 9.46803 15.0417 9.46803 15.0209C9.46803 15 9.57219 15 9.67636 14.9375C9.75969 14.8959 9.80136 14.8542 9.86386 14.8334C9.96802 14.9167 10.093 14.9167 10.1139 14.9167C10.0722 14.8959 9.88469 14.875 9.82219 14.8542C9.82219 14.8542 9.80136 14.875 9.78052 14.875C9.73886 14.8959 9.69719 14.8959 9.65552 14.8959C9.63469 14.8959 9.59303 14.8959 9.57219 14.875C9.55136 14.875 9.53053 14.8542 9.50969 14.8334C9.48886 14.8125 9.48886 14.7917 9.48886 14.7292C9.50969 14.6459 9.59303 14.6042 9.69719 14.625C9.75969 14.6459 9.80136 14.6667 9.82219 14.6875L9.84302 14.7084C9.90552 14.7084 9.98885 14.75 10.0722 14.7709C10.1555 14.8125 10.218 14.8334 10.2597 14.8334C10.2389 14.8334 10.218 14.8125 10.1972 14.8125C10.1764 14.8125 10.1555 14.7917 10.1555 14.7917C10.1347 14.7709 10.1139 14.7709 10.093 14.75C9.96802 14.6875 9.84302 14.625 9.75969 14.5417C9.69719 14.4584 9.67636 14.4167 9.65552 14.3334C9.63469 14.1459 9.55136 14.0625 9.55136 14.0417C9.57219 14.0209 9.86386 14.1667 9.96802 14.2709C10.0305 14.3542 10.0514 14.4167 10.0722 14.4792V14.5C10.093 14.5625 10.1555 14.625 10.2597 14.6875C10.2805 14.6875 10.2805 14.7084 10.3014 14.7084C10.2805 14.6667 10.2597 14.6459 10.2389 14.6042V14.5834L10.218 14.5625C10.218 14.5625 10.1972 14.5417 10.1972 14.5209C10.1764 14.5 10.1764 14.4792 10.1555 14.4584C10.1347 14.3959 10.1347 14.3334 10.1555 14.3125C10.1764 14.2917 10.1972 14.2709 10.2389 14.25C10.3222 14.2292 10.3847 14.2709 10.4055 14.3959C10.4055 14.4167 10.4055 14.4375 10.4055 14.4584C10.4055 14.4792 10.4055 14.5 10.4055 14.5209V14.5417C10.4055 14.5417 10.4055 14.5417 10.4055 14.5625C10.4472 14.6875 10.5513 14.7917 10.6763 14.875C10.5305 14.75 10.4472 14.4584 10.468 14.4584C10.4888 14.4375 10.6138 14.5209 10.7388 14.5834C10.8013 14.6042 10.8638 14.6459 10.9263 14.6875C10.968 14.7084 11.0097 14.75 11.0305 14.7709C11.0722 14.7917 11.093 14.8334 11.1138 14.8542C11.1347 14.875 11.1555 14.8959 11.1763 14.9167C11.1972 14.9375 11.1972 14.9375 11.218 14.9584C11.2597 14.9792 11.3222 14.9584 11.3222 14.9584C11.343 14.9584 11.3638 14.9584 11.3847 14.9375C11.3847 14.9375 11.3847 14.9375 11.4055 14.9167C11.4263 14.8959 11.4472 14.8959 11.468 14.8959V14.875C11.468 14.8334 11.4888 14.8125 11.5305 14.7917C11.5305 14.7917 11.5513 14.7917 11.5513 14.7709H11.6138C11.6138 14.75 11.6347 14.75 11.6555 14.7292C11.6972 14.7084 11.7597 14.7084 11.8013 14.75C11.8222 14.7709 11.8222 14.7917 11.843 14.8125V14.8334C11.843 14.8542 11.843 14.8542 11.843 14.875C11.843 14.8959 11.843 14.8959 11.843 14.9167C11.8638 14.9167 11.9055 14.9167 11.9263 14.9167C11.9472 14.9167 11.9472 14.9167 11.968 14.9167C11.9888 14.9167 12.0097 14.9167 12.0305 14.9375C12.0513 14.9375 12.0722 14.9167 12.093 14.9167C12.1138 14.9167 12.1138 14.9167 12.1347 14.9167H12.1555C12.1555 14.8959 12.1555 14.875 12.1555 14.8542C12.1555 14.8334 12.1555 14.8125 12.1763 14.7917C12.1763 14.7917 12.1763 14.7709 12.1972 14.7709L12.218 14.75C12.2597 14.7292 12.3013 14.7292 12.343 14.75C12.3638 14.75 12.3638 14.7709 12.3847 14.7917C12.4055 14.7917 12.4055 14.7917 12.4263 14.7917H12.468C12.5097 14.8125 12.5305 14.8334 12.5305 14.875C12.5305 14.875 12.5305 14.875 12.5513 14.875H12.5722C12.5722 14.875 12.6763 14.875 12.6972 14.8959H12.8013C12.8222 14.875 12.8222 14.875 12.843 14.8542C12.8638 14.8334 12.9055 14.7917 12.9263 14.7709C12.968 14.75 12.9888 14.7084 13.0305 14.6875C13.093 14.6459 13.1763 14.625 13.2388 14.6042C13.4471 14.5209 13.468 14.3959 13.4888 14.3959C13.5096 14.4167 13.4471 14.75 13.3013 14.875C13.4055 14.7917 13.5096 14.6875 13.5721 14.5625C13.5721 14.5625 13.5721 14.5625 13.5721 14.5417V14.5209C13.5721 14.5 13.5721 14.4792 13.5721 14.4584C13.5721 14.4375 13.5721 14.4167 13.5721 14.3959C13.6138 14.2917 13.6555 14.2292 13.7388 14.25C13.7805 14.2709 13.8013 14.2917 13.8221 14.3125C13.843 14.3542 13.843 14.3959 13.8221 14.4584C13.8221 14.4792 13.8013 14.5 13.7805 14.5209C13.7596 14.5417 13.7596 14.5417 13.7388 14.5625L13.718 14.5834V14.6042C13.6971 14.6459 13.6763 14.6667 13.6346 14.7084C13.6555 14.6875 13.6555 14.6875 13.6763 14.6667C13.7805 14.5834 13.843 14.5209 13.8638 14.4584C13.8846 14.3959 13.9055 14.3334 13.968 14.25C14.0721 14.1459 14.093 14.1042 14.1971 14.0417C14.218 14.0209 14.3638 14 14.3846 14C14.4055 14.0209 14.2805 14.0625 14.2388 14.2709C14.218 14.3334 14.1971 14.4375 14.1346 14.5209C14.0513 14.625 13.968 14.6459 13.8638 14.7084L13.843 14.7292C13.8221 14.75 13.8013 14.75 13.7596 14.7709C13.718 14.7917 13.6971 14.8125 13.6763 14.8125C13.7388 14.7917 13.8013 14.7709 13.8846 14.75C13.9471 14.7084 14.0305 14.6875 14.1138 14.6875C14.1138 14.6875 14.1138 14.6667 14.1346 14.6667C14.1555 14.6459 14.1971 14.625 14.2596 14.6042C14.3638 14.5625 14.4471 14.6042 14.468 14.7084C14.4888 14.7709 14.468 14.8125 14.4471 14.8334Z" fill="black"/>
<path d="M18.0928 10.646C18.4053 10.5002 18.9261 10.146 19.1345 9.89601C18.8428 9.79184 18.2595 9.72934 17.9261 9.72934C18.6136 9.25017 18.6345 8.25017 18.447 7.521C18.2803 8.10434 17.8636 8.5835 17.5928 8.87517C17.6136 9.16684 17.5303 9.66684 17.3636 9.95851C17.5928 10.0418 17.8636 10.1668 18.0511 10.3127C17.9261 10.4793 17.6553 10.7085 17.4886 10.8543C17.6345 11.0002 17.8636 11.271 17.9886 11.4377C17.822 11.5627 17.4886 11.6877 17.3011 11.7502C17.3845 11.9377 17.5095 12.2502 17.5511 12.4793C17.3428 12.521 17.072 12.5418 16.7803 12.5418C16.8012 12.7502 16.7595 13.0835 16.7178 13.2918C16.447 13.271 16.1345 13.1668 15.9887 13.0835C15.9053 13.3752 15.7178 13.6668 15.7178 13.6877C15.4678 13.396 15.2178 13.2918 14.9887 13.2918V13.1043C15.2178 13.1043 15.4678 13.1877 15.6553 13.3752C15.7387 13.2293 15.822 12.9585 15.8637 12.7918C16.0303 12.8752 16.3012 12.9793 16.5303 13.021C16.5512 12.8127 16.572 12.5418 16.5512 12.3335C16.7803 12.3543 17.0303 12.3543 17.3011 12.3127C17.2595 12.1252 17.0928 11.8127 16.9886 11.646C17.2178 11.5835 17.5095 11.4585 17.6553 11.3752C17.5303 11.2085 17.322 10.9793 17.1761 10.8335C17.3428 10.7085 17.6136 10.5002 17.7178 10.3752C17.5303 10.2502 17.2803 10.1252 17.072 10.0418C17.3636 9.646 17.4261 8.8335 17.3636 8.4585C17.1136 9.31267 16.3637 9.93767 15.9053 10.2293C15.8845 10.2502 15.8637 10.271 15.8428 10.271C15.822 10.2918 15.7387 10.396 15.7803 10.521C15.7803 10.5627 15.8012 10.5835 15.8012 10.6252C15.8428 10.7918 15.8428 11.0418 15.5928 11.271C15.3845 11.4585 15.1345 11.4793 14.9887 11.4585V11.0002C14.9887 10.9377 14.947 10.896 14.8845 10.896H14.572L14.4262 10.7502C14.4262 10.7502 14.572 10.7502 14.7387 10.7502C14.9053 10.7293 15.0928 10.646 15.0928 10.646C15.0928 10.646 14.9053 10.646 14.822 10.6252C14.7178 10.646 14.4887 10.5418 14.3012 10.3335C14.2387 10.2502 14.1762 10.1668 14.1345 10.0835C13.9679 9.93767 13.7804 9.75017 13.6554 9.47934C13.572 9.29184 13.5304 9.02101 13.5095 8.85434C13.447 8.896 13.3845 8.97934 13.3012 9.0835C13.1554 9.27101 13.0929 9.54184 13.0929 9.54184L13.0304 9.75017L12.9262 9.56267C12.9262 9.56267 12.7804 9.31267 12.7595 9.00017C12.7595 8.85434 12.7595 8.72934 12.7804 8.62517C12.7387 8.646 12.6762 8.68767 12.6137 8.72934C12.3637 8.91684 12.2179 9.10434 12.2179 9.10434C12.0929 9.271 12.0095 9.41684 11.9887 9.47934C11.9679 9.39601 11.8846 9.271 11.7596 9.10434C11.7596 9.10434 11.6346 8.896 11.3637 8.72934C11.3012 8.68767 11.2387 8.646 11.1971 8.62517C11.2179 8.72934 11.2179 8.87517 11.2179 9.00017C11.1971 9.31267 11.0512 9.54184 11.0512 9.56267L10.9471 9.72934L10.8846 9.521C10.8846 9.521 10.8012 9.25017 10.6762 9.06267C10.5929 8.95851 10.5304 8.87517 10.4679 8.8335C10.4471 9.00017 10.4054 9.29184 10.3221 9.4585C10.1971 9.72934 10.0304 9.93767 9.84291 10.0627C9.80124 10.146 9.73875 10.2293 9.67625 10.3127C9.48875 10.521 9.25959 10.6252 9.15542 10.646C9.07209 10.6668 8.88459 10.6668 8.88459 10.6668C8.88459 10.6668 9.07209 10.7502 9.23875 10.771C9.40542 10.7918 9.55125 10.771 9.55125 10.771L9.40542 10.9168H9.09292C9.03042 10.9168 8.98876 10.9585 8.98876 11.021V11.4793C8.84292 11.5002 8.57209 11.4793 8.3846 11.2918C8.15543 11.0627 8.1346 10.8127 8.17627 10.646C8.1971 10.6252 8.1971 10.5835 8.1971 10.5418C8.23876 10.4168 8.15543 10.3127 8.1346 10.2918C8.11377 10.271 8.09293 10.2502 8.0721 10.2502C7.61377 9.9585 6.88462 9.33351 6.61379 8.47934C6.55129 8.85434 6.63462 9.64601 6.90545 10.0627C6.69712 10.146 6.42629 10.271 6.25962 10.396C6.36379 10.521 6.63462 10.7502 6.80128 10.8543C6.65545 10.9793 6.42629 11.2293 6.32212 11.396C6.46796 11.4793 6.75962 11.6043 6.98878 11.6668C6.88462 11.8335 6.71795 12.146 6.67629 12.3335C6.92628 12.3752 7.19711 12.3752 7.42628 12.3543C7.40544 12.5627 7.42628 12.8543 7.44711 13.0418C7.67627 13.0002 7.9471 12.9168 8.11377 12.8127C8.15543 12.9585 8.23877 13.2502 8.3221 13.396C8.50959 13.2085 8.75959 13.1252 8.98876 13.1252V13.3127C8.75959 13.3127 8.50959 13.4168 8.2596 13.7085C8.2596 13.6877 8.0721 13.396 7.98877 13.1043C7.84294 13.1668 7.53044 13.2918 7.25961 13.3127C7.21794 13.1043 7.19711 12.771 7.19711 12.5627C6.90545 12.5627 6.63462 12.5418 6.42629 12.5002C6.46796 12.271 6.59295 11.9585 6.67629 11.771C6.48879 11.7085 6.15546 11.5627 5.98879 11.4585C6.09296 11.2918 6.34296 11.021 6.48879 10.8752C6.32212 10.7502 6.05129 10.5002 5.9263 10.3335C6.11379 10.1877 6.38462 10.0627 6.61379 9.97934C6.44712 9.66684 6.36379 9.16684 6.38462 8.896C6.09296 8.60434 5.6763 8.12517 5.53047 7.54184C5.32214 8.271 5.3638 9.29184 6.05129 9.75017C5.71796 9.75017 5.13464 9.83351 4.84298 9.91684C5.05131 10.1668 5.57213 10.5002 5.88463 10.6668C5.63463 10.7502 5.19714 11.0002 5.00964 11.1668C5.2388 11.3127 5.75963 11.4793 6.00963 11.5418C5.8638 11.6668 5.57213 12.0002 5.46797 12.1668C5.6763 12.2293 6.09296 12.2918 6.36379 12.2918C6.28046 12.4793 6.17629 12.7918 6.15546 12.9793C6.28046 13.0002 6.71795 12.9793 6.94712 12.9168C6.92628 13.1043 6.92628 13.4168 6.96795 13.5627C7.17628 13.5418 7.48877 13.4377 7.63461 13.396C7.67627 13.5627 7.8221 13.896 7.8846 13.9793C7.98877 13.9585 8.09293 13.9377 8.1971 13.896C8.48876 13.7918 8.80126 13.9168 8.92626 14.1877C9.13459 14.6668 9.05125 15.2293 8.65543 15.1252C8.1971 15.2085 8.50959 15.7918 8.23876 15.9793C8.59293 16.2293 8.69709 15.646 9.15542 15.7502C9.11375 15.9585 9.11375 16.3543 9.15542 16.521C9.30125 16.4168 9.50958 16.3335 9.63458 16.3127C9.59291 16.4377 9.57208 16.7293 9.61375 16.9168C9.69708 16.8543 10.3012 16.6877 10.3012 16.6877C10.3012 16.6877 10.0721 17.146 10.2179 17.6043C10.3012 17.6668 10.8429 17.396 10.8429 17.2502C10.8637 17.4377 10.6346 17.8543 10.2804 17.9377C10.6554 18.3127 10.9887 18.2918 11.0304 18.2918C11.0929 18.2918 11.1346 18.2918 11.1762 18.2502C11.1554 18.3543 11.1346 18.5002 11.1554 18.5835C11.1762 18.5835 11.1971 18.5835 11.2179 18.5835C11.3221 18.5835 11.4054 18.5627 11.4679 18.5418C11.4887 18.646 11.5304 18.7502 11.5929 18.8335C11.6137 18.8543 11.6137 18.8543 11.6346 18.8752C11.7179 18.8752 11.9262 18.771 11.9679 18.7085C12.0095 18.771 12.2179 18.8752 12.3012 18.8752C12.322 18.8543 12.3429 18.8543 12.3429 18.8335C12.4262 18.7502 12.4679 18.6252 12.4679 18.5418C12.5512 18.5835 12.6345 18.5835 12.7179 18.5835C12.7387 18.5835 12.7595 18.5835 12.7804 18.5835C12.8012 18.5002 12.8012 18.3543 12.7595 18.2502C12.8012 18.271 12.8637 18.2918 12.9054 18.2918C12.947 18.2918 13.2804 18.3127 13.6554 17.9377C13.3012 17.8543 13.072 17.4377 13.0929 17.2502C13.0929 17.4168 13.6345 17.6668 13.7179 17.6043C13.8637 17.146 13.6345 16.6877 13.6345 16.6877C13.6345 16.6877 14.2179 16.8335 14.322 16.9168C14.3637 16.7293 14.3429 16.4377 14.3012 16.3127C14.4262 16.3127 14.6345 16.4168 14.7803 16.521C14.822 16.3543 14.822 15.9793 14.7803 15.7502C15.2178 15.646 15.322 16.2293 15.697 15.9793C15.447 15.7918 15.7595 15.2085 15.2803 15.1252C14.8845 15.2502 14.8012 14.6668 15.0095 14.1877C15.1345 13.9168 15.4678 13.7918 15.7387 13.896C15.8428 13.9377 15.947 13.9585 16.0512 13.9793C16.0928 13.896 16.2595 13.5627 16.3012 13.396C16.447 13.4585 16.7595 13.5418 16.9678 13.5627C16.9886 13.4168 17.0095 13.1043 16.9886 12.9168C17.197 12.9585 17.6553 12.9793 17.7803 12.9793C17.7595 12.771 17.6553 12.4585 17.572 12.2918C17.8428 12.271 18.2595 12.2293 18.4678 12.1668C18.3636 11.9793 18.072 11.646 17.9261 11.5418C18.1761 11.4793 18.697 11.3127 18.9261 11.1668C18.7803 10.9793 18.3428 10.7293 18.0928 10.646ZM14.7178 15.3335C14.697 15.3752 14.6762 15.396 14.6553 15.4377C14.6553 15.4585 14.6345 15.4585 14.6345 15.4793C14.6137 15.5002 14.5928 15.521 14.572 15.5627C14.5512 15.5835 14.5512 15.5835 14.5303 15.6043C14.5095 15.646 14.4678 15.6668 14.447 15.7085C14.4262 15.7293 14.4054 15.7502 14.3845 15.771C14.3637 15.7918 14.3429 15.8127 14.322 15.8335C14.3012 15.8543 14.2804 15.8752 14.2387 15.9168C14.2179 15.9377 14.2179 15.9377 14.197 15.9585C14.1345 16.021 14.0512 16.0835 13.9679 16.1252C13.8637 16.2085 13.7595 16.271 13.6345 16.3335C13.5929 16.3543 13.5512 16.3752 13.5095 16.396C12.572 16.8752 12.1137 17.2502 11.9679 17.3543H11.947C11.8012 17.2293 11.3429 16.8752 10.4054 16.396C10.3637 16.3752 10.3221 16.3543 10.2804 16.3335C10.1554 16.271 10.0512 16.2085 9.94708 16.1252C9.86374 16.0627 9.80124 16.0002 9.71791 15.9585C9.69708 15.9377 9.67625 15.9377 9.67625 15.9168C9.65541 15.896 9.61375 15.8752 9.59291 15.8335C9.57208 15.8127 9.55125 15.7918 9.53041 15.771C9.50958 15.7502 9.48875 15.7293 9.46792 15.7085C9.42625 15.6668 9.40542 15.646 9.38458 15.6043C9.36375 15.5835 9.36375 15.5835 9.34292 15.5627C9.32208 15.5418 9.30125 15.521 9.28042 15.4793C9.28042 15.4585 9.25959 15.4585 9.25959 15.4377C9.23875 15.396 9.21792 15.3752 9.19709 15.3335C9.07209 15.0627 9.09292 14.8335 9.09292 14.8335V11.1877C9.09292 11.1252 9.13459 11.0835 9.19709 11.0835H14.697C14.7595 11.0835 14.8012 11.1252 14.8012 11.1877V14.8335C14.822 14.8335 14.8428 15.0627 14.7178 15.3335Z" fill="black"/>
<path d="M14.5919 5.33339C14.6752 5.33339 14.7169 5.27089 14.7169 5.18756C14.7169 5.10423 14.6544 5.04173 14.5919 5.04173C14.5085 5.04173 14.4669 5.10423 14.4669 5.18756C14.4669 5.27089 14.5294 5.33339 14.5919 5.33339Z" fill="black"/>
<path d="M14.5921 6.10427C14.6755 6.10427 14.7588 5.75011 14.7588 5.58344C14.7588 5.47927 14.6755 5.41677 14.5921 5.41677C14.5088 5.41677 14.4255 5.47927 14.4255 5.58344C14.4255 5.75011 14.5088 6.10427 14.5921 6.10427Z" fill="black"/>
<path d="M14.5083 4.83329H14.6958L14.6541 4.60413L14.8833 4.62496V4.43746L14.6541 4.47913L14.6958 4.24996H14.5083L14.5291 4.47913L14.3 4.43746V4.62496L14.5291 4.60413L14.5083 4.83329Z" fill="black"/>
<path d="M13.7798 6.52105C13.8423 6.54188 13.9048 6.54188 13.9673 6.56271H14.009C14.0298 6.56271 14.0298 6.56271 14.0298 6.56271H14.0715C14.0923 6.56271 14.1132 6.56271 14.134 6.56271C14.1548 6.56271 14.1548 6.56271 14.1757 6.56271C14.1965 6.56271 14.2173 6.56271 14.2382 6.56271C14.4048 6.56271 14.5715 6.52105 14.7382 6.47938C14.9048 6.43771 15.0715 6.39605 15.259 6.39605H15.384C15.4257 6.20855 15.4882 6.00021 15.4882 5.87521C15.4882 5.62521 15.3423 5.35438 14.8632 5.27104C14.8632 5.58354 14.7173 6.31271 14.5507 6.31271H14.5298C14.3632 6.31271 14.2173 5.58354 14.2173 5.27104C13.7382 5.35438 13.5923 5.62521 13.5923 5.87521C13.5923 6.02105 13.6548 6.29188 13.7173 6.47938C13.7798 6.50021 13.7798 6.50021 13.7798 6.52105Z" fill="black"/>
<path d="M16.2797 5.20866C16.2797 5.20866 16.1547 4.87532 16.363 4.77116C16.5922 4.68782 16.2797 4.72949 16.4463 4.27116C16.6338 3.72949 17.0505 3.85449 17.0505 3.85449C16.7588 3.62532 16.5297 3.64616 16.363 3.77116C16.2588 3.85449 16.113 4.02116 16.0088 4.35449C15.9255 4.77116 16.0713 5.16699 16.2797 5.20866Z" fill="black"/>
<path d="M17.3636 4.39578C17.3844 5.08328 18.5302 5.37495 18.5302 5.37495C18.5302 5.37495 17.8636 4.89578 17.9886 4.54161C17.9886 4.54161 18.4261 4.72911 18.9261 4.64578C17.8636 4.41661 18.2177 4.08328 17.9469 3.81245C17.6761 3.52078 17.2594 3.49995 17.1552 3.47911C16.8844 3.45828 16.8636 3.45828 16.5511 3.54161C17.2802 3.56245 17.3636 3.93745 17.3636 4.39578Z" fill="black"/>
<path d="M17.2166 5.68741C17.3624 5.14575 17.0916 4.89575 17.0916 4.89575C17.0083 4.79158 16.5708 4.81241 16.4041 4.91658C16.4041 4.91658 16.8208 4.91658 16.7583 5.52075C16.6958 6.12491 15.8625 6.24991 15.6333 6.27075L15.6125 6.35408C16.0083 6.35408 17.0499 6.22908 17.2166 5.68741Z" fill="black"/>
<path d="M12.8634 5.66693H12.4468C12.6551 6.25026 13.2593 6.43776 13.6551 6.50026L13.6343 6.43776C13.2176 6.27109 13.0093 6.10443 12.8634 5.66693Z" fill="black"/>
<path d="M9.40478 5.33339C9.48811 5.33339 9.52978 5.27089 9.52978 5.18756C9.52978 5.10423 9.46728 5.04173 9.40478 5.04173C9.32144 5.04173 9.27978 5.10423 9.27978 5.18756C9.25895 5.27089 9.32144 5.33339 9.40478 5.33339Z" fill="black"/>
<path d="M9.40502 6.10425C9.48835 6.10425 9.57169 5.75008 9.57169 5.58341C9.57169 5.47925 9.48835 5.41675 9.40502 5.41675C9.32169 5.41675 9.23836 5.47925 9.23836 5.58341C9.23836 5.75008 9.30086 6.10425 9.40502 6.10425Z" fill="black"/>
<path d="M9.30035 4.83329H9.48785L9.46701 4.60413L9.69618 4.62496V4.43746L9.46701 4.47913L9.48785 4.24996H9.30035L9.34201 4.47913L9.11285 4.43746V4.62496L9.34201 4.60413L9.30035 4.83329Z" fill="black"/>
<path d="M8.57101 6.39595H8.65435C8.67518 6.39595 8.67518 6.39595 8.67518 6.39595H8.69601C8.88351 6.41679 9.07101 6.43762 9.21684 6.47929C9.36267 6.52095 9.55017 6.56262 9.71683 6.56262C9.73767 6.56262 9.7585 6.56262 9.77933 6.56262C9.80017 6.56262 9.80017 6.56262 9.821 6.56262C9.84183 6.56262 9.86266 6.56262 9.8835 6.56262H9.98766C10.0502 6.56262 10.1127 6.54179 10.1752 6.52095C10.1752 6.50012 10.1752 6.50012 10.196 6.50012C10.2585 6.31262 10.321 6.04179 10.321 5.89595C10.321 5.64595 10.196 5.37512 9.696 5.29179C9.696 5.58345 9.55017 6.33345 9.3835 6.33345H9.36267C9.19601 6.33345 9.05017 5.60429 9.05017 5.29179C8.57101 5.37512 8.42518 5.64595 8.42518 5.89595C8.42518 6.02095 8.46685 6.22929 8.52935 6.41679C8.55018 6.39595 8.55018 6.39595 8.57101 6.39595Z" fill="black"/>
<path d="M6.92584 3.85424C6.92584 3.85424 7.3425 3.72924 7.53 4.27091C7.69666 4.72924 7.38417 4.68757 7.61333 4.77091C7.8425 4.85424 7.69666 5.20841 7.69666 5.20841C7.92583 5.16674 8.07166 4.77091 7.94666 4.33341C7.8425 4.00007 7.69666 3.83341 7.5925 3.75007C7.42583 3.64591 7.2175 3.62507 6.92584 3.85424Z" fill="black"/>
<path d="M5.98822 4.54156C6.11322 4.89572 5.44656 5.37489 5.44656 5.37489C5.44656 5.37489 6.61321 5.08322 6.61321 4.39572C6.63405 3.93739 6.69654 3.56239 7.40487 3.54156C7.09237 3.47905 7.07154 3.47905 6.80071 3.47905C6.69654 3.47905 6.27988 3.52072 6.00905 3.81239C5.75906 4.08322 6.09239 4.41656 5.0299 4.64572C5.55073 4.72906 5.98822 4.54156 5.98822 4.54156Z" fill="black"/>
<path d="M7.2377 5.52105C7.1752 4.91689 7.59186 4.91689 7.59186 4.91689C7.44603 4.81272 7.00853 4.81272 6.90437 4.89605C6.90437 4.89605 6.63354 5.12522 6.77937 5.68772C6.9252 6.22939 7.98769 6.35439 8.38351 6.35439L8.36268 6.27105C8.13352 6.25022 7.30019 6.12522 7.2377 5.52105Z" fill="black"/>
<path d="M11.5509 5.66693H11.1342C10.9884 6.10443 10.78 6.27109 10.3634 6.43776L10.3425 6.50026C10.7592 6.43776 11.3425 6.25026 11.5509 5.66693Z" fill="black"/>
<path d="M12.5296 8.22923C12.4046 8.41673 12.3005 8.62506 12.2171 8.8334C12.2796 8.75006 12.3838 8.66673 12.488 8.5834C12.6754 8.4584 12.8421 8.37506 12.8421 8.37506L13.0088 8.31256L12.9671 8.47923C12.9671 8.47923 12.9046 8.75006 12.9254 8.97923C12.9254 9.0834 12.9671 9.18756 12.9879 9.25006C13.0296 9.1459 13.0921 9.04173 13.1546 8.93756C13.3629 8.66673 13.5296 8.56256 13.5296 8.56256L13.6546 8.50006V8.6459C13.6546 8.6459 13.6963 9.12506 13.8004 9.37506C13.9879 9.79173 14.3421 10.0209 14.5504 10.1251C14.5296 10.1042 14.4879 10.0626 14.4463 10.0209C14.3421 9.91673 14.2379 9.72923 14.1754 9.3334C14.1338 9.00006 14.2588 8.66673 14.3004 8.56256C14.3213 8.6459 14.3629 8.72923 14.4046 8.75006C14.4046 8.75006 14.4046 8.66673 14.4254 8.5834C14.4671 8.35423 14.7171 8.00006 15.0504 7.79173C15.1129 7.75006 15.1754 7.7084 15.2171 7.68756C15.2796 7.66673 15.3212 7.62506 15.3629 7.5834C15.3004 7.5834 15.2171 7.60423 15.1546 7.60423H15.1337C15.0921 7.60423 15.0296 7.60423 14.9463 7.60423C14.7796 7.60423 14.5921 7.5834 14.4463 7.4584C14.3004 7.3334 14.2379 7.2084 14.2171 7.12506C14.1546 7.12506 14.0713 7.12506 13.9671 7.12506C13.8421 7.12506 13.7379 7.0834 13.6754 7.0834C13.5088 7.18756 13.3421 7.22923 13.1338 7.25006C13.1129 7.25006 13.0713 7.25006 13.0504 7.25006C13.1129 7.31256 13.1963 7.35423 13.2588 7.3959C13.2588 7.3959 13.2588 7.3959 13.2796 7.3959L13.2379 7.41673C13.2588 7.3959 12.9671 7.56256 12.5296 8.22923Z" fill="black"/>
<path d="M15.2595 7.06253C15.1762 7.06253 15.1137 7.06253 15.0303 7.06253C15.0303 7.1042 15.0303 7.14587 15.0303 7.18753C15.0512 7.25003 15.072 7.2917 15.1137 7.33337C15.1762 7.2917 15.2387 7.18753 15.2595 7.06253Z" fill="black"/>
<path d="M15.4257 6.58361C15.4049 6.58361 15.4049 6.58361 15.4257 6.58361H15.4049C15.4049 6.58361 15.4049 6.58361 15.3841 6.58361C15.3632 6.58361 15.3632 6.58361 15.3424 6.58361C15.1757 6.58361 15.0091 6.62528 14.8424 6.66695C14.6757 6.70861 14.4882 6.75028 14.3216 6.75028C14.2799 6.75028 14.2591 6.75028 14.2174 6.75028C14.1966 6.75028 14.1757 6.75028 14.1549 6.75028C14.1341 6.75028 14.1341 6.75028 14.1132 6.75028C14.0924 6.75028 14.0924 6.75028 14.0716 6.75028C14.0716 6.75028 14.0716 6.75028 14.0507 6.75028C14.0507 6.75028 14.0507 6.75028 14.0299 6.75028C13.6549 6.70861 13.4049 6.58361 13.2799 6.52111C13.3007 6.56278 13.3424 6.60445 13.4049 6.66695C13.4257 6.68778 13.4466 6.70861 13.4674 6.72945C13.5091 6.77111 13.5716 6.81278 13.6341 6.85445C13.7174 6.89611 14.0716 7.04195 14.5299 6.97945C15.0507 6.89611 15.1549 6.91695 15.2799 6.91695H15.3216C15.5091 6.93778 15.7799 7.04195 15.884 7.10445C15.9257 7.00028 15.9882 6.89611 16.009 6.79195C15.9882 6.77111 15.9465 6.72945 15.8632 6.68778C15.8424 6.66695 15.8215 6.66695 15.7799 6.64611C15.7382 6.62528 15.6757 6.60445 15.5924 6.60445C15.5091 6.58361 15.4674 6.58361 15.4257 6.58361Z" fill="black"/>
<path d="M16.8834 8.29182C16.8626 8.29182 16.6751 8.39599 16.2792 8.14599C15.8834 7.89599 15.5917 7.79182 15.4251 7.75016C15.3834 7.77099 15.3626 7.79182 15.3209 7.81266C15.2792 7.83349 15.2167 7.87516 15.1542 7.91682C15.1334 7.93766 15.1126 7.93766 15.0917 7.95849C15.0917 7.95849 15.1126 7.95849 15.1334 7.95849C15.5084 8.00016 15.8001 8.20849 15.8209 8.29182H15.8417C15.8834 8.16682 15.8209 8.06266 15.8209 8.06266C15.8209 8.06266 15.9876 8.16682 16.3209 8.35432C16.6751 8.58349 16.8209 8.37516 16.8834 8.29182Z" fill="black"/>
<path d="M14.9046 7.27088C14.8838 7.25005 14.863 7.20838 14.8421 7.18755C14.8213 7.14588 14.8213 7.12505 14.8213 7.10421C14.738 7.10421 14.6338 7.12505 14.5088 7.14588C14.488 7.14588 14.4463 7.14588 14.4255 7.14588C14.488 7.27088 14.5921 7.39588 14.8005 7.43755C14.8213 7.43755 14.8213 7.43755 14.8421 7.43755C14.863 7.43755 14.863 7.43755 14.8838 7.43755C14.9671 7.45838 15.0713 7.45838 15.1338 7.45838C15.2796 7.45838 15.4463 7.43755 15.613 7.39588C15.6546 7.35421 15.6755 7.29171 15.7171 7.25005C15.7171 7.25005 15.6963 7.22921 15.6755 7.22921C15.6338 7.20838 15.5296 7.14588 15.4671 7.12505C15.4463 7.18755 15.4046 7.25005 15.363 7.29171C15.3005 7.33338 15.2171 7.35421 15.1338 7.35421C15.0505 7.35421 14.9671 7.33338 14.9255 7.29171C14.9046 7.29171 14.9046 7.27088 14.9046 7.27088Z" fill="black"/>
<path d="M16.0088 6.95839C15.8838 7.29172 15.6755 7.54172 15.5297 7.66672C16.4672 7.41672 16.6338 7.89589 16.6338 7.91672C16.6338 7.93756 16.6338 7.93756 16.6547 7.91672C16.6755 7.89589 16.988 7.56256 16.7588 7.25006C16.5713 7.00006 16.1547 6.95839 16.0088 6.95839ZM16.0088 7.20839C16.0505 7.16672 16.0713 7.08339 16.0713 7.08339C16.1338 7.08339 16.2588 7.10422 16.2588 7.18756C16.1755 7.16672 16.0713 7.16672 16.0088 7.20839Z" fill="black"/>
<path d="M8.96683 7.18753C8.96683 7.14587 8.96683 7.1042 8.96683 7.06253C8.8835 7.06253 8.80017 7.06253 8.73767 7.06253C8.7585 7.18753 8.821 7.2917 8.8835 7.33337C8.92516 7.2917 8.946 7.25003 8.96683 7.18753Z" fill="black"/>
<path d="M10.0295 6.72944C10.0087 6.72944 10.0087 6.72944 10.0295 6.72944C10.0087 6.72944 10.0087 6.72944 10.0087 6.72944C10.0087 6.72944 10.0087 6.72944 9.98783 6.72944C9.967 6.72944 9.967 6.72944 9.94617 6.72944C9.92533 6.72944 9.92533 6.72944 9.9045 6.72944C9.88367 6.72944 9.86283 6.72944 9.842 6.72944C9.80033 6.72944 9.7795 6.72944 9.73783 6.72944C9.55034 6.72944 9.38367 6.68777 9.21701 6.6461C9.02951 6.62527 8.86285 6.5836 8.69618 6.5836C8.67535 6.5836 8.67535 6.5836 8.65452 6.5836C8.65452 6.5836 8.65452 6.5836 8.63368 6.5836C8.59202 6.5836 8.55035 6.5836 8.52952 6.5836C8.44618 6.5836 8.38369 6.60444 8.34202 6.62527C8.32119 6.6461 8.27952 6.6461 8.25869 6.66694C8.19619 6.7086 8.15452 6.72944 8.11286 6.7711C8.13369 6.87527 8.19619 7.00027 8.23785 7.0836C8.34202 7.0211 8.61285 6.8961 8.80035 6.8961H8.84201C8.96701 6.8961 9.07118 6.87527 9.592 6.9586C10.0503 7.0211 10.3837 6.87527 10.4878 6.8336C10.5503 6.79194 10.6128 6.75027 10.6545 6.7086C10.6753 6.68777 10.6962 6.66694 10.717 6.6461C10.7587 6.5836 10.8003 6.54194 10.842 6.50027C10.6545 6.56277 10.4045 6.68777 10.0295 6.72944Z" fill="black"/>
<path d="M7.11277 8.29171C7.17526 8.35421 7.3211 8.58338 7.65442 8.39588C7.98775 8.20838 8.15442 8.10421 8.15442 8.10421C8.15442 8.10421 8.09192 8.20838 8.13359 8.33338C8.13359 8.33338 8.13359 8.33338 8.15442 8.33338C8.19608 8.25005 8.48775 8.02088 8.84191 8.00005C8.86274 8.00005 8.86274 8.00005 8.88358 8.00005C8.86274 7.97921 8.84191 7.97921 8.82108 7.95838C8.75858 7.91671 8.69608 7.87505 8.65441 7.85421C8.61275 7.83338 8.59191 7.81255 8.55025 7.79171C8.38358 7.81255 8.09192 7.93755 7.69609 8.18755C7.3211 8.39588 7.1336 8.29171 7.11277 8.29171Z" fill="black"/>
<path d="M8.52968 7.12511C8.48801 7.14595 8.36301 7.20845 8.32134 7.22928C8.30051 7.22928 8.30051 7.25011 8.27968 7.25011C8.32135 7.31261 8.34218 7.35428 8.38384 7.39595C8.55051 7.43761 8.71717 7.45845 8.863 7.45845C8.94634 7.45845 9.02967 7.45845 9.113 7.43761C9.13383 7.43761 9.13383 7.43761 9.15467 7.43761C9.1755 7.43761 9.1755 7.43761 9.19633 7.43761C9.40466 7.39595 9.52966 7.25011 9.57133 7.14595C9.5505 7.14595 9.50883 7.14595 9.488 7.14595C9.363 7.12511 9.25883 7.10428 9.1755 7.10428C9.1755 7.12511 9.15467 7.16678 9.15467 7.18761C9.13383 7.22928 9.113 7.25011 9.09217 7.27095L9.07134 7.29178C9.00884 7.33345 8.94634 7.35428 8.863 7.35428C8.77967 7.35428 8.69634 7.33345 8.63384 7.29178C8.57134 7.25011 8.55051 7.18761 8.52968 7.12511Z" fill="black"/>
<path d="M7.21771 7.25006C6.98854 7.56256 7.30104 7.89589 7.32187 7.91672C7.34271 7.93756 7.34271 7.91672 7.34271 7.91672C7.34271 7.89589 7.50937 7.41672 8.44686 7.66672C8.30103 7.54172 8.0927 7.29172 7.9677 6.95839C7.8427 6.95839 7.40521 7.00006 7.21771 7.25006ZM7.98853 7.20839C7.92603 7.16672 7.82187 7.16672 7.73853 7.18756C7.73853 7.10422 7.86353 7.08339 7.92603 7.08339C7.92603 7.08339 7.94686 7.16672 7.98853 7.20839Z" fill="black"/>
<path d="M10.926 7.25006C10.9051 7.25006 10.8635 7.25006 10.8426 7.25006C10.6343 7.25006 10.4676 7.18756 10.301 7.0834C10.2385 7.10423 10.1135 7.12506 10.0093 7.12506C9.90515 7.12506 9.80098 7.12506 9.75931 7.12506C9.73848 7.2084 9.67598 7.35423 9.53015 7.4584C9.38432 7.5834 9.19682 7.60423 9.03016 7.60423C8.94683 7.60423 8.88433 7.60423 8.84266 7.60423H8.82183C8.78016 7.60423 8.69683 7.5834 8.6135 7.5834C8.676 7.62506 8.71766 7.6459 8.75933 7.68756C8.80099 7.7084 8.86349 7.75006 8.92599 7.79173C9.25932 8.0209 9.50932 8.35423 9.55098 8.5834C9.57182 8.66673 9.57182 8.75006 9.57182 8.75006C9.61348 8.72923 9.65515 8.6459 9.67598 8.56256C9.71765 8.66673 9.86348 9.00006 9.80098 9.3334C9.73848 9.72923 9.63432 9.91673 9.53015 10.0209C9.48849 10.0626 9.44682 10.1042 9.42599 10.1251C9.63432 10.0209 9.98848 9.79173 10.176 9.37506C10.2801 9.1459 10.3218 8.66673 10.3218 8.66673V8.5209L10.4468 8.5834C10.4468 8.5834 10.6343 8.68756 10.8218 8.9584C10.8843 9.06256 10.9468 9.16673 10.9885 9.2709C11.0093 9.18756 11.0301 9.10423 11.051 9.00006C11.0718 8.75006 11.0093 8.50006 11.0093 8.50006L10.9676 8.3334L11.1343 8.3959C11.1343 8.3959 11.301 8.4584 11.4885 8.60423C11.6135 8.68756 11.6968 8.7709 11.7593 8.85423C11.676 8.6459 11.5926 8.43756 11.4468 8.25006C11.0093 7.5834 10.7385 7.43756 10.7385 7.43756L10.6968 7.41673C10.6968 7.41673 10.6968 7.41673 10.7176 7.41673C10.7801 7.35423 10.8635 7.29173 10.926 7.25006Z" fill="black"/>
</svg>
