<svg width="24" height="24" viewBox="0 0 24 24" fill="none" xmlns="http://www.w3.org/2000/svg">
<path fill-rule="evenodd" clip-rule="evenodd" d="M18.5987 10.4241C18.5987 7.71687 16.9058 5.39618 14.4985 4.41854C14.485 3.08057 13.3714 2 11.9996 2C10.6415 2 9.53638 3.05907 9.50134 4.3785C7.04052 5.33164 5.30018 7.67918 5.30018 10.4241V12.02C5.30018 12.8625 5.29822 13.9837 5.0347 15.1154C4.77258 16.2411 4.26118 17.3326 3.27336 18.145C2.99699 18.3723 2.9535 18.7116 3.03994 18.9642C3.12766 19.2206 3.38268 19.477 3.76343 19.477H8.90367C9.17017 20.9119 10.4549 22 11.9996 22C13.5442 22 14.8289 20.9119 15.0954 19.477H20.2362C20.6366 19.477 20.8874 19.1971 20.9666 18.9418C21.0445 18.6905 20.9978 18.3417 20.7005 18.118C19.478 17.1982 18.9315 15.7065 18.7072 14.3538C18.6485 13.9998 18.6132 13.6628 18.593 13.3587H18.5987V10.4241ZM11.9996 3.21091C11.4564 3.21091 10.9934 3.54683 10.8162 4.01778C11.1845 3.95596 11.5631 3.92375 11.9494 3.92375C12.3733 3.92375 12.788 3.96253 13.1898 4.03665C13.018 3.55583 12.55 3.21091 11.9996 3.21091ZM10.1769 19.477C10.418 20.2371 11.1428 20.7891 11.9996 20.7891C12.8563 20.7891 13.5812 20.2371 13.8222 19.477H10.1769ZM6.53883 10.4241C6.53883 7.50282 8.96125 5.13466 11.9494 5.13466C14.9377 5.13466 17.3601 7.50282 17.3601 10.4241V11.864C17.3593 11.8729 17.3584 11.8835 17.3574 11.8957C17.3543 11.9343 17.3503 11.9894 17.3463 12.0591C17.3384 12.1986 17.3306 12.3973 17.3305 12.6414C17.3304 13.1282 17.3609 13.8017 17.4845 14.5475C17.5176 14.747 17.5577 14.9536 17.6062 15.1648H6.29074C6.42168 14.5341 6.48352 13.9167 6.51271 13.3587H6.53883V10.4241ZM5.9472 16.3757H17.9752C18.2306 17.0326 18.5866 17.6864 19.0826 18.2661H4.87753C5.36311 17.6769 5.70547 17.0296 5.9472 16.3757Z" fill="black"/>
<path d="M8.16223 10.8573C8.50427 10.8573 8.77755 10.5848 8.80866 10.2518C8.99063 8.30402 10.0854 7.24798 11.9886 7.06652C12.329 7.03406 12.6076 6.76719 12.6076 6.4328C12.6076 6.09842 12.3298 5.82437 11.9887 5.84928C9.22305 6.05127 7.75584 7.64003 7.56445 10.252C7.54001 10.5856 7.82018 10.8573 8.16223 10.8573Z" fill="black"/>
</svg>
