<svg width="24" height="24" viewBox="0 0 24 24" fill="none" xmlns="http://www.w3.org/2000/svg">
<path d="M4.88382 18.263C4.23366 17.5166 4.28139 16.3567 4.99043 15.6724L6.91905 13.8108C7.62809 13.1264 8.72994 13.1767 9.38011 13.923L9.64945 14.2322L5.15316 18.5721L4.88382 18.263Z" fill="black"/>
<path d="M15.5889 16.0346C19.0164 12.7263 20.4801 8.48061 19.0025 6.32611L18.2422 7.05997L18.2325 7.0486L15.2894 9.88932C15.4951 10.1255 15.7607 10.2696 16.0392 10.3194C15.6703 11.4836 14.8635 12.7632 13.7095 13.877C12.5472 14.9989 11.2563 15.7369 10.1166 16.0187C10.0908 15.7278 9.9778 15.4431 9.77576 15.2112L6.83269 18.0519L6.8426 18.0631L6.10523 18.7749C8.01657 20.5106 12.1614 19.3429 15.5889 16.0346Z" fill="black"/>
<path d="M14.2151 6.76849C13.5061 7.45288 13.4584 8.61272 14.1085 9.35908L14.3779 9.66828L18.8741 5.32836L18.6048 5.01917C17.9546 4.27281 16.8528 4.22257 16.1437 4.90695L14.2151 6.76849Z" fill="black"/>
</svg>
