<svg width="24" height="24" viewBox="0 0 24 24" fill="none" xmlns="http://www.w3.org/2000/svg">
<path d="M11.92 11.8171H5.05567V9.06692H11.92C12.321 9.06692 12.5998 9.13768 12.7397 9.26125C12.8796 9.38482 12.9663 9.614 12.9663 9.9488V10.9363C12.9663 11.2891 12.8796 11.5182 12.7397 11.6418C12.5998 11.7654 12.321 11.8182 11.92 11.8182V11.8171ZM12.3909 6.47408H2.14453V18.2353H5.05567V14.4089H10.4206L12.9663 18.2353H16.2262L13.4195 14.391C14.4542 14.2357 14.9189 13.9146 15.3021 13.3855C15.6853 12.8564 15.8774 12.0104 15.8774 10.8814V9.99949C15.8774 9.3299 15.8075 8.80076 15.6853 8.39521C15.5631 7.98964 15.3543 7.63689 15.0577 7.32005C14.7445 7.0201 14.3957 6.80887 13.977 6.66735C13.5583 6.54378 13.0352 6.47302 12.3909 6.47302V6.47408Z" fill="black"/>
<path d="M19.6228 6.47299C20.858 6.47299 21.8593 5.47167 21.8593 4.2365C21.8593 3.00131 20.858 2 19.6228 2C18.3876 2 17.3863 3.00131 17.3863 4.2365C17.3863 5.47167 18.3876 6.47299 19.6228 6.47299Z" fill="black"/>
</svg>
