<svg width="24" height="24" viewBox="0 0 24 24" fill="none" xmlns="http://www.w3.org/2000/svg">
<path fill-rule="evenodd" clip-rule="evenodd" d="M15.1536 16.8594C13.7963 17.8051 12.1463 18.3604 10.3695 18.3604C5.74759 18.3604 2 14.6127 2 9.99073C2 5.36874 5.74759 1.62109 10.3695 1.62109C14.9914 1.62109 18.739 5.36874 18.739 9.99073C18.739 12.0505 17.9846 13.9252 16.7506 15.383L21.6969 20.5418C21.852 20.704 21.9472 20.9014 21.9825 21.1068C22.0459 21.4505 21.9366 21.8163 21.6652 22.0763C21.235 22.4914 20.5476 22.4764 20.1316 22.0437L15.1853 16.8849C15.1783 16.877 15.1606 16.8682 15.1536 16.8594ZM16.6272 9.99073C16.6272 13.4475 13.828 16.2494 10.3695 16.2494C6.91453 16.2494 4.11177 13.4475 4.11177 9.99073C4.11177 6.53394 6.91453 3.73201 10.3695 3.73201C13.828 3.73201 16.6272 6.53394 16.6272 9.99073Z" fill="black"/>
</svg>
