<svg width="24" height="24" viewBox="0 0 24 24" fill="none" xmlns="http://www.w3.org/2000/svg">
<path d="M11.7 2.69077C11.8156 2.43097 12.1844 2.43097 12.3 2.69077L14.6795 8.03877C14.7273 8.14608 14.8287 8.2197 14.9455 8.23186L20.7745 8.83857C21.0576 8.86804 21.1717 9.21933 20.9598 9.40948L16.602 13.3202C16.5144 13.3988 16.4756 13.5182 16.5002 13.6332L17.7234 19.3549C17.7829 19.6331 17.4845 19.8502 17.2381 19.7079L12.1642 16.7775C12.0626 16.7188 11.9374 16.7188 11.8358 16.7775L6.76185 19.7079C6.5155 19.8502 6.21711 19.6331 6.27659 19.3549L7.49979 13.6332C7.52438 13.5182 7.48555 13.3988 7.39801 13.3202L3.04023 9.40948C2.82834 9.21933 2.94236 8.86804 3.22553 8.83857L9.05448 8.23186C9.17129 8.2197 9.27271 8.14608 9.32046 8.03877L11.7 2.69077Z" fill="black"/>
</svg>
