<svg width="24" height="24" viewBox="0 0 24 24" fill="none" xmlns="http://www.w3.org/2000/svg">
<path fill-rule="evenodd" clip-rule="evenodd" d="M4.64023 11.0454C9.21682 9.09073 12.2635 7.79188 13.7934 7.16175C18.1477 5.37423 19.063 5.06559 19.6514 5.05273C19.7822 5.05273 20.0699 5.07845 20.266 5.23277C20.4229 5.36137 20.4622 5.52855 20.4883 5.65715C20.5145 5.78575 20.5406 6.0558 20.5145 6.26156C20.2791 8.70493 19.2592 14.6333 18.7361 17.3596C18.5138 18.517 18.0823 18.9028 17.6639 18.9414C16.7486 19.0185 16.0555 18.3498 15.1795 17.784C13.7934 16.8966 13.0219 16.3437 11.6751 15.4692C10.1191 14.4661 11.1259 13.9132 12.0151 13.013C12.2504 12.7815 16.2648 9.18074 16.3432 8.85925C16.3563 8.82067 16.3563 8.66635 16.2648 8.58919C16.1732 8.51203 16.0425 8.53775 15.9379 8.56347C15.794 8.58919 13.5973 10.0295 9.32142 12.8715C8.69378 13.2959 8.13151 13.5017 7.62155 13.4888C7.05928 13.4759 5.98705 13.1802 5.17634 12.923C4.19564 12.6143 3.41109 12.4471 3.47647 11.907C3.51569 11.6241 3.90797 11.3412 4.64023 11.0454Z" fill="black"/>
</svg>
