<svg width="24" height="24" viewBox="0 0 24 24" fill="none" xmlns="http://www.w3.org/2000/svg">
<path fill-rule="evenodd" clip-rule="evenodd" d="M7.10019 18.6197C8.46942 19.6349 10.1646 20.2353 12 20.2353C13.8354 20.2353 15.5306 19.6349 16.8998 18.6197C15.4621 17.7771 13.7885 17.2941 12 17.2941C10.2115 17.2941 8.53787 17.7771 7.10019 18.6197ZM5.75959 17.374C4.51637 15.9316 3.76471 14.0536 3.76471 12C3.76471 7.45177 7.45177 3.76471 12 3.76471C16.5482 3.76471 20.2353 7.45177 20.2353 12C20.2353 14.0536 19.4836 15.9316 18.2404 17.374C16.444 16.2072 14.2999 15.5294 12 15.5294C9.70015 15.5294 7.55605 16.2072 5.75959 17.374ZM12 2C6.47715 2 2 6.47715 2 12C2 17.5228 6.47715 22 12 22C17.5228 22 22 17.5228 22 12C22 6.47715 17.5228 2 12 2ZM10.2353 10.2353C10.2353 11.2099 11.0254 12 12 12C12.9746 12 13.7647 11.2099 13.7647 10.2353C13.7647 9.26067 12.9746 8.47059 12 8.47059C11.0254 8.47059 10.2353 9.26067 10.2353 10.2353ZM12 6.70588C10.0508 6.70588 8.47059 8.28605 8.47059 10.2353C8.47059 12.1845 10.0508 13.7647 12 13.7647C13.9492 13.7647 15.5294 12.1845 15.5294 10.2353C15.5294 8.28605 13.9492 6.70588 12 6.70588Z" fill="black"/>
</svg>
